<svg enable-background="new 0 0 1920 1080" viewBox="0 0 1920 1080" xmlns="http://www.w3.org/2000/svg"><path d="m1142.8 494.6c-61.8 0-70.4 61.6-70.4 61.6h131.4c0 .1.7-61.6-61-61.6zm0 0c-61.8 0-70.4 61.6-70.4 61.6h131.4c0 .1.7-61.6-61-61.6zm-206.8-469.9c-282.2 0-511 228.8-511 511s228.8 511 511 511 511-228.8 511-511-228.8-511-511-511zm119.1 333.1h165v49.3h-165zm-83.4 258.4c0 122.1-127 118.1-127 118.1h-208.1v-400h208.1c63.2 0 113.2 34.9 113.2 106.5s-61 76.1-61 76.1c80.4 0 74.8 99.3 74.8 99.3zm308.7-6.5h-207.2c0 74.3 70.4 69.6 70.4 69.6 66.5 0 64.1-43 64.1-43h70.4c0 114.2-136.9 106.4-136.9 106.4-164.2 0-153.7-152.9-153.7-152.9s-.1-153.8 153.7-153.8c161.9 0 139.2 173.7 139.2 173.7zm-137.6-115.1c-61.8 0-70.4 61.6-70.4 61.6h131.4c0 .1.7-61.6-61-61.6zm-298.1 61.7h-116.4v106.9h111.1c16.7-.5 47.5-5.7 47.5-52 0-55.5-42.2-54.9-42.2-54.9zm28.3-109.3c0-41.6-28.3-41.6-28.3-41.6h-116.4v89.3h109.2c18.8-.1 35.5-6.1 35.5-47.7z" fill="#fff"/></svg>