<svg enable-background="new 0 0 1080 1080" viewBox="0 0 1080 1080" xmlns="http://www.w3.org/2000/svg"><circle cx="540" cy="540" fill="#fff" r="531"/><g fill="#f33"><path d="m499.28 520.43s63.42-4.71 63.42-79.09-51.89-110.66-117.62-110.66h-120.98-3.55-91.75v415.64h91.74 3.55 120.98s132.03 4.18 132.03-122.68c.01 0 5.77-103.21-77.82-103.21zm-175.18-115.87h105.42 15.57s29.4 0 29.4 43.24-17.3 49.51-36.9 49.51h-113.49zm115.4 267.89h-115.4v-111.08h120.98s43.82-.56 43.82 57.08c0 48.07-32.05 53.52-49.4 54z"/><path d="m663.79 355.16h171.49v51.19h-171.49z"/><path d="m753.2 436.43c-159.84 0-159.7 159.68-159.7 159.68s-10.96 158.89 159.7 158.89c0 0 142.23 8.13 142.23-110.54h-73.15s2.44 44.71-66.64 44.71c0 0-73.14 4.89-73.14-72.33h215.36c.01.01 23.57-180.41-144.66-180.41zm65.02 124.94h-136.53s8.93-64.07 73.14-64.07 63.39 64.07 63.39 64.07z"/></g></svg>