<svg enable-background="new 0 0 120 120" viewBox="0 0 120 120" xmlns="http://www.w3.org/2000/svg"><path d="m.2.3h119.9v119.9h-119.9z" fill="#0057ff"/><g fill="#fff"><path d="m82.4 62.7c-.9-5-3.9-8.3-8.8-9.6 1.4-1.1 3-2.1 4.1-3.5 2.5-2.9 3.2-6.4 2.8-10.2-.5-4.1-2.2-7.4-5.7-9.7-3.7-2.5-7.9-3.5-12.2-3.5-6.8-.1-13.6 0-20.4-.1-1.2 0-1.4.5-1.4 1.5v52.7c0 1.2.4 1.5 1.6 1.5 7 0 14.1 0 21.1-.1 2.3 0 4.6-.3 6.9-.8 10-2.2 13.5-9.7 12-18.2zm-29.9-20.4c0-2.1 0-4.1 0-6.2 0-.4.4-1 .7-1 3.7.1 7.3 0 11 .5 2.8.3 4.6 2.3 5 5.2.4 2.7.1 5.4-2.5 7-1.2.8-2.7 1.3-4.1 1.5-2.9.3-5.8.2-8.8.3-1.1 0-1.3-.4-1.2-1.3-.1-2-.1-4-.1-6zm18.5 25.5c-.6 3-3.2 5-6.5 5.2-3.6.1-7.3.1-10.9.3-1 0-1.2-.3-1.2-1.2.1-2.2 0-4.4 0-6.6s0-4.4 0-6.6c0-.9.3-1.2 1.2-1.2 3.7 0 7.4 0 11 .1 3.9.1 6.4 2.7 6.5 6.6.1 1.1.2 2.3-.1 3.4z"/><path d="m81.2 97.9c-13.4 0-26.7 0-40 0 0-2.9 0-5.6 0-8.5h40z"/></g></svg>