<svg viewBox="0 0 183.28 119.72" xmlns="http://www.w3.org/2000/svg"><g fill="#ff292a"><path d="m177.91 49.37a100.06 100.06 0 0 0 -172.54 0 94.3 94.3 0 0 0 -5.37 10.49 94.3 94.3 0 0 0 5.37 10.5 100.06 100.06 0 0 0 172.54 0 95.89 95.89 0 0 0 5.37-10.49 95.89 95.89 0 0 0 -5.37-10.5zm-86.27 61.52a91.21 91.21 0 0 1 -81.9-51 91.24 91.24 0 0 1 163.8 0 91.21 91.21 0 0 1 -81.9 51z"/><path d="m91.64 21.26a38.6 38.6 0 1 0 38.6 38.6 38.6 38.6 0 0 0 -38.6-38.6zm0 68.59a30 30 0 1 1 30-30 30 30 0 0 1 -30 30z"/></g></svg>