<svg enable-background="new 0 0 1920 1080" viewBox="0 0 1920 1080" xmlns="http://www.w3.org/2000/svg"><g fill="#ed1c24"><path d="m1027.8 506.8c0 2-.4 3.9-1 5.2s-1.5 2.1-2.4 2.1h-123.5c-1.9 0-3.4-3.3-3.4-7.3 0-2 .4-3.9 1-5.2s1.5-2.1 2.4-2.1h123.4c2 0 3.5 3.3 3.5 7.3z"/><path d="m1013.3 553.7c0 2-.3 3.9-.9 5.2-.5 1.3-1.3 2.1-2.2 2.1h-109.7c-1.7 0-3-3.3-3-7.3 0-2 .3-3.9.9-5.2.5-1.3 1.3-2.1 2.2-2.1h109.7c1.6 0 3 3.3 3 7.3z"/><path d="m959.5 429c-72.2 0-130.8 44.9-130.8 100.3 0 22.6 9.8 43.5 26.3 60.3l-25.8 62.9 80.5-30.5c15.4 4.9 32.2 7.5 49.9 7.5 72.2 0 130.8-44.9 130.8-100.3-.1-55.3-58.6-100.2-130.9-100.2zm0 187.7c-12.4 0-24.3-1.5-35.4-4.2-4.3-1-8.5-2.3-12.6-3.7l-9.9 3.9-52.6 20.9 18.4-41.7 3-6.9c-2.1-1.9-4.1-3.9-5.9-5.9-12.8-14-20.3-31-20.3-49.2 0-48 51.7-86.9 115.3-86.9s115.3 38.9 115.3 86.9-51.6 86.8-115.3 86.8z"/></g></svg>