<svg enable-background="new 0 0 100 100" viewBox="0 0 100 100" xmlns="http://www.w3.org/2000/svg"><g fill="#fff"><path d="m59.39 49.66c0 5.18-4.2 9.38-9.38 9.38s-9.38-4.2-9.38-9.38 4.2-9.38 9.38-9.38 9.38 4.2 9.38 9.38z"/><path d="m71.94 33.07c-.45-1.22-1.17-2.33-2.1-3.23-.91-.93-2.01-1.65-3.23-2.1-.99-.38-2.48-.84-5.22-.97-2.97-.14-3.86-.16-11.37-.16s-8.4.03-11.37.16c-2.74.13-4.23.58-5.22.97-1.22.45-2.33 1.17-3.23 2.1-.93.91-1.65 2.01-2.1 3.23-.38.99-.84 2.48-.97 5.22-.14 2.97-.16 3.86-.16 11.37s.03 8.4.16 11.37c.12 2.74.58 4.23.97 5.22.45 1.22 1.17 2.33 2.1 3.23.91.93 2.01 1.65 3.23 2.1.99.39 2.48.84 5.22.97 2.97.14 3.85.16 11.37.16 7.51 0 8.4-.03 11.37-.16 2.74-.12 4.23-.58 5.22-.97 2.45-.95 4.39-2.89 5.34-5.34.38-.99.84-2.48.97-5.22.14-2.97.16-3.86.16-11.37s-.03-8.4-.16-11.37c-.14-2.73-.59-4.22-.98-5.21zm-21.93 31.03c-7.98 0-14.45-6.47-14.45-14.44s6.47-14.44 14.45-14.44 14.44 6.47 14.44 14.44-6.46 14.44-14.44 14.44zm15.02-26.08c-1.86 0-3.38-1.51-3.38-3.38s1.51-3.38 3.38-3.38c1.86 0 3.38 1.51 3.38 3.38-.01 1.87-1.52 3.38-3.38 3.38z"/><path d="m50.01.67c-27.05 0-48.99 21.94-48.99 48.99s21.94 48.99 48.99 48.99 48.99-21.94 48.99-48.99-21.94-48.99-48.99-48.99zm27.96 60.58c-.14 2.99-.61 5.04-1.31 6.83-1.46 3.78-4.45 6.77-8.23 8.23-1.79.7-3.83 1.17-6.83 1.31s-3.96.17-11.6.17-8.6-.03-11.6-.17c-2.99-.14-5.04-.61-6.83-1.31-1.88-.71-3.58-1.81-4.98-3.24-1.43-1.4-2.54-3.11-3.24-4.98-.7-1.79-1.17-3.83-1.31-6.83s-.17-3.96-.17-11.6.03-8.6.17-11.6c.14-2.99.61-5.04 1.31-6.83.71-1.88 1.81-3.58 3.25-4.98 1.4-1.43 3.11-2.54 4.98-3.24 1.79-.7 3.83-1.17 6.83-1.31s3.96-.17 11.6-.17 8.6.03 11.6.17c2.99.14 5.04.61 6.83 1.31 1.88.71 3.58 1.81 4.98 3.25 1.43 1.41 2.54 3.11 3.24 4.98.7 1.79 1.17 3.83 1.31 6.83s.17 3.96.17 11.6-.03 8.58-.17 11.58z"/></g></svg>