<svg enable-background="new 0 0 100 100" viewBox="0 0 100 100" xmlns="http://www.w3.org/2000/svg"><g fill="#fff"><path d="m54.62 43.75c.02-.04.05-.08.07-.12v.12z"/><path d="m49.51 1.17c-26.78 0-48.49 21.7-48.49 48.49 0 26.78 21.71 48.48 48.49 48.48s48.49-21.7 48.49-48.48c0-26.79-21.71-48.49-48.49-48.49zm-12.82 72.38h-11.59v-34.86h11.59zm-5.79-39.61h-.08c-3.89 0-6.41-2.68-6.41-6.02 0-3.42 2.59-6.02 6.56-6.02 3.96 0 6.4 2.6 6.47 6.02.01 3.34-2.51 6.02-6.54 6.02zm47.58 39.61h-11.59v-18.65c0-4.68-1.68-7.88-5.87-7.88-3.21 0-5.11 2.15-5.95 4.24-.3.74-.39 1.77-.39 2.82v19.47h-11.59s.16-31.59 0-34.86h11.59v4.94c1.55-2.37 4.3-5.76 10.45-5.76 7.62 0 13.35 4.99 13.35 15.69z"/></g></svg>