<svg viewBox="0 0 161.56 100.63" xmlns="http://www.w3.org/2000/svg"><g fill="#ff292a"><path d="m0 0v100.63h161.56v-100.63zm153.28 93.79h-145v-86.26h145z"/><path d="m23.28 32.77h69.83v7.02h-69.83z"/><path d="m23.28 60.84h69.83v7.02h-69.83z"/><path d="m99.95 32.77h38.34v7.02h-38.34z"/><path d="m99.95 60.84h38.34v7.02h-38.34z"/></g><path d="m23.28 32.77h69.83v7.02h-69.83z" fill="#fff"/><path d="m23.28 60.84h69.83v7.02h-69.83z" fill="#fff"/><path d="m99.95 32.77h38.34v7.02h-38.34z" fill="#fff"/><path d="m99.95 60.84h38.34v7.02h-38.34z" fill="#fff"/><path d="m99.95 32.77h38.34v7.02h-38.34z" fill="#ff292a"/><path d="m99.95 60.84h38.34v7.02h-38.34z" fill="#ff292a"/><path d="m23.28 32.77h69.83v7.02h-69.83z" fill="#ff292a"/><path d="m23.28 60.84h69.83v7.02h-69.83z" fill="#ff292a"/></svg>