<svg viewBox="0 0 156.3 123.09" xmlns="http://www.w3.org/2000/svg"><g fill="#ff292a"><path d="m17.82 58.34h123.09v6.4h-123.09z" transform="matrix(0 1 -1 0 140.91 -17.82)"/><path d="m65.66 56.21h76.17v6.4h-76.17z" transform="matrix(0 1 -1 0 163.15 -44.33)"/><path d="m109.53 56.21h40.83v6.4h-40.83z" transform="matrix(0 1 -1 0 189.35 -70.53)"/><path d="m143.65 59.26h18.89v6.4h-18.89z" transform="matrix(0 1 -1 0 215.56 -90.64)"/><path d="m-6.25 59.26h18.89v6.4h-18.89z" transform="matrix(0 1 -1 0 65.66 59.26)"/><path d="m13.86 56.21h76.17v6.4h-76.17z" transform="matrix(0 1 -1 0 111.36 7.46)"/><path d="m5.33 56.21h40.83v6.4h-40.83z" transform="matrix(0 1 -1 0 85.16 33.67)"/></g></svg>