<svg enable-background="new 0 0 1920 1080" viewBox="0 0 1920 1080" xmlns="http://www.w3.org/2000/svg"><g fill="#fc000d"><path d="m1769.65 605.38c-3.86-6.85-9.17-12.12-15.9-15.79-6.75-3.67-13.78-5.5-21.11-5.5-7.34 0-14.38 1.83-21.13 5.5-6.73 3.67-12.04 8.94-15.89 15.79-3.86 6.85-5.8 14.03-5.8 21.51 0 7.45 1.89 14.56 5.68 21.33 3.79 6.75 9.05 12.02 15.81 15.81 6.77 3.79 13.88 5.68 21.33 5.68 7.44 0 14.56-1.89 21.31-5.68s12.04-9.05 15.81-15.81c3.79-6.77 5.68-13.88 5.68-21.33-.01-7.47-1.95-14.66-5.79-21.51zm-7.12 38.66c-3.06 5.44-7.3 9.7-12.72 12.74-5.43 3.06-11.12 4.59-17.13 4.59-5.95 0-11.65-1.52-17.09-4.59-5.43-3.04-9.68-7.3-12.7-12.74-3.04-5.43-4.57-11.14-4.57-17.15 0-6.03 1.56-11.81 4.68-17.31 3.1-5.52 7.36-9.76 12.76-12.68 5.41-2.95 11.05-4.43 16.92-4.43 5.89 0 11.55 1.48 16.98 4.43 5.41 2.93 9.68 7.16 12.78 12.68 3.12 5.5 4.66 11.28 4.66 17.31-.01 6.01-1.53 11.73-4.57 17.15z"/><path d="m1752.42 649.08-4.94-8.43c-1.89-3.24-3.01-5.09-3.36-5.54-1.29-1.72-2.32-2.87-3.06-3.49-.74-.6-1.81-1.17-3.18-1.7 3.86-.57 6.87-2.01 9.02-4.33s3.22-5.13 3.22-8.41c0-2.38-.57-4.55-1.7-6.52-1.15-1.95-2.56-3.4-4.25-4.35-1.7-.96-4.08-1.56-7.12-1.81-1.05-.08-5.89-.12-14.54-.12h-8.72c-.27 0-.49.21-.49.49v44.45c0 .27.21.49.49.49h8.24c.27 0 .49-.21.49-.49v-18.17h2.4c2.58 0 4.7.64 6.38 1.93 1.68 1.27 3.81 4.39 6.36 9.35l3.67 7.12c.08.16.25.25.43.25h10.26c.36 0 .59-.41.4-.72zm-16.26-25.7c-1.27.41-4.59.6-9.91.6h-3.26c-.27 0-.49-.21-.49-.49v-11.42c0-.27.21-.49.49-.49h3.26c5.25 0 8.55.21 9.89.64 1.35.43 2.38 1.13 3.1 2.11.72 1 1.09 2.13 1.09 3.4 0 1.29-.37 2.46-1.11 3.49-.75 1.03-1.77 1.75-3.06 2.16z"/><path d="m379.4 117.67v59.73c0 1.05-1.05 2.09-2.11 2.09h-66.02s-1.05 1.05-1.05 2.11v333.29c0 1.05-1.05 2.09-2.09 2.09h-91.19c-1.05 0-2.09-1.05-2.09-2.09v-333.29c0-1.05-1.05-2.11-2.11-2.11h-66.02c-1.05 0-2.11-1.03-2.11-2.09v-59.73c0-1.05 1.05-2.11 2.11-2.11h230.57c1.05 0 2.11 1.06 2.11 2.11z"/><path d="m834.42 117.67v396.17c0 1.05-1.05 2.11-2.09 2.11h-91.19c-1.05 0-2.09-1.05-2.09-2.11v-396.17c0-1.05 1.03-2.11 2.09-2.11h91.19c1.04 0 2.09 1.06 2.09 2.11z"/><path d="m1073.95 305.27v-1.03c31.44-8.39 71.27-35.63 71.27-88.05 0-59.73-49.26-100.62-154.07-100.62h-121.58c-1.05 0-2.09 1.05-2.09 2.11v396.17c0 1.05 1.03 2.11 2.09 2.11h125.77c99.56 0 160.35-30.4 161.41-111.1 0-55.57-47.17-90.15-82.8-99.59zm-117.38-136.26s0-1.03 1.03-1.03c10.48-3.14 19.92-4.2 33.55-4.2 42.97 0 62.88 18.87 62.88 59.73 0 44.03-18.85 62.9-78.61 62.9h-16.76c-1.05 0-2.09-1.05-2.09-2.11zm104.79 233.73c0 45.08-25.15 62.9-69.16 62.9-14.68 0-25.15-2.11-34.6-5.25-1.03 0-1.03 0-1.03-1.05v-125.78c0-1.03 1.03-2.09 2.09-2.09h16.76c64.98 0 86.99 23.07 85.94 71.27z"/><path d="m1328.79 111.37c-111.1 0-156.16 93.28-156.16 205.43 0 113.19 45.06 205.43 156.16 205.43s156.16-93.28 156.16-205.43-45.06-205.43-156.16-205.43zm0 340.63c-51.36 0-60.79-71.27-60.79-139.39 0-67.07 10.48-139.39 60.79-139.39s60.79 71.27 60.79 139.39-9.43 139.39-60.79 139.39z"/><path d="m1774.51 515.95h-101.65c-1.05 0-1.05 0-1.05-1.05l-55.56-128.91h-1.03l-56.61 128.91c0 1.05-1.03 1.05-1.03 1.05h-92.25c-1.03 0-2.09-1.05-1.03-2.11l104.79-200.18v-1.05l-94.32-192.85c-1.05-1.05 0-2.09 1.03-2.09h96.44c1.03 0 1.03 0 1.03 1.05l48.22 118.42h1.05l55.54-118.42c0-1.05 1.05-1.05 1.05-1.05h85.94c1.05 0 2.09 1.05 1.05 2.09l-97.48 181.33v1.03l106.9 211.72c1.08 1.05.02 2.11-1.03 2.11z"/><path d="m708.1 511.75-104.81-175.03v-1.05c52.4-8.39 92.23-49.26 92.23-101.67 0-75.46-49.26-118.44-157.21-118.44h-118.44c-1.03 0-2.09 1.05-2.09 2.11v395.12c0 1.05 1.03 2.11 2.09 2.11h89.09c1.05 0 2.11-1.05 2.11-2.11v-173.98h1.05l94.31 175.03c0 1.05 0 1.05 1.05 1.05v-1.05h99.56c1.06 0 2.12-1.03 1.06-2.09zm-105.86-270.41c0 48.22-24.1 77.57-72.3 77.57-7.34 0-14.68-1.05-18.87-2.11-1.05-1.03-1.05-1.03-1.05-2.09v-143.59s0-1.05 1.05-1.05c6.28-3.14 14.68-5.23 26.21-5.23 50.28 0 66.01 25.15 64.96 76.5z"/><path d="m479.74 700.32c-6.13-22.97-15.81-42.99-29.1-60.05s-30.52-30.35-51.71-39.87c-21.19-9.5-46.86-14.28-77.02-14.28l-103.43-.68c-2.09-.02-3.77 1.66-3.77 3.75v356.79l-.59 17.66c-.08 2.13 1.62 3.88 3.75 3.88h108.35c29.8 0 55.01-5.03 75.68-15.08 20.65-10.05 37.43-23.79 50.37-41.22 12.92-17.41 22.27-37.78 28-61.14 5.74-23.34 8.63-48.3 8.63-74.88-.01-26.93-3.07-51.89-9.16-74.88zm-83.23 135.09c-2.69 16.9-7.01 30.68-12.94 41.27-5.91 10.62-13.54 18.36-22.89 23.22-9.33 4.86-20.65 7.28-33.94 7.28-5.03 0-9.78-.35-14.27-1.07-3.3-.53-6.24-1.15-8.86-1.87-1.62-.45-2.73-1.93-2.73-3.61v-251.49c0-1.64 1.07-3.1 2.65-3.59 6.01-1.89 13.39-2.85 22.13-2.85 26.93 0 46.13 10.26 57.65 30.77 11.47 20.51 17.23 53.78 17.23 99.86.01 24.45-1.34 45.14-4.03 62.08z"/><path d="m604.56 669.06v66.78c0 2.07 1.68 3.75 3.75 3.75h81.4c2.07 0 3.75 1.68 3.75 3.75v58.76c0 2.07-1.68 3.75-3.75 3.75h-81.4c-2.07 0-3.75 1.68-3.75 3.75v76.81c0 2.07 1.68 3.75 3.75 3.75h94.32c2.07 0 3.75 1.68 3.75 3.75v64.5c0 2.07-1.68 3.75-3.75 3.75h-182.12c-2.07 0-3.75-1.68-3.75-3.75v-363.13c0-2.09 1.68-3.75 3.75-3.75h182.11c2.07 0 3.75 1.66 3.75 3.75v66.29c0 2.07-1.68 3.75-3.75 3.75h-94.32c-2.06-.01-3.74 1.67-3.74 3.74z"/><path d="m951.14 853.11c0 16.9-3.04 32.41-9.15 46.6s-14.64 26.4-25.58 36.63c-10.97 10.23-24.06 18.3-39.32 24.24-15.28 5.93-32.06 8.9-50.37 8.9-22.99 0-42.29-1.89-57.92-5.66-14.44-3.49-26.68-8.43-36.67-14.85-1.42-.92-2.01-2.69-1.48-4.29l17.56-53.68c.74-2.22 3.34-3.3 5.39-2.13 5.58 3.12 12.53 6.21 20.86 9.21 10.42 3.77 22.09 5.66 35.03 5.66 15.44 0 27.55-4.04 36.36-12.12 8.78-8.08 13.19-18.75 13.19-32.04 0-11.86-3.86-21.92-11.57-30.17-7.73-8.25-21.12-16.53-40.14-24.78-14.36-6.46-26.31-13.74-35.83-21.82-9.5-8.08-17.06-16.61-22.62-25.58-5.56-8.98-9.52-18.13-11.85-27.48-2.34-9.33-3.51-18.48-3.51-27.48 0-15.44 2.69-30.15 8.08-44.16 5.41-14.01 13.21-26.13 23.44-36.36 10.25-10.25 22.64-18.4 37.18-24.51s30.79-9.17 48.75-9.17c20.1 0 37.35 2.09 51.71 6.21 13.04 3.75 23.87 8.31 32.47 13.7 1.48.92 2.17 2.75 1.58 4.41l-15.88 46.29c-.76 2.19-3.28 3.18-5.33 2.07-5.7-3.12-12.41-6.07-20.12-8.84-9.52-3.4-20.02-5.11-31.52-5.11-14.71 0-25.84 3.77-33.39 11.32-7.53 7.53-11.32 17.95-11.32 31.24 0 13.64 4.39 24.33 13.21 32.04 8.78 7.73 21.1 15.18 36.88 22.36 17.95 8.25 32.34 16.78 43.11 25.58s19.03 17.88 24.78 27.2c5.74 9.35 9.5 18.77 11.3 28.28 1.79 9.53 2.69 18.96 2.69 28.29z"/><path d="m1055.9 593.32v363.11c0 2.07-1.68 3.75-3.75 3.75h-79.78c-2.07 0-3.75-1.68-3.75-3.75v-363.11c0-2.09 1.68-3.75 3.75-3.75h79.78c2.07.01 3.75 1.67 3.75 3.75z"/><path d="m1352.6 748.25v195.54c0 1.35-.72 2.6-1.89 3.26-11.77 6.65-25.23 11.67-40.4 15.08-15.98 3.57-36.73 5.39-62.23 5.39-28 0-52.51-4.51-73.51-13.47-21.02-8.98-38.52-21.74-52.53-38.25-13.99-16.53-24.51-36.63-31.52-60.34-6.99-23.69-10.5-50.45-10.5-80.26 0-28 3.86-53.69 11.59-77.02 7.71-23.34 18.93-43.26 33.66-59.79 14.71-16.51 32.67-29.35 53.86-38.52 21.19-9.15 45.06-13.74 71.66-13.74 21.9 0 40.75 1.89 56.55 5.66 14.46 3.45 27.26 8.2 38.41 14.19 1.74.94 2.42 3.1 1.58 4.88l-22.15 47.11c-.9 1.91-3.18 2.69-5.07 1.74-5.56-2.83-12.31-5.37-20.31-7.57-9.68-2.69-22.62-4.04-38.78-4.04-29.82 0-52.71 10.23-68.67 30.7-16 20.47-23.98 53.33-23.98 98.59 0 43.44 6.83 75.95 20.47 97.5 13.64 21.54 31.79 32.32 54.41 32.32 7.18 0 12.94-.55 17.23-1.62 3.18-.78 5.85-1.68 8.06-2.67 1.35-.59 2.19-1.93 2.19-3.42v-98.98c0-2.07-1.68-3.75-3.75-3.75h-36.69c-2.07 0-3.75-1.68-3.75-3.75v-44.75c0-2.07 1.68-3.75 3.75-3.75h118.57c2.06-.01 3.74 1.66 3.74 3.73z"/><path d="m1664.43 595.28v363.11c0 2.07-1.68 3.75-3.75 3.75h-61.45c-1.31 0-2.54-.7-3.22-1.83l-122.28-206.1c-6.11-9.7-10.77-18.5-13.99-26.4-1.8-3.94-3.59-8.08-5.39-12.39h-1.07c.35 3.96.7 8.08 1.07 12.39.35 3.96.62 8.35.8 13.19.18 4.86.27 9.8.27 14.83v202.56c0 2.07-1.68 3.75-3.75 3.75h-65.76c-2.07 0-3.75-1.68-3.75-3.75v-363.11c0-2.07 1.68-3.75 3.75-3.75h71.15c1.33 0 2.54.7 3.22 1.81l112.56 188.32c2.89 5.03 5.41 9.62 7.55 13.74 2.15 4.14 4.12 7.83 5.93 11.05l5.39 10.77h1.07c-.37-3.57-.72-7.36-1.07-11.3-.37-3.59-.64-7.55-.82-11.86-.18-4.29-.27-8.96-.27-13.99v-184.79c0-2.07 1.68-3.75 3.75-3.75h66.31c2.07 0 3.75 1.68 3.75 3.75z"/></g></svg>