<svg enable-background="new 0 0 100 100" viewBox="0 0 100 100" xmlns="http://www.w3.org/2000/svg"><path d="m49.84.5c-27.15 0-49.16 22.01-49.16 49.16s22.01 49.16 49.16 49.16 49.16-22.02 49.16-49.16-22.01-49.16-49.16-49.16zm24.25 41.41c.03.5.04 1.01.04 1.52 0 15.53-11.82 33.43-33.43 33.43-6.63 0-12.81-1.95-18.02-5.28.92.11 1.86.17 2.8.17 5.51 0 10.58-1.88 14.6-5.03-5.14-.1-9.48-3.5-10.98-8.17.72.14 1.45.21 2.21.21 1.07 0 2.11-.14 3.1-.41-5.38-1.08-9.43-5.83-9.43-11.52v-.15c1.59.88 3.4 1.41 5.32 1.47-3.15-2.1-5.22-5.7-5.22-9.78 0-2.15.58-4.17 1.59-5.91 5.8 7.12 14.46 11.79 24.22 12.28-.2-.86-.31-1.75-.31-2.67 0-6.49 5.27-11.75 11.75-11.75 3.38 0 6.44 1.43 8.58 3.71 2.68-.53 5.2-1.5 7.47-2.85-.89 2.74-2.74 5.05-5.17 6.5 2.37-.29 4.64-.92 6.75-1.85-1.58 2.36-3.58 4.42-5.87 6.08z" fill="#fff"/></svg>