<svg enable-background="new 0 0 1920 1080" viewBox="0 0 1920 1080" xmlns="http://www.w3.org/2000/svg"><path d="m1369.7 355.8c-8.3 21.2-14.5 32.5-36.8 49.1-33.6 24.9-71.2 33.6-112.7 34.7-43.7 1.1-86.4-6-128.7-16-42.2-10-84.3-14.7-126.4-14.3v-172s37.9-60.1 123.4-31.6c85.4 28.6 148.1 150.1 281.2 150.1z" fill="#ed3226"/><path d="m965.1 238.7v-1.4c-1.9-13.7-24-31.6-32.6-37.1 5.3 3.4 9.7 8.1 12.8 13.5-7.2-4.7-15.1-8.5-23.2-11.5 3.2 3.7 6.5 7.2 9.7 10.9-10.7-7.2-23.3-11.7-36.2-12.9 3.8 2.6 7.6 5.3 11.4 7.9-.9-.1-2-.2-2.9-.3-13.4-4.8-27.8-6.6-41.9-5 6.6 1.5 13.2 3.4 19.7 5.7-1.7.3-3.5.5-5.3.8-.9.2-1.8.3-2.6.4-19.6-.9-39.4 2.7-57.3 10.6 6.1.5 12.2 1 18.3 1.4v.4c-20.4 2.1-40.3 8.7-58 19 9-1.2 18.1-1.9 27.1-2-2.3 1.5-4.5 3.1-6.8 4.7-19.9 5.4-36.9 9.1-51 24.2 6.3-4.6 13.3-2.2 19.8-2.1-.3.2-.4.3-.7.5-10.6 7.7-23.1 12.3-36.2 14.1-.9.1-1.8.3-2.7.4-.3.1-.6.2-.8.4-.2.4.3.8.7.9 3.4 1.4 7.1 2 10.8 1.6-4 3.1-9.4 4.3-14.5 4.5-5.1.3-10.3-.3-15.4.2 3.5 3.7 8.5 5.9 13.5 6-1.2.8-2.5 1.5-3.7 2.2 0 0 0 0-.1 0-3.2.2-6.4-.5-9.4-1-4.3-.8-8.6-1.3-13-1.5v.1c2.5 4.3 6.5 7.7 11.1 9.3-1.4.1-3 .3-4.4.3-6.5-.7-12.9-2-19-4.2 1.4 3 4.3 5 7.6 5.3-6.2.3-12.4-.3-18.5-1.7.7.6 1.4 1.2 2.2 1.7-.4 1.3-.4 1.3-.8 2.6-3.8.1-7.7.1-11.4 0 .8.5 1.6 1 2.5 1.4-.7.1-1.4.3-2.1.3-1.3-.3-2.5-.5-3.7-.9.3.4.7.9 1 1.4-1 .2-2 .3-3.1.5.5.2 1.1.4 1.6.6-.7-.2-1.4-.3-2-.5.2 0 .3-.1.4-.1-2.8-1-5.6-2-8.4-3 1.4 2.3 3.7 3.9 6.4 4.3-.5.2-.9.2-1.4.2-2-.4-4.2-.9-6.2-1.4-.7-.3-1.4-.6-2-.9-4.5-2.3-8.8-5-13.1-7.7.1 1 .4 2 .9 3-1.3 1-1.2.9-2.5 2-3.6-2.5-6.5-6.1-8.9-9.8-.3 2.1.1 4.3 1.2 6.1-1.4-.9-3-1.6-4.5-2.4-.6-.5-1.1-1-1.7-1.6-2.4-2.6-4.2-5.7-4.6-9.1-1.2 1.6-1.5 3.7-1.1 5.5-.9.5-.8.5-1.7 1-2.9-2.9-5-6.6-6-10.5-.3 1.3-.4 2.6-.3 4 0 .2.1.4.1.6.1.3.2.7.3 1-.4-.8-.8-1.6-1-2.4-.7-1.8-1-3.7-1.2-5.6-.1-.2-.1-.3-.1-.4-.1.1-.2.2-.2.3.1-.2.1-.3.2-.5-.2-1.9-.1-3.7.3-5.6-.8 2-1.5 4-1.8 6-.9-3.2-1.3-6.6-.9-10-.9.9-1.6 1.9-2 3.1-.3-4.8.8-9.6 3-13.9-1.5.7-2.8 2-3.3 3.7-.2-3.6.9-7.2 3.1-10-1.5 1.4-2.6 3.1-3.2 5 .4-3.9.9-7.8 3.1-11.1-.9.8-1.8 1.5-2.6 2.4.3-.8.7-1.4 1-2.1 2.7-5.2 6.7-9.4 11.9-13-8.9 0-16.9 2.2-24.2 6.6-24.4 14.5-34.6 37.3-35.6 64.6-.9 27.2 9.1 50.9 27.2 70.7 32.8 35.9 74.8 53.9 122.4 59.2 46.3 5.2 92.1.8 136.9-11.1 43.1-11.3 86.4-17.4 129.6-17.8z"/><path d="m876.2 700.6-7.9-8.8c-10.3 10.6-21.9 15.9-34.9 15.9-16.4 0-27.6-4.3-33.7-12.7-1.2-1.8-2.4-3.3-3.4-4.7s-1.9-3.4-2.6-6.2-1-6.3-1-10.5v-.2c0-7.5 1.4-13.6 4.4-18.4 2.9-4.8 7.6-9.6 14-14.5 2.7-1.9 6-3.9 9.6-6.1-3.2-3.7-6.1-8.3-8.6-13.8s-3.7-10.8-3.7-16c0-8.6 3.1-15.1 9.2-19.8 6.1-4.6 12.4-7 19-7 9 0 16.2 1.9 21.5 5.5 5.4 3.7 8.1 9.4 8.1 16.9 0 6.4-2.2 11.9-6.6 16.5s-11.7 10-21.7 15.9c8.8 12 20.8 26.9 35.9 44.7 2.6-3.4 4.3-6.6 5.2-9.8.9-3.1 1.4-7.2 1.4-12.3 0-2.5-.9-4.9-2.6-7.3-2.6-3.7-6.4-5.4-11.4-5.3l-.6-3.2h39.8l-.2 3.9c-7.1 0-11.4.8-13 2.2-2.3 2.3-3.5 5.7-3.5 10.2 0 3.9-1.4 8.5-4 13.7s-5.1 9-7.2 11.7l5.1 6.3c.5.9 1.4 2.1 2.6 3.5s2.5 2.6 3.7 3.9c1.2 1.2 2.6 2.3 4.3 3.1s3.2 1.4 4.9 1.4c4.3 0 7-1.2 8.3-3.7 1.4-2.5 2-6.1 2-11l4.1.6c0 15-5.5 22.4-16.5 22.2-9.4 0-16-2.3-20-6.8zm-36-1.5c5.3 0 9.6-.7 12.8-2.1s7.2-4.3 11.8-8.4c-7-8.6-15.2-18.8-25-30.7-9.7-11.9-14.6-17.9-14.8-17.9-4.3 2-7.8 4.8-10.3 8.3-2.6 3.6-4.2 6.6-4.9 9.4-.8 2.7-1.1 5.4-1.1 8 0 6.3 2.4 12.8 7.1 19.6 6.7 9.2 14.8 13.8 24.4 13.8zm-6.3-71.4c8-4.3 13.3-7.7 15.7-10.3s3.7-7.5 3.7-14.5c0-6.3-1.4-11.1-4.3-14.8-2.9-3.6-6.8-5.4-11.8-5.4-4.6 0-8.3 2.1-11.2 6.5-2.9 4.3-4.3 9.4-4.3 15.4-.1 6 4 13.8 12.2 23.1z" fill="#ed3226"/><path d="m1019.7 540.4h-17.3v92.3h60.6v-92.6h-17.3v-5.1h86.2v5.1h-17.4v206.3h17.3v5.1h-86.2v-5.1h17.3v-106.6h-60.6v106.7h17.3v5.1h-86.1v-5.1h17.3v-206.1h-17.3v-5.1h86.2z" fill="#ed3226"/><path d="m1266.4 673.2c-1.1-10.9-3.8-19-8.2-24.3-4.4-5.4-10.6-8-18.7-8h-19.6v105.7h30.5c10.3 0 18.5-1.5 24.8-4.5s11.4-7.1 15.2-12.2 6.7-11.1 8.7-18.1 3.7-14.4 5.4-22.3c.7-3.4 2-5.1 4.2-5.1 2.1 0 3.2 1.7 3.2 5.1v52.6c0 3-.6 5.4-1.8 7.1s-3.5 2.6-6.9 2.6h-152.2v-5.1h17.3v-206.3h-17.3v-5.1h139c3.2 0 5.7.7 7.4 2s2.6 3.7 2.9 7.1l2.6 46.5c0 2.8-1.1 4.2-3.2 4.2s-3.2-1.4-3.2-4.2c-.4-6-1.8-12-4-18s-5.5-11.4-10-16.2c-4.3-4.8-9.7-8.7-16-11.7s-13.6-4.5-21.9-4.5h-24.7v95.2h19.6c8.1 0 14.4-2.7 18.7-8.2 4.3-5.4 7.1-13.5 8.2-24.2.2-3.8 1.3-5.8 3.2-5.8 2.1 0 3.2 2 3.2 5.8v69.8c0 3.8-1.1 5.8-3.2 5.8-1.9 0-3.1-1.9-3.2-5.7z" fill="#ed3226"/><path d="m1507.5 733.2c1.4 4.6 4.7 6.9 9.8 6.9 2.6 0 5.4-1.2 8.7-3.7 3.2-2.5 6.6-6.6 10.3-12.7 1.5-2.8 2.8-4.2 3.8-4.2 1.1 0 1.6.7 1.6 2 0 .7-.1 1.3-.3 2-.3.7-.5 1.4-.9 2.2-4.9 10.9-11.6 18.7-19.8 23.4-8.3 4.7-17 7.1-25.9 7.1-6.2 0-11.8-.8-17-2.4-5.1-1.6-9.5-4.3-13.1-8-3.7-3.7-6.5-8.7-8.5-14.9s-3.1-13.8-3.1-22.7v-21.4c0-8.9-.7-16.2-2-21.9s-3.1-10-5.6-13.1-5.4-5.2-8.9-6.4-7.6-1.8-12-1.8h-16.3v103.2h17.3v5.1h-86.2v-5.1h17.3v-206.4h-17.3v-5.1h99.3c22 0 39.2 4.5 51.6 13.6s18.5 23.1 18.5 41.8c0 8.9-1.6 16.5-4.9 22.6s-7.5 11.1-12.5 14.9-10.6 6.8-16.8 8.8-12.2 3.6-18 4.7c16.7 2 29 7.4 37 16.3s12 19.5 12 31.4v26.6c-.2 6.9.4 12.6 1.9 17.2zm-74.7-96.5c4.6-.9 8.8-3.1 12.5-6.4s6.8-8.1 9.3-14.4 3.7-14.8 3.7-25.4c0-11.3-1.2-20.2-3.7-26.9-2.5-6.6-5.5-11.7-9.3-15.1-3.7-3.4-7.9-5.6-12.5-6.6-4.6-.9-8.9-1.4-13-1.4h-11.8v97.8h11.8c4.1-.1 8.4-.6 13-1.6z" fill="#ed3226"/><path d="m377.1 756.1v-224.7h52.7v86.3h36.6v-86.3h52.7v224.7h-52.7v-93.5h-36.6v93.5z" fill="#ed3226"/><path d="m552.7 756.1v-224.7h52.7v224.7z" fill="#ed3226"/><path d="m680.3 680.9v15.9c0 12.8 4.2 24.2 20.9 24.2 12.3 0 17.7-11.1 17.7-22.5 0-18.9-15.6-26-29.4-34.5-16.2-9.3-29.9-18-39.8-29.4-9.6-11.4-15.3-25.2-15.3-44.9 0-42.2 25.4-63.8 66.2-63.8 45.9 0 69.2 30.5 66.8 72.8h-48.5c-.6-13.2 0-31.1-17.4-32.3-10.8-.9-17.1 5.1-18.3 15-1.5 13.4 5.4 20.3 15.9 27.6 19.7 12.6 36.8 20.3 49.1 31.7s19.5 26.4 19.5 53.6c0 43.1-24 67.1-67.7 67.1-48.2 0-68.6-27-68.6-56.6v-24z" fill="#ed3226"/><g fill="#4d4e4e"><path d="m402.9 855.3v-4.7h24.7v29.8h-4.7v-9.9c-4 6.9-10.2 11.4-21.5 11.4-14.5 0-25.3-10.2-25.3-30.7 0-16.9 8.5-30 26.7-30 12.1 0 21.6 6 24.1 18.3h-5.6c-2-8.7-9.5-13.6-18.1-13.6-15.2 0-21.6 11.2-21.6 27.6 0 12.8 7.7 23.9 20.9 23.9 6.2 0 13.6-2.6 17.4-10.1 1.9-3.6 2.4-7.6 2.5-11.9z"/><path d="m458.7 880.5v-57.7h5.4v57.7z"/><path d="m494.5 880.5v-57.7h37.2v4.7h-31.7v20.8h28.8v4.7h-28.8v27.6z"/><path d="m550.4 822.8h41.9v4.7h-18.3v53h-5.4v-53h-18.3z"/><path d="m656.7 863.3c.9 10.3 7.7 14.1 16.6 14.1 10.3 0 14.6-5.6 14.6-11.9 0-17.9-35.1-6-35.1-28.7 0-8 6.6-15.5 19.6-15.5s19.5 7.8 19.4 17.2h-5.2c0-8.8-6.8-12.6-14.2-12.6-11.1 0-15.1 6.8-14.1 12.8 2.5 14.9 35.1 4.2 35.1 26.5 0 10.5-7.7 16.8-21.1 16.8-12 0-20.9-6.2-20.9-18.7z"/><path d="m719.3 880.5v-57.7h5.4v24.8h34.1v-24.8h5.4v57.7h-5.4v-28.2h-34.1v28.2z"/><path d="m817.6 821.3c18 0 27.1 13.5 27.1 30.5 0 16.6-9.1 30.3-26.9 30.3s-26.8-13.7-26.8-30.3c-.1-16.9 9.3-30.5 26.6-30.5zm21.7 30.4c0-16-8.3-25.8-21.5-25.8-14.8 0-21.3 12.4-21.3 25.8 0 13.6 6.4 25.6 21.4 25.6s21.4-12.1 21.4-25.6z"/><path d="m871.3 880.5v-57.7h21.1c15 0 18.8 7.5 18.8 16.1 0 12.9-11.5 16.1-22.1 16.1h-12.3v25.4zm17.9-30.1c10.2 0 16.5-2 16.5-11.8 0-7.2-4.7-11.1-14.9-11.1h-14.1v22.9z"/><path d="m1007.4 865.6c2-3.4 2.4-7.3 2.4-11.2h4.8c-.3 5.2-1.1 10.5-4 15.1l9.4 11.1h-6.5l-5.6-6.8c-4.9 6-10.5 8.3-18.2 8.3-10 0-18-6.8-18-17.1 0-8.7 6.4-14.4 13.8-17.9-3.1-3.6-6.1-7.8-6.1-12.9 0-7.3 6-11.3 13-11.3 7.1 0 12.1 5 12.1 11.1 0 7.7-5.4 10.9-11.4 14.5zm-19.1-15.1c-6.3 3-11.2 8.6-11.2 14.8 0 7.6 5.6 12.4 13 12.4 6.1 0 10.8-3.1 14.6-7.7zm3.5-23.4c-4 0-7.7 2.6-7.7 6.9 0 3.4 3.9 8.3 6 10.8 3.2-2 6.9-4 8.5-7.6 1.9-4.3-.8-10.1-6.8-10.1z"/><path d="m1081.9 880.5v-57.7h37.2v4.7h-31.7v20.8h28.8v4.7h-28.8v27.6z"/><path d="m1143.1 880.5v-57.7h5.4v53h30.9v4.7z"/><path d="m1227.9 821.3c18 0 27.1 13.5 27.1 30.5 0 16.6-9.1 30.3-26.9 30.3s-26.8-13.7-26.8-30.3c0-16.9 9.4-30.5 26.6-30.5zm21.8 30.4c0-16-8.3-25.8-21.5-25.8-14.8 0-21.3 12.4-21.3 25.8 0 13.6 6.4 25.6 21.4 25.6 14.9 0 21.4-12.1 21.4-25.6z"/><path d="m1327.2 872.8h.2l12.6-49.9h5.6l-15.1 57.7h-6l-13.4-51h-.2l-13.4 51h-6l-14.9-57.7h5.4l12.4 49.9h.2l13.4-49.9h6.1z"/><path d="m1369.2 880.5v-57.7h38.4v4.7h-32.9v20.8h29.7v4.7h-29.7v22.9h33.7v4.7z"/><path d="m1439.5 854.3v26.2h-5.4v-57.7h22.6c12.7 0 19.7 4.5 19.7 15.1 0 7.3-2.7 11.1-9.4 14.1 6.8 2.3 7.2 9.5 7.4 15.7.3 8.8.9 11.1 2.4 12.3v.6h-6c-2.2-3.9-1.7-14.7-2.6-19.1-1.3-6.2-6-7.1-11.5-7.1zm16.9-4.6c8.1 0 14.4-3.4 14.4-11.5 0-8.7-6.7-10.7-14-10.7h-17.3v22.2z"/><path d="m1505.8 863.3c.9 10.3 7.7 14.1 16.6 14.1 10.3 0 14.6-5.6 14.6-11.9 0-17.9-35.1-6-35.1-28.7 0-8 6.6-15.5 19.6-15.5s19.5 7.8 19.4 17.2h-5.2c0-8.8-6.8-12.6-14.2-12.6-11.1 0-15.1 6.8-14.1 12.8 2.5 14.9 35.1 4.2 35.1 26.5 0 10.5-7.7 16.8-21.1 16.8-12 0-20.9-6.2-20.9-18.7z"/></g><path d="m791.5 731.3h119.2v20.6h-119.2z" fill="#ed3226"/><path d="m793.4 535.4h119.2v20.6h-119.2z" fill="#ed3226"/></svg>