<svg enable-background="new 0 0 1920 1080" viewBox="0 0 1920 1080" xmlns="http://www.w3.org/2000/svg"><g fill="#f43825"><path d="m639.2 540.7c.1-11-.6-21.7-1.9-32.4-2.2-18.7-6.4-36.9-12.4-54.3-9.1-26.8-22.4-51.6-39.1-73.8-41.9-55.8-105.3-94.6-178-104.1-10.9-1.4-22-2.2-33.4-2.3-37.2-.2-72.7 7.2-104.9 20.8-9.1 3.8-18 8.2-26.6 13-45.1 25.2-80.8 65-97.6 113.9-17.1 49.7-17.3 113 35.7 181.3 35.7 46 77.7 59.4 82.4 61-8.2-2.4-117.1-18.4-153.8-149-.6-2.1-.8-4.2-1.2-6.3-.6 4.9-1.1 9.9-1.3 14.9-.3 4.7-.5 9.3-.5 14v1.1c-.4 61.7 20.3 118.6 55.2 163.9 42.5 52.9 122.1 117.4 239.5 75.7 56.8-20.1 81.3-50.2 84.2-53.9-3.6 5.1-42.4 58-105.9 82.1 106.4-2.6 197.4-67.6 237.7-160 14-32.1 21.8-67.5 22-104.7-.1-.2-.1-.6-.1-.9zm-130.5 8.7-.2 1.6c-19.9 73.4-87.4 116.1-167 115.6s-146.3-55-165.3-128.7c-2.8-10.8-4.6-22-5.2-33.6-.2-3.2-.3-6.4-.3-9.7 0-.2 0-.5 0-.8.5-80.7 56.5-148 131.6-166 13.2-3.2 27-4.8 41.2-4.7 59.1.3 111.1 30.6 141.7 76.2-3.6-1.1-10.4-6.7-14.3-7.7-35.5-9.1-82.6 13.3-82.8 46.6l1 4.3-99.1 58.1-26.3 16c-1 .6-.4 2.2.7 2l6.8 3.2 173.3-33.3 19 1.5c24.5 2 44.2 21.7 45.5 46.3 0 .2 0 .5.1.8.2 1.7.2 3.4.2 5.1-.1 2.4-.3 4.8-.6 7.2z"/><path d="m747.1 359.7h67.1v125.4h56.3v59.3h-123.4z"/><path d="m888 359.7h124.2v50.5h-56.6v17.6h51.7v48h-51.7v18.1h58.5v50.5h-126.1z"/><path d="m1042.4 359.7h67.1v184.7h-67.1z"/><path d="m1151.7 478.2 3.4 2.7c12 9.3 26.5 16.9 41.9 16.9 6.6 0 17.1-2.7 17.1-11s-8.8-9.1-14.9-10.3l-13.5-2.4c-26.2-4.7-48.3-20.1-48.3-49 0-43.9 39.9-68.3 80.1-68.3 21.1 0 40.4 5.1 58.5 16.2l-18.1 47.3c-11.5-7.8-24.5-14-39-14-5.9 0-14.4 2.2-14.4 9.8 0 6.9 8.3 7.8 13.5 9.1l15.2 3.4c28.4 6.4 49 21.6 49 52.9 0 44.1-40.2 65.9-80.1 65.9-23.3 0-50.2-6.4-71-16.9z"/><path d="m1473.1 359.7v109.2c0 53.9-33.8 78.4-85.5 78.4s-85.5-24.5-85.5-78.4v-109.2h67.1v102.9c0 14.4.5 27.2 18.4 27.2s18.4-12.7 18.4-27.2v-102.9z"/><path d="m1502.8 359.7h81.1c41.6 0 76.9 17.6 76.9 64.2 0 27.9-10.8 39.7-35.8 48v1.5c3.4 2.7 7.6 5.6 11.3 11l40.2 60h-77.4l-29.4-59.3h-1.2v59.3h-65.7zm65.7 81.8h4.7c11 0 22-1.7 22-15.4 0-14.2-10-15.9-21.6-15.9h-5.1z"/><path d="m1687.3 359.7h124.2v50.5h-56.6v17.6h51.7v48h-51.7v18.1h58.5v50.5h-126.2z"/><path d="m747.5 589.3h39.6c21.4 0 36.1 9.9 36.1 32.7 0 23.5-12.7 33.8-35.2 33.8h-14.6v33h-25.9zm25.9 45.7h4.3c9.4 0 18.6 0 18.6-12.1 0-12.5-8.6-12.7-18.6-12.7h-4.3z"/><path d="m917.3 688.8h-32.2l-24.4-38.2h-.2v38.2h-25.8v-99.4h38.6c19.7 0 34.6 9.4 34.6 30.6 0 13.7-7.7 25.6-21.8 28.1zm-56.8-54.9h2.5c8.4 0 17.9-1.6 17.9-12.4s-9.5-12.4-17.9-12.4h-2.5z"/><path d="m1029.3 637.2c0 32.2-23.1 54.9-55 54.9s-55-22.7-55-54.9c0-30.1 26.4-51.2 55-51.2s55 21.1 55 51.2zm-83.1.1c0 17.1 12.7 29.7 28.1 29.7s28.1-12.5 28.1-29.7c0-13.7-12.7-26.2-28.1-26.2s-28.1 12.5-28.1 26.2z"/><path d="m1134.6 589.3v67.1c0 21-10.9 34.9-33 34.9-11.1 0-19.6-5.5-25.6-14.6l14.9-15.7c2.9 4 7 8.4 10.4 8.4 7.7 0 7.4-9.1 7.4-14.6v-65.5z"/><path d="m1255.9 637.2c0 32.2-23.1 54.9-55 54.9s-55-22.7-55-54.9c0-30.1 26.4-51.2 55-51.2s55 21.1 55 51.2zm-83.1.1c0 17.1 12.7 29.7 28.1 29.7s28.1-12.5 28.1-29.7c0-13.7-12.7-26.2-28.1-26.2s-28.1 12.5-28.1 26.2z"/><path d="m1354.1 589.3v55.9c0 12.8-.5 25.5-10.4 35.1-8.3 8.2-21.4 11.1-33 11.1s-24.7-2.9-33-11.1c-9.9-9.6-10.4-22.3-10.4-35.1v-55.9h25.8v52.3c0 12.9.9 27 17.5 27s17.5-14.1 17.5-27v-52.3z"/><path d="m1453.1 688.8h-32.2l-24.4-38.2h-.3v38.2h-25.8v-99.4h38.6c19.7 0 34.6 9.4 34.6 30.6 0 13.7-7.7 25.6-21.8 28.1zm-56.9-54.9h2.5c8.4 0 17.9-1.6 17.9-12.4s-9.5-12.4-17.9-12.4h-2.5z"/><path d="m1460 589.3h25.8l47.3 60.8h.3v-60.8h25.8v99.4h-25.7l-47.3-60.9h-.3v60.9h-25.8v-99.4z"/><path d="m1602 611.2v16.6h29.1v21.9h-29.1v17.2h30.7v21.9h-56.6v-99.4h56.6v21.9h-30.7z"/><path d="m1637.7 589.3h31l18.6 27 18.6-27h31l-36.7 51.7v47.7h-25.8v-47.7z"/><path d="m1797.4 614.9c-4.7-4-10.8-6.6-17.1-6.6-4.8 0-11.1 2.8-11.1 8.3 0 5.8 7 8 11.5 9.5l6.6 2c13.9 4.1 24.5 11.1 24.5 27.2 0 9.9-2.4 20-10.3 26.8-7.8 6.6-18.2 9.4-28.2 9.4-12.5 0-24.8-4.2-34.9-11.3l11.1-20.8c6.5 5.7 14.1 10.3 22.9 10.3 6.1 0 12.5-3 12.5-10 0-7.3-10.1-9.8-15.7-11.3-16.2-4.6-26.9-8.8-26.9-28.1 0-20.2 14.4-33.4 34.3-33.4 10 0 22.3 3.2 31.1 8.2z"/></g></svg>