<svg viewBox="0 0 733.1 845.2" xmlns="http://www.w3.org/2000/svg"><g transform="translate(-571.2 -102.8)"><path d="m814.6 468.4c-1.9-6.7-5.4-19.2-24.6-19.2-11.1 0-27.6 7.4-27.6 38.9 0 20 7.9 37.9 27.6 37.9 12.9 0 21.8-7.3 24.6-20.9h23.2c-4.6 24.2-20.4 41-48.3 41-29.6 0-50.8-20-50.8-58.4 0-38.9 22.4-58.7 51.1-58.7 33.3 0 46.8 22.9 48 39.3h-23.2z"/><path d="m933.4 451.7h-59v23.3h54.2v19.7h-54.2v28.8h61.6v19.7h-84.4v-111.2h81.7v19.7z"/><path d="m947.2 432h54c27.2 0 34.2 17 34.2 28.5 0 15.9-9 20.4-13.6 22.8 13.6 5.1 17.2 15.9 17.2 26.9a32.19 32.19 0 0 1 -9.6 22.9c-6.3 6.2-12.4 10.1-35.1 10.1h-47.1zm22.3 43.5h27.2c9.1 0 16.4-3.6 16.4-12.4 0-9.1-6.5-11.9-17-11.9h-26.6zm0 48.5h28.5c11.3 0 17.8-5 17.8-16.3 0-9.8-8.4-13.5-16.7-13.5h-29.6z"/><path d="m1136.4 504.3c0 29.3-17.6 41.8-45.7 41.8-10.2 0-25.4-2.5-35.3-13.5-6-6.8-8.4-15.8-8.7-26.9v-73.7h23.7v72.1c0 15.5 9 22.3 19.8 22.3 15.9 0 22.5-7.7 22.5-21.2v-73.2h23.7z"/><g fill="#3eb44a"><path d="m611.4 748.2h-23.1v-110.8h78.8v19.6h-55.7v25h48.7v19.6h-48.7z"/><path d="m682.4 748.2h-24.4l39.5-110.7h26.7l39 110.7h-25.1l-7.1-22.8h-40.9zm13.9-42h28.2l-13.7-43.8h-.3z"/><path d="m774.2 637.4h56c29.5 0 34.9 21.7 34.9 31.3 0 12.2-6.2 22.7-17.1 26.4 9.1 4 14 7.4 14 28.1 0 16.2 0 20.2 4.9 22.1v2.9h-25.6c-1.5-5.2-2.5-10.9-2.5-22.4 0-15.1-.9-21-18-21h-23.9v43.3h-22.7zm49.8 48.8c12 0 17.9-4.2 17.9-15.1 0-5.9-2.6-14.5-16.2-14.5h-28.8v29.6z"/><path d="m986.2 748.2h-21.6v-92.5h-.3l-20.7 92.5h-22.6l-20.2-92.5h-.3v92.5h-21.6v-110.8h33.8l20 87.3h.3l19.7-87.3h33.5z"/><path d="m1082.1 657h-58.8v23.3h54v19.6h-54v28.7h61.4v19.6h-84.1v-110.8h81.4v19.6z"/><path d="m1095.9 637.4h56c29.5 0 34.9 21.7 34.9 31.3 0 12.2-6.2 22.7-17.1 26.4 9.1 4 14 7.4 14 28.1 0 16.2 0 20.2 4.9 22.1v2.9h-25.6c-1.5-5.2-2.5-10.9-2.5-22.4 0-15.1-.9-21-18-21h-23.9v43.3h-22.7zm49.8 48.8c12 0 17.9-4.2 17.9-15.1 0-5.9-2.6-14.5-16.2-14.5h-28.8v29.6z"/><path d="m1218 714.1c.2 6.2 3.2 17.9 23.4 17.9 10.9 0 23.1-2.6 23.1-14.3 0-8.6-8.3-10.9-20-13.7l-11.9-2.8c-17.9-4.2-35.2-8.2-35.2-32.5 0-12.3 6.6-34.1 42.6-34.1 33.9 0 43 22.2 43.2 35.8h-22.2c-.6-4.9-2.5-16.7-22.7-16.7-8.8 0-19.3 3.2-19.3 13.3 0 8.6 7.1 10.5 11.7 11.6l27 6.6c15.1 3.7 29 9.9 29 29.8 0 33.3-33.9 36.2-43.6 36.2-40.4 0-47.3-23.3-47.3-37h22.2z"/></g><path d="m729.4 948h-21.7v-92.9h-.3l-20.7 92.9h-22.8l-20.3-92.9h-.3v92.9h-21.7v-111.2h33.9l20.1 87.6h.3l19.8-87.6h33.6v111.2z"/><path d="m764.8 948h-24.5l39.6-111.2h26.8l39.2 111.2h-25.2l-7.1-22.9h-41zm13.9-42.1h28.3l-13.8-44h-.3z"/><path d="m856.9 836.8h56.2c29.6 0 35 21.8 35 31.4 0 12.2-6.2 22.8-17.2 26.5 9.1 4 14.1 7.4 14.1 28.2 0 16.3 0 20.3 5 22.1v2.9h-25.7c-1.5-5.3-2.5-11-2.5-22.4 0-15.2-.9-21.1-18.1-21.1h-24v43.6h-22.8zm50 49c12.1 0 18-4.2 18-15.2 0-5.9-2.6-14.6-16.3-14.6h-29v29.7h27.3z"/><path d="m985 948h-23.2v-111.2h23.2v45.2l42.4-45.2h30l-45.4 45.5 48 65.6h-29.9l-34.4-48.8-10.7 11.3z"/><path d="m1153.7 856.5h-59v23.4h54.2v19.7h-54.2v28.8h61.6v19.6h-84.4v-111.2h81.7v19.7z"/><path d="m1219.9 948h-23.2v-91.5h-33.7v-19.7h90.4v19.7h-33.6v91.5z"/><path d="m580.6 594.5h712.3v16.8h-712.3z" fill="#3eb44a"/><path d="m580.6 773.3h712.3v15.9h-712.3z" fill="#3eb44a"/><path d="m571.2 102.8v158.4a75.08 75.08 0 0 0 147.5 6.9 75 75 0 0 0 145.5-1.1 75 75 0 0 0 146 2.6 75 75 0 0 0 146.2-3.4 75.07 75.07 0 0 0 147.9-5v-158.4z" fill="#3eb44a"/></g></svg>