<svg enable-background="new 0 0 1920 1080" viewBox="0 0 1920 1080" xmlns="http://www.w3.org/2000/svg"><g fill="#ff3947"><path d="m309.6 812.8v26.1h-20.4v-78.6h32.5c4.6 0 8.4.5 11.3 1.5 3 1 5.7 2.7 8.3 5.1 5.2 4.8 7.8 11.4 7.8 19.5 0 7.9-2.1 14.3-6.3 19-4.3 4.9-11 7.3-20.3 7.3zm0-16.4h6.8c4 0 6.7-.8 8.4-2.2 1.9-1.7 2.8-4.2 2.8-7.5 0-6.6-3.7-9.9-11.2-9.9h-6.8z"/><path d="m403.1 825.2h-28.1l-5.4 13.7h-21.6l30.3-78.6h22.2l29.6 78.6h-21.8zm-5.5-15.5-8.4-25-8.6 25z"/><path d="m490.4 764.9-8.2 15.9c-4.4-3.5-8.8-5.3-13.4-5.3-2.8 0-5.1.8-6.7 2.4-1.4 1.3-2 2.8-2 4.3 0 2.4 1.6 4.4 4.9 5.9.9.4 4.1 1.4 9.3 3 6.8 2.1 11.7 4.7 14.7 8.2 3 3.4 4.5 7.9 4.5 13.6 0 10.2-3.4 17.6-10.1 22.2-5.5 3.9-12.3 5.8-20.5 5.8-9.7 0-18.8-3-27.3-9l8.7-16.5c6.1 5.3 12.1 8 18 8 3.6 0 6.2-.9 7.8-2.8 1.3-1.5 2-3.1 2-4.8 0-2.2-.9-3.9-2.6-5.1s-5-2.6-9.7-4c-7.5-2.2-12.4-4.3-14.9-6.3-4.2-3.4-6.3-8.6-6.3-15.6 0-8.2 2.7-14.7 8.1-19.7 4.9-4.6 11.1-6.8 18.6-6.8 8.7.2 17 2.3 25.1 6.6z"/><path d="m557.7 764.9-8.2 15.9c-4.4-3.5-8.8-5.3-13.4-5.3-2.8 0-5.1.8-6.7 2.4-1.4 1.3-2 2.8-2 4.3 0 2.4 1.6 4.4 4.9 5.9.9.4 4.1 1.4 9.3 3 6.8 2.1 11.7 4.7 14.7 8.2 3 3.4 4.5 7.9 4.5 13.6 0 10.2-3.4 17.6-10.1 22.2-5.5 3.9-12.3 5.8-20.5 5.8-9.7 0-18.8-3-27.3-9l8.7-16.5c6.1 5.3 12.1 8 18 8 3.6 0 6.2-.9 7.8-2.8 1.3-1.5 2-3.1 2-4.8 0-2.2-.9-3.9-2.6-5.1s-5-2.6-9.7-4c-7.5-2.2-12.4-4.3-14.9-6.3-4.2-3.4-6.3-8.6-6.3-15.6 0-8.2 2.7-14.7 8.1-19.7 4.9-4.6 11.1-6.8 18.6-6.8 8.7.2 17.1 2.3 25.1 6.6z"/><path d="m594.1 760.4v78.6h-20.4v-78.6z"/><path d="m650.7 758c13.1 0 23.9 4.4 32.1 13.2 7.6 7.9 11.4 17.5 11.4 28.7 0 7.7-1.9 14.7-5.7 21.2-4.1 7-9.7 12.3-16.9 15.9-6.2 3.1-13.3 4.7-21.3 4.7-12.9 0-23.5-4.4-31.8-13.1-7.6-8-11.3-17.8-11.3-29.5 0-7.3 1.9-14.1 5.7-20.5 8-13.4 20.6-20.3 37.8-20.6zm0 19.8c-6.1 0-11.3 2.2-15.5 6.5-4.3 4.4-6.6 9.5-6.6 15.3 0 6.2 2.2 11.5 6.6 15.9 4.2 4.3 9.5 6.5 15.6 6.5s11.3-2.2 15.7-6.5c4.3-4.3 6.5-9.6 6.5-15.7 0-6.2-2.2-11.4-6.5-15.6-4.5-4.2-9.7-6.3-15.8-6.4z"/><path d="m707.1 838.9v-78.6h20.4l37.6 48.1v-48.1h20.4v78.6h-20.4l-37.6-48.1v48.1z"/><path d="m876.5 777.6h-24.6v13.1h22.4v17.2h-22.4v30.9h-20.4v-78.6h45z"/><path d="m929.3 806.7 24.6 32.2h-25.4l-19.5-30.2v30.2h-20.4v-78.6h31.8c4.4 0 8.2.6 11.3 1.6 3.1 1.1 5.8 2.8 8 5.3 4.5 4.7 6.7 10.5 6.7 17.4 0 3.4-.6 6.7-1.9 9.8s-3 5.6-5.2 7.5c-2.4 2.3-5.8 3.8-10 4.8zm-20.3-11.2h3.8c3.9 0 6.8-.7 8.7-2.1 1.1-.8 2-1.9 2.7-3.4s1.1-2.8 1.1-4.3-.3-2.8-1.1-4.3c-.7-1.5-1.6-2.6-2.7-3.4-2-1.4-4.9-2.1-8.7-2.1h-3.8z"/><path d="m982.1 760.4v42.5c0 4.5.1 7.5.3 9.1.3 1.6.9 3.3 1.9 4.9 2.3 4 6.1 5.9 11.4 5.9 2.6 0 4.9-.6 7.2-1.7 2.2-1.1 3.8-2.7 4.8-4.7.9-1.6 1.4-3.2 1.6-4.9s.4-4.7.4-8.8v-42.5h20.4v45.4c0 7.5-1 13.3-3 17.3-3 6.1-7.6 10.8-13.6 14-5.3 2.7-11.3 4.1-18.2 4.1-7.8 0-14.7-1.7-20.5-5.1-4.9-2.8-8.3-6.6-10.3-11.1s-2.9-10.9-2.9-19v-45.3z"/><path d="m1067.2 760.4v78.6h-20.4v-78.6z"/><path d="m1113.3 777.6v61.3h-20.4v-61.3h-16.6v-17.2h54v17.2z"/><path d="m1211.1 798.6 9.8 10.3c4.1-3.8 7.6-7.5 10.3-11.2l11.5 11.1c-2.4 3.1-5.9 6.9-10.8 11.5l17.6 18.6h-25.4l-6.8-7.2c-9.4 6.3-18.4 9.4-27.1 9.4-4.8 0-9.3-1-13.4-3.2-4-2.1-7-5.1-9.1-9-1.6-3.1-2.5-6.6-2.5-10.4 0-6.9 2.6-12.5 7.7-16.8 1.7-1.4 5.3-3.4 11-5.9-2.1-2.7-3.5-4.5-4.1-5.5-2.1-3.2-3.2-6.7-3.2-10.6 0-3.5.9-6.9 2.8-10.2 4.4-7.5 11.6-11.3 21.6-11.3 7.7 0 13.8 2.3 18.3 6.8 4.1 4.2 6.2 9 6.2 14.6 0 5.7-2.2 10.3-6.6 14-1.7 1.5-4.3 3.1-7.8 5zm-17.4 7.5c-4.9 3.1-7.4 6.2-7.4 9.3 0 2.2.9 4 2.6 5.3 1.7 1.4 3.9 2.2 6.6 2.2 3.6 0 7.2-1.1 10.7-3.4zm8.5-17.1c4.8-2.9 7.2-6.1 7.2-9.7 0-2.1-.7-3.8-2-5.2s-2.9-2.1-4.9-2.1c-1.9 0-3.4.6-4.7 1.9-1.2 1.2-1.9 2.8-1.9 4.7s.9 4.1 2.9 6.6c.5.7 1.1 1.5 2 2.4s1.4 1.4 1.4 1.4z"/><path d="m1307.7 790.7h29.5v-30.3h20.4v78.6h-20.4v-32.3h-29.5v32.3h-20.4v-78.6h20.4z"/><path d="m1418.8 777.6h-24.3v13.1h22.9v17.2h-22.9v13.7h24.3v17.2h-44.7v-78.6h44.7z"/><path d="m1472.4 806.7 24.6 32.2h-25.4l-19.5-30.2v30.2h-20.4v-78.6h31.8c4.4 0 8.2.6 11.3 1.6 3.1 1.1 5.8 2.8 8 5.3 4.5 4.7 6.7 10.5 6.7 17.4 0 3.4-.6 6.7-1.9 9.8s-3 5.6-5.2 7.5c-2.5 2.3-5.8 3.8-10 4.8zm-20.2-11.2h3.8c3.9 0 6.8-.7 8.7-2.1 1.1-.8 2-1.9 2.7-3.4s1.1-2.8 1.1-4.3-.3-2.8-1.1-4.3c-.7-1.5-1.6-2.6-2.7-3.4-2-1.4-4.9-2.1-8.7-2.1h-3.8z"/><path d="m1505.6 838.9v-78.6h30.4c7.3 0 12.8 1.8 16.5 5.4s5.6 8.6 5.6 15c0 4-.7 7.2-2 9.7-1.4 2.5-3.5 4.7-6.6 6.5 5.1 1 8.7 2.6 10.9 4.9 3.4 3.4 5.1 8.4 5.1 14.7s-2.2 11.5-6.4 15.5c-4.8 4.6-11.7 6.8-20.7 6.8zm20.5-47.6h3.7c3.1 0 5.5-.7 7.2-2s2.5-3.2 2.5-5.7-.8-4.4-2.4-5.7-4.1-2-7.2-2h-3.7zm0 31.7h4.6c4.6 0 7.9-.5 10.1-1.5 1.3-.6 2.2-1.5 3-2.8.8-1.2 1.1-2.7 1.1-4.1 0-3.2-1.3-5.4-3.9-6.8-1.1-.6-2.4-1-3.7-1.2s-3.6-.3-6.9-.3h-4.2z"/><path d="m1629.8 764.9-8.2 15.9c-4.4-3.5-8.8-5.3-13.4-5.3-2.8 0-5.1.8-6.7 2.4-1.4 1.3-2 2.8-2 4.3 0 2.4 1.6 4.4 4.9 5.9.9.4 4.1 1.4 9.3 3 6.8 2.1 11.7 4.7 14.7 8.2 3 3.4 4.5 7.9 4.5 13.6 0 10.2-3.4 17.6-10.2 22.2-5.5 3.9-12.3 5.8-20.5 5.8-9.7 0-18.8-3-27.3-9l8.7-16.5c6.1 5.3 12.1 8 18 8 3.6 0 6.2-.9 7.8-2.8 1.3-1.5 2-3.1 2-4.8 0-2.2-.9-3.9-2.6-5.1s-5-2.6-9.7-4c-7.5-2.2-12.4-4.3-14.9-6.3-4.2-3.4-6.3-8.6-6.3-15.6 0-8.2 2.7-14.7 8.1-19.7 4.9-4.6 11.1-6.8 18.6-6.8 8.8.2 17.1 2.3 25.2 6.6z"/><path d="m281.2 699.4h1356.5v25.5h-1356.5z"/><path d="m281.2 872.4h1356.5v25.5h-1356.5z"/><path d="m1335.3 301c-.6.4-1.6 1.2-2.8 2.1-4.9 3.6-16.5 12.2-44 32.1-47.6 34.7-90.3.9-90.3.9 47 25.4 117.5-21 134.3-33 1.4-1.1 2.3-1.7 2.8-2.1-16.1 4.6-30.7 6.5-51.5-3-.1 0-16.8-9-16.9-9-14-7.8-50.2-6.3-58 26.8l-40 25.3c40.3 44 111.4 50.4 155.3 10.1 17.1-15.7 27.9-35.6 32.5-56.6-7.7 2.1-14.7 4.5-21.4 6.4z"/><path d="m586.2 333.6c-20.6-53.7-61.1-97.6-112.6-122.3-19.1-9.2-39.7-15.8-61.4-19.3-2.5-.4-5-.8-7.5-1.1-9.4-1.2-19-1.8-28.6-1.8-9.7 0-19.2.6-28.6 1.8-12.5 1.6-24.7 4.2-36.5 7.8-9.2 2.8-18.3 6.1-27 10.1v.1 410.5.1c13.4 5.9 27.4 10.7 42 14 16.1 3.7 32.9 5.6 50.2 5.6 12.3 0 24.4-1 36.1-2.9 21.7-3.5 42.3-10.1 61.4-19.3 75.3-36.5 127.3-113.6 127.3-202.8 0-28.5-5.2-55.5-14.8-80.5zm-112.6 105.5c-4.7 52.7-27.1 100.1-61.4 136.5 0 0-.1 0-.1-.1v-314c0-.1.1-.1.1-.1 19.6 20.8 35.2 45.2 46 72.1 8 20.2 13.4 41.8 15.3 64.4.6 6.8.9 13.6.9 20.6s-.2 13.8-.8 20.6z"/><path d="m1222.2 337c-8.8-1.6-17.8-2.4-27.1-2.4-8 0-15.9.6-23.5 1.8-49.5 7.7-91.2 39-112.9 82.2-8 15.9-13.4 33.5-15.3 52.1v33.1c3.7 34.4 18.8 65.3 41.5 89s52.9 40.1 86.8 45.3c7.7 1.2 15.5 1.8 23.5 1.8 9.2 0 18.3-.9 27.1-2.4 71.4-12.8 125.6-75.2 125.6-150.3s-54.4-137.3-125.7-150.2zm-23.5 243.4c-15 0-27.1-40.9-27.1-91.3s12.2-91.3 27.1-91.3 27.1 40.9 27.1 91.3c0 50.5-12.2 91.3-27.1 91.3z"/><path d="m759.1 253c0 33.6-24.3 61.6-56.3 67.3-4 .7-8 1.1-12.2 1.1-3.6 0-7.1-.3-10.5-.8-30.3-4.7-54.1-29.4-57.5-60.2v-14.8c.9-8.4 3.3-16.2 6.9-23.4 9.7-19.3 28.4-33.4 50.6-36.8 3.4-.5 7-.8 10.5-.8 4.1 0 8.2.3 12.2 1 32 5.8 56.3 33.7 56.3 67.4z"/><path d="m1472.9 533.4c-8.3-3.8-15.3-9.8-20.3-17.2l-27.5 9.1-49.7 14-.5.2-17.2 4.8c.3 1.1.6 2.2.9 3.2 4.3 13.6 10 25.3 16.8 35.2 41.8 61.4 121.9 58.8 121.9 58.8 96.6 4.5 127-34.6 136.2-64.6 5.5-18.3 4.1-31.5 4.1-31.5 0-11.5-2.6-22.6-5.7-30.8-2.4-5.5-5.3-10.8-8.9-15.6-.1-.2-.3-.3-.4-.5-3.2-3.9-6.8-7.2-10.8-10-9.4-6.9-20.8-11.2-32.8-14-13.7-3.2-28.3-4.4-41.8-5.1-2.1-.1-4.1-.2-6.1-.3-1.2 0-2.4-.1-3.6-.1-5.5-.3-10.8-.4-15.6-.7-7.2-.4-14-.9-18.9-2.2-.2 0 .2 0 0 0-3.5-.5-8.4-4.3-8.7-10.8-.2-4.9 1.7-8.4 7.7-10.3 9.7-2.8 24.2.2 33.3 8.1 5 4.4 9.3 10 10.3 10.7l3.7-1 99.5-36.8c-1.7-4.7-7.9-18.8-24.1-37-1-1.3-24.4-31.3-65.5-46.9-14.6-5.5-31.3-9.2-50.2-9.2-87.6 0-122.6 47.9-122.6 90.5v1.2c0 1.1 0 2.2.1 3.3v.6c.1 1.6.2 3.2.3 4.7 0 .4 0 .8.1 1.2 2.1 24 11.3 40.9 23.8 52.5 5.3 5 11.2 9 17.4 12.5 9.9 5.3 20.8 9 31.3 11.5 4.2 1 8.4 1.9 12.3 2.6 5.7.9 11.2 1.7 16.2 2.4 4.1.5 8 .9 11.5 1.5 4.1.5 7.6 1 10.3 1.6 2.9 2.1 5.5 5.6 4.8 9.4-.2.9-1.1 2.9-1.8 3.5-3.4 4.4-6.4 5.5-12.8 6.1l-4.3-.4c-4.3-1-8.7-2.3-12.7-4.2"/><path d="m1062.7 576.9c-5.3 2.5-11 4.5-17 5.5-4 .7-8 1.1-12.2 1.1-3.6 0-7.1-.3-10.5-.8-30.3-4.7-54.1-29.4-57.5-60.2v-14.4c-.4-3.1-.7-6.2-.7-9.3v-136.3h46.2l1.1-.9-1.1-92.1-10.2-.1h-36.1v-78.5l-.7-8.8h-127.4l-.1 8.8v78.5h-48.7s-.1 0-.1.1v92.9s0 .1.1.1h48.7v160c1.2 10.3 3.6 20.3 7.1 29.8 2.3 6.3 5.1 12.4 8.3 18.3 22.1 40.1 64.2 67.4 112.9 68.3h2.7c37.4 0 71.2-15.6 95.1-40.7z"/><path d="m835.8 586.3c-4 .7-8 1.1-12.2 1.1-3.6 0-7.1-.3-10.5-.8-30.3-4.7-54.1-29.4-57.5-60.2v-14.8c.1-1.1.3-2.2.5-3.3-.4-3.1-.7-6.2-.7-9.4v-157.5h-128.2v181c1.2 10.3 3.6 20.3 7.1 29.8 2.3 6.3 5.1 12.4 8.3 18.3 22.1 40.1 64.2 67.4 112.9 68.3h2.7c35.2 0 67.1-13.9 90.8-36.4v-20c-4.2 1.8-8.6 3.1-13.2 3.9z"/></g></svg>