<svg enable-background="new 0 0 1920 1080" viewBox="0 0 1920 1080" xmlns="http://www.w3.org/2000/svg" xmlns:xlink="http://www.w3.org/1999/xlink"><linearGradient id="a"><stop offset="0" stop-color="#fff"/><stop offset="1" stop-color="#ffbe00"/></linearGradient><radialGradient id="b" cx="460.1397" cy="603.7212" fx="352.0851" fy="591.7388" gradientUnits="userSpaceOnUse" r="600.0876" xlink:href="#a"/><radialGradient id="c" cx="460.1397" cy="603.7211" fx="352.0851" fy="591.7386" gradientUnits="userSpaceOnUse" r="600.0877" xlink:href="#a"/><path d="m298.5 334.2c-81.5 51.3-114.6 113.4-126.2 164.1h-.2c-3.9 16.7-6.6 34-7.9 51.5 9.5.2 18.7 2.2 27.3 5.9 22.7-127.8 134.4-224.8 268.7-224.8 72.3 0 138 28.1 186.8 74 5.4-10.9 13.6-20.5 24-27.6-14.5-16.2-30.4-30.8-47.4-43.6-3.7-2.7-151.2-109-325.1.5z" fill="none"/><path d="m414.3 599.1c-8.6-6.1-18.9-7.8-30.8-4.9-11.5 2.8-19.7 8.9-24.5 18.3-4.9 9.5-5.7 20.9-2.5 34.3 3.3 13.5 9.1 23.2 17.6 29.1s18.6 7.4 30.5 4.6c11.9-2.9 20.3-8.9 25.1-18s5.6-20.4 2.4-34c-3.2-13.5-9.2-23.3-17.8-29.4z" fill="url(#b)"/><path d="m682.6 562.4-38.5-98.7c-7.7-19.8-6.1-41.1 2.8-58.9-48.8-45.9-114.5-74-186.8-74-134.3 0-246 97-268.7 224.8 18.9 8.1 34.3 24 40.9 45.1l31.7 101.2c8.2 26.1.7 53.5-17.1 72.1 50 62.5 126.9 102.6 213.2 102.6 149.8 0 271.3-120.7 272.9-270.1-22.2-5.5-41.5-21.3-50.4-44.1zm-210.4 118.8c-8.6 17.6-22.7 28.8-42.4 33.5-11.9 2.9-22.5 3.1-31.8.7-7.2-1.9-14.1-5.4-20.6-10.6-1.8-1.4-4.3.2-3.8 2.4l3 11.6c.3 1.3-.5 2.6-1.7 2.9l-37.8 9.1c-1.2.3-2.4-.4-2.8-1.5l-91-253.3c-.6-1.7.8-3.4 2.6-3.1l72.2 11.9c.9.2 1.7.9 1.9 1.8l20.2 83.7c1.1 4.7 1.7 9.4 2.8 14.1.4 1.7.8 3.2 1.2 4.7.5 2.2 3.6 2.4 4.5.4 3.8-8.6 8-14.8 13.6-20.3 7.1-6.9 16.1-11.7 26.9-14.3 21.3-5.1 39.7-2.1 55 9.1s26 29.4 32.1 54.6c5.8 24.1 4.5 45-4.1 62.6zm117.1-121.6c-17.6 4.2-29.1 11.7-34.7 22.5s-5.8 26.8-.8 47.9l11.7 49c.3 1.3-.5 2.6-1.9 2.9l-40.5 7.7c-1.1.2-2.3-.4-2.7-1.5l-63.7-175.8c-.6-1.7.8-3.4 2.6-3.2l65.5 9.6c1 .1 1.8.9 2 1.9l7.6 35.3c.5 2.6 4.2 2.5 4.6-.1 2.3-14 6.7-25.6 13.1-34.8 8.6-12.2 20.9-20.2 37-24.1 3.7-.9 9.8-1.6 18.5-2.3.5 0 1-.1 1.5-.1 1.3-.1 2.4.9 2.5 2.1l5.6 58.9c.1 1.5-1.2 2.7-2.7 2.6-3.7-.4-7.4-.6-11.1-.4-4.5.1-9.2.7-14.1 1.9zm74.3 83.2c-2.9 15.8-18 26.2-33.7 23.3s-26.2-18-23.3-33.7c2.9-15.8 18-26.2 33.7-23.3 15.8 2.9 26.2 18 23.3 33.7z" fill="url(#c)"/><path d="m141.3 553c7.6-2.4 15.3-3.4 22.9-3.3 1.3-17.5 3.9-34.7 7.9-51.5l-40.6-1.8c0-.5 0-.9 0-1.4-4 18.9-6.5 38.4-7.5 58.1-21.5 16.5-31.4 45.5-22.4 72.5l41.1 122.7c10.3 30.9 42 49 73.3 43.5l-78.7-237.4c1.2-.4 2.6-.9 4-1.4z" fill="#1a1a1a"/><path d="m810.4 522.6-41.9-122.5c-9.5-27.8-36.2-45-64.2-44-21.2-24.8-45.1-46.5-71-64.5-.5 1.9-2.7 11.2-9.7 42.1 0 0 0 0-.1-.1 17 12.8 32.9 27.4 47.4 43.6 4.5-3.1 9.3-5.7 14.6-7.7 1.4-.5 2.7-1 4.1-1.4l86.8 234.6c29.7-13.9 44.8-48.5 34-80.1z" fill="#1a1a1a"/><path d="m172.1 498.3h.2c11.5-50.8 44.7-112.8 126.2-164.1 173.9-109.5 321.5-3.2 325.1-.5 0 0 .1.1.1.1 7-30.9 9.3-40.2 9.7-42.1.1-.3.1-.4.1-.4-65.5-54.2-200.2-86.7-314.9-39.7-114.1 46.7-186.2 167.8-187.1 243.6v1.4z" fill="#fb4700"/><path d="m264 701.9-31.6-101.2c-6.6-21-22-37-40.9-45.1-8.5-3.7-17.8-5.7-27.3-5.9-7.6-.1-15.3.9-22.9 3.3-1.4.4-2.8.9-4.1 1.4l78.7 237.4.4 1.1c12.1-3.8 22.4-10.4 30.6-19 17.8-18.4 25.2-45.9 17.1-72z" fill="#fb4700"/><path d="m685.5 369.5c-5.3 2-10.1 4.7-14.6 7.7-10.4 7.1-18.5 16.7-24 27.6-8.9 17.8-10.5 39-2.8 58.9l38.5 98.7c8.9 22.8 28.2 38.6 50.3 44.1 14.1 3.5 29.3 2.9 43.8-2.7l-.4-1.1-86.8-234.6c-1.2.4-2.6.9-4 1.4z" fill="#fb4700"/><path d="m444.2 563.8c-15.3-11.2-33.7-14.2-55-9.1-10.8 2.6-19.7 7.4-26.9 14.3-5.7 5.5-9.9 11.7-13.6 20.3-.9 2.1-3.9 1.9-4.5-.4-.3-1.4-.7-2.9-1.2-4.7-1.2-4.6-1.7-9.4-2.8-14.1l-20.2-83.5c-.2-.9-1-1.6-1.9-1.8l-72.2-11.9c-1.8-.3-3.2 1.4-2.6 3.1l91 253.3c.4 1.1 1.6 1.8 2.8 1.5l37.8-9.1c1.3-.3 2.1-1.6 1.7-2.9l-3-11.6c-.6-2.2 2-3.9 3.8-2.4 6.5 5.2 13.4 8.8 20.6 10.6 9.3 2.4 20 2.2 31.8-.7 19.7-4.8 33.8-15.9 42.4-33.5 8.5-17.6 9.9-38.5 4-62.8-6-25.2-16.7-43.4-32-54.6zm-14.4 98.7c-4.8 9.1-13.2 15.1-25.1 18s-22.1 1.3-30.5-4.6c-8.5-5.9-14.3-15.6-17.6-29.1-3.2-13.4-2.4-24.8 2.5-34.3s13-15.6 24.5-18.3c11.9-2.9 22.1-1.2 30.8 4.9 8.6 6.1 14.6 16 17.8 29.5s2.4 24.8-2.4 33.9z" fill="#fb4700"/><path d="m640.3 609.1c-15.8-2.9-30.8 7.6-33.7 23.3-2.9 15.8 7.6 30.8 23.3 33.7s30.8-7.6 33.7-23.3-7.5-30.8-23.3-33.7z" fill="#fb4700"/><path d="m614.6 558c1.5.2 2.8-1 2.7-2.6l-5.6-58.9c-.1-1.3-1.2-2.2-2.5-2.1-.5 0-1 .1-1.5.1-8.7.7-14.9 1.4-18.5 2.3-16.1 3.8-28.4 11.9-37 24.1-6.5 9.2-10.8 20.8-13.1 34.8-.4 2.6-4.1 2.7-4.6.1l-7.6-35.3c-.2-1-1-1.7-2-1.9l-65.5-9.6c-1.8-.3-3.2 1.5-2.6 3.2l63.7 175.8c.4 1.1 1.5 1.7 2.7 1.5l40.5-7.7c1.3-.3 2.2-1.6 1.9-2.9l-11.7-49c-5-21.1-4.8-37 .8-47.9 5.6-10.8 17.1-18.3 34.7-22.5 4.9-1.2 9.6-1.8 14.2-2 3.5 0 7.2.1 11 .5z" fill="#fb4700"/><g fill="#1a1a1a"><path d="m903.4 551.1v-213.5h82.6c19.9 0 34.9 5 44.9 14.9 10.1 9.9 15.2 23.5 15.2 40.8 0 10.7-1.8 19.5-5.5 26.4s-9.6 12.7-18 17.5c13.8 2.7 23.7 7.1 29.7 13.3 9.2 9.4 13.8 22.7 13.8 40 0 17.2-5.8 31.2-17.4 42.1-13 12.3-31.8 18.5-56.3 18.5zm55.6-129.5h10.2c8.4 0 14.9-1.8 19.4-5.3s6.7-8.7 6.7-15.5-2.2-11.9-6.6-15.5c-4.4-3.5-10.9-5.3-19.5-5.3h-10.2zm0 86.3h12.4c12.3 0 21.4-1.3 27.4-3.9 3.4-1.6 6.2-4 8.2-7.4s3-7.2 3-11.3c0-8.7-3.5-14.8-10.6-18.5-3.1-1.7-6.5-2.7-10.1-3.2s-9.9-.7-18.8-.7h-11.5z"/><path d="m1106.1 321.3c8 0 14.9 2.8 20.5 8.4s8.4 12.4 8.4 20.3c0 8-2.8 14.9-8.4 20.5s-12.4 8.4-20.3 8.4c-8.1 0-15-2.8-20.5-8.4-5.6-5.7-8.4-12.7-8.4-20.8 0-7.7 2.8-14.4 8.4-19.9s12.3-8.4 20.3-8.5zm25.6 84.6v145.1h-51.3v-145.1z"/><path d="m1264.8 410.2-17.4 33.2c-9.7-4.7-19-7-28-7-4.6 0-8.3 1-11.3 2.9-2.9 1.9-4.4 4.4-4.4 7.4 0 3.9 2.7 6.8 8.1 8.8 1.6.6 6.5 1.8 14.9 3.6 12 2.4 21.1 6.1 27.4 11.1 9.9 7.7 14.9 18.4 14.9 31.9 0 17.8-7.1 31.7-21.3 41.8-12.2 8.5-28.1 12.8-47.7 12.8-19.7 0-39-5.6-58-16.7l18.6-36.3c14.7 9.8 28.3 14.7 40.8 14.7 4.7 0 8.5-1 11.6-3.1 3-2.1 4.5-4.7 4.5-8 0-3.6-1.4-6.3-4.1-8.1-2.8-1.7-8.7-3.5-17.8-5.4-12.3-2.6-21.5-5.9-27.5-10-10-6.7-15-16.8-15-30.3 0-15.1 5.4-27.6 16.1-37.4 11.2-10.1 27.3-15.2 48.5-15.2 16.2-.1 31.9 3 47.1 9.3z"/><path d="m1391.4 316.2h51.3v234.9h-51.3v-16c-11.1 13.8-26 20.6-44.7 20.6-12.2 0-23.9-3.1-35-9.2-12.2-6.9-21.7-16.3-28.5-28.3-6.6-11.7-9.9-25-9.9-40 0-24.7 8.6-44.5 25.8-59.3 13.7-11.8 29.3-17.7 47.1-17.7 9.4 0 17.7 1.5 24.9 4.5s14 7.8 20.3 14.4zm-31.6 129.3c-9.2 0-17 3.2-23.5 9.7s-9.7 14.1-9.7 22.8c0 9.4 3.2 17.3 9.7 23.8 6.4 6.5 14.2 9.7 23.5 9.7 9.2 0 17-3.2 23.5-9.7 6.5-6.4 9.7-14.1 9.7-23.3s-3.2-16.9-9.6-23.3c-6.5-6.4-14.3-9.6-23.6-9.7z"/><path d="m1574 405.9h51.3v145.1h-51.3v-16c-11.1 13.8-26 20.6-44.7 20.6-12.2 0-23.9-3.1-35-9.2-12.2-6.9-21.7-16.3-28.5-28.3-6.6-11.7-9.9-25-9.9-40 0-24.7 8.6-44.5 25.8-59.3 13.7-11.8 29.3-17.7 47.1-17.7 9.4 0 17.7 1.5 24.9 4.5s14 7.8 20.3 14.4zm-31.6 39.6c-9.2 0-17 3.2-23.5 9.7s-9.7 14.1-9.7 22.8c0 9.4 3.2 17.3 9.7 23.8 6.4 6.5 14.2 9.7 23.5 9.7 9.2 0 17-3.2 23.5-9.7 6.5-6.4 9.7-14.1 9.7-23.3s-3.2-16.9-9.6-23.3c-6.5-6.4-14.3-9.6-23.6-9.7z"/><path d="m1695.6 316.2v142l53.6-52.2h70.4l-72.7 66.9 77.1 78.2h-71.9l-56.5-59.1v59.1h-51.3v-234.9z"/><path d="m1026.2 710.8 67.1 87.6h-69.1l-52.9-82v82h-55.5v-213.5h86.3c12 0 22.2 1.5 30.6 4.5s15.7 7.8 21.8 14.2c12.2 12.9 18.3 28.7 18.3 47.2 0 9.4-1.7 18.3-5.2 26.7s-8.2 15.3-14.2 20.5c-6.7 5.9-15.8 10.2-27.2 12.8zm-54.9-30.4h10.3c10.5 0 18.5-1.9 23.8-5.6 2.9-2.2 5.4-5.2 7.4-9.1s3-7.8 3-11.7-1-7.7-3-11.7c-2-3.9-4.4-7-7.4-9.1-5.3-3.8-13.2-5.6-23.8-5.6h-10.3z"/><path d="m1204.1 653.2h51.3v145.1h-51.3v-16c-11.1 13.8-26 20.6-44.7 20.6-12.2 0-23.9-3.1-35-9.2-12.2-6.9-21.7-16.3-28.5-28.3-6.6-11.7-9.9-25-9.9-40 0-24.7 8.6-44.5 25.8-59.3 13.7-11.8 29.3-17.7 47.1-17.7 9.4 0 17.7 1.5 24.9 4.5s14 7.8 20.3 14.4zm-31.6 39.6c-9.2 0-17 3.2-23.5 9.7s-9.7 14.1-9.7 22.8c0 9.4 3.2 17.3 9.7 23.8 6.4 6.5 14.2 9.7 23.5 9.7 9.2 0 17-3.2 23.5-9.7 6.5-6.4 9.7-14.1 9.7-23.3s-3.2-16.9-9.6-23.3c-6.5-6.4-14.3-9.6-23.6-9.7z"/><path d="m1386.7 563.4h51.3v234.9h-51.3v-16c-11.1 13.8-26 20.6-44.7 20.6-12.2 0-23.9-3.1-35-9.2-12.2-6.9-21.7-16.3-28.5-28.3-6.6-11.7-9.9-25-9.9-40 0-24.7 8.6-44.5 25.8-59.3 13.7-11.8 29.3-17.7 47.1-17.7 9.4 0 17.7 1.5 24.9 4.5s14 7.8 20.3 14.4zm-31.6 129.4c-9.2 0-17 3.2-23.5 9.7s-9.7 14.1-9.7 22.8c0 9.4 3.2 17.3 9.7 23.8 6.4 6.5 14.2 9.7 23.5 9.7 9.2 0 17-3.2 23.5-9.7 6.5-6.4 9.7-14.1 9.7-23.3s-3.2-16.9-9.6-23.3c-6.5-6.4-14.3-9.6-23.6-9.7z"/><path d="m1482.5 568.6c8 0 14.9 2.8 20.5 8.4s8.4 12.4 8.4 20.3c0 8-2.8 14.9-8.4 20.5s-12.4 8.4-20.3 8.4c-8.1 0-15-2.8-20.5-8.4-5.6-5.7-8.4-12.7-8.4-20.8 0-7.7 2.8-14.4 8.4-19.9 5.6-5.6 12.4-8.4 20.3-8.5zm25.6 84.6v145.1h-51.3v-145.1z"/><path d="m1608.8 647.9c28.8 0 51.2 8.8 67.4 26.3 13.3 14.4 20 31.6 20 51.6 0 23.6-8.8 42.9-26.3 57.9-15.6 13.5-36.3 20.2-61.9 20.2-16.3 0-31.5-3.5-45.7-10.5-13.2-6.6-23.6-16.6-31.1-30-6.5-11.4-9.7-24.3-9.7-38.8 0-22.4 8.8-41.2 26.3-56.5 15.1-13.1 35.4-19.8 61-20.2zm0 44.3c-9.2 0-16.9 3.2-23.3 9.7-6.5 6.6-9.7 14.3-9.7 23.1 0 9.5 3.2 17.5 9.7 24.1 6.4 6.5 14.2 9.7 23.5 9.7 9.1 0 16.8-3.2 23.3-9.7 6.5-6.6 9.7-14.4 9.7-23.6 0-9.3-3.2-17.1-9.5-23.5-6.4-6.5-14.3-9.7-23.7-9.8z"/></g></svg>