<svg viewBox="0 0 1728.96 591.11" xmlns="http://www.w3.org/2000/svg"><g transform="translate(-123.94 -212.6)"><path d="m409.7 803.7c12.4 0 56.3.6 105.4-16.3 0 0 59.9-17.5 108.8-65.1 20.2-19.6 41.8-48.6 54.6-72.1 27.5-50.3 36.9-89.5 36-144.5-1.7-31-3.6-58-17.2-94.9-4.7-12.8-9.2-23.9-14.6-34-22.3-42.1-46.2-64.9-46.2-64.9-2.5-2.9-101-115.2-240.9-70.4-90.5 29.1-131.6 134.5-103.8 134.5 5 0 9-8.8 15.1-21.6 7.9-16.5 14-23 19.1-27.8a2.11 2.11 0 0 1 2.4-.3 2.08 2.08 0 0 1 .6 3.1 242.6 242.6 0 0 0 -22.9 35.8c-12 23.5-20.1 56.8-4.3 56.8 9.4 0 12.4-25.7 26.6-48.2 8.6-13.7 12.2-20.9 18.6-27.8a2 2 0 0 1 2-.7l.9.5a2.41 2.41 0 0 1 .1 2.5c-4.1 6.1-8.8 11.2-15.9 27.7-11.6 26.7-19 63.7-7.1 65.5 11.3 1.7 14.9-20.4 26.8-42.7 6.4-12 14.1-26.4 22.1-31.5 2.6-1.6 4.8-.9 3.4 1.7l-.3.6c-20.5 28-25.8 68.7-16.2 71.7 11.1 3.5 18.4-10.4 26.6-29.1 22.2-50.2 68.8-60.5 68.8-60.5h.6a2.41 2.41 0 0 1 1.1 4.6c-5.7 2.5-13.2 6.9-21.8 14.7-15.3 13.9-15.6 26.9-14.9 32.4a2.44 2.44 0 0 0 3.1 2c4.8-1.5 27.2-4.4 51.2-3.1 17.2.9 35.6 4.4 51.1 11.1 18.3 7.8 32.8 17.6 46.7 33.4 10 11.3 20.4 24.3 28.9 44.5 59.2 140.3-53.6 302.2-187.7 306.8a6.76 6.76 0 0 0 -6.8 5.6z" fill="#00007e"/><path d="m428.9 212.6a11.29 11.29 0 0 1 -10.5 9.1c-132.8 6.7-243 164.3-184.2 303.6 8.5 20.2 18.9 33.2 28.9 44.5 13.9 15.7 28.4 25.5 46.7 33.4 15.6 6.7 34 10.2 51.1 11.1 24 1.3 46.4-1.6 51.2-3.1a2.38 2.38 0 0 1 3.1 2c.7 5.5.4 18.5-14.9 32.4-8.6 7.9-16 12.3-21.8 14.7a2.41 2.41 0 0 0 1.1 4.6h.6s46.6-10.4 68.8-60.5c8.3-18.7 15.5-32.6 26.6-29.1 9.5 3 4.2 43.7-16.2 71.7l-.3.6c-1.4 2.7.8 3.4 3.4 1.7 8.1-5.2 15.7-19.6 22.1-31.5 11.9-22.3 15.6-44.5 26.8-42.7 11.9 1.8 4.5 38.8-7.1 65.5-7.2 16.5-11.8 21.6-15.9 27.7a2.69 2.69 0 0 0 .1 2.5l.9.5a2 2 0 0 0 2-.7c6.4-7 10-14.2 18.6-27.8 14.2-22.5 17.2-48.2 26.6-48.2 15.8 0 7.7 33.3-4.3 56.8a242.6 242.6 0 0 1 -22.9 35.8 2.08 2.08 0 0 0 .6 3.1 2.11 2.11 0 0 0 2.4-.3c5.1-4.9 11.2-11.3 19.1-27.8 6.1-12.8 10.1-21.6 15.1-21.6 27.8 0-13.4 105.4-103.9 134.4-139.7 44.6-238.2-67.7-240.7-70.6s-23.9-22.8-46.2-64.9c-5.3-10.1-9.8-21.2-14.6-34-13.6-36.9-15.5-63.8-17.2-94.9-.9-55 8.5-94.2 36-144.5 12.8-23.4 34.5-52.4 54.6-72.1 48.9-47.6 108.8-65.1 108.8-65.1 49.2-16.9 93.1-16.3 105.5-16.3z" fill="#fe6a00"/><g fill="#4d4d4d"><path d="m831.1 317.8h-4.8c-7.9 0-11.1-3.1-11.1-9.2s3.3-9.2 11.1-9.2h4.8v-17.1c0-9.2 5.6-14 14-14s14 4.8 14 14v17.1h8.4c8.3 0 12.7 2.5 12.7 9.2s-4.4 9.2-12.7 9.2h-8.4v56.1c0 4.2 2.3 6.5 7.3 6.5h4c6.1 0 9.8 3.5 9.8 9.4 0 8.1-6.9 12.5-20.4 12.5-20.4 0-28.8-8.4-28.8-25v-59.5z"/><path d="m883.3 273.1c0-9.2 5.6-14 14-14s14 4.8 14 14v38.6h.4c5.6-7.3 15.4-14.8 31.3-14.8 16.9 0 35.3 8.5 35.3 36.9v54.5c0 7.5-3.1 14-14 14s-14-6.5-14-14v-49c0-11.3-5.6-19.4-17.7-19.4a21.78 21.78 0 0 0 -21.3 22.1v46.3c0 7.5-3.1 14-14 14s-14-6.5-14-14z"/><path d="m1013 354.9c0 14.8 9.6 25.5 25.9 25.5 21.1 0 21.1-13.8 32.5-13.8 6.7 0 11.5 5.8 11.5 10.9 0 16.9-27.1 24.8-44 24.8-39.2 0-54-26.5-54-50.9 0-32.6 19.8-54.5 53-54.5 32.3 0 50.7 22.9 50.7 45.9 0 9.6-2.9 12.1-12.3 12.1zm49.1-16.1c-1.5-12.9-11.1-22.3-23.6-22.3-14 0-22.5 8.6-25.5 22.3z"/><path d="m823.8 478.4c0-8.5 5-14 13.3-14s13.3 5.6 13.3 14v3.6h.4c7.3-11.1 19.6-17.7 33.8-17.7 9.6 0 21.7 4.4 26.9 17.7 7.9-10.9 17.9-17.7 33-17.7 19.4 0 35 8.8 35 34v57.4c0 7.5-3.1 14-14 14s-14-6.5-14-14v-50.3c0-10-4.4-18.1-15.4-18.1-10.8 0-20.4 8.6-20.4 21.7v46.7c0 7.5-3.1 14-14 14s-14-6.5-14-14v-50.3c0-10-4.4-18.1-15.4-18.1-10.8 0-20.4 8.6-20.4 21.7v46.7c0 7.5-3.1 14-14 14s-14-6.5-14-14v-77.3z"/><path d="m1027.4 540.4h.4l17.1-63.6c1.9-7.1 5.8-12.5 13.4-12.5 11.1 0 14.4 9.2 14.4 12.7 0 2.3-.8 5.2-2.1 8.8l-32.5 92c-6.7 19.2-14.4 29.2-32.1 29.2-12.5 0-17.7-6.1-17.7-12.9 0-7.5 5.4-11.3 12.9-11.3h2.9c3.7 0 7.7-.2 9.8-8.8l-29.2-83.2c-2.3-6.7-3.5-9.8-3.5-13.1a13.32 13.32 0 0 1 13.6-13.4c7.5 0 12.7 4.2 14.4 10.6z"/><path d="m1112.3 464.4c21.3 0 42.8 8.5 42.8 21.3 0 6.5-4.4 12.3-11.7 12.3-10.9 0-11.3-12.9-29-12.9-9.8 0-16.1 2.7-16.1 8.6 0 6.5 6.3 8.1 15 10l11.7 2.7c15.9 3.7 35 10.4 35 30 0 22.9-22.1 33.4-43.2 33.4-25.4 0-46.5-11.3-46.5-25.2 0-6.1 3.5-11.7 11.3-11.7 12.1 0 13.3 17.3 34 17.3 10 0 16.3-4.4 16.3-10.2 0-7.1-6.1-8.3-16.1-10.8l-16.5-4c-16.3-4-29-10.8-29-29.6-.1-22.8 22.6-31.2 42-31.2z"/><path d="m1173.6 485.3h-4.8c-7.9 0-11.1-3.1-11.1-9.2s3.3-9.2 11.1-9.2h4.8v-17.1c0-9.2 5.6-14 14-14s14 4.8 14 14v17.1h8.4c8.3 0 12.7 2.5 12.7 9.2s-4.4 9.2-12.7 9.2h-8.4v56.1c0 4.2 2.3 6.5 7.3 6.5h4c6.1 0 9.8 3.5 9.8 9.4 0 8.1-6.9 12.5-20.4 12.5-20.4 0-28.8-8.4-28.8-25v-59.5z"/><path d="m1241.4 425.8a14.6 14.6 0 1 1 -14.6 14.6 14.55 14.55 0 0 1 14.6-14.6zm-14 52.6c0-7.5 3.1-14 14-14s14 6.5 14 14v77.4c0 7.5-3.1 14-14 14s-14-6.5-14-14z"/><path d="m1314.9 464.4c23.4 0 40.9 13.3 40.9 26.3 0 8.1-6 12.1-13.1 12.1-13.3 0-8.4-16.5-28.6-16.5-10.9 0-23.8 7.5-23.8 32.8 0 17.5 8.3 28.8 23.6 28.8 19.6 0 15.4-18.1 30.2-18.1 7.1 0 11.7 5.2 11.7 10.8 0 12.3-13.8 29.2-42.6 29.2-34.6 0-50.9-21.3-50.9-50.7 0-32.2 18.3-54.7 52.6-54.7z"/><path d="m823.8 645.1c0-8.6 4-13.3 12.7-13.3 8.3 0 12.7 4.6 12.7 13.3v4.4h.4c4.6-11.9 15.9-17.7 29.6-17.7 23.4 0 44 17.1 44 53.4 0 26.9-13.6 52-43.2 52-12.9 0-22.5-5.2-27.7-14.2h-.4v37.5c0 9.2-5.6 14-14 14s-14-4.8-14-14v-115.4zm48.9 8.6c-16.3 0-22.5 14.6-22.5 30.5 0 14.4 5.4 31.3 22.5 31.1 17.9 0 22.3-18.1 22.3-31.1 0-16.4-7.3-30.1-22.3-30.5z"/><path d="m967.2 631.8c21.3 0 42.8 8.5 42.8 21.3 0 6.5-4.4 12.3-11.7 12.3-10.9 0-11.3-12.9-29-12.9-9.8 0-16.1 2.7-16.1 8.6 0 6.5 6.3 8.1 15 10l11.7 2.7c15.9 3.7 35 10.4 35 30 0 22.9-22.1 33.4-43.2 33.4-25.4 0-46.5-11.3-46.5-25.2 0-6.1 3.5-11.7 11.3-11.7 12.1 0 13.3 17.3 34 17.3 10 0 16.3-4.4 16.3-10.2 0-7.1-6.1-8.3-16.1-10.8l-16.5-4c-16.3-4-29-10.8-29-29.6 0-22.7 22.7-31.2 42-31.2z"/><path d="m1058.5 707.9h.4l17.1-63.6c1.9-7.1 5.8-12.5 13.4-12.5 11.1 0 14.4 9.2 14.4 12.7 0 2.3-.8 5.2-2.1 8.8l-32.5 92c-6.7 19.2-14.4 29.2-32.1 29.2-12.5 0-17.7-6.1-17.7-12.9 0-7.5 5.4-11.3 12.9-11.3h2.9c3.7 0 7.7-.2 9.8-8.8l-29.2-83.2c-2.3-6.7-3.5-9.8-3.5-13.1a13.32 13.32 0 0 1 13.6-13.4c7.5 0 12.7 4.2 14.4 10.6z"/><path d="m1153 631.8c23.4 0 40.9 13.3 40.9 26.3 0 8.1-6 12.1-13.1 12.1-13.3 0-8.4-16.5-28.6-16.5-10.9 0-23.8 7.5-23.8 32.8 0 17.5 8.3 28.8 23.6 28.8 19.6 0 15.4-18.1 30.2-18.1 7.1 0 11.7 5.2 11.7 10.8 0 12.3-13.8 29.2-42.6 29.2-34.6 0-50.9-21.3-50.9-50.7 0-32.2 18.2-54.7 52.6-54.7z"/><path d="m1197.4 608c0-9.2 5.6-14 14-14s14 4.8 14 14v38.6h.4c5.6-7.3 15.4-14.8 31.3-14.8 16.9 0 35.3 8.5 35.3 36.9v54.5c0 7.5-3.1 14-14 14s-14-6.5-14-14v-49c0-11.3-5.6-19.4-17.7-19.4a21.78 21.78 0 0 0 -21.3 22.1v46.3c0 7.5-3.1 14-14 14s-14-6.5-14-14z"/><path d="m1350.9 631.8c33.8 0 51.9 23 51.9 52.6 0 28-13.6 52.8-51.9 52.8s-51.9-24.8-51.9-52.8c0-29.5 18.1-52.6 51.9-52.6zm0 84.7c16.7 0 23.8-15 23.8-32.1 0-18.2-7.5-31.9-23.8-31.9s-23.8 13.6-23.8 31.9c-.1 17.2 7 32.1 23.8 32.1z"/><path d="m1410.8 608c0-9.2 5.6-14 14-14s14 4.8 14 14v115.2c0 9.2-5.6 14-14 14s-14-4.8-14-14z"/><path d="m1498.8 631.8c33.8 0 51.9 23 51.9 52.6 0 28-13.6 52.8-51.9 52.8s-51.9-24.8-51.9-52.8c0-29.5 18.1-52.6 51.9-52.6zm0 84.7c16.7 0 23.8-15 23.8-32.1 0-18.2-7.5-31.9-23.8-31.9s-23.8 13.6-23.8 31.9c0 17.2 7.1 32.1 23.8 32.1z"/><path d="m1652.2 726.5c0 33.8-20.7 49.4-49.9 49.4-21.3 0-42.3-9.6-42.3-23.2a11.66 11.66 0 0 1 11.5-11.9c11.7 0 14 14.4 29.8 14.4 17.1 0 24-8.6 24-30.7v-5.8h-.4c-5 7.3-15.9 13.4-27.1 13.4-29.6 0-44.9-19.2-44.9-46.9 0-36.3 20.4-53.4 44-53.4 13.6 0 24.4 6.3 29.6 16.7h.4v-3.5c0-8.6 4.4-13.3 12.7-13.3 8.6 0 12.7 4.6 12.7 13.3v81.5zm-48.9-15.1c12.5 0 22.1-8.3 22.1-28.2 0-20.4-7.7-29.4-20.7-29.4-18.1 0-23.6 13.3-23.6 30.5-.1 12.8 6.2 27.1 22.2 27.1z"/><path d="m1678.6 593.2a14.6 14.6 0 1 1 -14.6 14.6 14.55 14.55 0 0 1 14.6-14.6zm-14 52.7c0-7.5 3.1-14 14-14s14 6.5 14 14v77.4c0 7.5-3.1 14-14 14s-14-6.5-14-14z"/><path d="m1742.5 631.8c21.3 0 42.8 8.5 42.8 21.3 0 6.5-4.4 12.3-11.7 12.3-10.9 0-11.3-12.9-29-12.9-9.8 0-16.1 2.7-16.1 8.6 0 6.5 6.3 8.1 15 10l11.7 2.7c15.9 3.7 35 10.4 35 30 0 22.9-22.1 33.4-43.2 33.4-25.4 0-46.5-11.3-46.5-25.2 0-6.1 3.5-11.7 11.3-11.7 12.1 0 13.3 17.3 34 17.3 10 0 16.3-4.4 16.3-10.2 0-7.1-6.1-8.3-16.1-10.8l-16.5-4c-16.3-4-29-10.8-29-29.6 0-22.7 22.7-31.2 42-31.2z"/><path d="m1803.8 652.8h-4.8c-7.9 0-11.1-3.1-11.1-9.2s3.3-9.2 11.1-9.2h4.8v-17.1c0-9.2 5.6-14 14-14s14 4.8 14 14v17.1h8.4c8.3 0 12.7 2.5 12.7 9.2s-4.4 9.2-12.7 9.2h-8.4v56.1c0 4.2 2.3 6.5 7.3 6.5h4c6.1 0 9.8 3.5 9.8 9.4 0 8.1-6.9 12.5-20.4 12.5-20.4 0-28.8-8.4-28.8-25v-59.5z"/></g></g></svg>