<svg viewBox="0 0 1769.01 697.05" xmlns="http://www.w3.org/2000/svg"><g transform="translate(-93.99 -191.85)"><path d="m1621.8 627.3c11.8 13.3 22.7 29.7 71.2 50.8 22.7 9.9 50.8 0 59.9-26.8 5.6-16.7-12.6-39.6-25.3-55.5-11-13.8-24-28.5-35.4-41.9-13.8-16.1-25.2-27.6-36.1-45.9-4.7-7.8-10.1-21.8-12.1-30.7-1.7-7.9-2-26.1-.5-34.1 6.8-35.9 40.8-59.5 76.4-67.4 0 0 130.5-28.5 143.1 102.9l-12.4 1c-35.6-61-80.2-60.5-85-60.5-7.2 0-34.2-1.6-34 29.2 0 9.1 8.1 18.8 17.5 31 37.1 48.4 100.6 76.5 98.4 143.5-.5 16.8-6.1 31.2-18.7 49.2-9.2 13.2-18.9 23.4-34.1 31.4-22.3 11.7-35.6 15.3-55.8 16.3-86.6 0-117.1-78.7-117.1-78.7z" fill="#ff1d1d"/><path d="m1052.4 343.7c-23.9.9-55.4 1.9-89.3 2.7-5.4 107.8-3.8 261.5-1.2 314.7 2.5 50.2 23.9 50.9 25 50.9-3.4 1.6-147.2 66.4-147-53.6.1-76.8 2.1-216.6 3.6-309.2-65.5 1.3-117.9 2.2-117.9 2.2s-40.4-114.4 45.4-114.5 242.1 6.9 289.9 2.2c41.6-4.1 41.8-26.1 41.8-26.6 0 0 48.7 127.5-50.3 131.2z" fill="#ff1d1d"/><path d="m1313.6 493.1c-51.3 16.4-73.2-28.3-47.8-76 0 0-93.4-18.2-109.2 217-1.9 27.5-2.7 58.4-2.1 93.3-21.4 5.6-100.5 22.2-101.6-43-1.2-75.4 8.4-209.8 3.6-251.8-4.1-36-22.9-36.4-23.9-36.4 2.9-1.2 111.4-43.4 116 42.5.7 13.9 1.5 30.6 2.3 49 7.5-34.7 31.6-103 105.9-117.4 100.7-19.5 108 106.5 56.8 122.8z" fill="#ff1d1d"/><path d="m1427.7 630.4c0-3.4 1.4-3.1 1.4-3.1 71.2 0 176.8-70.3 176.8-160 0-172.6-260.2-124.2-262 132.3-1.8 254.4 253.1 68.9 263.3 41.5l-.1-12.4s-179.4 135.9-179.4 1.7zm127.1-155.8c8.2 80.2-86.8 121.5-125.7 132.4 2.6-123.7 118.5-203 125.7-132.4z" fill="#ff1d1d"/><path d="m535.6 570.2c-90.3-20.1-120.4-25.1-170.6 5 0 0 15.8-64.9 52-115.6-18.6 9.8-32.6 23-47.3 43.9a403.21 403.21 0 0 1 -5-62c-9.9 8.8-18.9 16.1-25.7 21.3a371.43 371.43 0 0 1 -4.4 40.7c-9.9-14.1-19.5-24.7-30.3-33.1 31 48.6 44.7 104.7 44.7 104.7-50.2-30.1-80.3-25.1-170.6-5-83.8 18.7-124.4-109.1-30.2-156-49-43.8-15.2-153.7 94.9-137.7a107.7 107.7 0 0 1 17.8 4.1c0-48.1 42.4-85.1 86.7-88.4 47.4-3.5 96.8 30.4 93.3 87.1.1.6.3 1.3.4 2a106.26 106.26 0 0 1 19.8-4.7c107.7-15.6 142.4 89.1 98 134.7 102.6 44 62 178-23.5 159z" fill="#03ea13"/><path d="m620.5 587.9v38.1c0 145.2-117.7 262.9-262.9 262.9s-263-117.6-263-262.8v-38.1h252.7l-74.6 103.7c-48.2 67.1-.3 160.6 82.3 160.6s130.5-93.3 82.5-160.4l-74.4-103.9h257.4z" fill="#00a4ff"/><g fill="#ff1d1d"><path d="m770 805a24 24 0 0 1 -2.2 11 18.36 18.36 0 0 1 -6 6.9 22.92 22.92 0 0 1 -8.8 3.5 50.28 50.28 0 0 1 -10.4 1h-8.7v28.3h-6v-69.3l7.5-.6c2.6-.2 5.3-.3 7.9-.3 9.3 0 16.1 1.6 20.4 4.9 4.1 3.4 6.3 8.2 6.3 14.6zm-6.4.6a14.76 14.76 0 0 0 -1.6-7.4 11.9 11.9 0 0 0 -4.3-4.6 18.12 18.12 0 0 0 -6.4-2.4 40 40 0 0 0 -7.9-.7c-2.2 0-4.1 0-5.5.1l-4.2.3v31.5h9.8c6.3 0 11.3-1.3 14.8-3.9s5.3-6.9 5.3-12.9z"/><path d="m820.2 855.7h-6v-5.6a21.15 21.15 0 0 1 -6.8 4.5 24.47 24.47 0 0 1 -10.6 2 20.16 20.16 0 0 1 -6.4-.9 15.4 15.4 0 0 1 -4.6-2.4 12.16 12.16 0 0 1 -4.5-7.4 23.38 23.38 0 0 1 -.7-4.5c-.1-1.6-.2-3.1-.2-4.7v-29.6h.4a6.8 6.8 0 0 1 3.8 1.1c1.1.8 1.7 2.3 1.7 4.5v24.1a29.66 29.66 0 0 0 .3 4.2 16 16 0 0 0 .8 3.6c1.3 4.5 5.2 6.7 11.7 6.7a19.82 19.82 0 0 0 5.3-.7 31.22 31.22 0 0 0 4.9-1.8 11 11 0 0 0 3.6-2.5 4 4 0 0 0 1.4-2.6v-36.6h.4a6.8 6.8 0 0 1 3.8 1.1c1.1.8 1.7 2.3 1.7 4.6z"/><path d="m842.7 812.8a22.48 22.48 0 0 1 1.7-2.1 10.33 10.33 0 0 1 2.5-2.1 12.62 12.62 0 0 1 3.3-1.6 12.45 12.45 0 0 1 4-.6 9 9 0 0 1 2.2.2 15.54 15.54 0 0 1 2.3.5 4.18 4.18 0 0 1 1.8 1.1 2.49 2.49 0 0 1 .7 1.9 4.42 4.42 0 0 1 -.7 2.4 23.61 23.61 0 0 1 -1.3 2 7.61 7.61 0 0 0 -2.6-1.8 10.44 10.44 0 0 0 -3.8-.6 9.71 9.71 0 0 0 -3.7.7 14 14 0 0 0 -3.2 1.8 9 9 0 0 0 -2.2 2.6 5.64 5.64 0 0 0 -.8 3v35.7h-5.9v-48.5h.4a6.58 6.58 0 0 1 3.8 1.2c.9.6 1.5 2.1 1.5 4.2z"/><path d="m878.3 794.4a4.84 4.84 0 0 1 -1.3 3.4 4.36 4.36 0 0 1 -6.4 0 4.67 4.67 0 0 1 -1.3-3.4 4.84 4.84 0 0 1 1.3-3.4 4.36 4.36 0 0 1 6.4 0 5.13 5.13 0 0 1 1.3 3.4zm-.2 61.8a7 7 0 0 1 -3.9-.9 6.11 6.11 0 0 1 -2.1-2.4 9 9 0 0 1 -.8-3.4c-.1-1.3-.2-2.6-.2-4v-38.4h.3a7 7 0 0 1 3.8 1.1c1.2.7 1.8 2.2 1.8 4.3v33.3a18.33 18.33 0 0 0 .3 3.7 6.14 6.14 0 0 0 .9 2.3 3.11 3.11 0 0 0 1.6 1.2 14.43 14.43 0 0 0 2.4.5v2.2a20.69 20.69 0 0 1 -2.2.4 12.1 12.1 0 0 1 -1.9.1z"/><path d="m931.8 856.2a7.51 7.51 0 0 1 -3.9-.9 5.42 5.42 0 0 1 -2.1-2.4 11.32 11.32 0 0 1 -.8-3.4c-.1-1.3-.1-2.6-.1-4v-33.4h-24.6v43.6h-5.9v-54.7a46.78 46.78 0 0 1 .3-5.5q1.2-7.2 6-10.8a19.74 19.74 0 0 1 12.1-3.6 22.79 22.79 0 0 1 14.3 4.8 4.43 4.43 0 0 1 1.5 1.7 4.19 4.19 0 0 1 .4 1.5 3.69 3.69 0 0 1 -.5 1.7 14.51 14.51 0 0 1 -1.2 1.9h-.9a15.89 15.89 0 0 0 -5.5-4.6 16.69 16.69 0 0 0 -8.3-1.9 15.6 15.6 0 0 0 -7.8 2 9.42 9.42 0 0 0 -4.3 6.8 30.43 30.43 0 0 0 -.3 4.4v7.9h30.6v38.7a18.33 18.33 0 0 0 .3 3.7 6.14 6.14 0 0 0 .9 2.3 3.11 3.11 0 0 0 1.6 1.2 14.43 14.43 0 0 0 2.4.5v2.2a20.69 20.69 0 0 1 -2.2.4 12.75 12.75 0 0 0 -2-.1z"/><path d="m984.9 849.8a3.47 3.47 0 0 1 -1.2 2.2 14.23 14.23 0 0 1 -3.4 2.4 22.55 22.55 0 0 1 -5.2 2 24 24 0 0 1 -6.8.8 27.31 27.31 0 0 1 -9.2-1.5 19.28 19.28 0 0 1 -7.3-4.6 20.16 20.16 0 0 1 -4.7-8.1 37.24 37.24 0 0 1 -1.7-11.8 31.89 31.89 0 0 1 1.8-11.3 20.32 20.32 0 0 1 11.9-12.2 22.37 22.37 0 0 1 8.1-1.5 19.28 19.28 0 0 1 8.7 1.8 16.2 16.2 0 0 1 5.9 4.7 19.1 19.1 0 0 1 3.3 6.7 28.77 28.77 0 0 1 1 7.8 49.86 49.86 0 0 1 -.3 5.3h-34.1a32.89 32.89 0 0 0 1.1 8 17.21 17.21 0 0 0 3.1 6.2 13.72 13.72 0 0 0 5.2 4 18.43 18.43 0 0 0 7.4 1.4 19.06 19.06 0 0 0 5.6-.7 17.45 17.45 0 0 0 4.1-1.7 16.93 16.93 0 0 0 2.8-2 11.48 11.48 0 0 0 1.6-1.8c.7.8 1.2 1.5 1.7 2.1a5.16 5.16 0 0 1 .6 1.8zm-4.7-21.6a33.4 33.4 0 0 0 -.6-6.5 14.33 14.33 0 0 0 -2.2-5.4 10.62 10.62 0 0 0 -4.2-3.6 14.63 14.63 0 0 0 -6.6-1.4 13.73 13.73 0 0 0 -10.5 4.4c-2.7 2.9-4.1 7.1-4.3 12.5z"/><path d="m1032.3 855.7v-4.7a10.24 10.24 0 0 1 -1.8 1.9 14.21 14.21 0 0 1 -3 2 19.48 19.48 0 0 1 -4.1 1.6 18.37 18.37 0 0 1 -5.5.7 26.29 26.29 0 0 1 -8-1.3 18.16 18.16 0 0 1 -6.7-4.4 21.63 21.63 0 0 1 -4.6-7.7 35.08 35.08 0 0 1 -1.7-11.6 33.87 33.87 0 0 1 2-12.4 23.29 23.29 0 0 1 5.3-8 19.27 19.27 0 0 1 7-4.3 24.35 24.35 0 0 1 7.4-1.2 19.06 19.06 0 0 1 5.6.7 26.7 26.7 0 0 1 4.1 1.7 16 16 0 0 1 2.6 1.9l1.2 1.2v-29.8h1.1a4.42 4.42 0 0 1 1.5.2 3.29 3.29 0 0 1 1.6.7 4.17 4.17 0 0 1 1.3 1.6 6.84 6.84 0 0 1 .5 2.7v68.6h-5.8zm-28.9-24.6a42.79 42.79 0 0 0 .8 8.4 21.37 21.37 0 0 0 2.7 6.7 12.23 12.23 0 0 0 4.9 4.4 15.13 15.13 0 0 0 7.3 1.6 17.18 17.18 0 0 0 5.2-.8 19.49 19.49 0 0 0 4.1-1.9 13.81 13.81 0 0 0 2.8-2.5 4.46 4.46 0 0 0 1.1-2.6v-27.1c-.4-.5-1-1.1-1.7-1.8a11.84 11.84 0 0 0 -2.7-2 17.93 17.93 0 0 0 -3.7-1.6 14.05 14.05 0 0 0 -4.7-.7c-5.2 0-9.2 1.7-12 5-2.7 3.5-4.1 8.4-4.1 14.9z"/><path d="m1127.2 820.3a47.74 47.74 0 0 1 -2.8 17 27.31 27.31 0 0 1 -9.6 12.5c-5.2 3.9-12.2 5.8-21.1 5.8h-17.6v-69.4c3.3-.4 6.3-.6 9-.7s5.2-.2 7.6-.2c6.9 0 12.6.9 17.1 2.8a25.52 25.52 0 0 1 10.5 7.6 27.25 27.25 0 0 1 5.3 11.1 54.27 54.27 0 0 1 1.6 13.5zm-6.3.1a48.21 48.21 0 0 0 -1.3-11.7 23.32 23.32 0 0 0 -4.4-9.4 21.85 21.85 0 0 0 -8.6-6.4c-3.6-1.6-8.1-2.3-13.5-2.3-1.7 0-3.4 0-5.3.1s-3.7.2-5.6.4v59.6h11.9c5.4 0 9.7-.9 13.2-2.7a22.51 22.51 0 0 0 8.2-7 27.26 27.26 0 0 0 4.2-9.7 51.25 51.25 0 0 0 1.2-10.9z"/><path d="m1147.2 812.8a22.48 22.48 0 0 1 1.7-2.1 10.33 10.33 0 0 1 2.5-2.1 12.62 12.62 0 0 1 3.3-1.6 12.45 12.45 0 0 1 4-.6 9 9 0 0 1 2.2.2c.8.2 1.6.3 2.3.5a4.18 4.18 0 0 1 1.8 1.1 2.49 2.49 0 0 1 .7 1.9 4.42 4.42 0 0 1 -.7 2.4 23.61 23.61 0 0 1 -1.3 2 7.61 7.61 0 0 0 -2.6-1.8 10.44 10.44 0 0 0 -3.8-.6 9.71 9.71 0 0 0 -3.7.7 14 14 0 0 0 -3.2 1.8 9 9 0 0 0 -2.2 2.6 5.64 5.64 0 0 0 -.8 3v35.7h-5.9v-48.5h.4a6.58 6.58 0 0 1 3.8 1.2c.9.6 1.5 2.1 1.5 4.2z"/><path d="m1182.7 794.4a4.84 4.84 0 0 1 -1.3 3.4 4.31 4.31 0 0 1 -3.2 1.4 4.48 4.48 0 0 1 -3.2-1.4 4.67 4.67 0 0 1 -1.3-3.4 4.84 4.84 0 0 1 1.3-3.4 4 4 0 0 1 3.2-1.4 4.48 4.48 0 0 1 3.2 1.4 4.67 4.67 0 0 1 1.3 3.4zm-.2 61.8a7 7 0 0 1 -3.9-.9 6.11 6.11 0 0 1 -2.1-2.4 9 9 0 0 1 -.8-3.4c-.1-1.3-.2-2.6-.2-4v-38.4h.3a7 7 0 0 1 3.8 1.1c1.2.7 1.8 2.2 1.8 4.3v33.3a18.33 18.33 0 0 0 .3 3.7 6.14 6.14 0 0 0 .9 2.3 3.11 3.11 0 0 0 1.6 1.2 14.43 14.43 0 0 0 2.4.5v2.2a20.69 20.69 0 0 1 -2.2.4 10.89 10.89 0 0 1 -1.9.1z"/><path d="m1204.5 812.9a20.62 20.62 0 0 1 6.9-4.5 25.24 25.24 0 0 1 10.7-2 20.82 20.82 0 0 1 6.5.9 15.4 15.4 0 0 1 4.6 2.4 12.06 12.06 0 0 1 3 3.4 15.65 15.65 0 0 1 1.5 3.9 35 35 0 0 1 .7 4.5c.1 1.6.2 3.1.2 4.7v29.5h-5.9v-29.6c0-1.4-.1-2.8-.2-4.2a16.41 16.41 0 0 0 -.7-3.6c-1.3-4.4-5.3-6.7-11.8-6.7a20.24 20.24 0 0 0 -4.3.5 17 17 0 0 0 -4 1.3 19.22 19.22 0 0 0 -3.5 1.8 13.79 13.79 0 0 0 -2.5 2.1 3.54 3.54 0 0 0 -.8 2.6v35.8h-5.9v-48.5h.4a7 7 0 0 1 3.8 1.1c.8.8 1.3 2.3 1.3 4.6z"/><path d="m1255.2 855.7v-73.7h1.1a3.64 3.64 0 0 1 1.4.2 3.74 3.74 0 0 1 1.6.7 4.17 4.17 0 0 1 1.3 1.6 5.55 5.55 0 0 1 .6 2.8v68.5h-6zm9.4-25.6v-2.9l17.3-17a12.73 12.73 0 0 1 2.8-2.2 5.66 5.66 0 0 1 2.8-.8 4.53 4.53 0 0 1 1.6.3 7.26 7.26 0 0 1 1.2.5c.4.3.8.5 1.1.7l-20.5 19.8 23.7 27.5a8.66 8.66 0 0 1 -3.2.6c-2.6 0-4.8-1.2-6.8-3.5z"/><path d="m1311.5 794.4a4.84 4.84 0 0 1 -1.3 3.4 4.31 4.31 0 0 1 -3.2 1.4 4.48 4.48 0 0 1 -3.2-1.4 4.67 4.67 0 0 1 -1.3-3.4 4.84 4.84 0 0 1 1.3-3.4 4.31 4.31 0 0 1 3.2-1.4 4.48 4.48 0 0 1 3.2 1.4 4.67 4.67 0 0 1 1.3 3.4zm-.2 61.8a7 7 0 0 1 -3.9-.9 6.11 6.11 0 0 1 -2.1-2.4 9 9 0 0 1 -.8-3.4c-.1-1.3-.2-2.6-.2-4v-38.4h.3a7 7 0 0 1 3.8 1.1c1.2.7 1.8 2.2 1.8 4.3v33.3a18.33 18.33 0 0 0 .3 3.7 6.14 6.14 0 0 0 .9 2.3 3.11 3.11 0 0 0 1.6 1.2 14.43 14.43 0 0 0 2.4.5v2.2a20.69 20.69 0 0 1 -2.2.4 10.89 10.89 0 0 1 -1.9.1z"/><path d="m1333.3 812.9a20.62 20.62 0 0 1 6.9-4.5 25.24 25.24 0 0 1 10.7-2 20.82 20.82 0 0 1 6.5.9 15.4 15.4 0 0 1 4.6 2.4 12.06 12.06 0 0 1 3 3.4 15.65 15.65 0 0 1 1.5 3.9 35 35 0 0 1 .7 4.5c.1 1.6.2 3.1.2 4.7v29.5h-5.9v-29.6c0-1.4-.1-2.8-.2-4.2a16.41 16.41 0 0 0 -.7-3.6c-1.3-4.4-5.3-6.7-11.8-6.7a20.24 20.24 0 0 0 -4.3.5 17 17 0 0 0 -4 1.3 19.22 19.22 0 0 0 -3.5 1.8 13.79 13.79 0 0 0 -2.5 2.1 3.54 3.54 0 0 0 -.8 2.6v35.8h-5.9v-48.5h.4a7 7 0 0 1 3.8 1.1c.8.8 1.3 2.3 1.3 4.6z"/><path d="m1422.5 853.1c0 2.2-.1 4.3-.2 6.3a34 34 0 0 1 -.8 5.7 17.18 17.18 0 0 1 -7 10.6c-3.6 2.5-8.5 3.7-14.8 3.7a30.54 30.54 0 0 1 -9.6-1.3 16.85 16.85 0 0 1 -5.9-3 4.89 4.89 0 0 1 -1.2-1.5 3.08 3.08 0 0 1 -.3-1.3 3.22 3.22 0 0 1 .9-2 12.31 12.31 0 0 1 1.5-1.6 14.79 14.79 0 0 0 3.6 2.9 18.94 18.94 0 0 0 4.5 2 24.32 24.32 0 0 0 6.4.8c9.8 0 15.2-4 16.4-11.9a30.52 30.52 0 0 0 .5-5.2c0-1.7.1-3.3.1-4.7v-1.8c-.6.5-1.2 1.2-2 1.9a13.24 13.24 0 0 1 -2.9 1.9 18.57 18.57 0 0 1 -4 1.5 20.9 20.9 0 0 1 -5.3.6 24.63 24.63 0 0 1 -8.1-1.4 16.89 16.89 0 0 1 -6.8-4.5 21.63 21.63 0 0 1 -4.6-7.7 33.83 33.83 0 0 1 -1.7-11.2 31 31 0 0 1 2.1-12.2 21.73 21.73 0 0 1 5.2-7.8 18.21 18.21 0 0 1 7-4.2 24.84 24.84 0 0 1 7.4-1.2 19.32 19.32 0 0 1 5.7.7 21.83 21.83 0 0 1 4 1.7 11.46 11.46 0 0 1 2.5 1.9l1.2 1.2c0-1.9.6-3.1 1.7-3.8a5.61 5.61 0 0 1 3-1h.4a2.27 2.27 0 0 0 .4.1h.4v45.8zm-34.8-22a40.16 40.16 0 0 0 .8 8 21.18 21.18 0 0 0 2.7 6.5 12.23 12.23 0 0 0 4.9 4.4 15.13 15.13 0 0 0 7.3 1.6 17.85 17.85 0 0 0 5.3-.8 17.39 17.39 0 0 0 4.1-1.9 13.11 13.11 0 0 0 2.7-2.5 4.27 4.27 0 0 0 1-2.6v-26.5c-.4-.5-1-1.1-1.7-1.8a11.84 11.84 0 0 0 -2.7-2 17.93 17.93 0 0 0 -3.7-1.6 14.05 14.05 0 0 0 -4.7-.7c-5.2 0-9.2 1.7-12 5-2.6 3.5-4 8.4-4 14.9z"/><path d="m1515.7 856.2h-7l-13.9-45.2-14.1 45.2h-7.1l-23.1-70c.3-.1.7-.1 1.1-.2a7.59 7.59 0 0 1 1.6-.1 4.24 4.24 0 0 1 3.4 1.3 11.62 11.62 0 0 1 2.1 3.7l18.6 59.9 14.8-49.1-4.5-15.6c.3-.1.7-.1 1.1-.2s.9-.1 1.4-.1a4.24 4.24 0 0 1 3.4 1.3 8.61 8.61 0 0 1 1.9 3.7l16.9 59.7 17.9-59.4a9.21 9.21 0 0 1 2.1-3.8 4.54 4.54 0 0 1 3.5-1.5 4.87 4.87 0 0 1 1.2.1 4.25 4.25 0 0 1 1.1.2z"/><path d="m1580.9 855.7a16.41 16.41 0 0 1 -3.7.5 9.51 9.51 0 0 1 -5.4-1.5 6 6 0 0 1 -2.5-5 26 26 0 0 1 -7.1 5 22.38 22.38 0 0 1 -9.7 2 23.4 23.4 0 0 1 -5-.6 14.77 14.77 0 0 1 -5-2.1 12.29 12.29 0 0 1 -3.8-4.3 14.67 14.67 0 0 1 -1.5-7.1 13.18 13.18 0 0 1 2.8-8.7 19.17 19.17 0 0 1 7-5.2 32.59 32.59 0 0 1 8.9-2.5 56.05 56.05 0 0 1 8.6-.7h2.4s1.5.1 2.3.2v-2.7a23.35 23.35 0 0 0 -.5-4.7 7.58 7.58 0 0 0 -1.8-3.7 9.65 9.65 0 0 0 -3.6-2.5 17.45 17.45 0 0 0 -6.1-.9 24.6 24.6 0 0 0 -8.6 1.4 21.46 21.46 0 0 0 -5.7 3h-.9a6.4 6.4 0 0 1 -1.5-3.4 2.06 2.06 0 0 1 .8-1.5 15.62 15.62 0 0 1 1.9-1.3 24.93 24.93 0 0 1 6.7-2.3 35.94 35.94 0 0 1 7.8-.9 28 28 0 0 1 8.4 1.1 13.5 13.5 0 0 1 5.4 3.4 12.5 12.5 0 0 1 2.8 5.5 34.09 34.09 0 0 1 .8 7.6v20.8a19.07 19.07 0 0 0 .4 4.6 7.38 7.38 0 0 0 1.1 2.5 2.89 2.89 0 0 0 1.8 1.1 15 15 0 0 0 2.4.4v2.5zm-11.6-25.9a5.7 5.7 0 0 0 -1.3-.1h-1.4a73.37 73.37 0 0 0 -8.1.5 25.82 25.82 0 0 0 -7.5 1.9 14.25 14.25 0 0 0 -5.4 3.8 9.31 9.31 0 0 0 -2.1 6.4 10.6 10.6 0 0 0 .5 3.5 7.3 7.3 0 0 0 1.6 3 8.13 8.13 0 0 0 3 2.1 13.17 13.17 0 0 0 4.9.8 20.46 20.46 0 0 0 6.1-.9 21 21 0 0 0 5-2.3 14.39 14.39 0 0 0 3.4-2.7 3.91 3.91 0 0 0 1.2-2.3v-13.7z"/><path d="m1613.4 807.2v4.8h-16.2v30.5c0 3.2.6 5.6 1.8 7.3s3.1 2.5 5.8 2.5a9.2 9.2 0 0 0 3.8-.7 15.74 15.74 0 0 0 2.9-1.6 17.53 17.53 0 0 0 2.4-2.3 13.27 13.27 0 0 1 1.9 2.2 3.07 3.07 0 0 1 .5 1.3 3 3 0 0 1 -.8 1.6 12.68 12.68 0 0 1 -2.4 2 15.87 15.87 0 0 1 -3.7 1.7 15.5 15.5 0 0 1 -5 .7 14.34 14.34 0 0 1 -8-2 10.61 10.61 0 0 1 -4-5.3 16.69 16.69 0 0 1 -.8-4c-.1-1.5-.2-3-.2-4.6v-49.1h.9a4.42 4.42 0 0 1 1.5.2 4.59 4.59 0 0 1 1.6.7 5 5 0 0 1 2 4.4v9.7z"/><path d="m1662 849.8a3.47 3.47 0 0 1 -1.2 2.2 14.23 14.23 0 0 1 -3.4 2.4 22.55 22.55 0 0 1 -5.2 2 28.2 28.2 0 0 1 -6.8.8 27.31 27.31 0 0 1 -9.2-1.5 19.28 19.28 0 0 1 -7.3-4.6 20.16 20.16 0 0 1 -4.7-8.1 37.24 37.24 0 0 1 -1.7-11.8 31.89 31.89 0 0 1 1.8-11.3 20.32 20.32 0 0 1 11.9-12.2 22.37 22.37 0 0 1 8.1-1.5 19.28 19.28 0 0 1 8.7 1.8 16.2 16.2 0 0 1 5.9 4.7 19.1 19.1 0 0 1 3.3 6.7 28.77 28.77 0 0 1 1 7.8 49.86 49.86 0 0 1 -.3 5.3h-34.1a32.89 32.89 0 0 0 1.1 8 17.21 17.21 0 0 0 3.1 6.2 13.72 13.72 0 0 0 5.2 4 18.43 18.43 0 0 0 7.4 1.4 19.06 19.06 0 0 0 5.6-.7 17.45 17.45 0 0 0 4.1-1.7 16.93 16.93 0 0 0 2.8-2 11.48 11.48 0 0 0 1.6-1.8c.7.8 1.2 1.5 1.7 2.1a5.16 5.16 0 0 1 .6 1.8zm-4.7-21.6a33.4 33.4 0 0 0 -.6-6.5 14.33 14.33 0 0 0 -2.2-5.4 10.62 10.62 0 0 0 -4.2-3.6 14.63 14.63 0 0 0 -6.6-1.4 13.73 13.73 0 0 0 -10.5 4.4c-2.7 2.9-4.1 7.1-4.3 12.5z"/><path d="m1682.7 812.8a22.48 22.48 0 0 1 1.7-2.1 10.33 10.33 0 0 1 2.5-2.1 12.62 12.62 0 0 1 3.3-1.6 12.45 12.45 0 0 1 4-.6 9 9 0 0 1 2.2.2c.8.2 1.6.3 2.3.5a4.18 4.18 0 0 1 1.8 1.1 2.49 2.49 0 0 1 .7 1.9 4.42 4.42 0 0 1 -.7 2.4 23.61 23.61 0 0 1 -1.3 2 7.61 7.61 0 0 0 -2.6-1.8 10.44 10.44 0 0 0 -3.8-.6 9.71 9.71 0 0 0 -3.7.7 14 14 0 0 0 -3.2 1.8 9 9 0 0 0 -2.2 2.6 5.64 5.64 0 0 0 -.8 3v35.7h-5.9v-48.5h.4a6.58 6.58 0 0 1 3.8 1.2c.9.6 1.5 2.1 1.5 4.2z"/></g></g></svg>