<svg enable-background="new 0 0 1920 1080" viewBox="0 0 1920 1080" xmlns="http://www.w3.org/2000/svg"><g fill="#13a828"><path d="m1131.9 225.6h-63.5v163.9h-52.4v-164h-63.5v-39.3h179.3z"/><path d="m1303.4 389.5h-49.3v-76c0-6.2-.3-12.3-1-18.5-.6-6.1-1.7-10.7-3.3-13.6-1.8-3.4-4.5-5.8-8-7.4-3.5-1.5-8.4-2.3-14.7-2.3-4.5 0-9 .7-13.6 2.2s-9.6 3.8-14.9 7v108.6h-49.3v-212.4h49.3v76c8.7-6.8 17.1-12.1 25.1-15.7s17-5.5 26.8-5.5c16.5 0 29.5 4.8 38.8 14.5 9.3 9.6 14 24.1 14 43.3z"/><path d="m1488.2 321.9h-112.4c.7 12 5.3 21.2 13.7 27.6s20.8 9.6 37.2 9.6c10.4 0 20.4-1.9 30.2-5.6 9.7-3.7 17.4-7.7 23.1-12h5.5v39.4c-11.1 4.5-21.6 7.7-31.4 9.7s-20.7 3-32.6 3c-30.8 0-54.3-6.9-70.7-20.7s-24.6-33.5-24.6-59.1c0-25.3 7.8-45.3 23.3-60.1s36.8-22.2 63.8-22.2c24.9 0 43.7 6.3 56.2 18.9 12.6 12.6 18.8 30.7 18.8 54.4zm-48.8-28.8c-.3-10.3-2.8-18-7.6-23.2s-12.3-7.8-22.5-7.8c-9.5 0-17.2 2.5-23.3 7.4s-9.5 12.8-10.2 23.6z"/><path d="m1152.6 632.9c-9.1 3.5-21.2 7.1-36.2 10.6s-30 5.3-44.9 5.3c-34.6 0-61.6-9.4-81.2-28.2s-29.3-44.8-29.3-77.8c0-31.6 9.9-57 29.6-76.3s47.3-29 82.6-29c13.4 0 26.1 1.2 38.2 3.6s25.6 7.2 40.4 14.4v47.5h-5.9c-2.5-1.9-6.3-4.6-11.2-8.1s-9.6-6.5-14.2-8.9c-5.3-2.9-11.4-5.4-18.5-7.5s-14.5-3.1-22.4-3.1c-9.3 0-17.7 1.4-25.2 4.1-7.6 2.7-14.3 6.9-20.3 12.6-5.7 5.5-10.3 12.4-13.6 20.8s-5 18.1-5 29.1c0 22.5 6 39.7 17.9 51.6s29.5 17.9 52.8 17.9c2 0 4.2 0 6.6-.1s4.6-.2 6.6-.4v-40.2h-40.5v-38.3h93.7z"/><path d="m1296.7 538.1h-4.4c-2.1-.7-5.4-1.3-10.1-1.6-4.6-.4-8.5-.5-11.6-.5-7 0-13.2.5-18.5 1.4-5.4.9-11.1 2.5-17.3 4.6v102.6h-49.3v-153.4h49.3v22.5c10.8-9.3 20.2-15.4 28.2-18.5 8-3 15.3-4.6 22.1-4.6 1.7 0 3.7 0 5.9.1s4.1.2 5.7.4z"/><path d="m1464.2 576.9h-112.4c.7 12 5.3 21.2 13.7 27.6s20.8 9.6 37.2 9.6c10.4 0 20.4-1.9 30.2-5.6 9.7-3.7 17.4-7.7 23.1-12h5.5v39.4c-11.1 4.5-21.6 7.7-31.4 9.7s-20.7 3-32.6 3c-30.8 0-54.3-6.9-70.7-20.7s-24.6-33.5-24.6-59.1c0-25.3 7.8-45.3 23.3-60.1s36.8-22.2 63.8-22.2c24.9 0 43.7 6.3 56.2 18.9 12.6 12.6 18.8 30.7 18.8 54.4zm-48.9-28.7c-.3-10.3-2.8-18-7.6-23.2s-12.3-7.8-22.5-7.8c-9.5 0-17.2 2.5-23.3 7.4s-9.5 12.8-10.2 23.6z"/><path d="m1638.7 576.9h-112.4c.7 12 5.3 21.2 13.7 27.6s20.8 9.6 37.2 9.6c10.4 0 20.4-1.9 30.2-5.6 9.7-3.7 17.4-7.7 23.1-12h5.5v39.4c-11.1 4.5-21.6 7.7-31.4 9.7s-20.7 3-32.6 3c-30.8 0-54.3-6.9-70.7-20.7s-24.6-33.5-24.6-59.1c0-25.3 7.8-45.3 23.3-60.1s36.8-22.2 63.8-22.2c24.9 0 43.7 6.3 56.2 18.9 12.6 12.6 18.8 30.7 18.8 54.4zm-48.9-28.7c-.3-10.3-2.8-18-7.6-23.2s-12.3-7.8-22.5-7.8c-9.5 0-17.2 2.5-23.3 7.4s-9.5 12.8-10.2 23.6z"/><path d="m1816.1 644.5h-49.3v-76c0-6.2-.3-12.3-1-18.5-.6-6.1-1.7-10.7-3.3-13.6-1.8-3.4-4.5-5.8-8-7.4-3.5-1.5-8.4-2.3-14.7-2.3-4.5 0-9 .7-13.6 2.2s-9.6 3.8-14.9 7v108.6h-49.3v-153.4h49.3v16.9c8.7-6.8 17.1-12.1 25.1-15.7s17-5.5 26.8-5.5c16.5 0 29.5 4.8 38.8 14.5 9.3 9.6 14 24.1 14 43.3z"/><path d="m1131.9 735.6h-63.5v163.9h-52.4v-164h-63.5v-39.3h179.3z"/><path d="m1242.2 883.3c-2.6 2-5.9 4.4-9.8 7.2s-7.6 5-11.1 6.7c-4.8 2.2-9.8 3.8-15 4.8s-10.9 1.6-17.1 1.6c-14.6 0-26.7-4.5-36.6-13.5-9.8-9-14.7-20.5-14.7-34.5 0-11.2 2.5-20.3 7.5-27.4s12.1-12.7 21.3-16.8c9.1-4.1 20.4-7 33.8-8.7 13.5-1.7 27.4-3 41.9-3.8v-.8c0-8.5-3.5-14.3-10.4-17.5s-17.1-4.8-30.6-4.8c-8.1 0-16.7 1.4-25.9 4.3s-15.8 5.1-19.8 6.6h-4.5v-37c5.2-1.4 13.6-3 25.3-4.8 11.7-1.9 23.4-2.8 35.1-2.8 27.9 0 48.1 4.3 60.5 12.9s18.6 22.1 18.6 40.5v104.3h-48.7v-16.5zm0-23.9v-31.8c-6.6.5-13.8 1.3-21.6 2.2-7.7 1-13.6 2.1-17.6 3.3-4.9 1.5-8.7 3.8-11.3 6.7s-3.9 6.8-3.9 11.6c0 3.2.3 5.8.8 7.8s1.9 3.9 4.1 5.7c2.1 1.8 4.6 3.2 7.5 4 2.9.9 7.5 1.3 13.6 1.3 4.9 0 9.9-1 14.9-3 5.2-2 9.6-4.5 13.5-7.8z"/><path d="m1484.9 820.8c0 24.1-6.7 43.8-20 58.9-13.3 15.2-29.9 22.8-49.8 22.8-8.5 0-16-.9-22.5-2.7s-12.6-4.5-18.4-7.9l-2.1 7.6h-47.2v-212.3h49.3v75.1c7.5-6 15.2-10.9 23.1-14.6s16.9-5.6 27.2-5.6c19.4 0 34.3 7 44.7 20.9 10.5 13.9 15.6 33.2 15.7 57.8zm-50.6 1c0-13.6-2.3-24.1-6.9-31.5s-12.9-11-24.8-11c-4.6 0-9.4.7-14.3 2.1s-9.6 3.4-14 6.1v76.8c3.5 1.3 6.9 2.1 10.1 2.6s7 .7 11.4.7c13 0 22.6-3.8 29-11.4 6.3-7.8 9.4-19.2 9.5-34.4z"/><path d="m1558.5 899.5h-49.3v-212.3h49.3z"/><path d="m1744.5 832h-112.4c.7 12 5.3 21.2 13.7 27.6s20.8 9.6 37.2 9.6c10.4 0 20.4-1.9 30.2-5.6 9.7-3.7 17.4-7.7 23.1-12h5.5v39.3c-11.1 4.5-21.6 7.7-31.4 9.7s-20.7 3-32.6 3c-30.8 0-54.3-6.9-70.7-20.7s-24.6-33.5-24.6-59.1c0-25.3 7.8-45.3 23.3-60.1s36.8-22.2 63.8-22.2c24.9 0 43.7 6.3 56.2 18.9 12.6 12.6 18.8 30.7 18.8 54.4zm-48.9-28.8c-.3-10.3-2.8-18-7.6-23.2s-12.3-7.8-22.5-7.8c-9.5 0-17.2 2.5-23.3 7.4s-9.5 12.8-10.2 23.6z"/><path d="m832 190v164h-224.7l-146.7-82-148.6 81.6v.3h-206.1v-164c0-8.2 6.6-14.8 14.8-14.8h696.4c8.2 0 14.9 6.7 14.9 14.9z"/><path d="m282.8 726.4v-325.8h-178.8v66.1h.2v421.6c0 9.2 7.4 16.6 16.7 16.6h436.4v-178.7c-.1 0-274.8 0-274.5.2z"/><path d="m267.5 400.6h-148c.4 0 .9-.1 1.3-.1h145.4c.4 0 .9 0 1.3.1z"/><path d="m831.5 471v417.3c0 9.2-7.4 16.6-16.6 16.6h-162v-279l-220.7-.7v-170.8h382.7c.6 0 1.1 0 1.7.1h14.9v15.7c.1.3.1.5 0 .8z"/></g></svg>