<svg enable-background="new 0 0 1920 1080" viewBox="0 0 1920 1080" xmlns="http://www.w3.org/2000/svg"><g fill="#ff3947"><path d="m228.8 862.9v30.3h-23.7v-91.2h37.7c5.3 0 9.7.6 13.1 1.7 3.5 1.2 6.6 3.1 9.6 5.9 6 5.6 9 13.2 9 22.6 0 9.2-2.4 16.6-7.3 22.1-5 5.7-12.8 8.5-23.5 8.5h-14.9zm0-19h7.9c4.6 0 7.8-.9 9.7-2.6 2.2-2 3.3-4.9 3.3-8.7 0-7.7-4.3-11.5-13-11.5h-7.9z"/><path d="m337.3 877.3h-32.7l-6.3 15.9h-25l35.1-91.2h25.8l34.3 91.2h-25.3zm-6.4-18-9.8-29-10 29z"/><path d="m438.5 807.3-9.5 18.4c-5.1-4.1-10.2-6.2-15.5-6.2-3.3 0-5.9.9-7.8 2.8-1.6 1.5-2.3 3.2-2.3 5 0 2.8 1.9 5.1 5.7 6.9 1.1.5 4.7 1.6 10.8 3.5 7.9 2.4 13.6 5.5 17.1 9.5s5.2 9.2 5.2 15.8c0 11.8-3.9 20.4-11.7 25.8-6.4 4.5-14.3 6.7-23.8 6.7-11.3 0-21.8-3.5-31.7-10.4l10.1-19.1c7.1 6.2 14 9.3 20.9 9.3 4.2 0 7.2-1.1 9.1-3.3 1.5-1.7 2.3-3.6 2.3-5.6 0-2.5-1-4.5-3-5.9s-5.8-3-11.3-4.6c-8.7-2.5-14.4-5-17.3-7.3-4.9-4-7.3-10-7.3-18.1 0-9.5 3.1-17.1 9.4-22.8 5.7-5.3 12.9-7.9 21.6-7.9 10 .1 19.6 2.6 29 7.5z"/><path d="m516.6 807.3-9.5 18.4c-5.1-4.1-10.2-6.2-15.5-6.2-3.3 0-5.9.9-7.8 2.8-1.6 1.5-2.3 3.2-2.3 5 0 2.8 1.9 5.1 5.7 6.9 1.1.5 4.7 1.6 10.8 3.5 7.9 2.4 13.6 5.5 17.1 9.5s5.2 9.2 5.2 15.8c0 11.8-3.9 20.4-11.7 25.8-6.4 4.5-14.3 6.7-23.8 6.7-11.3 0-21.8-3.5-31.7-10.4l10.1-19.1c7.1 6.2 14 9.3 20.9 9.3 4.2 0 7.2-1.1 9.1-3.3 1.5-1.7 2.3-3.6 2.3-5.6 0-2.5-1-4.5-3-5.9s-5.8-3-11.3-4.6c-8.7-2.5-14.4-5-17.3-7.3-4.9-4-7.3-10-7.3-18.1 0-9.5 3.1-17.1 9.4-22.8 5.7-5.3 12.9-7.9 21.6-7.9 10 .1 19.7 2.6 29 7.5z"/><path d="m558.9 802.1v91.2h-23.7v-91.2z"/><path d="m624.5 799.3c15.2 0 27.7 5.1 37.3 15.3 8.8 9.2 13.2 20.3 13.2 33.3 0 8.9-2.2 17.1-6.6 24.6-4.7 8.1-11.2 14.3-19.6 18.5-7.2 3.6-15.4 5.5-24.7 5.5-15 0-27.3-5.1-36.9-15.2-8.8-9.3-13.1-20.7-13.1-34.2 0-8.5 2.2-16.4 6.6-23.8 9.3-15.6 23.9-23.6 43.8-24zm0 23c-7.1 0-13.1 2.5-18 7.5-5 5.1-7.6 11-7.6 17.8 0 7.2 2.5 13.4 7.6 18.4 4.9 5 11 7.5 18.1 7.5s13.1-2.5 18.2-7.5c5-5 7.5-11.1 7.5-18.2 0-7.2-2.5-13.2-7.5-18.1-5.2-4.8-11.2-7.3-18.3-7.4z"/><path d="m690 893.2v-91.2h23.7l43.6 55.8v-55.8h23.7v91.2h-23.7l-43.6-55.8v55.8z"/><path d="m886.5 822.1h-28.5v15.2h26v20h-26v35.9h-23.7v-91.2h52.2z"/><path d="m947.8 855.8 28.6 37.4h-29.5l-22.6-35v35h-23.7v-91.2h36.9c5.1 0 9.5.7 13.1 1.9 3.6 1.3 6.7 3.3 9.3 6.1 5.2 5.5 7.8 12.2 7.8 20.2 0 4-.7 7.8-2.2 11.4s-3.5 6.5-6 8.7c-2.9 2.6-6.8 4.4-11.7 5.5zm-23.5-12.9h4.4c4.5 0 7.9-.8 10.1-2.4 1.3-.9 2.3-2.2 3.1-3.9s1.3-3.3 1.3-5-.4-3.3-1.3-5c-.8-1.7-1.9-3-3.1-3.9-2.3-1.6-5.7-2.4-10.1-2.4h-4.4z"/><path d="m1009.1 802.1v49.3c0 5.2.1 8.7.4 10.6s1 3.8 2.2 5.7c2.7 4.6 7.1 6.9 13.2 6.9 3 0 5.7-.7 8.3-2 2.5-1.3 4.4-3.1 5.6-5.4 1-1.8 1.6-3.7 1.9-5.7s.5-5.4.5-10.2v-49.3h23.7v52.6c0 8.7-1.2 15.4-3.5 20.1-3.5 7.1-8.8 12.5-15.8 16.2-6.1 3.1-13.1 4.7-21.1 4.7-9.1 0-17.1-2-23.8-5.9-5.7-3.3-9.6-7.6-11.9-12.9-2.3-5.2-3.4-12.6-3.4-22.1v-52.6z"/><path d="m1107.8 802.1v91.2h-23.7v-91.2z"/><path d="m1161.3 822.1v71.1h-23.7v-71.1h-19.3v-20h62.6v20z"/><path d="m1274.8 846.4 11.4 12c4.8-4.4 8.8-8.7 11.9-13l13.4 12.9c-2.8 3.6-6.9 8-12.5 13.4l20.4 21.6h-29.5l-7.9-8.3c-10.9 7.3-21.4 10.9-31.4 10.9-5.6 0-10.8-1.2-15.6-3.7-4.6-2.4-8.1-5.9-10.6-10.4-1.9-3.6-2.9-7.6-2.9-12.1 0-8 3-14.5 8.9-19.5 2-1.6 6.2-4 12.8-6.9-2.4-3.1-4.1-5.2-4.8-6.4-2.4-3.7-3.7-7.8-3.7-12.3 0-4.1 1.1-8 3.3-11.8 5.1-8.7 13.5-13.1 25.1-13.1 8.9 0 16 2.7 21.2 7.9 4.8 4.9 7.2 10.5 7.2 16.9 0 6.6-2.6 12-7.7 16.3-2 1.6-5 3.5-9 5.6zm-20.2 8.7c-5.7 3.6-8.6 7.2-8.6 10.8 0 2.5 1 4.6 3 6.2s4.5 2.5 7.6 2.5c4.2 0 8.3-1.3 12.4-4zm9.8-19.8c5.6-3.4 8.4-7.1 8.4-11.3 0-2.4-.8-4.4-2.3-6s-3.4-2.4-5.7-2.4c-2.2 0-4 .7-5.4 2.2-1.4 1.4-2.2 3.2-2.2 5.4s1.1 4.7 3.4 7.7c.6.8 1.3 1.7 2.3 2.8s1.5 1.6 1.5 1.6z"/><path d="m1386.8 837.3h34.2v-35.2h23.7v91.2h-23.7v-37.5h-34.2v37.5h-23.7v-91.2h23.7z"/><path d="m1515.8 822.1h-28.2v15.2h26.6v20h-26.6v15.8h28.2v20h-51.9v-91.2h51.9z"/><path d="m1578 855.8 28.6 37.4h-29.5l-22.6-35v35h-23.7v-91.2h36.9c5.1 0 9.5.7 13.1 1.9 3.6 1.3 6.7 3.3 9.3 6.1 5.2 5.5 7.8 12.2 7.8 20.2 0 4-.7 7.8-2.2 11.4s-3.5 6.5-6 8.7c-3 2.6-6.9 4.4-11.7 5.5zm-23.5-12.9h4.4c4.5 0 7.9-.8 10.1-2.4 1.3-.9 2.3-2.2 3.1-3.9s1.3-3.3 1.3-5-.4-3.3-1.3-5c-.8-1.7-1.9-3-3.1-3.9-2.3-1.6-5.7-2.4-10.1-2.4h-4.4z"/><path d="m1616.5 893.2v-91.2h35.3c8.5 0 14.9 2.1 19.2 6.3s6.5 10 6.5 17.4c0 4.6-.8 8.3-2.3 11.3-1.6 2.9-4.1 5.4-7.7 7.5 5.9 1.2 10.1 3 12.7 5.7 3.9 4 5.9 9.7 5.9 17.1 0 7.3-2.5 13.3-7.4 18-5.6 5.3-13.6 7.9-24 7.9zm23.8-55.2h4.3c3.6 0 6.4-.8 8.3-2.3s2.9-3.7 2.9-6.6-.9-5.1-2.8-6.6-4.7-2.3-8.3-2.3h-4.3v17.8zm0 36.8h5.3c5.3 0 9.2-.6 11.7-1.7 1.5-.7 2.6-1.7 3.5-3.2.9-1.4 1.3-3.1 1.3-4.8 0-3.7-1.5-6.3-4.5-7.9-1.3-.7-2.8-1.2-4.3-1.4s-4.2-.3-8-.3h-4.9v19.3z"/><path d="m1760.6 807.3-9.5 18.4c-5.1-4.1-10.2-6.2-15.5-6.2-3.3 0-5.9.9-7.8 2.8-1.6 1.5-2.3 3.2-2.3 5 0 2.8 1.9 5.1 5.7 6.9 1.1.5 4.7 1.6 10.8 3.5 7.9 2.4 13.6 5.5 17.1 9.5s5.2 9.2 5.2 15.8c0 11.8-3.9 20.4-11.8 25.8-6.4 4.5-14.3 6.7-23.8 6.7-11.3 0-21.8-3.5-31.7-10.4l10.1-19.1c7.1 6.2 14 9.3 20.9 9.3 4.2 0 7.2-1.1 9.1-3.3 1.5-1.7 2.3-3.6 2.3-5.6 0-2.5-1-4.5-3-5.9s-5.8-3-11.3-4.6c-8.7-2.5-14.4-5-17.3-7.3-4.9-4-7.3-10-7.3-18.1 0-9.5 3.1-17.1 9.4-22.8 5.7-5.3 12.9-7.9 21.6-7.9 10.1.1 19.7 2.6 29.1 7.5z"/><path d="m195.8 731.4h1573.9v29.6h-1573.9z"/><path d="m195.8 932.1h1573.9v29.6h-1573.9z"/><path d="m1418.9 269.1c-.7.5-1.8 1.4-3.3 2.4-5.7 4.2-19.2 14.1-51 37.2-55.2 40.3-104.8 1-104.8 1 54.5 29.5 136.3-24.4 155.8-38.3 1.6-1.1 2.7-1.9 3.3-2.3-18.7 5.3-35.6 7.5-59.7-3.5-.1 0-19.5-10.4-19.6-10.5-16.3-9.1-58.3-7.3-67.3 31.1l-46.4 29.3c46.8 51 129.3 58.5 180.2 11.7 19.8-18.2 32.4-41.3 37.7-65.7-9 2.6-17.1 5.4-24.9 7.6z"/><path d="m549.7 306.9c-23.9-62.3-70.9-113.2-130.6-141.9-22.2-10.7-46.1-18.3-71.3-22.4-2.9-.5-5.8-.9-8.7-1.3-10.9-1.4-22-2.1-33.2-2.1-11.3 0-22.3.7-33.2 2.1-14.5 1.8-28.7 4.9-42.4 9-10.7 3.2-21.2 7.1-31.3 11.7v.1 476.3.1c15.5 6.9 31.8 12.4 48.7 16.3 18.7 4.3 38.2 6.5 58.2 6.5 14.3 0 28.3-1.2 41.9-3.4 25.2-4.1 49.1-11.7 71.3-22.4 87.5-42.2 147.8-131.7 147.8-235.2 0-33-6.1-64.4-17.2-93.4zm-130.6 122.4c-5.4 61.1-31.5 116.2-71.2 158.4 0 0-.1 0-.1-.1v-364.4c0-.1.1-.1.1-.1 22.7 24.1 40.9 52.5 53.4 83.7 9.3 23.4 15.5 48.5 17.8 74.7.7 7.9 1 15.8 1 23.9s-.3 16-1 23.9z"/><path d="m1287.6 310.9c-10.2-1.8-20.7-2.8-31.4-2.8-9.3 0-18.4.7-27.3 2.1-57.4 8.9-105.8 45.3-131 95.4-9.3 18.5-15.5 38.9-17.8 60.4v38.4c4.3 39.9 21.8 75.8 48.1 103.3s61.4 46.5 100.7 52.6c8.9 1.4 18 2.1 27.3 2.1 10.7 0 21.2-1 31.4-2.8 82.8-14.8 145.7-87.3 145.7-174.4s-62.9-159.4-145.7-174.3zm-27.2 282.4c-17.4 0-31.4-47.4-31.4-105.9s14.1-105.9 31.4-105.9 31.4 47.4 31.4 105.9-14.1 105.9-31.4 105.9z"/><path d="m750.3 213.4c0 39-28.2 71.5-65.3 78.1-4.6.8-9.3 1.3-14.1 1.3-4.2 0-8.2-.3-12.2-.9-35.2-5.5-62.8-34.1-66.7-69.8v-17.2c1-9.7 3.8-18.8 8-27.1 11.3-22.4 33-38.8 58.7-42.7 4-.6 8.1-.9 12.2-.9 4.8 0 9.5.4 14.1 1.2 37.1 6.5 65.3 38.9 65.3 78z"/><path d="m1578.5 538.8c-9.6-4.4-17.7-11.4-23.5-20l-31.9 10.6-57.7 16.2-.6.2-20 5.6c.4 1.3.7 2.5 1.1 3.7 5 15.8 11.6 29.3 19.5 40.8 48.5 71.3 141.4 68.2 141.4 68.2 112.1 5.2 147.4-40.2 158-75 6.4-21.2 4.8-36.6 4.8-36.6 0-13.3-3-26.2-6.6-35.7-2.8-6.4-6.2-12.5-10.3-18.1-.1-.2-.3-.4-.5-.6-3.7-4.5-7.9-8.3-12.5-11.6-10.9-8-24.1-13-38.1-16.3-15.9-3.7-32.8-5.1-48.5-5.9-2.4-.1-4.8-.2-7.1-.4-1.4 0-2.8-.1-4.2-.1-6.4-.3-12.5-.5-18.1-.8-8.4-.5-16.3-1.1-21.9-2.5-.2 0 .2 0 0 0-4.1-.6-9.7-5-10.1-12.5-.2-5.7 2-9.7 8.9-11.9 11.3-3.3 28.1.2 38.6 9.4 5.8 5.1 10.8 11.6 11.9 12.4l4.3-1.2 115.5-42.7c-2-5.5-9.2-21.8-28-42.9-1.2-1.5-28.3-36.3-76-54.4-16.9-6.4-36.3-10.7-58.2-10.7-101.6 0-142.2 55.6-142.2 105v1.4c0 1.3 0 2.6.1 3.8v.7c.1 1.8.2 3.7.4 5.4 0 .5 0 .9.1 1.4 2.4 27.9 13.1 47.4 27.6 60.9 6.1 5.8 13 10.5 20.2 14.5 11.5 6.2 24.1 10.4 36.3 13.3 4.9 1.2 9.7 2.2 14.3 3 6.6 1.1 13 2 18.8 2.8 4.8.6 9.3 1.1 13.3 1.7 4.8.6 8.8 1.2 12 1.9 3.4 2.4 6.4 6.5 5.6 10.9-.2 1.1-1.3 3.4-2.1 4.1-3.9 5.1-7.4 6.4-14.8 7.1l-5-.5c-5-.9-10.1-2.4-14.8-4.6"/><path d="m1102.6 589.2c-6.2 2.9-12.8 5.2-19.7 6.4-4.6.8-9.3 1.3-14.1 1.3-4.2 0-8.2-.3-12.2-.9-35.2-5.5-62.8-34.1-66.7-69.8v-16.7c-.5-3.6-.8-7.2-.8-10.8v-158.3h53.6s1.3-1 1.3-1l-1.3-106.9s-11.8-.1-11.8-.1h-41.9v-91.1s-.8-10.2-.8-10.2h-147.9s-.1 10.2-.1 10.2v91.1h-56.5s-.1 0-.1.1v107.8s0 .1.1.1h56.5v185.6c1.4 12 4.2 23.6 8.2 34.6 2.7 7.3 5.9 14.4 9.6 21.2 25.6 46.5 74.5 78.2 131 79.3h3.1c43.4 0 82.6-18.1 110.4-47.2v-24.7z"/><path d="m839.3 600.1c-4.6.8-9.3 1.3-14.1 1.3-4.2 0-8.2-.3-12.2-.9-35.2-5.5-62.8-34.1-66.7-69.8v-17.2c.1-1.3.4-2.6.6-3.8-.5-3.6-.8-7.2-.8-10.9v-182.8h-148.8v210c1.4 12 4.2 23.6 8.2 34.6 2.7 7.3 5.9 14.4 9.6 21.2 25.6 46.5 74.5 78.2 131 79.3h3.1c40.9 0 77.9-16.1 105.3-42.2v-23.2c-4.8 2-9.9 3.5-15.2 4.4z"/></g></svg>