<svg enable-background="new 0 0 1920 1080" viewBox="0 0 1920 1080" xmlns="http://www.w3.org/2000/svg"><circle cx="930.4" cy="538.1" fill="#ff4e00" r="434.9"/><g fill="#fff"><path d="m605.2 597-1.6-6.8c-.1-.5-.2-1-.1-1.4 0-.4.2-.8.5-1.1s.7-.6 1.3-.9 1.4-.5 2.4-.7 1.8-.4 2.5-.4c.6 0 1.2 0 1.6.2.4.1.7.4.9.7s.4.8.5 1.3l6.7 28.6c.1.5.2 1 .1 1.4 0 .4-.2.8-.5 1.1s-.8.6-1.3.9c-.6.3-1.4.5-2.4.7s-1.8.4-2.5.4c-.6 0-1.2 0-1.6-.2s-.7-.4-.9-.7-.4-.8-.5-1.3l-2.4-10.1-35.7 8.4 3.8 16.3 14.5-3.4c1.1-.2 1.9 0 2.6.9.7.8 1.3 2.4 1.8 4.6.3 1.1.4 2 .5 2.8.1.7 0 1.3-.1 1.8s-.4.8-.7 1.1c-.3.2-.8.4-1.3.5l-21.5 5.1c-1.1.3-1.9.2-2.5-.2s-1-1.1-1.2-2.2l-10.2-43.4c-.1-.5-.2-1-.1-1.4 0-.4.2-.8.5-1.1s.7-.6 1.3-.9 1.4-.5 2.4-.7 1.8-.4 2.5-.4c.6 0 1.2 0 1.6.2.4.1.7.4.9.7s.4.8.5 1.3l1.6 6.8z"/><path d="m623.9 663.6-2.9-7.4c-.2-.5-.3-1-.3-1.4s.1-.8.3-1.1.7-.7 1.2-1c.6-.3 1.3-.7 2.2-1.1s1.7-.6 2.4-.8c.6-.1 1.2-.2 1.6-.1s.8.3 1 .6c.3.3.5.7.7 1.2l8.4 21.1c.5 1.2.6 2.2.5 3.2-.2.9-.7 1.7-1.6 2.5l-35.6 29.1 1.5 3.9c.2.5.3 1 .3 1.4s-.1.8-.3 1.1c-.2.4-.6.7-1.2 1s-1.3.7-2.2 1.1-1.7.6-2.4.8c-.6.1-1.2.2-1.6.1s-.8-.3-1-.6c-.3-.3-.5-.7-.7-1.2l-7.5-18.8c-.2-.5-.3-1-.3-1.4s.1-.8.3-1.1c.3-.4.7-.7 1.2-1s1.3-.7 2.2-1.1 1.7-.6 2.4-.8c.6-.1 1.2-.2 1.6-.1s.8.3 1 .6c.3.3.5.7.7 1.2l1.5 3.8 5.6-4.6-6.4-16.2-7.2.6 1.3 3.3c.2.5.3 1 .3 1.4s-.1.8-.3 1.1c-.2.4-.6.7-1.2 1s-1.3.7-2.2 1.1-1.7.6-2.4.8c-.6.1-1.2.2-1.6.1s-.8-.3-1-.6c-.3-.3-.5-.7-.7-1.2l-7.1-17.9c-.2-.5-.3-1-.3-1.4s.1-.8.3-1.1c.3-.4.7-.7 1.2-1 .6-.3 1.3-.7 2.2-1.1s1.7-.6 2.4-.8c.6-.1 1.2-.2 1.6-.1s.8.3 1 .6c.3.3.5.7.7 1.2l1.5 3.7zm-12.8 22.8 16.8-12.9-.1-.3-21.1 2.1z"/><path d="m643.5 709.7c-.3-.5-.5-.9-.6-1.3s0-.8.1-1.2c.2-.4.5-.8 1-1.2s1.2-.9 2-1.4c.9-.5 1.6-.9 2.2-1.1s1.1-.3 1.6-.3c.4 0 .8.2 1.1.4s.6.6.9 1.1l9.3 15.3c.3.5.5.9.6 1.3s0 .8-.1 1.2c-.2.4-.5.8-1 1.2s-1.2.9-2 1.4c-.9.5-1.6.9-2.2 1.1s-1.1.3-1.5.3-.8-.2-1.1-.4c-.3-.3-.6-.6-.9-1.1l-1.9-3.1-22.4 13.6c-1.6 1-2.9 2.1-3.8 3.2s-1.5 2.3-1.9 3.5c-.3 1.2-.3 2.4-.1 3.7.3 1.2.8 2.5 1.5 3.7s1.6 2.2 2.6 3 2.1 1.3 3.3 1.6 2.5.3 3.9 0 2.9-1 4.6-1.9l22.4-13.6-1.9-3.1c-.3-.5-.5-.9-.6-1.3s0-.8.1-1.2c.2-.4.5-.8 1-1.2s1.2-.9 2-1.4c.9-.5 1.6-.9 2.2-1.1s1.1-.3 1.6-.3c.4 0 .8.2 1.1.4s.6.6.9 1.1l9.3 15.3c.3.5.5.9.6 1.3s0 .8-.1 1.2c-.2.4-.5.8-1 1.2s-1.2.9-2 1.4c-.9.5-1.6.9-2.2 1.1s-1.1.3-1.5.3-.8-.2-1.1-.4c-.3-.3-.6-.6-.9-1.1l-1.2-1.9-23.4 13.8c-2.9 1.7-5.7 2.8-8.4 3.3s-5.3.4-7.8-.3-4.8-1.9-7-3.8c-2.2-1.8-4.1-4.2-5.9-7-1.7-2.9-2.9-5.7-3.5-8.4-.6-2.8-.7-5.4-.1-7.9.5-2.5 1.6-4.9 3.3-7.1s4-4.2 6.8-5.9l23.2-14.1z"/><path d="m679.7 765.4-2.2-2.4c-.4-.4-.6-.8-.8-1.2s-.2-.8-.1-1.2.3-.9.7-1.4 1-1.1 1.7-1.8c.8-.7 1.4-1.2 1.9-1.6.5-.3 1-.6 1.5-.6.4-.1.8 0 1.2.2s.7.5 1.1.9l8.5 9.3c.4.4.7.9.9 1.4s.2 1 0 1.5l-10.9 36.8 18-16.4-2.8-3.1c-.4-.4-.6-.8-.8-1.2s-.2-.8-.1-1.2.3-.9.7-1.4 1-1.1 1.7-1.8c.8-.7 1.4-1.2 1.9-1.6.5-.3 1-.6 1.5-.6.4-.1.8 0 1.2.2s.7.5 1.1.9l12.1 13.2c.4.4.6.8.8 1.2s.2.8.1 1.2-.4.9-.8 1.4-1 1.1-1.7 1.8c-.8.7-1.4 1.2-1.9 1.6-.5.3-1 .6-1.4.6-.4.1-.8 0-1.2-.2s-.7-.5-1.1-.9l-1.8-2-33.1 30.2c-.8.7-1.6.9-2.5.7s-2-1-3.4-2.5c-.5-.6-.9-1.1-1.2-1.6s-.5-.9-.6-1.4c-.1-.4-.1-.9-.1-1.3.1-.4.1-.9.3-1.3l11.8-39.9-20.1 18.4 3.5 3.8c.4.4.6.8.8 1.2s.2.8.1 1.2-.4.9-.8 1.4-1 1.1-1.7 1.8c-.8.7-1.4 1.2-1.9 1.6-.5.3-1 .6-1.4.6s-.8 0-1.2-.2-.7-.5-1.1-.9l-13-14.3c-.4-.4-.6-.8-.8-1.2s-.2-.8-.1-1.2.3-.9.7-1.4 1-1.1 1.7-1.8c.8-.7 1.4-1.2 1.9-1.6.5-.3 1-.6 1.5-.6.4-.1.8 0 1.2.2s.7.5 1.1.9l2.2 2.4z"/><path d="m725.4 811.4-3.8-2.7c-.4-.3-.8-.6-1-1-.2-.3-.4-.7-.3-1.1 0-.4.1-.9.4-1.5s.7-1.3 1.3-2.1 1.1-1.5 1.6-1.9c.5-.5.9-.8 1.3-.9.4-.2.8-.2 1.2-.1s.8.3 1.2.6l18.4 13c3.4 2.4 6.1 5.1 8.1 8s3.2 6 3.7 9.4c.5 3.3.2 6.8-.8 10.3-1 3.6-2.8 7.2-5.4 10.9s-5.5 6.7-8.5 8.8c-3 2.2-6.2 3.6-9.5 4.2s-6.6.5-10.1-.4c-3.4-.9-6.9-2.5-10.3-4.9l-18.4-13c-.4-.3-.8-.6-1-1-.2-.3-.4-.7-.3-1.1 0-.4.1-.9.4-1.5s.7-1.3 1.3-2.1 1.1-1.5 1.6-1.9c.5-.5.9-.8 1.3-.9.4-.2.8-.2 1.2-.1s.8.3 1.2.6l3.8 2.7zm-7.3 39.7c4.1 2.9 8 3.8 11.8 2.7s7.4-4 10.9-8.9c3.4-4.9 5-9.3 4.7-13.2s-2.5-7.3-6.5-10.2l-4.1-2.9-20.9 29.7z"/><path d="m778.8 845.5-4.7-2c-.5-.2-.9-.4-1.2-.7s-.5-.6-.6-1-.1-.9.1-1.6c.1-.6.4-1.4.8-2.4.4-.9.8-1.7 1.1-2.2s.7-.9 1.1-1.2c.4-.2.7-.4 1.1-.3.4 0 .9.1 1.4.4l23.3 9.7c6.2 2.6 10.4 5.9 12.6 10s2.2 8.8 0 14c-1.5 3.5-3.5 6-6.2 7.3s-5.9 1.7-9.6 1.2c.5.6 1 1.2 1.4 1.9s.7 1.4 1 2.1c.4.9.6 1.9.8 2.9s.4 2 .5 3 .2 1.9.3 2.9c.1.9.2 1.8.3 2.6.2 1.1.5 2 .9 2.8s1 1.4 1.8 1.7l.8.3c.5.2.9.4 1.2.7s.5.6.6 1 0 1-.1 1.6-.4 1.4-.8 2.4c-.4.9-.8 1.7-1.1 2.2s-.7.9-1.1 1.2c-.4.2-.7.3-1.1.3s-.9-.1-1.4-.4l-4.7-2c-1.9-.8-3.4-2-4.4-3.6s-1.7-3.7-2.1-6.4c-.3-2-.5-4-.5-6-.1-2.1-.3-4.1-.8-6.2-.2-1-.5-1.9-.9-2.7s-.9-1.5-1.4-2.2c-.6-.6-1.3-1.2-2.1-1.8-.8-.5-1.9-1.1-3-1.5l-1.7-.7-4.7 11.3 5.2 2.2c.5.2.9.4 1.2.7s.5.6.6 1 0 1-.1 1.6-.4 1.4-.8 2.4c-.4.9-.8 1.7-1.1 2.2s-.7.9-1.1 1.2c-.4.2-.7.3-1.1.3s-.9-.1-1.4-.4l-20.9-8.7c-.5-.2-.9-.4-1.2-.7s-.5-.6-.6-1-.1-.9.1-1.6c.1-.6.4-1.4.8-2.4.4-.9.8-1.7 1.1-2.2s.7-.9 1.1-1.2c.4-.2.7-.4 1.1-.3.4 0 .9.1 1.4.4l4.7 2zm12 20.9c3 1.3 5.5 1.7 7.4 1.2s3.3-1.8 4.2-4 .9-4.1-.1-5.8-3-3.1-6-4.4l-6.6-2.7-5.4 13.1z"/><path d="m845.4 894.1-11.1-27.6-2.2-.4c-.5-.1-1-.3-1.3-.5s-.6-.5-.8-.9-.2-.9-.2-1.6c0-.6.1-1.5.3-2.5s.4-1.8.6-2.4.5-1.1.8-1.4.7-.5 1.1-.5.9 0 1.4.1l18.5 3.7c.5.1 1 .3 1.3.5.4.2.6.5.8.9s.2.9.2 1.6c0 .6-.1 1.5-.3 2.5s-.4 1.8-.6 2.4-.5 1.1-.8 1.3c-.3.3-.7.5-1.1.5-.4.1-.9 0-1.4-.1l-3.1-.6 6 15.4 11.5-11.9-2.5-.5c-.5-.1-1-.3-1.3-.5s-.6-.5-.8-.9-.2-.9-.2-1.6c0-.6.1-1.5.3-2.5s.4-1.8.7-2.4c.2-.6.5-1.1.8-1.4s.7-.5 1.1-.5.9 0 1.4.1l17.5 3.6c.5.1 1 .3 1.3.5.4.2.6.5.8.9s.2.9.2 1.6c0 .6-.1 1.5-.3 2.5s-.4 1.8-.6 2.4-.5 1.1-.8 1.3c-.3.3-.7.5-1.1.5-.4.1-.9 0-1.4-.1l-2.1-.4-20.9 21.3-2.4 11.9 9.2 1.8c.5.1 1 .3 1.3.5s.6.5.8.9.2.9.2 1.6c0 .6-.1 1.5-.3 2.5s-.4 1.8-.7 2.4-.5 1.1-.8 1.3c-.3.3-.7.5-1.1.5-.4.1-.9 0-1.4-.1l-30.1-6c-.5-.1-1-.3-1.3-.5-.4-.2-.6-.5-.8-.9s-.2-.9-.2-1.6c0-.6.1-1.5.3-2.5s.4-1.8.7-2.4c.2-.6.5-1.1.8-1.4s.7-.5 1.1-.5.9 0 1.4.1l9.2 1.8z"/><path d="m978.1 920.6c.2 1.1-.1 1.9-.8 2.5s-2 1-4.1 1.3c-2 .3-3.5.3-4.4 0s-1.5-1-1.6-2.1l-2.4-15.8c-.2-1.1.1-1.9.7-2.4.6-.6 1.7-1 3.2-1.2 1.1-.2 2-.2 2.7 0s1.3.6 1.7 1.2c2.2 3 4.6 5.1 7.2 6.4s5.5 1.7 8.7 1.2c2.8-.4 4.9-1.3 6.1-2.7s1.7-3 1.4-5c-.2-1.3-.7-2.4-1.5-3.1s-1.8-1.3-3.1-1.7c-1.4-.4-2.9-.7-4.6-.8s-3.5-.3-5.4-.4-3.8-.3-5.7-.5-3.8-.6-5.5-1.2c-1.2-.4-2.3-.9-3.4-1.6-1-.6-2-1.4-2.9-2.4s-1.6-2.1-2.2-3.4-1-2.9-1.3-4.6c-.4-2.5-.3-4.9.3-7.1s1.5-4.2 2.9-6 3.2-3.2 5.3-4.4 4.6-2 7.3-2.4c2.6-.4 5-.3 7.2.2s4.3 1.4 6.1 2.7l-.3-1.7c-.2-1.1.1-1.9.8-2.5s2-1 4.1-1.3c2-.3 3.5-.3 4.4 0s1.5 1 1.6 2.1l2 12.9c.2 1.1-.1 1.9-.7 2.4-.6.6-1.7 1-3.2 1.2-1.1.2-1.9.2-2.5 0s-1.1-.5-1.6-.9c-1.8-2-3.9-3.6-6.4-4.5-2.5-1-5.3-1.2-8.5-.7-2.4.4-4.1 1.2-5.2 2.6s-1.5 3-1.2 4.8c.1.9.6 1.7 1.2 2.2.7.5 1.6.9 2.6 1.1 1.3.3 2.8.4 4.6.5 1.8 0 3.6.1 5.6.2s4 .3 6 .5c2 .3 3.9.8 5.8 1.5 1.2.5 2.3 1.1 3.4 1.9s2 1.7 2.9 2.8 1.6 2.4 2.2 3.9 1.1 3.2 1.4 5.1c.4 2.6.3 5-.1 7.2-.5 2.2-1.4 4.3-2.8 6-1.4 1.8-3.3 3.3-5.6 4.5s-5.1 2.1-8.4 2.6c-5.3.8-10-.1-14.1-2.7z"/><path d="m1025.2 865.3-4.3 1.6c-.5.2-1 .3-1.4.3s-.8-.1-1.1-.3-.7-.6-1-1.2-.7-1.3-1-2.3c-.4-1-.6-1.7-.7-2.4-.1-.6-.1-1.2 0-1.6s.3-.8.6-1c.3-.3.7-.5 1.2-.7l40.8-15.4c1-.4 1.9-.5 2.5-.2s1.1.9 1.5 2l5.1 13.5c.4 1 .2 1.9-.5 2.7s-2 1.5-3.9 2.2c-1 .4-1.8.6-2.4.7-.7.1-1.2.2-1.7.1-.4-.1-.8-.3-1.1-.6s-.5-.7-.7-1.2l-2.6-6.8-17.9 6.8 4.3 11.3 10.9-4.1c.5-.2 1-.3 1.4-.3s.8.2 1.2.4c.4.3.7.7 1 1.3s.7 1.4 1.1 2.3c.4 1 .6 1.8.7 2.4.1.7.1 1.2.1 1.6-.1.4-.3.8-.6 1.1s-.7.5-1.2.7l-10.9 4.1 4.9 12.9 18.3-6.9-3.4-9c-.4-1-.2-1.9.5-2.7s2.1-1.5 4.1-2.3c1-.4 1.9-.6 2.6-.8.7-.1 1.3-.2 1.8-.1s.8.3 1.1.6.5.7.7 1.2l6 15.7c.4 1 .5 1.9.2 2.5s-.9 1.1-2 1.5l-41.7 15.8c-.5.2-1 .3-1.4.3s-.8-.1-1.1-.3-.7-.6-1-1.2-.7-1.3-1-2.3c-.4-1-.6-1.7-.7-2.4-.1-.6-.1-1.2 0-1.6s.3-.8.6-1c.3-.3.7-.5 1.2-.7l4.3-1.6z"/><path d="m1083.5 840.2-4.3 2.8c-.5.3-.9.5-1.3.6s-.8.1-1.2-.1-.8-.5-1.2-1-.9-1.1-1.5-2-1-1.6-1.2-2.2c-.3-.6-.4-1.1-.4-1.5s.1-.8.4-1.1.6-.6 1.1-.9l21.1-13.7c5.6-3.7 10.8-5.3 15.4-4.8s8.5 3.1 11.6 7.9c2.1 3.2 2.9 6.3 2.5 9.2-.4 3-1.9 5.8-4.5 8.6.8-.1 1.6-.1 2.4-.1s1.5.2 2.3.3c1 .2 2 .6 2.9 1s1.9.8 2.7 1.3c.9.5 1.7.9 2.5 1.4s1.6.9 2.4 1.2c1 .4 2 .7 2.8.9.9.1 1.7 0 2.4-.5l.8-.5c.5-.3.9-.5 1.3-.6s.8-.1 1.2.1.8.5 1.3 1c.4.5.9 1.1 1.5 2s1 1.6 1.2 2.2c.3.6.4 1.1.4 1.5s-.1.8-.4 1.1-.6.6-1.1.9l-4.3 2.8c-1.8 1.1-3.6 1.7-5.5 1.6s-4-.7-6.5-1.8c-1.8-.9-3.5-1.8-5.3-3-1.7-1.1-3.6-2.1-5.5-2.8-.9-.4-1.8-.6-2.7-.8-.9-.1-1.7-.1-2.6 0s-1.7.4-2.7.8c-.9.4-1.9.9-3 1.6l-1.5 1 6.7 10.3 4.7-3c.5-.3.9-.5 1.3-.6s.8-.1 1.2.1.8.5 1.3 1c.4.5.9 1.1 1.5 2s1 1.6 1.2 2.2c.3.6.4 1.1.4 1.5s-.1.8-.4 1.1-.6.6-1.1.9l-19 12.4c-.5.3-.9.5-1.3.6s-.8.1-1.2-.1-.8-.5-1.2-1-.9-1.1-1.5-2-1-1.6-1.2-2.2c-.3-.6-.4-1.1-.4-1.5s.1-.8.4-1.1.6-.6 1.1-.9l4.3-2.8zm24 1.9c2.8-1.8 4.5-3.6 5.1-5.4.7-1.8.3-3.7-1-5.7s-2.9-3.1-4.8-3.2-4.3.7-7 2.5l-6 3.9 7.7 11.9z"/><path d="m1128.8 809.5c-.4.4-.8.7-1.1.8-.4.2-.7.2-1.2.1-.4-.1-.9-.3-1.4-.7s-1.2-.9-1.9-1.6-1.3-1.4-1.6-1.9c-.4-.5-.6-1-.7-1.4s0-.8.1-1.2c.2-.4.5-.7.8-1.1l14.7-14.6c.4-.4.8-.7 1.1-.8s.8-.2 1.2-.1.9.3 1.4.7 1.2.9 1.9 1.6 1.3 1.4 1.6 1.9c.4.5.6 1 .7 1.4s0 .8-.2 1.2-.5.7-.8 1.1l-3 3 27.9 13.6-12.9-28.5-2.4 2.4c-.4.4-.8.7-1.1.8-.4.2-.7.2-1.2.1-.4-.1-.9-.3-1.4-.7s-1.2-.9-1.9-1.6-1.3-1.4-1.6-1.9c-.4-.5-.6-1-.7-1.4s0-.8.1-1.2c.2-.4.5-.7.9-1.1l13.7-13.6c.4-.4.8-.7 1.1-.8.4-.2.8-.2 1.2-.1s.9.3 1.4.7 1.2.9 1.9 1.6 1.3 1.4 1.6 1.9c.4.5.6 1 .7 1.4s0 .8-.2 1.2-.5.7-.8 1.1l-2.3 2.3 19.3 44.1c.2.6.4 1.1.4 1.6s0 1-.2 1.5-.5 1.1-.9 1.7-1 1.2-1.7 1.9-1.3 1.3-1.9 1.7-1.1.7-1.6.9-1 .2-1.5.1-1-.2-1.5-.5l-43.5-20.1z"/><path d="m1184.8 747.1-6.4 9.3c-.3.4-.6.8-.9 1s-.7.4-1.1.4-.9-.1-1.5-.4-1.3-.7-2.1-1.3-1.5-1.1-2-1.5c-.5-.5-.8-.9-.9-1.3-.2-.4-.2-.8-.1-1.2s.3-.8.6-1.3l19.5-28.4c.3-.4.6-.8.9-1s.7-.4 1.1-.3c.4 0 1 .2 1.5.4s1.3.7 2.1 1.3 1.5 1.1 2 1.5c.5.5.8.9.9 1.3.2.4.2.8.1 1.2s-.3.8-.6 1.3l-6.4 9.3 30.6 21 6.9-10.1c.3-.4.6-.8.9-1s.7-.4 1.1-.3 1 .2 1.5.4c.6.3 1.3.7 2.1 1.3s1.5 1.1 2 1.5c.5.5.8.9.9 1.3.2.4.2.8.1 1.2s-.3.8-.6 1.3l-20.6 30c-.3.4-.6.8-.9 1s-.7.4-1.1.4-.9-.1-1.5-.4-1.3-.7-2.1-1.3-1.5-1.1-2-1.5c-.5-.5-.8-.9-.9-1.3-.2-.4-.2-.8-.1-1.2s.3-.8.6-1.3l6.9-10.1z"/><path d="m1267.6 684.8c.1 3.7-.2 7.3-.8 10.8s-1.7 6.8-3.1 9.9c-1.6 3.6-3.8 6.6-6.4 8.9-2.6 2.4-5.5 4.1-8.8 5.1s-6.8 1.4-10.6 1-7.8-1.5-12-3.4c-4.1-1.9-7.6-4.2-10.3-6.8-2.8-2.6-4.9-5.5-6.3-8.6s-2.1-6.3-2-9.6.8-6.6 2.3-9.9c1.3-2.7 2.8-4.8 4.6-6.2s3.8-2.3 6-2.6l-2.7-1.3c-1-.5-1.5-1.2-1.5-2.2s.4-2.5 1.2-4.3c.4-.9.8-1.7 1.2-2.2.4-.6.8-1 1.1-1.2.4-.2.8-.4 1.2-.3.4 0 .9.1 1.4.4l16.7 7.7c1 .5 1.5 1.2 1.5 2.3s-.4 2.6-1.4 4.7c-.5 1-.9 1.9-1.3 2.5s-.8 1.1-1.2 1.3c-.4.3-.8.4-1.2.4s-.9-.1-1.4-.4c-1.4-.6-2.8-1-4.1-1.2-1.4-.1-2.6 0-3.8.3-1.2.4-2.3 1-3.3 1.9s-1.8 2.1-2.5 3.6c-1.9 4.1-1.8 7.8.1 11.2 2 3.4 5.7 6.3 11.1 8.8s10.1 3.3 14 2.4 6.8-3.3 8.7-7.4c1.2-2.7 2-5.3 2.3-8s.4-5.6.3-8.7c0-1.1.4-1.9 1.2-2.5s2.2-.8 4.3-.7c2.1.2 3.5.6 4.3 1.4s1.2 1.7 1.2 2.9z"/><path d="m1235.9 645.8-1.2 4.5c-.1.5-.3 1-.6 1.3-.2.3-.5.6-.9.7s-.9.2-1.6.1c-.6-.1-1.5-.2-2.4-.5-1-.3-1.8-.5-2.3-.8-.6-.3-1-.6-1.3-.9s-.4-.7-.5-1.1c0-.4 0-.9.2-1.4l11.7-42c.3-1.1.7-1.8 1.3-2.1s1.4-.3 2.5 0l13.9 3.9c1 .3 1.7.9 1.9 2 .2 1 0 2.5-.5 4.5-.3 1-.6 1.8-.8 2.4-.3.6-.6 1.1-.9 1.4s-.7.5-1.1.5c-.4.1-.9 0-1.4-.1l-7-2-5.1 18.4 11.6 3.2 3.1-11.2c.1-.5.3-.9.6-1.3.3-.3.6-.6 1-.7s1-.2 1.7-.1 1.5.2 2.5.5 1.8.6 2.4.8c.6.3 1.1.6 1.4.9s.5.7.5 1.1c.1.4 0 .9-.1 1.4l-3.1 11.2 13.3 3.7 5.3-18.9-9.3-2.6c-1-.3-1.7-.9-1.9-2-.2-1 0-2.6.6-4.7.3-1 .6-1.9.9-2.5s.6-1.1 1-1.5c.3-.3.7-.5 1.1-.6s.9 0 1.4.1l16.2 4.5c1.1.3 1.8.7 2.1 1.3s.3 1.4.1 2.5l-12 42.9c-.1.5-.3.9-.6 1.3-.2.3-.5.6-.9.7s-.9.2-1.6.1c-.6-.1-1.5-.2-2.4-.5-1-.3-1.8-.5-2.3-.8-.6-.3-1-.6-1.3-.9s-.4-.7-.5-1.1c0-.4 0-.9.2-1.4l1.2-4.5z"/><path d="m570 441.9-1.5 3.6c-.3.7-.7 1.3-1.1 1.8s-.9.7-1.5.9c-.6.1-1.4.1-2.4-.2-.9-.2-2.1-.6-3.5-1.3-1.4-.6-2.5-1.2-3.3-1.7s-1.4-1.1-1.8-1.6-.5-1.1-.5-1.7c.1-.6.2-1.3.6-2l8.1-18.8c.4-.9.8-1.6 1.4-2 .5-.5 1.3-.7 2.2-.7l37.7 1.9-27.4-26.1c-.7-.7-1-1.3-1-2.1 0-.7.1-1.5.5-2.4l8.1-18.8c.3-.7.7-1.3 1.1-1.8s.9-.7 1.6-.8c.6-.1 1.4-.1 2.4.2.9.2 2.1.6 3.5 1.3 1.4.6 2.5 1.2 3.3 1.7s1.4 1.1 1.7 1.6.5 1.1.4 1.7-.2 1.3-.6 2l-1.5 3.6 51.8 21.3 1.7-4c.3-.7.7-1.3 1.1-1.8s.9-.7 1.6-.8c.6-.1 1.4-.1 2.4.2.9.2 2.1.6 3.5 1.3 1.4.6 2.5 1.2 3.3 1.7s1.4 1.1 1.7 1.6.5 1.1.4 1.7-.2 1.3-.6 2l-10.4 24.7c-.3.8-.7 1.4-1.1 1.8-.4.5-.9.7-1.5.9s-1.4.1-2.4-.2c-.9-.2-2.1-.6-3.5-1.3-1.4-.6-2.5-1.2-3.3-1.7s-1.4-1.1-1.8-1.6-.5-1.1-.5-1.7c.1-.6.2-1.3.6-2l2.6-6.1-39.3-16.5 22.7 21.6c1.3 1.2 2 2.5 2.3 3.8.2 1.3-.1 2.9-.9 4.7-.8 1.9-1.8 3.2-2.8 3.9-1.1.7-2.5 1.1-4.3 1l-31.1-1.5 38.8 17.2 2.7-6.1c.3-.7.7-1.3 1.1-1.8s.9-.7 1.6-.8 1.4-.1 2.4.2c.9.2 2.1.6 3.5 1.3 1.4.6 2.5 1.2 3.3 1.7s1.4 1.1 1.7 1.6.5 1.1.4 1.7-.2 1.3-.6 2l-10.7 24.7c-.3.7-.7 1.3-1.1 1.8s-.9.7-1.5.9c-.6.1-1.4.1-2.4-.2-.9-.2-2.1-.6-3.5-1.3-1.4-.6-2.5-1.2-3.3-1.7s-1.4-1.1-1.8-1.6-.5-1.1-.5-1.7c.1-.6.2-1.3.6-2l1.7-3.9z"/><path d="m635.5 323.9-7.9 9c-.5.6-1.1 1.1-1.6 1.4s-1.1.4-1.8.3-1.4-.4-2.2-.9-1.8-1.3-3-2.3-2-1.9-2.7-2.7c-.6-.8-1-1.4-1.2-2.1-.2-.6-.1-1.2.1-1.8s.6-1.1 1.2-1.8l22.5-25.7c1.3-1.4 2.6-2.4 3.9-2.8s2.8-.3 4.4.4l63.4 27.8 4.1-4.7c.5-.6 1.1-1.1 1.6-1.4s1.1-.4 1.7-.3 1.4.4 2.2.9 1.8 1.3 3 2.3 2 1.9 2.7 2.7c.6.8 1 1.5 1.2 2.1s.2 1.2-.1 1.8c-.2.6-.6 1.1-1.2 1.8l-20.1 23c-.5.6-1.1 1.1-1.6 1.4s-1.1.4-1.8.3-1.4-.4-2.2-.9-1.8-1.3-3-2.3-2-1.9-2.7-2.7c-.6-.8-1-1.4-1.2-2.1-.2-.6-.1-1.2.1-1.8s.6-1.1 1.2-1.8l4.1-4.7-10-4.4-17.3 19.7 5.7 9.3 3.5-4c.5-.6 1.1-1.1 1.6-1.4s1.1-.4 1.7-.3 1.4.4 2.2.9 1.8 1.3 3 2.3 2 1.9 2.7 2.7c.6.8 1 1.5 1.2 2.1s.2 1.2-.1 1.8c-.2.6-.6 1.1-1.2 1.8l-19.2 21.9c-.5.6-1.1 1.1-1.6 1.4s-1.1.4-1.8.3-1.4-.4-2.2-.9-1.8-1.3-3-2.3-2-1.9-2.7-2.7-1-1.4-1.2-2.1c-.2-.6-.1-1.2.1-1.8s.6-1.1 1.2-1.8l4-4.6zm39.5 1.6-28.8-13.8-.3.3 17.3 26.9z"/><path d="m709.4 252.5-4.1 2.5c-.7.4-1.3.7-1.9.8s-1.2.1-1.8-.2-1.2-.8-1.8-1.5-1.4-1.8-2.1-3.1c-.8-1.3-1.4-2.4-1.7-3.3-.4-.9-.5-1.7-.5-2.4s.2-1.2.6-1.7.9-.9 1.6-1.3l16.3-9.8c.8-.5 1.5-.8 2.3-.9.7-.1 1.5 0 2.2.4l51.1 27-18.9-31.4-5.4 3.3c-.7.4-1.3.7-1.9.8s-1.2.1-1.8-.2-1.2-.8-1.8-1.5-1.4-1.8-2.1-3.1c-.8-1.3-1.4-2.4-1.7-3.3-.4-.9-.5-1.7-.5-2.4s.2-1.2.6-1.7.9-.9 1.6-1.3l23.1-13.9c.7-.4 1.3-.7 1.9-.8s1.2-.1 1.8.2 1.2.8 1.8 1.5 1.4 1.8 2.1 3.1c.8 1.3 1.4 2.4 1.7 3.3.4.9.5 1.7.5 2.3s-.3 1.2-.6 1.6c-.4.5-.9.9-1.6 1.3l-3.5 2.1 34.8 57.9c.8 1.3.9 2.6.4 3.9s-2.1 2.7-4.7 4.3c-1 .6-1.9 1-2.7 1.3s-1.5.4-2.2.5c-.7 0-1.3 0-1.9-.2s-1.2-.5-1.9-.8l-55.4-29.2 21.2 35.2 6.6-4c.7-.4 1.3-.7 1.9-.8s1.2-.1 1.8.2 1.2.8 1.8 1.5 1.4 1.8 2.1 3.1c.8 1.3 1.4 2.4 1.7 3.3.4.9.5 1.7.5 2.3s-.3 1.2-.6 1.6c-.4.5-.9.9-1.6 1.3l-24.9 15c-.7.4-1.3.7-1.9.8s-1.2.1-1.8-.2-1.2-.8-1.8-1.5-1.4-1.8-2.1-3.1c-.8-1.3-1.4-2.4-1.7-3.3-.4-.9-.5-1.7-.5-2.4s.2-1.2.6-1.7.9-.9 1.6-1.3l4.1-2.5z"/><path d="m857.1 232.2c-.8.2-1.5.3-2.1.2s-1.1-.3-1.6-.7-.9-1.1-1.3-2-.7-2.1-1.1-3.6c-.3-1.5-.6-2.7-.6-3.7-.1-1 0-1.8.3-2.4.2-.6.6-1.1 1.1-1.4s1.2-.6 2-.8l33.2-7.8c.8-.2 1.5-.2 2.1-.2.6.1 1.1.3 1.6.8s.9 1.1 1.3 2 .7 2.1 1.1 3.6c.3 1.5.6 2.7.6 3.7.1 1 0 1.8-.3 2.4-.2.6-.6 1.1-1.1 1.4s-1.2.6-2 .8l-2.2.5 4.2 18.2c.5 2.3.1 4.1-1.4 5.4-3.9 3.3-8.3 6.1-13.3 8.5-4.9 2.3-10.1 4.1-15.6 5.4-5.8 1.4-11.3 1.6-16.5.7s-10-2.8-14.2-5.7c-4.3-2.9-7.9-6.8-11-11.7s-5.4-10.7-7-17.4c-1.5-6.6-2-12.8-1.5-18.6.6-5.8 2.1-10.9 4.5-15.4s5.6-8.3 9.6-11.3 8.6-5.2 13.9-6.4c4.4-1 8.2-1.1 11.6-.4 3.3.8 6.2 2.2 8.6 4.4l-.9-3.9c-.4-1.6 0-2.9 1.2-3.9s3.3-1.8 6.3-2.5c1.5-.3 2.8-.6 3.8-.6 1-.1 1.9 0 2.5.2s1.1.6 1.5 1.1.6 1.2.8 2l5.6 24.1c.4 1.6-.1 2.9-1.3 3.9s-3.5 1.9-6.9 2.7c-1.7.4-3.1.6-4.2.7s-2 0-2.7-.2-1.3-.6-1.6-1.1c-.4-.5-.6-1.2-.8-2-.9-3.9-2.8-6.7-5.7-8.4s-6.9-1.9-11.9-.8c-6.6 1.5-11 5-13.2 10.5s-2.3 12.6-.3 21.3 5.4 15.1 10 19c4.7 3.9 10.3 5.1 16.9 3.5 5.2-1.2 9.9-3.1 14.2-5.5l-2.7-11.7z"/><path d="m991.1 186.1-10.3-2.3c-.8-.2-1.5-.4-2-.7s-.9-.8-1.1-1.4-.3-1.4-.3-2.4.2-2.2.6-3.7c.3-1.5.7-2.7 1.1-3.6s.8-1.6 1.3-2c.5-.5 1-.7 1.6-.8s1.3 0 2.1.2l43.1 9.7c.8.2 1.5.4 2 .7s.9.8 1.1 1.4.3 1.4.3 2.4-.2 2.2-.6 3.7c-.3 1.5-.7 2.7-1.1 3.6s-.8 1.6-1.3 2-1 .7-1.6.7c-.6.1-1.3 0-2.1-.2l-15.3-3.5-12.2 53.9 24.7 5.6 4.9-21.9c.4-1.6 1.3-2.6 2.9-2.9 1.6-.4 4-.2 7.4.6 1.7.4 3 .8 4.1 1.2 1 .4 1.8.8 2.4 1.3s.9 1 1 1.7c.1.6.1 1.3-.1 2.1l-7.3 32.5c-.4 1.6-1 2.7-1.8 3.3-.9.5-2.1.6-3.8.3l-65.5-14.8c-.8-.2-1.5-.4-2-.7s-.9-.8-1.1-1.4-.3-1.4-.3-2.4.2-2.2.6-3.7c.3-1.5.7-2.7 1.1-3.6s.8-1.6 1.3-2c.5-.5 1-.7 1.6-.8s1.3 0 2.1.2l10.3 2.3z"/><path d="m1110.7 226.7-10.3-6.1c-.7-.4-1.3-.9-1.7-1.3-.4-.5-.6-1-.6-1.7s.1-1.4.5-2.4c.3-.9.9-2 1.7-3.4.8-1.3 1.5-2.4 2.1-3.1s1.2-1.2 1.8-1.5 1.2-.3 1.8-.2 1.2.4 1.9.8l29.4 17.4c1.7 1 2.8 2.1 3.5 3.3s.8 2.7.4 4.4l-15.7 67.5 5.4 3.2c.7.4 1.3.9 1.7 1.3.4.5.6 1 .7 1.6 0 .6-.1 1.4-.5 2.3-.3.9-.9 2-1.7 3.4-.8 1.3-1.5 2.4-2.1 3.1s-1.2 1.3-1.8 1.5c-.6.3-1.2.4-1.8.2-.6-.1-1.2-.4-1.9-.8l-26.3-15.6c-.7-.4-1.3-.9-1.6-1.3-.4-.5-.6-1-.6-1.7s.1-1.4.5-2.4c.3-.9.9-2 1.7-3.4.8-1.3 1.5-2.4 2.1-3.1s1.2-1.2 1.8-1.5 1.2-.3 1.8-.2 1.2.4 1.9.8l5.3 3.2 2.5-10.6-22.6-13.4-8.1 7.3 4.6 2.7c.7.4 1.3.9 1.7 1.3.4.5.6 1 .7 1.6 0 .6-.1 1.4-.5 2.3-.3.9-.9 2-1.7 3.4-.8 1.3-1.5 2.4-2.1 3.1s-1.2 1.3-1.8 1.5c-.6.3-1.2.4-1.8.2-.6-.1-1.2-.4-1.9-.8l-25-14.8c-.7-.4-1.3-.9-1.7-1.3-.4-.5-.6-1-.6-1.7s.1-1.4.5-2.4c.3-.9.9-2 1.7-3.4.8-1.3 1.5-2.4 2.1-3.1s1.2-1.2 1.8-1.5 1.2-.3 1.8-.2 1.2.4 1.9.8l5.2 3.1zm5.7 39.2 8.2-30.9-.4-.2-23.3 21.9z"/><path d="m1197.3 289.6-5.1-5.8c-.5-.6-.9-1.2-1.2-1.8-.2-.6-.3-1.1-.1-1.8.2-.6.5-1.3 1.1-2.1s1.5-1.7 2.6-2.7 2.1-1.8 3-2.3c.8-.5 1.6-.8 2.2-.9.7-.1 1.2 0 1.8.3.5.3 1.1.8 1.6 1.4l24.9 28.1c3.4 3.9 6 7.6 7.6 11.1s2.5 6.8 2.6 10c.1 3.1-.6 6.1-2 8.8s-3.4 5.3-6 7.6c-3.1 2.7-6.3 4.2-9.7 4.6-3.4.3-6.8-.2-10.3-1.7 2.3 4.7 3.3 9.3 2.7 13.7-.5 4.4-2.9 8.5-7.2 12.3-3.1 2.7-6.2 4.6-9.4 5.6s-6.5 1.2-9.8.6-6.6-2-9.9-4.1c-3.3-2.2-6.6-5.1-9.9-8.8l-27.6-31.1c-.5-.6-.9-1.2-1.2-1.8-.2-.6-.3-1.1-.1-1.8.2-.6.5-1.3 1.1-2.1s1.5-1.7 2.6-2.7 2.1-1.8 3-2.3c.8-.5 1.6-.8 2.2-.9.7-.1 1.2 0 1.8.3.5.3 1.1.8 1.6 1.4l5.1 5.8zm-20.2 60.5c3.2 3.6 6.2 5.7 8.9 6.2 2.8.6 5.4-.2 7.8-2.4 2.7-2.4 3.9-5 3.7-7.8-.3-2.8-2-6-5.1-9.6l-9.2-10.3-15.3 13.6zm24.5-26.6c2.9 3.3 5.6 5.2 8.1 5.7 2.5.6 5-.2 7.4-2.4s3.5-4.5 3.2-7-1.9-5.4-4.9-8.7l-6.8-7.6-13.9 12.3z"/><path d="m1272.1 393.8-4.9-11c-.3-.7-.5-1.4-.6-2s.1-1.2.5-1.7c.4-.6.9-1.1 1.8-1.6.8-.5 1.9-1.1 3.3-1.7s2.6-1 3.5-1.3c.9-.2 1.7-.3 2.4-.2.6.1 1.1.4 1.6.8.4.4.8 1 1.1 1.8l13.8 31.2c.8 1.8 1.1 3.3.9 4.7s-.9 2.7-2.2 3.8l-52 45.8 2.5 5.7c.3.7.5 1.4.6 2s-.1 1.2-.4 1.7-.9 1.1-1.7 1.6-1.9 1.1-3.3 1.7-2.6 1-3.5 1.3c-.9.2-1.7.3-2.4.2-.6-.1-1.2-.4-1.6-.8s-.8-1-1.1-1.8l-12.3-27.9c-.3-.7-.5-1.4-.6-2s.1-1.2.5-1.7c.4-.6.9-1.1 1.8-1.6.8-.5 1.9-1.1 3.3-1.7s2.6-1 3.5-1.3c.9-.2 1.7-.3 2.4-.2.6.1 1.1.4 1.6.8.4.5.8 1 1.1 1.8l2.5 5.7 8.2-7.2-10.6-24-10.9 1.2 2.2 4.9c.3.7.5 1.4.6 2s-.1 1.2-.4 1.7-.9 1.1-1.7 1.6-1.9 1.1-3.3 1.7-2.6 1-3.5 1.3c-.9.2-1.7.3-2.4.2s-1.2-.4-1.6-.8-.8-1-1.1-1.8l-11.7-26.6c-.3-.7-.5-1.4-.6-2s.1-1.2.5-1.7c.4-.6.9-1.1 1.8-1.6.8-.5 1.9-1.1 3.3-1.7s2.6-1 3.5-1.3c.9-.2 1.7-.3 2.4-.2.6.1 1.1.4 1.6.8.4.5.8 1 1.1 1.8l2.4 5.5zm-18.1 35.1 24.6-20.3-.2-.4-31.7 4.3z"/><circle cx="576.7" cy="520.3" r="10.3"/><circle cx="1273.1" cy="520.3" r="10.3"/><path d="m869.1 341.6c.1.4 0 .7-.2.9s-.7.4-1.4.6-1.2.2-1.6.1c-.3-.1-.6-.3-.7-.7l-1.4-5.5c-.1-.4 0-.7.2-.9s.6-.4 1.1-.5c.4-.1.7-.1 1-.1s.5.2.7.4c.9 1 1.8 1.6 2.8 2s2 .4 3.1.1c1-.3 1.7-.6 2.1-1.2.4-.5.5-1.1.3-1.8-.1-.5-.3-.8-.6-1.1-.3-.2-.7-.4-1.2-.5s-1.1-.1-1.7-.1-1.3 0-1.9.1c-.7 0-1.4 0-2.1 0s-1.4-.1-2-.2c-.4-.1-.9-.2-1.2-.4-.4-.2-.8-.4-1.1-.8-.3-.3-.6-.7-.9-1.1-.3-.5-.5-1-.6-1.6-.2-.9-.3-1.7-.2-2.5s.4-1.6.8-2.2c.4-.7 1-1.3 1.7-1.8s1.5-.9 2.5-1.1c.9-.2 1.7-.3 2.6-.2.8.1 1.6.3 2.3.7l-.2-.6c-.1-.4 0-.7.2-.9s.7-.4 1.4-.6 1.2-.2 1.6-.1c.3.1.6.3.7.7l1.2 4.5c.1.4 0 .7-.2.9s-.6.4-1.1.5c-.4.1-.7.1-.9.1s-.4-.1-.6-.3c-.7-.7-1.5-1.1-2.5-1.4s-1.9-.2-3 0c-.8.2-1.4.6-1.7 1.1s-.4 1.1-.3 1.7c.1.3.3.6.5.7.3.2.6.3 1 .3.5.1 1 .1 1.7 0 .6 0 1.3-.1 2-.1h2.1c.7 0 1.4.1 2.1.3.4.1.9.3 1.3.5s.8.5 1.1.9.7.8.9 1.3c.3.5.5 1.1.7 1.8.2.9.3 1.7.2 2.6-.1.8-.4 1.6-.8 2.2-.4.7-1 1.3-1.8 1.8s-1.7.9-2.9 1.2c-1.8.5-3.5.3-5.1-.5z"/><path d="m894.4 320.5-4 .4c-.2 0-.4 0-.5 0s-.3-.1-.4-.2-.2-.3-.2-.5c-.1-.2-.1-.5-.2-.9 0-.4-.1-.7 0-.9 0-.2.1-.4.1-.6.1-.1.2-.2.3-.3s.3-.1.5-.1l12.3-1.3h.5c.1 0 .3.1.4.2s.2.3.2.5.1.5.2.9c0 .4.1.7 0 .9 0 .2-.1.4-.1.5s-.2.2-.3.3-.3.1-.5.1l-4 .4 1.4 13.2 4.3-.5h.5c.1 0 .3.1.4.2s.2.3.2.5c.1.2.1.5.2.9 0 .4.1.7 0 .9 0 .2-.1.4-.1.5-.1.1-.2.2-.3.3s-.3.1-.5.1l-12.9 1.4c-.2 0-.4 0-.5 0s-.3-.1-.4-.2-.2-.3-.2-.5c-.1-.2-.1-.5-.2-.9 0-.4-.1-.7 0-.9 0-.2.1-.4.1-.6.1-.1.2-.2.3-.3s.3-.1.5-.1l4.3-.5z"/><path d="m916.8 318.7h-1.1c-.2 0-.4 0-.5-.1-.1 0-.2-.1-.3-.3-.1-.1-.2-.3-.2-.5s-.1-.5-.1-.9 0-.7.1-.9c0-.2.1-.4.2-.5s.2-.2.3-.3c.1 0 .3-.1.5-.1h4.5c.2 0 .4 0 .6.1s.3.2.4.4l7.2 11.7v-8.7h-1.5c-.2 0-.4 0-.5-.1-.1 0-.2-.1-.3-.3-.1-.1-.1-.3-.2-.5 0-.2-.1-.5-.1-.9s0-.7.1-.9c0-.2.1-.4.2-.5s.2-.2.3-.3c.1 0 .3-.1.5-.1h6.4c.2 0 .4 0 .5.1.1 0 .2.1.3.3.1.1.1.3.2.5 0 .2.1.5.1.9s0 .7-.1.9c0 .2-.1.4-.2.5s-.2.2-.3.3c-.1 0-.3.1-.5.1h-1l.1 16c0 .4-.1.6-.4.8s-.8.3-1.5.3c-.3 0-.5 0-.7-.1-.2 0-.4-.1-.5-.2s-.3-.2-.4-.3-.2-.2-.3-.4l-7.8-12.7.1 9.8h1.8c.2 0 .4 0 .5.1s.2.1.3.3c.1.1.1.3.2.5 0 .2.1.5.1.9s0 .7-.1.9c0 .2-.1.4-.2.5s-.2.2-.3.3c-.1 0-.3.1-.5.1h-6.9c-.2 0-.4 0-.5-.1-.1 0-.2-.1-.3-.3-.1-.1-.1-.3-.2-.5s-.1-.5-.1-.9 0-.7.1-.9c0-.2.1-.4.2-.5s.2-.2.3-.3c.1 0 .3-.1.5-.1h1.1z"/><path d="m958 339.2c-1.3.4-2.5.7-3.8.8s-2.5.1-3.7-.1c-1.4-.2-2.6-.7-3.7-1.3-1.1-.7-1.9-1.5-2.6-2.5s-1.1-2.2-1.4-3.6c-.2-1.4-.2-2.8 0-4.4s.7-3 1.3-4.2 1.4-2.2 2.3-3 2-1.3 3.1-1.6 2.4-.4 3.6-.2c1.1.2 1.9.5 2.6 1s1.2 1.1 1.5 1.8l.2-1.1c.1-.4.3-.6.6-.7.4-.1.9-.1 1.6 0 .4.1.7.1.9.2s.4.2.5.3.2.2.2.4v.5l-1 6.5c-.1.4-.3.6-.6.7-.4.1-.9.1-1.8 0-.4-.1-.7-.1-1-.2-.2-.1-.4-.2-.6-.3-.1-.1-.2-.2-.3-.4 0-.1 0-.3 0-.5.1-.5.1-1.1 0-1.5-.1-.5-.2-.9-.5-1.3-.2-.4-.6-.7-1-.9s-.9-.4-1.5-.5c-1.6-.2-2.9.1-3.8 1.1-1 1-1.6 2.6-1.9 4.7s-.1 3.8.5 5.1c.7 1.3 1.8 2 3.4 2.3 1 .2 2 .2 3 0 1-.1 2-.4 3-.7.4-.1.7-.1 1 .2.3.2.5.7.6 1.4s.1 1.3-.1 1.6c.1.1-.2.3-.6.4z"/><path d="m973.2 327.3-1.6-.4c-.2-.1-.3-.1-.5-.2-.1-.1-.2-.2-.3-.3 0-.1-.1-.3 0-.6 0-.2.1-.5.2-.9s.2-.6.3-.8.2-.4.3-.5.2-.2.4-.2c.1 0 .3 0 .5.1l15 4.2c.4.1.6.3.8.5.1.2.1.5 0 .9l-1.4 5c-.1.4-.3.6-.7.7s-.9 0-1.6-.2c-.4-.1-.6-.2-.9-.3-.2-.1-.4-.2-.5-.3s-.2-.3-.2-.4 0-.3.1-.5l.7-2.5-6.6-1.8-1.2 4.2 4 1.1c.2.1.3.1.5.2.1.1.2.2.2.4s.1.4 0 .6c0 .2-.1.5-.2.9s-.2.6-.3.8-.2.4-.3.5-.3.2-.4.2-.3 0-.5-.1l-4-1.1-1.3 4.8 6.7 1.9.9-3.3c.1-.4.3-.6.7-.7s.9 0 1.7.2c.4.1.7.2.9.3s.4.2.5.3.2.3.2.4 0 .3-.1.5l-1.6 5.8c-.1.4-.3.6-.5.8s-.5.1-.9 0l-15.2-4.5c-.2-.1-.3-.1-.5-.2-.1-.1-.2-.2-.3-.3 0-.1-.1-.3 0-.6s.1-.5.2-.9.2-.6.3-.8.2-.4.3-.5.2-.2.4-.2.3 0 .5.1l1.6.4z"/><path d="m809 741.4-1.4-1.2c-.1-.1-.3-.3-.3-.4-.1-.1-.1-.3-.1-.4 0-.2.1-.3.2-.5s.3-.4.5-.7.5-.5.6-.6c.2-.1.3-.2.5-.3s.3 0 .4 0c.1.1.3.1.4.3l6.6 5.9c.9.8 1.6 1.6 2.1 2.4s.8 1.5.9 2.3c.1.7 0 1.5-.2 2.1-.3.7-.7 1.3-1.2 2-.6.7-1.4 1.2-2.2 1.3-.8.2-1.6.1-2.5-.1.7 1 1 2.1 1 3.2s-.4 2.1-1.4 3.1c-.7.7-1.3 1.3-2.1 1.6-.7.3-1.5.5-2.3.4-.8 0-1.6-.3-2.5-.7-.8-.4-1.7-1-2.6-1.8l-7.4-6.6c-.1-.1-.3-.3-.3-.4-.1-.1-.1-.3-.1-.4 0-.2.1-.3.2-.5s.3-.4.5-.7.5-.5.6-.6c.2-.1.3-.2.5-.3h.4c.1.1.3.1.4.3l1.4 1.2zm-3.1 14.8c.8.8 1.6 1.2 2.3 1.2.7.1 1.3-.2 1.8-.8.6-.6.8-1.3.6-1.9-.1-.7-.6-1.4-1.5-2.1l-2.4-2.2-3.2 3.6zm5.1-7c.8.7 1.5 1.1 2.1 1.1.6.1 1.2-.2 1.7-.8s.7-1.2.6-1.7c-.1-.6-.6-1.2-1.4-1.9l-1.8-1.6-2.9 3.3z"/><path d="m836.3 763.7c-.2-.1-.3-.2-.4-.3s-.1-.2-.2-.4c0-.2 0-.3.1-.6.1-.2.2-.5.4-.8s.4-.6.5-.7c.2-.2.3-.3.4-.4s.3-.1.4-.1.3.1.5.2l5.5 3.3c.2.1.3.2.4.3s.1.2.2.4c0 .2 0 .3-.1.6-.1.2-.2.5-.4.8s-.4.6-.5.7c-.2.2-.3.3-.4.4s-.3.1-.4.1-.3-.1-.5-.2l-1.1-.7-4.8 8.1c-.3.6-.6 1.1-.7 1.6s-.1 1 0 1.4.3.8.6 1.2c.3.3.7.6 1.1.9s.9.4 1.3.5.9.1 1.3 0 .8-.3 1.2-.7c.4-.3.8-.8 1.1-1.4l4.8-8.1-1.1-.7c-.2-.1-.3-.2-.4-.3s-.1-.2-.2-.4c0-.2 0-.3.1-.6.1-.2.2-.5.4-.8s.4-.6.5-.7c.1-.2.3-.3.4-.4s.3-.1.4-.1.3.1.5.2l5.5 3.3c.2.1.3.2.4.3s.1.2.2.4c0 .2 0 .3-.1.6-.1.2-.2.5-.4.8s-.4.6-.5.7c-.2.2-.3.3-.4.4s-.3.1-.4.1-.3-.1-.5-.2l-.7-.4-5 8.4c-.6 1-1.3 1.8-2.1 2.5-.8.6-1.6 1-2.5 1.2s-1.8.2-2.8 0-2-.6-3-1.2-1.9-1.3-2.5-2.1c-.7-.8-1.1-1.6-1.4-2.5s-.3-1.8-.1-2.8.5-2 1.2-3l5-8.4z"/><path d="m871.4 779.6-2.4-.8c-.2-.1-.3-.1-.4-.2s-.2-.2-.2-.4c0-.1 0-.3 0-.6 0-.2.1-.5.2-.9.1-.3.2-.6.3-.8s.2-.4.4-.4c.1-.1.3-.1.4-.1s.3 0 .5.1l9.9 3.4c.2.1.3.1.4.2s.2.2.2.4v.6c0 .2-.1.5-.2.9-.1.3-.2.6-.3.8s-.2.3-.4.4c-.1.1-.3.1-.4.1s-.3 0-.5-.1l-3.5-1.2-4.3 12.4 5.7 2 1.7-5c.1-.4.4-.6.8-.6s1 .1 1.7.3c.4.1.7.3.9.4s.4.2.5.4c.1.1.2.3.2.4s0 .3-.1.5l-2.6 7.5c-.1.4-.3.6-.5.7s-.5.1-.9 0l-15-5.2c-.2-.1-.3-.1-.4-.2s-.2-.2-.2-.4c0-.1 0-.3 0-.6 0-.2.1-.5.2-.9.1-.3.2-.6.3-.8s.2-.4.4-.4c.1-.1.3-.1.4-.1s.3 0 .5.1l2.4.8z"/><path d="m908.3 787.9-4-.5c-.2 0-.4-.1-.5-.1-.1-.1-.2-.2-.3-.3s-.1-.3-.1-.5 0-.5 0-.9.1-.7.2-.9.1-.4.2-.5.2-.2.4-.2.3 0 .5 0l12.2 1.4c.2 0 .4.1.5.1l.3.3c.1.1.1.3.1.6v.9c0 .4-.1.7-.2.9s-.1.4-.2.5-.2.2-.4.2c-.1 0-.3 0-.5 0l-4-.5-1.5 13.2 4.3.5c.2 0 .4.1.5.1l.3.3c.1.1.1.3.1.6v.9c0 .4-.1.7-.2.9s-.1.4-.2.5-.2.2-.4.2c-.1 0-.3 0-.5 0l-12.9-1.6c-.2 0-.4-.1-.5-.1-.1-.1-.2-.2-.3-.3s-.1-.3-.1-.5 0-.5 0-.9.1-.7.2-.9.1-.4.2-.5.2-.2.4-.2h.5l4.3.5z"/><path d="m937.4 788.2-1.1.1c-.2 0-.4 0-.5 0s-.3-.1-.4-.2-.2-.3-.2-.5-.1-.5-.1-.9 0-.7 0-.9.1-.4.1-.6c.1-.1.2-.2.3-.3s.3-.1.5-.1l4.5-.3c.2 0 .4 0 .6.1s.3.2.4.3l8 11.2-.7-8.7-1.5.1c-.2 0-.4 0-.5 0s-.3-.1-.4-.2-.2-.3-.2-.5c-.1-.2-.1-.5-.1-.9s0-.7 0-.9.1-.4.1-.6l.3-.3c.1-.1.3-.1.5-.1l6.4-.5h.5c.1 0 .3.1.4.2s.2.3.2.5.1.5.1.9v.9c0 .2-.1.4-.1.5-.1.1-.2.2-.3.3s-.3.1-.5.1l-1 .1 1.2 16c0 .4-.1.7-.3.9-.3.2-.7.3-1.5.4-.3 0-.5 0-.7 0s-.4-.1-.5-.1c-.1-.1-.3-.1-.4-.3s-.2-.2-.3-.4l-8.6-12.1.7 9.7 1.8-.1h.5c.1 0 .3.1.4.2s.2.3.2.5c.1.2.1.5.1.9v.9c0 .2-.1.4-.1.5-.1.1-.2.2-.3.3s-.3.1-.5.1l-6.9.5c-.2 0-.4 0-.5 0s-.3-.1-.4-.2-.2-.3-.2-.5c-.1-.2-.1-.5-.1-.9s0-.7 0-.9.1-.4.1-.6l.3-.3c.1-.1.3-.1.5-.1l1.1-.1z"/><path d="m982.1 789.8c-.2.1-.4.1-.5.1s-.3-.1-.4-.1c-.1-.1-.2-.2-.3-.5-.1-.2-.2-.5-.3-.8s-.2-.6-.2-.9c0-.2 0-.4 0-.6s.1-.3.2-.4.3-.2.5-.2l7.7-2.4c.2-.1.4-.1.5-.1s.3.1.4.2.2.3.3.5.2.5.3.8.2.6.2.9v.6c0 .1-.1.3-.2.3-.1.1-.3.2-.5.2l-.5.2 1.3 4.2c.2.5.1 1-.2 1.3-.9.9-1.9 1.6-3 2.2s-2.3 1.1-3.6 1.5c-1.4.4-2.7.6-3.9.4-1.2-.1-2.4-.5-3.5-1.1s-2-1.5-2.8-2.6-1.5-2.4-1.9-4c-.5-1.5-.7-3-.6-4.4 0-1.4.3-2.6.8-3.7s1.2-2 2.1-2.8 2-1.4 3.2-1.7c1-.3 1.9-.4 2.7-.3s1.5.4 2.1.9l-.3-.9c-.1-.4 0-.7.2-.9.3-.3.8-.5 1.4-.7.3-.1.6-.2.9-.2h.6c.2 0 .3.1.4.2s.2.3.2.4l1.7 5.6c.1.4 0 .7-.2.9-.3.3-.8.5-1.6.7-.4.1-.7.2-1 .2s-.5 0-.6 0c-.2 0-.3-.1-.4-.2s-.2-.3-.2-.4c-.3-.9-.8-1.5-1.5-1.9s-1.7-.4-2.8 0c-1.5.5-2.5 1.4-3 2.7-.4 1.3-.3 3 .3 5.1.6 2 1.5 3.5 2.7 4.3s2.5 1 4 .6c1.2-.4 2.3-.9 3.3-1.5l-.8-2.7z"/><path d="m1007.8 761.8c1.2-.7 2.5-1.1 3.7-1.3s2.4 0 3.6.3c1.2.4 2.3 1 3.3 1.9s2 2.1 2.8 3.5 1.3 2.8 1.6 4.1.3 2.6 0 3.8-.8 2.3-1.5 3.3c-.8 1-1.8 1.9-3 2.6s-2.5 1.1-3.7 1.3-2.5 0-3.6-.3c-1.2-.4-2.3-1-3.3-1.9s-2-2.1-2.8-3.5-1.3-2.8-1.6-4.1-.3-2.6 0-3.8.8-2.3 1.5-3.3c.8-1 1.8-1.9 3-2.6zm2 3.4c-1.4.8-2.2 1.9-2.3 3.3s.3 3 1.4 4.9c1.1 1.8 2.2 3.1 3.5 3.7s2.6.5 4-.3 2.2-1.9 2.3-3.3-.3-3-1.4-4.9c-1.1-1.8-2.2-3.1-3.5-3.7s-2.6-.5-4 .3z"/><path d="m1031.6 749.4-.9.7c-.2.1-.3.2-.4.2s-.3 0-.4 0-.3-.1-.5-.3-.4-.4-.6-.7-.4-.5-.5-.7-.2-.4-.2-.5 0-.3.1-.4.2-.2.4-.4l3.6-2.8c.2-.1.3-.2.5-.3h.5l12.8 5-5.3-6.9-1.2.9c-.2.1-.3.2-.4.2s-.3 0-.4 0-.3-.1-.5-.3-.4-.4-.6-.7-.4-.5-.5-.7-.2-.4-.2-.5c0-.2 0-.3.1-.4s.2-.2.4-.4l5.1-3.9c.2-.1.3-.2.4-.2h.4c.1.1.3.2.5.3.2.2.4.4.6.7s.4.5.5.7.2.4.2.5c0 .2 0 .3-.1.4s-.2.2-.4.4l-.8.6 9.8 12.7c.2.3.3.6.2.9s-.4.7-1 1.1c-.2.2-.4.3-.6.4s-.3.1-.5.2c-.2 0-.3 0-.5 0s-.3-.1-.5-.1l-13.9-5.4 6 7.7 1.4-1.1c.2-.1.3-.2.4-.2h.4c.1.1.3.2.5.3.2.2.4.4.6.7s.4.5.5.7.2.4.2.5c0 .2 0 .3-.1.4s-.2.2-.4.4l-5.5 4.2c-.2.1-.3.2-.4.2s-.3 0-.4 0-.3-.1-.5-.3-.4-.4-.6-.7-.4-.5-.5-.7-.2-.4-.2-.5c0-.2 0-.3.1-.4s.2-.2.4-.4l.9-.7z"/><path d="m1072.1 507.7c-4.3-2-9.2 1.3-9 6l7.6 184.3c.1 3.6-2.7 6.6-6.4 6.6h-94.2c-3.1 0-5.7-2.2-6.3-5.2l-23.8-132.5c-.7-4.2-5.3-6.5-9.1-4.6l-3.1 1.5c-1.9 1-4.2.9-6.1-.2l-3.1-1.9c-3.8-2.3-8.6-.1-9.5 4.2l-27.5 133.7c-.6 3-3.2 5.1-6.2 5.1h-90.1c-3.7 0-6.6-3.1-6.3-6.7l11.3-184c.3-4.8-4.6-8.2-9-6.2-3.1 1.4-6.8.1-8.3-2.9l-38.4-75.7c-1.6-3.2-.3-7 2.9-8.6l77-37.9c.9-.4 1.8-.7 2.8-.7h72.2c2.8 0 5.3 1.9 6.1 4.6 3 10.5 10.2 22.3 29.7 22.3 19.4 0 29.1-11.2 31.5-21.9.7-2.9 3.2-4.9 6.2-4.9h70.4c1 0 2 .2 2.8.7l75.9 37.9c3.1 1.5 4.4 5.2 2.9 8.3l-34.8 75.5c-1.2 3.3-5 4.7-8.1 3.2z"/></g></svg>