<svg enable-background="new 0 0 1920 1080" viewBox="0 0 1920 1080" xmlns="http://www.w3.org/2000/svg"><g fill="#0036ab"><path d="m219.1 770c-2.6-3.5-5.9-5.7-10.4-5.7-4.3 0-8.5 3.3-8.5 7.8 0 11.7 27.5 6.8 27.5 30.1 0 13.9-8.7 23.8-22.8 23.8-9.6 0-16.6-5.5-21.4-13.5l8.8-8.6c1.8 5.3 6.7 10.1 12.5 10.1 5.5 0 8.9-4.7 8.9-10 0-7.2-6.6-9.2-12.1-11.3-8.9-3.7-15.5-8.2-15.5-19 0-11.5 8.6-20.8 20.3-20.8 6.2 0 14.7 3 19 7.7z"/><path d="m357 824.2h-13.5v-69.5h18.4c14.6 0 24 5.8 24 21.6 0 14.7-8 21.9-22.2 21.9h-6.7zm0-37.3h2.8c8 0 12.3-1.8 12.3-10.8 0-8.9-5.2-10.2-12.7-10.2h-2.4z"/><path d="m531.9 826c-21.2 0-34.4-16.2-34.4-36.7 0-20.6 13.6-36.5 34.4-36.5 20.7 0 34.4 15.8 34.4 36.5-.1 20.5-13.2 36.7-34.4 36.7zm0-59.8c-12.8 0-20.4 11.3-20.4 22.6 0 10.7 5.3 23.9 20.4 23.9 15 0 20.4-13.2 20.4-23.9-.1-11.3-7.6-22.6-20.4-22.6z"/><path d="m728.6 824.2h-16.4l-16.9-28h-.2v28h-13.5v-69.5h18.3c13.7 0 23.2 6.1 23.2 20.9 0 8.8-4.9 17.7-14.2 19.3zm-33.5-37.5h1.7c7.5 0 12.7-2.2 12.7-10.7 0-8.6-5.4-10.2-12.6-10.2h-1.8z"/><path d="m862.4 824.2h-13.5v-57.7h-14v-11.8h41.5v11.8h-14z"/><path d="m1022.8 770c-2.6-3.5-5.9-5.7-10.4-5.7-4.3 0-8.5 3.3-8.5 7.8 0 11.7 27.5 6.8 27.5 30.1 0 13.9-8.7 23.8-22.8 23.8-9.6 0-16.6-5.5-21.4-13.5l8.8-8.6c1.8 5.3 6.7 10.1 12.5 10.1 5.5 0 8.9-4.7 8.9-10 0-7.2-6.6-9.2-12.1-11.3-8.9-3.7-15.5-8.2-15.5-19 0-11.5 8.6-20.8 20.3-20.8 6.2 0 14.7 3 19 7.7z"/><path d="m1169.1 802.1h.2l13.8-48.3h8l14.4 48.3h.2l13.6-47.4h14.2l-23.5 70.8h-9.9l-13.8-45.4h-.2l-13.1 45.4h-9.9l-22.1-70.8h14.2z"/><path d="m1359.5 766.5v15.3h21.6v11.8h-21.6v18.8h22.4v11.8h-35.9v-69.5h35.9v11.8z"/><path d="m1513.7 809.5-5.7 14.6h-14.3l27.1-71.3h10.5l26.3 71.3h-14.5l-5.3-14.6zm11.7-36.3h-.2l-7.6 25.2h16.5z"/><path d="m1717.5 824.2h-16.4l-16.9-28h-.2v28h-13.5v-69.5h18.3c13.7 0 23.2 6.1 23.2 20.9 0 8.8-4.9 17.7-14.2 19.3zm-33.4-37.5h1.7c7.5 0 12.7-2.2 12.7-10.7 0-8.6-5.4-10.2-12.6-10.2h-1.8z"/></g><path d="m1141.1 665h-150.2l144.5-212-130.4-196.1h150.2l57.8 104.3 58.4-104.3h150.2l-137.7 196.1 138.9 212h-150.2l-65.7-114.5z" fill="#ffbd00"/><path d="m1499.1 665h-150.2l144.5-212-130.4-196.1h150.2l57.8 104.3 58.4-104.3h150.2l-137.7 196.1 138.9 212h-150.2l-65.7-114.5z" fill="#ffbd00"/><path d="m876.2 256.9v31.5c-31.5-19.9-68.8-31.5-108.8-31.5-112.5 0-203.6 91.1-203.6 203.6s91.1 203.6 203.6 203.6c40 0 77.4-11.6 108.8-31.5v31.5h108.8v-407.2zm-9.1 211.1c0 .8-.1 1.5-.2 2.3h-24.5c.7 16.3 3.1 32.1 7 47.3-3 4.4-6.5 8.6-10.2 12.4-1.7 1.8-3.5 3.5-5.3 5.1-7.2-20.4-11.4-42.2-12.3-64.8h-46.5v89.9c-.6.1-1.2.1-1.8.1-2 .1-3.9.2-5.9.2-2.8 0-5.5-.1-8.2-.3-.8-.1-1.7-.1-2.5-.2v-89.6h-44.1c-.9 22.5-5.1 44.1-12.2 64.4-1.8-1.6-3.5-3.3-5.1-5-3.8-3.9-7.2-8.2-10.3-12.7 3.9-15.1 6.2-30.7 6.9-46.8h-23.9c-.1-.8-.1-1.5-.2-2.3-.2-2.5-.3-5-.3-7.5 0-2.2.1-4.5.2-6.7 0-.7.1-1.4.1-2h24c-.7-16.4-3.1-32.3-7.1-47.6 3.1-4.5 6.5-8.8 10.3-12.7 1.7-1.7 3.4-3.4 5.1-5 7.2 20.5 11.6 42.5 12.5 65.3h44.1v-90.8c.8-.1 1.7-.2 2.5-.2 2.7-.2 5.5-.3 8.2-.3 2 0 4 0 5.9.2.6 0 1.2.1 1.8.1v91h46.5c.9-23 5.3-45 12.6-65.7 1.8 1.6 3.6 3.3 5.3 5.1 3.7 3.9 7.1 8 10.2 12.5-4.1 15.5-6.5 31.6-7.2 48.2h24.5c0 .7.1 1.4.1 2 .1 2.2.2 4.4.2 6.7.1 2.4 0 4.9-.2 7.4z" fill="#d00"/><path d="m546.2 256.9v203.6c0 112.5-91.2 203.6-203.6 203.6-110.7 0-200.7-88.3-203.5-198.3h115.8c2.8 52.8 34.3 94.8 87.8 94.8s86.6-42 89.4-94.8c.1-1.7.1-3.5.1-5.3v-203.6z" fill="#ffbd00"/></svg>