<svg viewBox="0 0 869.8 869.8" xmlns="http://www.w3.org/2000/svg"><circle cx="434.9" cy="434.9" fill="#ff4e00" r="434.9"/><g fill="#fff"><path d="m605.2 597-1.6-6.8a3.44 3.44 0 0 1 -.1-1.4 1.61 1.61 0 0 1 .5-1.1 4.85 4.85 0 0 1 1.3-.9 9.94 9.94 0 0 1 2.4-.7 14.13 14.13 0 0 1 2.5-.4 3.9 3.9 0 0 1 1.6.2 1.6 1.6 0 0 1 .9.7 3.92 3.92 0 0 1 .5 1.3l6.7 28.6a3.44 3.44 0 0 1 .1 1.4 1.61 1.61 0 0 1 -.5 1.1 7.3 7.3 0 0 1 -1.3.9 9.94 9.94 0 0 1 -2.4.7 14.13 14.13 0 0 1 -2.5.4 3.9 3.9 0 0 1 -1.6-.2 2.18 2.18 0 0 1 -.9-.7 3.92 3.92 0 0 1 -.5-1.3l-2.4-10.1-35.7 8.4 3.8 16.3 14.5-3.4a2.38 2.38 0 0 1 2.6.9 11.41 11.41 0 0 1 1.8 4.6 18.59 18.59 0 0 1 .5 2.8 5.15 5.15 0 0 1 -.1 1.8 2.1 2.1 0 0 1 -.7 1.1 3.92 3.92 0 0 1 -1.3.5l-21.5 5.1a2.94 2.94 0 0 1 -2.5-.2 3.13 3.13 0 0 1 -1.2-2.2l-10.2-43.4a3.44 3.44 0 0 1 -.1-1.4 1.61 1.61 0 0 1 .5-1.1 4.85 4.85 0 0 1 1.3-.9 9.94 9.94 0 0 1 2.4-.7 14.13 14.13 0 0 1 2.5-.4 3.9 3.9 0 0 1 1.6.2 1.6 1.6 0 0 1 .9.7 3.92 3.92 0 0 1 .5 1.3l1.6 6.8z" transform="translate(-495.5 -103.2)"/><path d="m623.9 663.6-2.9-7.4a3.93 3.93 0 0 1 -.3-1.4 2 2 0 0 1 .3-1.1 4.22 4.22 0 0 1 1.2-1c.6-.3 1.3-.7 2.2-1.1a16.79 16.79 0 0 1 2.4-.8 4.57 4.57 0 0 1 1.6-.1 1.7 1.7 0 0 1 1 .6 3.46 3.46 0 0 1 .7 1.2l8.4 21.1a6.3 6.3 0 0 1 .5 3.2 4.66 4.66 0 0 1 -1.6 2.5l-35.6 29.1 1.5 3.9a3.93 3.93 0 0 1 .3 1.4 2 2 0 0 1 -.3 1.1 2.47 2.47 0 0 1 -1.2 1c-.6.3-1.3.7-2.2 1.1a16.79 16.79 0 0 1 -2.4.8 4.57 4.57 0 0 1 -1.6.1 1.7 1.7 0 0 1 -1-.6 3.46 3.46 0 0 1 -.7-1.2l-7.5-18.8a3.93 3.93 0 0 1 -.3-1.4 2 2 0 0 1 .3-1.1 4 4 0 0 1 1.2-1 22.22 22.22 0 0 1 2.2-1.1 16.79 16.79 0 0 1 2.4-.8 4.57 4.57 0 0 1 1.6-.1 1.7 1.7 0 0 1 1 .6 3.46 3.46 0 0 1 .7 1.2l1.5 3.8 5.6-4.6-6.4-16.2-7.2.6 1.3 3.3a3.93 3.93 0 0 1 .3 1.4 2 2 0 0 1 -.3 1.1 2.47 2.47 0 0 1 -1.2 1c-.6.3-1.3.7-2.2 1.1a16.79 16.79 0 0 1 -2.4.8 4.57 4.57 0 0 1 -1.6.1 1.7 1.7 0 0 1 -1-.6 3.46 3.46 0 0 1 -.7-1.2l-7.1-17.9a3.93 3.93 0 0 1 -.3-1.4 2 2 0 0 1 .3-1.1 4 4 0 0 1 1.2-1c.6-.3 1.3-.7 2.2-1.1a16.79 16.79 0 0 1 2.4-.8 4.57 4.57 0 0 1 1.6-.1 1.7 1.7 0 0 1 1 .6 3.46 3.46 0 0 1 .7 1.2l1.5 3.7zm-12.8 22.8 16.8-12.9-.1-.3-21.1 2.1z" transform="translate(-495.5 -103.2)"/><path d="m643.5 709.7a4.88 4.88 0 0 1 -.6-1.3 2.46 2.46 0 0 1 .1-1.2 3.54 3.54 0 0 1 1-1.2 21.87 21.87 0 0 1 2-1.4 14.83 14.83 0 0 1 2.2-1.1 5 5 0 0 1 1.6-.3 2.1 2.1 0 0 1 1.1.4 3.53 3.53 0 0 1 .9 1.1l9.3 15.3a4.88 4.88 0 0 1 .6 1.3 2.46 2.46 0 0 1 -.1 1.2 3.54 3.54 0 0 1 -1 1.2 21.87 21.87 0 0 1 -2 1.4 14.83 14.83 0 0 1 -2.2 1.1 4.94 4.94 0 0 1 -1.5.3 2.1 2.1 0 0 1 -1.1-.4 5.31 5.31 0 0 1 -.9-1.1l-1.9-3.1-22.4 13.6a15.62 15.62 0 0 0 -3.8 3.2 10.94 10.94 0 0 0 -1.9 3.5 9.18 9.18 0 0 0 -.1 3.7 14.39 14.39 0 0 0 1.5 3.7 10.84 10.84 0 0 0 2.6 3 8.45 8.45 0 0 0 3.3 1.6 8.55 8.55 0 0 0 3.9 0 18.74 18.74 0 0 0 4.6-1.9l22.4-13.6-1.9-3.1a4.88 4.88 0 0 1 -.6-1.3 2.46 2.46 0 0 1 .1-1.2 3.54 3.54 0 0 1 1-1.2 21.87 21.87 0 0 1 2-1.4 14.83 14.83 0 0 1 2.2-1.1 5 5 0 0 1 1.6-.3 2.1 2.1 0 0 1 1.1.4 3.53 3.53 0 0 1 .9 1.1l9.3 15.3a4.88 4.88 0 0 1 .6 1.3 2.46 2.46 0 0 1 -.1 1.2 3.54 3.54 0 0 1 -1 1.2 21.87 21.87 0 0 1 -2 1.4 14.83 14.83 0 0 1 -2.2 1.1 4.94 4.94 0 0 1 -1.5.3 2.1 2.1 0 0 1 -1.1-.4 5.31 5.31 0 0 1 -.9-1.1l-1.2-1.9-23.4 13.8a26.14 26.14 0 0 1 -8.4 3.3 17.05 17.05 0 0 1 -7.8-.3 17.87 17.87 0 0 1 -7-3.8 30 30 0 0 1 -9.4-15.4 17.6 17.6 0 0 1 -.1-7.9 17 17 0 0 1 3.3-7.1 24.76 24.76 0 0 1 6.8-5.9l23.2-14.1z" transform="translate(-495.5 -103.2)"/><path d="m679.7 765.4-2.2-2.4a4.18 4.18 0 0 1 -.8-1.2 1.67 1.67 0 0 1 -.1-1.2 3.65 3.65 0 0 1 .7-1.4c.4-.5 1-1.1 1.7-1.8s1.4-1.2 1.9-1.6a3.17 3.17 0 0 1 1.5-.6 1.72 1.72 0 0 1 1.2.2 4.36 4.36 0 0 1 1.1.9l8.5 9.3a4.19 4.19 0 0 1 .9 1.4 2 2 0 0 1 0 1.5l-10.9 36.8 18-16.4-2.8-3.1a4.18 4.18 0 0 1 -.8-1.2 1.67 1.67 0 0 1 -.1-1.2 3.65 3.65 0 0 1 .7-1.4c.4-.5 1-1.1 1.7-1.8s1.4-1.2 1.9-1.6a3.17 3.17 0 0 1 1.5-.6 1.72 1.72 0 0 1 1.2.2 4.36 4.36 0 0 1 1.1.9l12.1 13.2a4.18 4.18 0 0 1 .8 1.2 1.67 1.67 0 0 1 .1 1.2 4.1 4.1 0 0 1 -.8 1.4c-.4.5-1 1.1-1.7 1.8s-1.4 1.2-1.9 1.6a3.28 3.28 0 0 1 -1.4.6 1.72 1.72 0 0 1 -1.2-.2 4.36 4.36 0 0 1 -1.1-.9l-1.8-2-33.1 30.2a2.68 2.68 0 0 1 -2.5.7c-.9-.2-2-1-3.4-2.5a13.28 13.28 0 0 1 -1.2-1.6 4.24 4.24 0 0 1 -.6-1.4 5.7 5.7 0 0 1 -.1-1.3 6.11 6.11 0 0 1 .3-1.3l11.8-39.9-20.1 18.4 3.5 3.8a4.18 4.18 0 0 1 .8 1.2 1.67 1.67 0 0 1 .1 1.2 4.1 4.1 0 0 1 -.8 1.4c-.4.5-1 1.1-1.7 1.8s-1.4 1.2-1.9 1.6a3.28 3.28 0 0 1 -1.4.6 2.54 2.54 0 0 1 -1.2-.2 4.36 4.36 0 0 1 -1.1-.9l-13-14.3a4.18 4.18 0 0 1 -.8-1.2 1.67 1.67 0 0 1 -.1-1.2 3.65 3.65 0 0 1 .7-1.4c.4-.5 1-1.1 1.7-1.8s1.4-1.2 1.9-1.6a3.17 3.17 0 0 1 1.5-.6 1.72 1.72 0 0 1 1.2.2 4.36 4.36 0 0 1 1.1.9l2.2 2.4z" transform="translate(-495.5 -103.2)"/><path d="m725.4 811.4-3.8-2.7a3.18 3.18 0 0 1 -1-1 1.43 1.43 0 0 1 -.3-1.1 3.36 3.36 0 0 1 .4-1.5 13.47 13.47 0 0 1 1.3-2.1 11.25 11.25 0 0 1 1.6-1.9 3.05 3.05 0 0 1 1.3-.9 1.67 1.67 0 0 1 1.2-.1 3.38 3.38 0 0 1 1.2.6l18.4 13a32.45 32.45 0 0 1 8.1 8 21.84 21.84 0 0 1 3.7 9.4 24.3 24.3 0 0 1 -.8 10.3 39.75 39.75 0 0 1 -13.9 19.7 22.68 22.68 0 0 1 -19.6 3.8 32.21 32.21 0 0 1 -10.3-4.9l-18.4-13a3.18 3.18 0 0 1 -1-1 1.43 1.43 0 0 1 -.3-1.1 3.36 3.36 0 0 1 .4-1.5 13.47 13.47 0 0 1 1.3-2.1 11.25 11.25 0 0 1 1.6-1.9 3.05 3.05 0 0 1 1.3-.9 1.67 1.67 0 0 1 1.2-.1 3.38 3.38 0 0 1 1.2.6l3.8 2.7zm-7.3 39.7c4.1 2.9 8 3.8 11.8 2.7s7.4-4 10.9-8.9 5-9.3 4.7-13.2-2.5-7.3-6.5-10.2l-4.1-2.9-20.9 29.7z" transform="translate(-495.5 -103.2)"/><path d="m778.8 845.5-4.7-2a3.46 3.46 0 0 1 -1.2-.7 2.07 2.07 0 0 1 -.6-1 3 3 0 0 1 .1-1.6 13.26 13.26 0 0 1 .8-2.4 22.22 22.22 0 0 1 1.1-2.2 4.26 4.26 0 0 1 1.1-1.2c.4-.2.7-.4 1.1-.3a2.73 2.73 0 0 1 1.4.4l23.3 9.7c6.2 2.6 10.4 5.9 12.6 10s2.2 8.8 0 14c-1.5 3.5-3.5 6-6.2 7.3a16.64 16.64 0 0 1 -9.6 1.2 13.3 13.3 0 0 1 1.4 1.9 20 20 0 0 1 1 2.1 13.79 13.79 0 0 1 .8 2.9c.2 1 .4 2 .5 3s.2 1.9.3 2.9.2 1.8.3 2.6a10.24 10.24 0 0 0 .9 2.8 3.32 3.32 0 0 0 1.8 1.7l.8.3a3.46 3.46 0 0 1 1.2.7 2.07 2.07 0 0 1 .6 1 4.57 4.57 0 0 1 -.1 1.6 13.26 13.26 0 0 1 -.8 2.4 22.22 22.22 0 0 1 -1.1 2.2 4.26 4.26 0 0 1 -1.1 1.2 2.28 2.28 0 0 1 -1.1.3 2.73 2.73 0 0 1 -1.4-.4l-4.7-2a9.28 9.28 0 0 1 -4.4-3.6 16.59 16.59 0 0 1 -2.1-6.4 40.47 40.47 0 0 1 -.5-6 32.91 32.91 0 0 0 -.8-6.2 10.71 10.71 0 0 0 -.9-2.7 16.44 16.44 0 0 0 -1.4-2.2 19.58 19.58 0 0 0 -2.1-1.8 16.77 16.77 0 0 0 -3-1.5l-1.7-.7-4.7 11.3 5.2 2.2a3.46 3.46 0 0 1 1.2.7 2.07 2.07 0 0 1 .6 1 4.57 4.57 0 0 1 -.1 1.6 13.26 13.26 0 0 1 -.8 2.4 22.22 22.22 0 0 1 -1.1 2.2 4.26 4.26 0 0 1 -1.1 1.2 2.28 2.28 0 0 1 -1.1.3 2.73 2.73 0 0 1 -1.4-.4l-20.9-8.7a3.46 3.46 0 0 1 -1.2-.7 2.07 2.07 0 0 1 -.6-1 3 3 0 0 1 .1-1.6 13.26 13.26 0 0 1 .8-2.4 22.22 22.22 0 0 1 1.1-2.2 4.26 4.26 0 0 1 1.1-1.2c.4-.2.7-.4 1.1-.3a2.73 2.73 0 0 1 1.4.4l4.7 2zm12 20.9c3 1.3 5.5 1.7 7.4 1.2a7.22 7.22 0 0 0 4.1-9.8c-1-1.7-3-3.1-6-4.4l-6.6-2.7-5.4 13.1z" transform="translate(-495.5 -103.2)"/><path d="m845.4 894.1-11.1-27.6-2.2-.4a3.92 3.92 0 0 1 -1.3-.5 2.36 2.36 0 0 1 -.8-.9 3.66 3.66 0 0 1 -.2-1.6 13.81 13.81 0 0 1 .3-2.5 20.76 20.76 0 0 1 .6-2.4 3.69 3.69 0 0 1 .8-1.4 1.61 1.61 0 0 1 1.1-.5 7.08 7.08 0 0 1 1.4.1l18.5 3.7a3.92 3.92 0 0 1 1.3.5 1.76 1.76 0 0 1 .8.9 3.66 3.66 0 0 1 .2 1.6 13.81 13.81 0 0 1 -.3 2.5 20.76 20.76 0 0 1 -.6 2.4 2.64 2.64 0 0 1 -.8 1.3 1.61 1.61 0 0 1 -1.1.5 3.44 3.44 0 0 1 -1.4-.1l-3.1-.6 6 15.4 11.5-11.9-2.5-.5a3.92 3.92 0 0 1 -1.3-.5 2.36 2.36 0 0 1 -.8-.9 3.66 3.66 0 0 1 -.2-1.6 13.81 13.81 0 0 1 .3-2.5 9.94 9.94 0 0 1 .7-2.4 3.69 3.69 0 0 1 .8-1.4 1.61 1.61 0 0 1 1.1-.5 7.08 7.08 0 0 1 1.4.1l17.5 3.6a3.92 3.92 0 0 1 1.3.5 1.76 1.76 0 0 1 .8.9 3.66 3.66 0 0 1 .2 1.6 13.81 13.81 0 0 1 -.3 2.5 20.76 20.76 0 0 1 -.6 2.4 2.64 2.64 0 0 1 -.8 1.3 1.61 1.61 0 0 1 -1.1.5 3.44 3.44 0 0 1 -1.4-.1l-2.1-.4-20.9 21.3-2.4 11.9 9.2 1.8a3.92 3.92 0 0 1 1.3.5 2.36 2.36 0 0 1 .8.9 3.66 3.66 0 0 1 .2 1.6 13.81 13.81 0 0 1 -.3 2.5 9.94 9.94 0 0 1 -.7 2.4 3.64 3.64 0 0 1 -.8 1.3 1.61 1.61 0 0 1 -1.1.5 3.44 3.44 0 0 1 -1.4-.1l-30.1-6a3.92 3.92 0 0 1 -1.3-.5 1.76 1.76 0 0 1 -.8-.9 3.66 3.66 0 0 1 -.2-1.6 13.81 13.81 0 0 1 .3-2.5 9.94 9.94 0 0 1 .7-2.4 3.69 3.69 0 0 1 .8-1.4 1.61 1.61 0 0 1 1.1-.5 7.08 7.08 0 0 1 1.4.1l9.2 1.8z" transform="translate(-495.5 -103.2)"/><path d="m978.1 920.6a2.46 2.46 0 0 1 -.8 2.5c-.7.6-2 1-4.1 1.3a10.5 10.5 0 0 1 -4.4 0 2.28 2.28 0 0 1 -1.6-2.1l-2.4-15.8a2.38 2.38 0 0 1 .7-2.4 5.64 5.64 0 0 1 3.2-1.2 6.08 6.08 0 0 1 2.7 0 3 3 0 0 1 1.7 1.2 20.34 20.34 0 0 0 7.2 6.4 14.12 14.12 0 0 0 8.7 1.2c2.8-.4 4.9-1.3 6.1-2.7a5.89 5.89 0 0 0 1.4-5 5.07 5.07 0 0 0 -1.5-3.1 8.34 8.34 0 0 0 -3.1-1.7 21 21 0 0 0 -4.6-.8c-1.7-.1-3.5-.3-5.4-.4s-3.8-.3-5.7-.5a24.45 24.45 0 0 1 -5.5-1.2 15 15 0 0 1 -3.4-1.6 12.75 12.75 0 0 1 -2.9-2.4 13.25 13.25 0 0 1 -2.2-3.4 19.19 19.19 0 0 1 -1.3-4.6 17 17 0 0 1 3.2-13.1 17.57 17.57 0 0 1 5.3-4.4 20.93 20.93 0 0 1 7.3-2.4 19.13 19.13 0 0 1 7.2.2 16.77 16.77 0 0 1 6.1 2.7l-.3-1.7a2.46 2.46 0 0 1 .8-2.5c.7-.6 2-1 4.1-1.3a10.5 10.5 0 0 1 4.4 0 2.28 2.28 0 0 1 1.6 2.1l2 12.9a2.38 2.38 0 0 1 -.7 2.4 5.64 5.64 0 0 1 -3.2 1.2 5.17 5.17 0 0 1 -2.5 0 5.07 5.07 0 0 1 -1.6-.9 15.59 15.59 0 0 0 -14.9-5.2c-2.4.4-4.1 1.2-5.2 2.6a5.88 5.88 0 0 0 -1.2 4.8 3.43 3.43 0 0 0 1.2 2.2 6.82 6.82 0 0 0 2.6 1.1 28.1 28.1 0 0 0 4.6.5c1.8 0 3.6.1 5.6.2s4 .3 6 .5a29.09 29.09 0 0 1 5.8 1.5 16.33 16.33 0 0 1 3.4 1.9 15.33 15.33 0 0 1 2.9 2.8 14.67 14.67 0 0 1 2.2 3.9 23.62 23.62 0 0 1 1.4 5.1 21.57 21.57 0 0 1 -.1 7.2 14.42 14.42 0 0 1 -2.8 6 16.85 16.85 0 0 1 -5.6 4.5 26.8 26.8 0 0 1 -8.4 2.6 19.92 19.92 0 0 1 -14.1-2.7z" transform="translate(-495.5 -103.2)"/><path d="m1025.2 865.3-4.3 1.6a3.93 3.93 0 0 1 -1.4.3 2 2 0 0 1 -1.1-.3 3.16 3.16 0 0 1 -1-1.2 13 13 0 0 1 -1-2.3 10.12 10.12 0 0 1 -.7-2.4 4.27 4.27 0 0 1 0-1.6 1.7 1.7 0 0 1 .6-1 3.46 3.46 0 0 1 1.2-.7l40.8-15.4a3.22 3.22 0 0 1 2.5-.2 3.3 3.3 0 0 1 1.5 2l5.1 13.5a2.46 2.46 0 0 1 -.5 2.7 9.74 9.74 0 0 1 -3.9 2.2 11.64 11.64 0 0 1 -2.4.7 5.14 5.14 0 0 1 -1.7.1 2.38 2.38 0 0 1 -1.1-.6 3.46 3.46 0 0 1 -.7-1.2l-2.6-6.8-17.9 6.8 4.3 11.3 10.9-4.1a3.93 3.93 0 0 1 1.4-.3 2.84 2.84 0 0 1 1.2.4 3.45 3.45 0 0 1 1 1.3c.3.6.7 1.4 1.1 2.3a11.64 11.64 0 0 1 .7 2.4 10.36 10.36 0 0 1 .1 1.6 2.38 2.38 0 0 1 -.6 1.1 3.46 3.46 0 0 1 -1.2.7l-10.9 4.1 4.9 12.9 18.3-6.9-3.4-9a2.46 2.46 0 0 1 .5-2.7 11.33 11.33 0 0 1 4.1-2.3 23.77 23.77 0 0 1 2.6-.8 5.74 5.74 0 0 1 1.8-.1 2 2 0 0 1 1.1.6 3.46 3.46 0 0 1 .7 1.2l6 15.7a3.22 3.22 0 0 1 .2 2.5 3.3 3.3 0 0 1 -2 1.5l-41.7 15.8a3.93 3.93 0 0 1 -1.4.3 2 2 0 0 1 -1.1-.3 3.16 3.16 0 0 1 -1-1.2 13 13 0 0 1 -1-2.3 10.12 10.12 0 0 1 -.7-2.4 4.27 4.27 0 0 1 0-1.6 1.7 1.7 0 0 1 .6-1 3.46 3.46 0 0 1 1.2-.7l4.3-1.6z" transform="translate(-495.5 -103.2)"/><path d="m1083.5 840.2-4.3 2.8a4.88 4.88 0 0 1 -1.3.6 1.67 1.67 0 0 1 -1.2-.1 3.54 3.54 0 0 1 -1.2-1c-.4-.5-.9-1.1-1.5-2a9.94 9.94 0 0 1 -1.2-2.2 3.36 3.36 0 0 1 -.4-1.5 1.5 1.5 0 0 1 .4-1.1 5.31 5.31 0 0 1 1.1-.9l21.1-13.7c5.6-3.7 10.8-5.3 15.4-4.8s8.5 3.1 11.6 7.9a13.35 13.35 0 0 1 2.5 9.2 15.7 15.7 0 0 1 -4.5 8.6 19.27 19.27 0 0 1 2.4-.1 18.1 18.1 0 0 1 2.3.3 14.19 14.19 0 0 1 2.9 1 22.45 22.45 0 0 1 2.7 1.3c.9.5 1.7.9 2.5 1.4a13.44 13.44 0 0 0 2.4 1.2 22.25 22.25 0 0 0 2.8.9 3.31 3.31 0 0 0 2.4-.5l.8-.5a4.88 4.88 0 0 1 1.3-.6 1.67 1.67 0 0 1 1.2.1 5 5 0 0 1 1.3 1c.4.5.9 1.1 1.5 2a9.94 9.94 0 0 1 1.2 2.2 3.36 3.36 0 0 1 .4 1.5 1.5 1.5 0 0 1 -.4 1.1 5.31 5.31 0 0 1 -1.1.9l-4.3 2.8a9.48 9.48 0 0 1 -5.5 1.6 18.86 18.86 0 0 1 -6.5-1.8 47.39 47.39 0 0 1 -5.3-3 28.48 28.48 0 0 0 -5.5-2.8 13.82 13.82 0 0 0 -2.7-.8 11.3 11.3 0 0 0 -2.6 0 10.22 10.22 0 0 0 -2.7.8 22.51 22.51 0 0 0 -3 1.6l-1.5 1 6.7 10.3 4.7-3a4.88 4.88 0 0 1 1.3-.6 1.67 1.67 0 0 1 1.2.1 5 5 0 0 1 1.3 1c.4.5.9 1.1 1.5 2a9.94 9.94 0 0 1 1.2 2.2 3.36 3.36 0 0 1 .4 1.5 1.5 1.5 0 0 1 -.4 1.1 5.31 5.31 0 0 1 -1.1.9l-19 12.4a4.88 4.88 0 0 1 -1.3.6 1.67 1.67 0 0 1 -1.2-.1 3.54 3.54 0 0 1 -1.2-1c-.4-.5-.9-1.1-1.5-2a9.94 9.94 0 0 1 -1.2-2.2 3.36 3.36 0 0 1 -.4-1.5 1.5 1.5 0 0 1 .4-1.1 5.31 5.31 0 0 1 1.1-.9l4.3-2.8zm24 1.9q4.2-2.7 5.1-5.4c.7-1.8.3-3.7-1-5.7s-2.9-3.1-4.8-3.2-4.3.7-7 2.5l-6 3.9 7.7 11.9z" transform="translate(-495.5 -103.2)"/><path d="m1128.8 809.5a3.32 3.32 0 0 1 -1.1.8 1.63 1.63 0 0 1 -1.2.1 3.65 3.65 0 0 1 -1.4-.7 20.23 20.23 0 0 1 -1.9-1.6 11.47 11.47 0 0 1 -1.6-1.9 3.65 3.65 0 0 1 -.7-1.4 2.46 2.46 0 0 1 .1-1.2 7.63 7.63 0 0 1 .8-1.1l14.7-14.6a3.32 3.32 0 0 1 1.1-.8 2.36 2.36 0 0 1 1.2-.1 3.65 3.65 0 0 1 1.4.7 20.23 20.23 0 0 1 1.9 1.6 11.47 11.47 0 0 1 1.6 1.9 3.65 3.65 0 0 1 .7 1.4 1.72 1.72 0 0 1 -.2 1.2 7.63 7.63 0 0 1 -.8 1.1l-3 3 27.9 13.6-12.9-28.5-2.4 2.4a3.32 3.32 0 0 1 -1.1.8 1.63 1.63 0 0 1 -1.2.1 3.65 3.65 0 0 1 -1.4-.7 20.23 20.23 0 0 1 -1.9-1.6 11.47 11.47 0 0 1 -1.6-1.9 3.65 3.65 0 0 1 -.7-1.4 2.46 2.46 0 0 1 .1-1.2 4.36 4.36 0 0 1 .9-1.1l13.7-13.6a3.32 3.32 0 0 1 1.1-.8 1.67 1.67 0 0 1 1.2-.1 3.65 3.65 0 0 1 1.4.7 20.23 20.23 0 0 1 1.9 1.6 11.47 11.47 0 0 1 1.6 1.9 3.65 3.65 0 0 1 .7 1.4 1.72 1.72 0 0 1 -.2 1.2 7.63 7.63 0 0 1 -.8 1.1l-2.3 2.3 19.3 44.1a5.35 5.35 0 0 1 .4 1.6 3.89 3.89 0 0 1 -.2 1.5 9.47 9.47 0 0 1 -.9 1.7 23 23 0 0 1 -3.6 3.6 8.94 8.94 0 0 1 -1.6.9 2.57 2.57 0 0 1 -1.5.1 4.42 4.42 0 0 1 -1.5-.5l-43.5-20.1z" transform="translate(-495.5 -103.2)"/><path d="m1184.8 747.1-6.4 9.3a4.5 4.5 0 0 1 -.9 1 2.1 2.1 0 0 1 -1.1.4 3.36 3.36 0 0 1 -1.5-.4 13.47 13.47 0 0 1 -2.1-1.3c-.8-.6-1.5-1.1-2-1.5a3.05 3.05 0 0 1 -.9-1.3 1.67 1.67 0 0 1 -.1-1.2 4.88 4.88 0 0 1 .6-1.3l19.5-28.4a4.5 4.5 0 0 1 .9-1 1.43 1.43 0 0 1 1.1-.3 4.8 4.8 0 0 1 1.5.4 11 11 0 0 1 2.1 1.3c.8.6 1.5 1.1 2 1.5a3.05 3.05 0 0 1 .9 1.3 1.67 1.67 0 0 1 .1 1.2 4.88 4.88 0 0 1 -.6 1.3l-6.4 9.3 30.6 21 6.9-10.1a4.5 4.5 0 0 1 .9-1 1.43 1.43 0 0 1 1.1-.3 11.31 11.31 0 0 1 1.5.4 13.47 13.47 0 0 1 2.1 1.3c.8.6 1.5 1.1 2 1.5a3.05 3.05 0 0 1 .9 1.3 1.67 1.67 0 0 1 .1 1.2 4.88 4.88 0 0 1 -.6 1.3l-20.6 30a4.5 4.5 0 0 1 -.9 1 2.1 2.1 0 0 1 -1.1.4 3.36 3.36 0 0 1 -1.5-.4 13.47 13.47 0 0 1 -2.1-1.3c-.8-.6-1.5-1.1-2-1.5a3.05 3.05 0 0 1 -.9-1.3 1.67 1.67 0 0 1 -.1-1.2 4.88 4.88 0 0 1 .6-1.3l6.9-10.1z" transform="translate(-495.5 -103.2)"/><path d="m1267.6 684.8a55 55 0 0 1 -.8 10.8 40.79 40.79 0 0 1 -3.1 9.9 25.77 25.77 0 0 1 -6.4 8.9 22.36 22.36 0 0 1 -8.8 5.1 26.48 26.48 0 0 1 -10.6 1 39 39 0 0 1 -12-3.4 37.63 37.63 0 0 1 -10.3-6.8 26.83 26.83 0 0 1 -6.3-8.6 21.52 21.52 0 0 1 -2-9.6 25.49 25.49 0 0 1 2.3-9.9 17 17 0 0 1 4.6-6.2 12.42 12.42 0 0 1 6-2.6l-2.7-1.3a2.34 2.34 0 0 1 -1.5-2.2 11.74 11.74 0 0 1 1.2-4.3 10.84 10.84 0 0 1 1.2-2.2 4.41 4.41 0 0 1 1.1-1.2 1.8 1.8 0 0 1 1.2-.3 2.73 2.73 0 0 1 1.4.4l16.7 7.7a2.37 2.37 0 0 1 1.5 2.3 11.62 11.62 0 0 1 -1.4 4.7 27.33 27.33 0 0 1 -1.3 2.5 3.84 3.84 0 0 1 -1.2 1.3 1.92 1.92 0 0 1 -1.2.4 2.73 2.73 0 0 1 -1.4-.4 17.14 17.14 0 0 0 -4.1-1.2 11.75 11.75 0 0 0 -3.8.3 9.16 9.16 0 0 0 -3.3 1.9 11 11 0 0 0 -2.5 3.6c-1.9 4.1-1.8 7.8.1 11.2s5.7 6.3 11.1 8.8 10.1 3.3 14 2.4 6.8-3.3 8.7-7.4a26.85 26.85 0 0 0 2.3-8 61.09 61.09 0 0 0 .3-8.7 2.91 2.91 0 0 1 1.2-2.5c.8-.6 2.2-.8 4.3-.7s3.5.6 4.3 1.4a3.85 3.85 0 0 1 1.2 2.9z" transform="translate(-495.5 -103.2)"/><path d="m1235.9 645.8-1.2 4.5a2.62 2.62 0 0 1 -.6 1.3 1.6 1.6 0 0 1 -.9.7 3.9 3.9 0 0 1 -1.6.1 14.75 14.75 0 0 1 -2.4-.5 11.81 11.81 0 0 1 -2.3-.8 4.85 4.85 0 0 1 -1.3-.9 2.22 2.22 0 0 1 -.5-1.1 3.64 3.64 0 0 1 .2-1.4l11.7-42a3.06 3.06 0 0 1 1.3-2.1 3.51 3.51 0 0 1 2.5 0l13.9 3.9a2.45 2.45 0 0 1 1.9 2 11.42 11.42 0 0 1 -.5 4.5c-.3 1-.6 1.8-.8 2.4a5.65 5.65 0 0 1 -.9 1.4 1.61 1.61 0 0 1 -1.1.5 3.44 3.44 0 0 1 -1.4-.1l-7-2-5.1 18.4 11.6 3.2 3.1-11.2a3.1 3.1 0 0 1 .6-1.3 2.29 2.29 0 0 1 1-.7 4.42 4.42 0 0 1 1.7-.1 15.66 15.66 0 0 1 2.5.5c1 .3 1.8.6 2.4.8a5.65 5.65 0 0 1 1.4.9 1.61 1.61 0 0 1 .5 1.1 3.44 3.44 0 0 1 -.1 1.4l-3.1 11.2 13.3 3.7 5.3-18.9-9.3-2.6a2.45 2.45 0 0 1 -1.9-2 11.16 11.16 0 0 1 .6-4.7 17.2 17.2 0 0 1 .9-2.5 5.6 5.6 0 0 1 1-1.5 2.38 2.38 0 0 1 1.1-.6 3.44 3.44 0 0 1 1.4.1l16.2 4.5a3.06 3.06 0 0 1 2.1 1.3 4 4 0 0 1 .1 2.5l-12 42.9a3.1 3.1 0 0 1 -.6 1.3 1.6 1.6 0 0 1 -.9.7 3.9 3.9 0 0 1 -1.6.1 14.75 14.75 0 0 1 -2.4-.5 11.81 11.81 0 0 1 -2.3-.8 4.85 4.85 0 0 1 -1.3-.9 2.22 2.22 0 0 1 -.5-1.1 3.64 3.64 0 0 1 .2-1.4l1.2-4.5z" transform="translate(-495.5 -103.2)"/><path d="m570 441.9-1.5 3.6a7.84 7.84 0 0 1 -1.1 1.8 2.9 2.9 0 0 1 -1.5.9 5.27 5.27 0 0 1 -2.4-.2 15.57 15.57 0 0 1 -3.5-1.3 24.41 24.41 0 0 1 -3.3-1.7 7.26 7.26 0 0 1 -1.8-1.6 2.62 2.62 0 0 1 -.5-1.7 5.64 5.64 0 0 1 .6-2l8.1-18.8a4.46 4.46 0 0 1 1.4-2 3.07 3.07 0 0 1 2.2-.7l37.7 1.9-27.4-26.1a2.79 2.79 0 0 1 -1-2.1 5.74 5.74 0 0 1 .5-2.4l8.1-18.8a7.84 7.84 0 0 1 1.1-1.8 2.26 2.26 0 0 1 1.6-.8 5.27 5.27 0 0 1 2.4.2 15.57 15.57 0 0 1 3.5 1.3 24.41 24.41 0 0 1 3.3 1.7 5.29 5.29 0 0 1 1.7 1.6 2.54 2.54 0 0 1 .4 1.7 5.64 5.64 0 0 1 -.6 2l-1.5 3.6 51.8 21.3 1.7-4a7.84 7.84 0 0 1 1.1-1.8 2.26 2.26 0 0 1 1.6-.8 5.27 5.27 0 0 1 2.4.2 15.57 15.57 0 0 1 3.5 1.3 24.41 24.41 0 0 1 3.3 1.7 5.29 5.29 0 0 1 1.7 1.6 2.54 2.54 0 0 1 .4 1.7 5.64 5.64 0 0 1 -.6 2l-10.4 24.7a5 5 0 0 1 -1.1 1.8 2.9 2.9 0 0 1 -1.5.9 4.17 4.17 0 0 1 -2.4-.2 15.57 15.57 0 0 1 -3.5-1.3 24.41 24.41 0 0 1 -3.3-1.7 7.26 7.26 0 0 1 -1.8-1.6 2.62 2.62 0 0 1 -.5-1.7 5.64 5.64 0 0 1 .6-2l2.6-6.1-39.3-16.5 22.7 21.6a7.38 7.38 0 0 1 2.3 3.8 8.67 8.67 0 0 1 -.9 4.7 8.92 8.92 0 0 1 -2.8 3.9 7.06 7.06 0 0 1 -4.3 1l-31.1-1.5 38.8 17.2 2.7-6.1a7.84 7.84 0 0 1 1.1-1.8 2.26 2.26 0 0 1 1.6-.8 5.19 5.19 0 0 1 2.4.2 15.57 15.57 0 0 1 3.5 1.3 24.41 24.41 0 0 1 3.3 1.7 5.29 5.29 0 0 1 1.7 1.6 2.54 2.54 0 0 1 .4 1.7 5.64 5.64 0 0 1 -.6 2l-10.7 24.7a7.84 7.84 0 0 1 -1.1 1.8 2.9 2.9 0 0 1 -1.5.9 5.27 5.27 0 0 1 -2.4-.2 15.57 15.57 0 0 1 -3.5-1.3 24.41 24.41 0 0 1 -3.3-1.7 7.26 7.26 0 0 1 -1.8-1.6 2.62 2.62 0 0 1 -.5-1.7 5.64 5.64 0 0 1 .6-2l1.7-3.9z" transform="translate(-495.5 -103.2)"/><path d="m635.5 323.9-7.9 9a6.68 6.68 0 0 1 -1.6 1.4 2.67 2.67 0 0 1 -1.8.3 5.7 5.7 0 0 1 -2.2-.9 30.6 30.6 0 0 1 -3-2.3 22.73 22.73 0 0 1 -2.7-2.7 6.56 6.56 0 0 1 -1.2-2.1 2.79 2.79 0 0 1 .1-1.8 5.61 5.61 0 0 1 1.2-1.8l22.5-25.7a9.53 9.53 0 0 1 3.9-2.8 6.26 6.26 0 0 1 4.4.4l63.4 27.8 4.1-4.7a6.68 6.68 0 0 1 1.6-1.4 2.49 2.49 0 0 1 1.7-.3 6.38 6.38 0 0 1 2.2.9 30.6 30.6 0 0 1 3 2.3 22.73 22.73 0 0 1 2.7 2.7 7.8 7.8 0 0 1 1.2 2.1 2.26 2.26 0 0 1 -.1 1.8 5.61 5.61 0 0 1 -1.2 1.8l-20.1 23a6.68 6.68 0 0 1 -1.6 1.4 2.67 2.67 0 0 1 -1.8.3 5.7 5.7 0 0 1 -2.2-.9 30.6 30.6 0 0 1 -3-2.3 22.73 22.73 0 0 1 -2.7-2.7 6.56 6.56 0 0 1 -1.2-2.1 2.79 2.79 0 0 1 .1-1.8 5.61 5.61 0 0 1 1.2-1.8l4.1-4.7-10-4.4-17.3 19.7 5.7 9.3 3.5-4a6.68 6.68 0 0 1 1.6-1.4 2.49 2.49 0 0 1 1.7-.3 6.38 6.38 0 0 1 2.2.9 30.6 30.6 0 0 1 3 2.3 22.73 22.73 0 0 1 2.7 2.7 7.8 7.8 0 0 1 1.2 2.1 2.26 2.26 0 0 1 -.1 1.8 5.61 5.61 0 0 1 -1.2 1.8l-19.2 21.9a6.68 6.68 0 0 1 -1.6 1.4 2.67 2.67 0 0 1 -1.8.3 5.7 5.7 0 0 1 -2.2-.9 30.6 30.6 0 0 1 -3-2.3 22.73 22.73 0 0 1 -2.7-2.7 5.09 5.09 0 0 1 -1.2-2.1 2.79 2.79 0 0 1 .1-1.8 5.61 5.61 0 0 1 1.2-1.8l4-4.6zm39.5 1.6-28.8-13.8-.3.3 17.3 26.9z" transform="translate(-495.5 -103.2)"/><path d="m709.4 252.5-4.1 2.5a6 6 0 0 1 -1.9.8 2.82 2.82 0 0 1 -1.8-.2 6 6 0 0 1 -1.8-1.5 18.24 18.24 0 0 1 -2.1-3.1 17.38 17.38 0 0 1 -1.7-3.3 5.74 5.74 0 0 1 -.5-2.4 2.52 2.52 0 0 1 .6-1.7 5.34 5.34 0 0 1 1.6-1.3l16.3-9.8a5.52 5.52 0 0 1 2.3-.9 3.48 3.48 0 0 1 2.2.4l51.1 27-18.9-31.4-5.4 3.3a6 6 0 0 1 -1.9.8 2.82 2.82 0 0 1 -1.8-.2 6 6 0 0 1 -1.8-1.5 18.24 18.24 0 0 1 -2.1-3.1 17.38 17.38 0 0 1 -1.7-3.3 5.74 5.74 0 0 1 -.5-2.4 2.52 2.52 0 0 1 .6-1.7 5.34 5.34 0 0 1 1.6-1.3l23.1-13.9a6 6 0 0 1 1.9-.8 2.82 2.82 0 0 1 1.8.2 6 6 0 0 1 1.8 1.5 18.24 18.24 0 0 1 2.1 3.1 17.38 17.38 0 0 1 1.7 3.3 5.63 5.63 0 0 1 .5 2.3 2.83 2.83 0 0 1 -.6 1.6 5.34 5.34 0 0 1 -1.6 1.3l-3.5 2.1 34.8 57.9a4.2 4.2 0 0 1 .4 3.9c-.5 1.3-2.1 2.7-4.7 4.3a16.25 16.25 0 0 1 -2.7 1.3 9.83 9.83 0 0 1 -2.2.5 5.84 5.84 0 0 1 -1.9-.2c-.6-.2-1.2-.5-1.9-.8l-55.4-29.2 21.2 35.2 6.6-4a6 6 0 0 1 1.9-.8 2.82 2.82 0 0 1 1.8.2 6 6 0 0 1 1.8 1.5 18.24 18.24 0 0 1 2.1 3.1 17.38 17.38 0 0 1 1.7 3.3 5.63 5.63 0 0 1 .5 2.3 2.83 2.83 0 0 1 -.6 1.6 5.34 5.34 0 0 1 -1.6 1.3l-24.9 15a6 6 0 0 1 -1.9.8 2.82 2.82 0 0 1 -1.8-.2 6 6 0 0 1 -1.8-1.5 18.24 18.24 0 0 1 -2.1-3.1 17.38 17.38 0 0 1 -1.7-3.3 5.74 5.74 0 0 1 -.5-2.4 2.52 2.52 0 0 1 .6-1.7 5.34 5.34 0 0 1 1.6-1.3l4.1-2.5z" transform="translate(-495.5 -103.2)"/><path d="m857.1 232.2a5.32 5.32 0 0 1 -2.1.2 3.29 3.29 0 0 1 -1.6-.7 5.32 5.32 0 0 1 -1.3-2 26.62 26.62 0 0 1 -1.1-3.6 21.46 21.46 0 0 1 -.6-3.7 4.4 4.4 0 0 1 .3-2.4 2.59 2.59 0 0 1 1.1-1.4 7.56 7.56 0 0 1 2-.8l33.2-7.8a8.22 8.22 0 0 1 2.1-.2 2.72 2.72 0 0 1 1.6.8 6.29 6.29 0 0 1 1.3 2 26.62 26.62 0 0 1 1.1 3.6 21.46 21.46 0 0 1 .6 3.7 4.4 4.4 0 0 1 -.3 2.4 2.59 2.59 0 0 1 -1.1 1.4 7.56 7.56 0 0 1 -2 .8l-2.2.5 4.2 18.2c.5 2.3.1 4.1-1.4 5.4a61.71 61.71 0 0 1 -13.3 8.5 79.8 79.8 0 0 1 -15.6 5.4 40.39 40.39 0 0 1 -16.5.7 35.43 35.43 0 0 1 -14.2-5.7 38.69 38.69 0 0 1 -11-11.7 57.1 57.1 0 0 1 -7-17.4 60.44 60.44 0 0 1 -1.5-18.6 41.35 41.35 0 0 1 4.5-15.4 33.86 33.86 0 0 1 9.6-11.3 36.22 36.22 0 0 1 13.9-6.4 27.17 27.17 0 0 1 11.6-.4 19.09 19.09 0 0 1 8.6 4.4l-.9-3.9a3.57 3.57 0 0 1 1.2-3.9c1.2-1 3.3-1.8 6.3-2.5a22.38 22.38 0 0 1 3.8-.6 6.32 6.32 0 0 1 2.5.2 3.27 3.27 0 0 1 1.5 1.1 5.24 5.24 0 0 1 .8 2l5.6 24.1a3.62 3.62 0 0 1 -1.3 3.9q-1.8 1.5-6.9 2.7a30.28 30.28 0 0 1 -4.2.7 7.41 7.41 0 0 1 -2.7-.2 2.73 2.73 0 0 1 -1.6-1.1 5.24 5.24 0 0 1 -.8-2q-1.35-5.85-5.7-8.4c-2.9-1.7-6.9-1.9-11.9-.8q-9.9 2.25-13.2 10.5t-.3 21.3c2 8.7 5.4 15.1 10 19s10.3 5.1 16.9 3.5a53.78 53.78 0 0 0 14.2-5.5l-2.7-11.7z" transform="translate(-495.5 -103.2)"/><path d="m991.1 186.1-10.3-2.3a7.71 7.71 0 0 1 -2-.7 2.59 2.59 0 0 1 -1.1-1.4 7.8 7.8 0 0 1 -.3-2.4 14.75 14.75 0 0 1 .6-3.7 17.28 17.28 0 0 1 1.1-3.6 5.32 5.32 0 0 1 1.3-2 2.72 2.72 0 0 1 1.6-.8 5.32 5.32 0 0 1 2.1.2l43.1 9.7a7.71 7.71 0 0 1 2 .7 2.59 2.59 0 0 1 1.1 1.4 7.8 7.8 0 0 1 .3 2.4 14.75 14.75 0 0 1 -.6 3.7 17.28 17.28 0 0 1 -1.1 3.6 5.32 5.32 0 0 1 -1.3 2 2.57 2.57 0 0 1 -1.6.7 5.32 5.32 0 0 1 -2.1-.2l-15.3-3.5-12.2 53.9 24.7 5.6 4.9-21.9a3.5 3.5 0 0 1 2.9-2.9c1.6-.4 4-.2 7.4.6a35.76 35.76 0 0 1 4.1 1.2 8.91 8.91 0 0 1 2.4 1.3 2.53 2.53 0 0 1 1 1.7 5.1 5.1 0 0 1 -.1 2.1l-7.3 32.5a4 4 0 0 1 -5.6 3.6l-65.5-14.8a7.71 7.71 0 0 1 -2-.7 2.59 2.59 0 0 1 -1.1-1.4 7.8 7.8 0 0 1 -.3-2.4 14.75 14.75 0 0 1 .6-3.7 17.28 17.28 0 0 1 1.1-3.6 5.32 5.32 0 0 1 1.3-2 2.72 2.72 0 0 1 1.6-.8 5.32 5.32 0 0 1 2.1.2l10.3 2.3z" transform="translate(-495.5 -103.2)"/><path d="m1110.7 226.7-10.3-6.1a8.35 8.35 0 0 1 -1.7-1.3 2.52 2.52 0 0 1 -.6-1.7 6 6 0 0 1 .5-2.4 21.21 21.21 0 0 1 1.7-3.4 27 27 0 0 1 2.1-3.1 6 6 0 0 1 1.8-1.5 2.82 2.82 0 0 1 1.8-.2 6 6 0 0 1 1.9.8l29.4 17.4a9.36 9.36 0 0 1 3.5 3.3 5.89 5.89 0 0 1 .4 4.4l-15.7 67.5 5.4 3.2a8.35 8.35 0 0 1 1.7 1.3 3.29 3.29 0 0 1 .7 1.6 5.63 5.63 0 0 1 -.5 2.3 21.21 21.21 0 0 1 -1.7 3.4 27 27 0 0 1 -2.1 3.1 4.79 4.79 0 0 1 -1.8 1.5 2.29 2.29 0 0 1 -1.8.2 6 6 0 0 1 -1.9-.8l-26.3-15.6a5.59 5.59 0 0 1 -1.6-1.3 2.52 2.52 0 0 1 -.6-1.7 6 6 0 0 1 .5-2.4 21.21 21.21 0 0 1 1.7-3.4 27 27 0 0 1 2.1-3.1 6 6 0 0 1 1.8-1.5 2.82 2.82 0 0 1 1.8-.2 6 6 0 0 1 1.9.8l5.3 3.2 2.5-10.6-22.6-13.4-8.1 7.3 4.6 2.7a8.35 8.35 0 0 1 1.7 1.3 3.29 3.29 0 0 1 .7 1.6 5.63 5.63 0 0 1 -.5 2.3 21.21 21.21 0 0 1 -1.7 3.4 27 27 0 0 1 -2.1 3.1 4.79 4.79 0 0 1 -1.8 1.5 2.29 2.29 0 0 1 -1.8.2 6 6 0 0 1 -1.9-.8l-25-14.8a8.35 8.35 0 0 1 -1.7-1.3 2.52 2.52 0 0 1 -.6-1.7 6 6 0 0 1 .5-2.4 21.21 21.21 0 0 1 1.7-3.4 27 27 0 0 1 2.1-3.1 6 6 0 0 1 1.8-1.5 2.82 2.82 0 0 1 1.8-.2 6 6 0 0 1 1.9.8l5.2 3.1zm5.7 39.2 8.2-30.9-.4-.2-23.3 21.9z" transform="translate(-495.5 -103.2)"/><path d="m1197.3 289.6-5.1-5.8a9.39 9.39 0 0 1 -1.2-1.8 2.75 2.75 0 0 1 -.1-1.8 7.12 7.12 0 0 1 1.1-2.1 21 21 0 0 1 2.6-2.7 17.22 17.22 0 0 1 3-2.3 6.38 6.38 0 0 1 2.2-.9 2.78 2.78 0 0 1 1.8.3 6.68 6.68 0 0 1 1.6 1.4l24.9 28.1a47.87 47.87 0 0 1 7.6 11.1 26.06 26.06 0 0 1 2.6 10 17.79 17.79 0 0 1 -2 8.8 26.46 26.46 0 0 1 -6 7.6 17.78 17.78 0 0 1 -9.7 4.6 21 21 0 0 1 -10.3-1.7c2.3 4.7 3.3 9.3 2.7 13.7s-2.9 8.5-7.2 12.3a26.61 26.61 0 0 1 -9.4 5.6 20.34 20.34 0 0 1 -9.8.6 27.83 27.83 0 0 1 -9.9-4.1 52.21 52.21 0 0 1 -9.9-8.8l-27.6-31.1a9.39 9.39 0 0 1 -1.2-1.8 2.75 2.75 0 0 1 -.1-1.8 7.12 7.12 0 0 1 1.1-2.1 21 21 0 0 1 2.6-2.7 17.22 17.22 0 0 1 3-2.3 6.38 6.38 0 0 1 2.2-.9 2.78 2.78 0 0 1 1.8.3 6.68 6.68 0 0 1 1.6 1.4l5.1 5.8zm-20.2 60.5c3.2 3.6 6.2 5.7 8.9 6.2a8.46 8.46 0 0 0 7.8-2.4c2.7-2.4 3.9-5 3.7-7.8s-2-6-5.1-9.6l-9.2-10.3-15.3 13.6zm24.5-26.6q4.35 5 8.1 5.7c2.5.6 5-.2 7.4-2.4s3.5-4.5 3.2-7-1.9-5.4-4.9-8.7l-6.8-7.6-13.9 12.3z" transform="translate(-495.5 -103.2)"/><path d="m1272.1 393.8-4.9-11a8.93 8.93 0 0 1 -.6-2 2.16 2.16 0 0 1 .5-1.7 4.79 4.79 0 0 1 1.8-1.6 24.41 24.41 0 0 1 3.3-1.7c1.4-.6 2.6-1 3.5-1.3a6.87 6.87 0 0 1 2.4-.2 3.46 3.46 0 0 1 1.6.8 5 5 0 0 1 1.1 1.8l13.8 31.2a8.52 8.52 0 0 1 .9 4.7 6 6 0 0 1 -2.2 3.8l-52 45.8 2.5 5.7a8.93 8.93 0 0 1 .6 2 2.54 2.54 0 0 1 -.4 1.7 5.29 5.29 0 0 1 -1.7 1.6 24.41 24.41 0 0 1 -3.3 1.7c-1.4.6-2.6 1-3.5 1.3a6.87 6.87 0 0 1 -2.4.2 3 3 0 0 1 -1.6-.8 5 5 0 0 1 -1.1-1.8l-12.3-27.9a8.93 8.93 0 0 1 -.6-2 2.16 2.16 0 0 1 .5-1.7 4.79 4.79 0 0 1 1.8-1.6 24.41 24.41 0 0 1 3.3-1.7c1.4-.6 2.6-1 3.5-1.3a6.87 6.87 0 0 1 2.4-.2 3.46 3.46 0 0 1 1.6.8 6.15 6.15 0 0 1 1.1 1.8l2.5 5.7 8.2-7.2-10.6-24-10.9 1.2 2.2 4.9a8.93 8.93 0 0 1 .6 2 2.54 2.54 0 0 1 -.4 1.7 5.29 5.29 0 0 1 -1.7 1.6 24.41 24.41 0 0 1 -3.3 1.7c-1.4.6-2.6 1-3.5 1.3a6.87 6.87 0 0 1 -2.4.2 2.72 2.72 0 0 1 -1.6-.8 5 5 0 0 1 -1.1-1.8l-11.7-26.6a8.93 8.93 0 0 1 -.6-2 2.16 2.16 0 0 1 .5-1.7 4.79 4.79 0 0 1 1.8-1.6 24.41 24.41 0 0 1 3.3-1.7c1.4-.6 2.6-1 3.5-1.3a6.87 6.87 0 0 1 2.4-.2 3.46 3.46 0 0 1 1.6.8 6.15 6.15 0 0 1 1.1 1.8l2.4 5.5zm-18.1 35.1 24.6-20.3-.2-.4-31.7 4.3z" transform="translate(-495.5 -103.2)"/><circle cx="81.2" cy="417.1" r="10.3"/><circle cx="777.6" cy="417.1" r="10.3"/><path d="m869.1 341.6a.9.9 0 0 1 -.2.9 3.77 3.77 0 0 1 -1.4.6 3 3 0 0 1 -1.6.1 1 1 0 0 1 -.7-.7l-1.4-5.5a.9.9 0 0 1 .2-.9 2.26 2.26 0 0 1 1.1-.5 3.75 3.75 0 0 1 1-.1 1 1 0 0 1 .7.4 7.3 7.3 0 0 0 2.8 2 4.69 4.69 0 0 0 3.1.1 3.55 3.55 0 0 0 2.1-1.2 1.89 1.89 0 0 0 .3-1.8 2 2 0 0 0 -.6-1.1 3.34 3.34 0 0 0 -1.2-.5 9.15 9.15 0 0 0 -1.7-.1 12.1 12.1 0 0 0 -1.9.1h-2.1a12.31 12.31 0 0 1 -2-.2 4.23 4.23 0 0 1 -1.2-.4 2.84 2.84 0 0 1 -1.1-.8 10.63 10.63 0 0 1 -.9-1.1 4.42 4.42 0 0 1 -.6-1.6 7.25 7.25 0 0 1 -.2-2.5 5.28 5.28 0 0 1 .8-2.2 5.81 5.81 0 0 1 1.7-1.8 6.35 6.35 0 0 1 2.5-1.1 7.63 7.63 0 0 1 2.6-.2 6.15 6.15 0 0 1 2.3.7l-.2-.6a.9.9 0 0 1 .2-.9 3.77 3.77 0 0 1 1.4-.6 3 3 0 0 1 1.6-.1 1 1 0 0 1 .7.7l1.2 4.5a.9.9 0 0 1 -.2.9 2.26 2.26 0 0 1 -1.1.5 3.44 3.44 0 0 1 -.9.1.86.86 0 0 1 -.6-.3 5.61 5.61 0 0 0 -2.5-1.4 6.09 6.09 0 0 0 -3 0 2.69 2.69 0 0 0 -1.7 1.1 2.49 2.49 0 0 0 -.3 1.7 1.28 1.28 0 0 0 .5.7 1.69 1.69 0 0 0 1 .3 4.82 4.82 0 0 0 1.7 0c.6 0 1.3-.1 2-.1h2.1a7.61 7.61 0 0 1 2.1.3 6.94 6.94 0 0 1 1.3.5 3.13 3.13 0 0 1 1.1.9 6 6 0 0 1 .9 1.3 7.51 7.51 0 0 1 .7 1.8 7.63 7.63 0 0 1 .2 2.6 5.28 5.28 0 0 1 -.8 2.2 5.16 5.16 0 0 1 -1.8 1.8 9.74 9.74 0 0 1 -2.9 1.2 6.91 6.91 0 0 1 -5.1-.5z" transform="translate(-495.5 -103.2)"/><path d="m894.4 320.5-4 .4h-.5a.69.69 0 0 1 -.6-.7 6.37 6.37 0 0 1 -.2-.9c0-.4-.1-.7 0-.9s.1-.4.1-.6l.3-.3a.75.75 0 0 1 .5-.1l12.3-1.3h.5a.69.69 0 0 1 .6.7 5.07 5.07 0 0 0 .2.9c0 .4.1.7 0 .9a4.33 4.33 0 0 1 -.1.5c0 .1-.2.2-.3.3a.75.75 0 0 1 -.5.1l-4 .4 1.4 13.2 4.3-.5h.5a.69.69 0 0 1 .6.7 6.37 6.37 0 0 1 .2.9c0 .4.1.7 0 .9a4.33 4.33 0 0 1 -.1.5l-.3.3a.75.75 0 0 1 -.5.1l-12.9 1.4h-.5a.69.69 0 0 1 -.6-.7 6.37 6.37 0 0 1 -.2-.9c0-.4-.1-.7 0-.9s.1-.4.1-.6l.3-.3a.75.75 0 0 1 .5-.1l4.3-.5z" transform="translate(-495.5 -103.2)"/><path d="m916.8 318.7h-1.1a.75.75 0 0 1 -.5-.1q-.15 0-.3-.3a.76.76 0 0 1 -.2-.5c0-.2-.1-.5-.1-.9a2.22 2.22 0 0 1 .1-.9.76.76 0 0 1 .2-.5l.3-.3a4.33 4.33 0 0 1 .5-.1h4.5a1.27 1.27 0 0 1 .6.1.78.78 0 0 1 .4.4l7.2 11.7v-8.7h-1.5a.75.75 0 0 1 -.5-.1q-.15 0-.3-.3c-.1-.1-.1-.3-.2-.5s-.1-.5-.1-.9a2.22 2.22 0 0 1 .1-.9.76.76 0 0 1 .2-.5l.3-.3a4.33 4.33 0 0 1 .5-.1h6.4a.75.75 0 0 1 .5.1q.15 0 .3.3c.1.1.1.3.2.5s.1.5.1.9a2.22 2.22 0 0 1 -.1.9.76.76 0 0 1 -.2.5l-.3.3a4.33 4.33 0 0 1 -.5.1h-1l.1 16a.81.81 0 0 1 -.4.8 2.81 2.81 0 0 1 -1.5.3 1.48 1.48 0 0 1 -.7-.1.76.76 0 0 1 -.5-.2c-.1-.1-.3-.2-.4-.3a1.38 1.38 0 0 1 -.3-.4l-7.8-12.7.1 9.8h1.8a.75.75 0 0 1 .5.1c.1.1.2.1.3.3s.1.3.2.5.1.5.1.9a2.22 2.22 0 0 1 -.1.9.76.76 0 0 1 -.2.5l-.3.3a4.33 4.33 0 0 1 -.5.1h-6.9a.75.75 0 0 1 -.5-.1q-.15 0-.3-.3c-.1-.1-.1-.3-.2-.5a4.1 4.1 0 0 1 0-1.8.76.76 0 0 1 .2-.5l.3-.3a4.33 4.33 0 0 1 .5-.1h1.1z" transform="translate(-495.5 -103.2)"/><path d="m958 339.2a17.18 17.18 0 0 1 -3.8.8 15.14 15.14 0 0 1 -3.7-.1 10.83 10.83 0 0 1 -3.7-1.3 8.88 8.88 0 0 1 -2.6-2.5 9.68 9.68 0 0 1 -1.4-3.6 16.19 16.19 0 0 1 0-4.4 12.94 12.94 0 0 1 1.3-4.2 10 10 0 0 1 2.3-3 7.67 7.67 0 0 1 3.1-1.6 8.68 8.68 0 0 1 3.6-.2 6.16 6.16 0 0 1 2.6 1 4.28 4.28 0 0 1 1.5 1.8l.2-1.1a.88.88 0 0 1 .6-.7 4.22 4.22 0 0 1 1.6 0 6.37 6.37 0 0 1 .9.2 2.19 2.19 0 0 1 .5.3.52.52 0 0 1 .2.4v.5l-1 6.5a.88.88 0 0 1 -.6.7 5.21 5.21 0 0 1 -1.8 0c-.4-.1-.7-.1-1-.2l-.6-.3a1.38 1.38 0 0 1 -.3-.4v-.5a3.78 3.78 0 0 0 0-1.5 3 3 0 0 0 -.5-1.3 2.19 2.19 0 0 0 -1-.9 5.27 5.27 0 0 0 -1.5-.5 4.11 4.11 0 0 0 -3.8 1.1 8.17 8.17 0 0 0 -1.9 4.7 9.08 9.08 0 0 0 .5 5.1 4.46 4.46 0 0 0 3.4 2.3 7.58 7.58 0 0 0 3 0 16.28 16.28 0 0 0 3-.7.92.92 0 0 1 1 .2 2 2 0 0 1 .6 1.4 2.62 2.62 0 0 1 -.1 1.6c.1.1-.2.3-.6.4z" transform="translate(-495.5 -103.2)"/><path d="m973.2 327.3-1.6-.4c-.2-.1-.3-.1-.5-.2l-.3-.3a1.15 1.15 0 0 1 0-.6 5.07 5.07 0 0 1 .2-.9 3.39 3.39 0 0 1 .3-.8 2.19 2.19 0 0 1 .3-.5.52.52 0 0 1 .4-.2 1.09 1.09 0 0 1 .5.1l15 4.2a1.58 1.58 0 0 1 .8.5 1.35 1.35 0 0 1 0 .9l-1.4 5a.85.85 0 0 1 -.7.7 3.3 3.3 0 0 1 -1.6-.2 9.44 9.44 0 0 1 -.9-.3 2.19 2.19 0 0 1 -.5-.3.76.76 0 0 1 -.2-.4 1.09 1.09 0 0 1 .1-.5l.7-2.5-6.6-1.8-1.2 4.2 4 1.1c.2.1.3.1.5.2a.52.52 0 0 1 .2.4c0 .2.1.4 0 .6a5.07 5.07 0 0 1 -.2.9 3.39 3.39 0 0 1 -.3.8 2.19 2.19 0 0 1 -.3.5.76.76 0 0 1 -.4.2 1.09 1.09 0 0 1 -.5-.1l-4-1.1-1.3 4.8 6.7 1.9.9-3.3a.85.85 0 0 1 .7-.7 3.8 3.8 0 0 1 1.7.2 4.65 4.65 0 0 1 .9.3 2.19 2.19 0 0 1 .5.3.76.76 0 0 1 .2.4 1.09 1.09 0 0 1 -.1.5l-1.6 5.8a1.58 1.58 0 0 1 -.5.8c-.2.2-.5.1-.9 0l-15.2-4.5c-.2-.1-.3-.1-.5-.2l-.3-.3a1.15 1.15 0 0 1 0-.6c.1-.3.1-.5.2-.9a3.39 3.39 0 0 1 .3-.8 2.19 2.19 0 0 1 .3-.5.52.52 0 0 1 .4-.2.9.9 0 0 1 .5.1l1.6.4z" transform="translate(-495.5 -103.2)"/><path d="m809 741.4-1.4-1.2c-.1-.1-.3-.3-.3-.4a.6.6 0 0 1 -.1-.4c0-.2.1-.3.2-.5s.3-.4.5-.7a3.29 3.29 0 0 1 .6-.6c.2-.1.3-.2.5-.3s.3 0 .4 0 .3.1.4.3l6.6 5.9a11.27 11.27 0 0 1 2.1 2.4 5.52 5.52 0 0 1 .9 2.3 4.87 4.87 0 0 1 -.2 2.1 10.59 10.59 0 0 1 -1.2 2 3.63 3.63 0 0 1 -2.2 1.3 5.34 5.34 0 0 1 -2.5-.1 5.5 5.5 0 0 1 1 3.2 4.21 4.21 0 0 1 -1.4 3.1 6.19 6.19 0 0 1 -2.1 1.6 4.49 4.49 0 0 1 -2.3.4 6.32 6.32 0 0 1 -2.5-.7 12.24 12.24 0 0 1 -2.6-1.8l-7.4-6.6c-.1-.1-.3-.3-.3-.4a.6.6 0 0 1 -.1-.4c0-.2.1-.3.2-.5s.3-.4.5-.7a3.29 3.29 0 0 1 .6-.6c.2-.1.3-.2.5-.3h.4c.1.1.3.1.4.3l1.4 1.2zm-3.1 14.8a3.45 3.45 0 0 0 2.3 1.2 1.93 1.93 0 0 0 1.8-.8 1.87 1.87 0 0 0 .6-1.9 3.47 3.47 0 0 0 -1.5-2.1l-2.4-2.2-3.2 3.6zm5.1-7a3.57 3.57 0 0 0 2.1 1.1 1.86 1.86 0 0 0 1.7-.8 2.11 2.11 0 0 0 .6-1.7 3.69 3.69 0 0 0 -1.4-1.9l-1.8-1.6-2.9 3.3z" transform="translate(-495.5 -103.2)"/><path d="m836.3 763.7a1.38 1.38 0 0 1 -.4-.3c-.1-.1-.1-.2-.2-.4a1.49 1.49 0 0 1 .1-.6 5.9 5.9 0 0 1 .4-.8 6.82 6.82 0 0 1 .5-.7l.4-.4a.6.6 0 0 1 .4-.1 1.69 1.69 0 0 1 .5.2l5.5 3.3a1.38 1.38 0 0 1 .4.3c.1.1.1.2.2.4a1.49 1.49 0 0 1 -.1.6 5.9 5.9 0 0 1 -.4.8 6.82 6.82 0 0 1 -.5.7l-.4.4a.6.6 0 0 1 -.4.1 1.69 1.69 0 0 1 -.5-.2l-1.1-.7-4.8 8.1a7.09 7.09 0 0 0 -.7 1.6 3.3 3.3 0 0 0 0 1.4 3.38 3.38 0 0 0 .6 1.2 10.63 10.63 0 0 0 1.1.9 3.49 3.49 0 0 0 1.3.5 2.85 2.85 0 0 0 1.3 0 2.52 2.52 0 0 0 1.2-.7 4 4 0 0 0 1.1-1.4l4.8-8.1-1.1-.7a1.38 1.38 0 0 1 -.4-.3c-.1-.1-.1-.2-.2-.4a1.49 1.49 0 0 1 .1-.6 5.9 5.9 0 0 1 .4-.8 6.82 6.82 0 0 1 .5-.7c.1-.2.3-.3.4-.4a.6.6 0 0 1 .4-.1 1.69 1.69 0 0 1 .5.2l5.5 3.3a1.38 1.38 0 0 1 .4.3c.1.1.1.2.2.4a1.49 1.49 0 0 1 -.1.6 5.9 5.9 0 0 1 -.4.8 6.82 6.82 0 0 1 -.5.7l-.4.4a.6.6 0 0 1 -.4.1 1.69 1.69 0 0 1 -.5-.2l-.7-.4-5 8.4a10.33 10.33 0 0 1 -2.1 2.5 6.42 6.42 0 0 1 -2.5 1.2 6.6 6.6 0 0 1 -2.8 0 9.43 9.43 0 0 1 -3-1.2 8.72 8.72 0 0 1 -2.5-2.1 7 7 0 0 1 -1.4-2.5 5.29 5.29 0 0 1 -.1-2.8 7.57 7.57 0 0 1 1.2-3l5-8.4z" transform="translate(-495.5 -103.2)"/><path d="m871.4 779.6-2.4-.8c-.2-.1-.3-.1-.4-.2a.52.52 0 0 1 -.2-.4v-.6a5.07 5.07 0 0 1 .2-.9 6.89 6.89 0 0 1 .3-.8c.1-.2.2-.4.4-.4a.6.6 0 0 1 .4-.1 1.09 1.09 0 0 1 .5.1l9.9 3.4c.2.1.3.1.4.2a.52.52 0 0 1 .2.4v.6a5.07 5.07 0 0 1 -.2.9 6.89 6.89 0 0 1 -.3.8.78.78 0 0 1 -.4.4.6.6 0 0 1 -.4.1 1.09 1.09 0 0 1 -.5-.1l-3.5-1.2-4.3 12.4 5.7 2 1.7-5a.76.76 0 0 1 .8-.6 6.75 6.75 0 0 1 1.7.3 3.92 3.92 0 0 1 .9.4 1 1 0 0 1 .5.4.76.76 0 0 1 .2.4 1.09 1.09 0 0 1 -.1.5l-2.6 7.5a1 1 0 0 1 -.5.7 1.35 1.35 0 0 1 -.9 0l-15-5.2c-.2-.1-.3-.1-.4-.2a.52.52 0 0 1 -.2-.4v-.6a5.07 5.07 0 0 1 .2-.9 6.89 6.89 0 0 1 .3-.8c.1-.2.2-.4.4-.4a.6.6 0 0 1 .4-.1 1.09 1.09 0 0 1 .5.1l2.4.8z" transform="translate(-495.5 -103.2)"/><path d="m908.3 787.9-4-.5a4.33 4.33 0 0 1 -.5-.1l-.3-.3a.75.75 0 0 1 -.1-.5v-.9a2 2 0 0 1 .2-.9c.1-.2.1-.4.2-.5a.52.52 0 0 1 .4-.2h.5l12.2 1.4a4.33 4.33 0 0 1 .5.1l.3.3c.1.1.1.3.1.6v.9a2 2 0 0 1 -.2.9c-.1.2-.1.4-.2.5a.52.52 0 0 1 -.4.2h-.5l-4-.5-1.5 13.2 4.3.5a4.33 4.33 0 0 1 .5.1l.3.3c.1.1.1.3.1.6v.9a2 2 0 0 1 -.2.9c-.1.2-.1.4-.2.5a.52.52 0 0 1 -.4.2h-.5l-12.9-1.6a4.33 4.33 0 0 1 -.5-.1l-.3-.3a.75.75 0 0 1 -.1-.5v-.9a2 2 0 0 1 .2-.9c.1-.2.1-.4.2-.5a.52.52 0 0 1 .4-.2h.5l4.3.5z" transform="translate(-495.5 -103.2)"/><path d="m937.4 788.2-1.1.1h-.5a.69.69 0 0 1 -.6-.7c0-.2-.1-.5-.1-.9v-.9c0-.2.1-.4.1-.6l.3-.3a.75.75 0 0 1 .5-.1l4.5-.3a1.27 1.27 0 0 1 .6.1 1.38 1.38 0 0 1 .4.3l8 11.2-.7-8.7-1.5.1h-.5a.69.69 0 0 1 -.6-.7 2.22 2.22 0 0 1 -.1-.9v-.9c0-.2.1-.4.1-.6l.3-.3a.75.75 0 0 1 .5-.1l6.4-.5h.5a.69.69 0 0 1 .6.7c0 .2.1.5.1.9v.9a4.33 4.33 0 0 1 -.1.5l-.3.3a.75.75 0 0 1 -.5.1l-1 .1 1.2 16a1.22 1.22 0 0 1 -.3.9 3.44 3.44 0 0 1 -1.5.4h-.7a4.33 4.33 0 0 1 -.5-.1c-.1-.1-.3-.1-.4-.3s-.2-.2-.3-.4l-8.6-12.1.7 9.7 1.8-.1h.5a.69.69 0 0 1 .6.7 2.22 2.22 0 0 1 .1.9v.9a4.33 4.33 0 0 1 -.1.5l-.3.3a.75.75 0 0 1 -.5.1l-6.9.5h-.5a.69.69 0 0 1 -.6-.7 2.22 2.22 0 0 1 -.1-.9v-.9c0-.2.1-.4.1-.6l.3-.3a.75.75 0 0 1 .5-.1l1.1-.1z" transform="translate(-495.5 -103.2)"/><path d="m982.1 789.8a1.09 1.09 0 0 1 -.5.1c-.1 0-.3-.1-.4-.1a1.07 1.07 0 0 1 -.3-.5 6.89 6.89 0 0 1 -.3-.8 2.92 2.92 0 0 1 -.2-.9v-.6a.52.52 0 0 1 .2-.4.76.76 0 0 1 .5-.2l7.7-2.4a1.09 1.09 0 0 1 .5-.1.76.76 0 0 1 .4.2 2.19 2.19 0 0 1 .3.5 6.89 6.89 0 0 1 .3.8 2.92 2.92 0 0 1 .2.9v.6c0 .1-.1.3-.2.3a.76.76 0 0 1 -.5.2l-.5.2 1.3 4.2a1.19 1.19 0 0 1 -.2 1.3 12.88 12.88 0 0 1 -3 2.2 19.43 19.43 0 0 1 -3.6 1.5 9.39 9.39 0 0 1 -7.4-.7 8.63 8.63 0 0 1 -2.8-2.6 14.46 14.46 0 0 1 -2.5-8.4 8.74 8.74 0 0 1 .8-3.7 8.26 8.26 0 0 1 2.1-2.8 7.63 7.63 0 0 1 3.2-1.7 6.59 6.59 0 0 1 2.7-.3 4 4 0 0 1 2.1.9l-.3-.9a.9.9 0 0 1 .2-.9 3.65 3.65 0 0 1 1.4-.7 2.92 2.92 0 0 1 .9-.2h.6a.52.52 0 0 1 .4.2.76.76 0 0 1 .2.4l1.7 5.6a.9.9 0 0 1 -.2.9 3.43 3.43 0 0 1 -1.6.7 4.4 4.4 0 0 1 -1 .2h-.6a.52.52 0 0 1 -.4-.2.76.76 0 0 1 -.2-.4 3.24 3.24 0 0 0 -1.5-1.9 3.38 3.38 0 0 0 -2.8 0 4.53 4.53 0 0 0 -3 2.7 9.18 9.18 0 0 0 .3 5.1 7.64 7.64 0 0 0 2.7 4.3 4.66 4.66 0 0 0 4 .6 16.58 16.58 0 0 0 3.3-1.5l-.8-2.7z" transform="translate(-495.5 -103.2)"/><path d="m1007.8 761.8a11 11 0 0 1 3.7-1.3 8.82 8.82 0 0 1 3.6.3 9.16 9.16 0 0 1 3.3 1.9 14.35 14.35 0 0 1 2.8 3.5 15.08 15.08 0 0 1 1.6 4.1 8.13 8.13 0 0 1 0 3.8 9.88 9.88 0 0 1 -1.5 3.3 10.55 10.55 0 0 1 -6.7 3.9 8.68 8.68 0 0 1 -3.6-.3 9.16 9.16 0 0 1 -3.3-1.9 14.35 14.35 0 0 1 -2.8-3.5 15.08 15.08 0 0 1 -1.6-4.1 8.13 8.13 0 0 1 0-3.8 9.88 9.88 0 0 1 1.5-3.3 10.84 10.84 0 0 1 3-2.6zm2 3.4a4.08 4.08 0 0 0 -2.3 3.3 8.59 8.59 0 0 0 1.4 4.9 9 9 0 0 0 3.5 3.7 4.68 4.68 0 0 0 6.3-3.6 8.59 8.59 0 0 0 -1.4-4.9 9 9 0 0 0 -3.5-3.7 4.12 4.12 0 0 0 -4 .3z" transform="translate(-495.5 -103.2)"/><path d="m1031.6 749.4-.9.7c-.2.1-.3.2-.4.2h-.4a.91.91 0 0 1 -.5-.3 4.35 4.35 0 0 1 -.6-.7c-.2-.3-.4-.5-.5-.7a1.69 1.69 0 0 1 -.2-.5.6.6 0 0 1 .1-.4l.4-.4 3.6-2.8c.2-.1.3-.2.5-.3h.5l12.8 5-5.3-6.9-1.2.9c-.2.1-.3.2-.4.2h-.4a.91.91 0 0 1 -.5-.3 4.35 4.35 0 0 1 -.6-.7c-.2-.3-.4-.5-.5-.7a1.69 1.69 0 0 1 -.2-.5c0-.2 0-.3.1-.4l.4-.4 5.1-3.9c.2-.1.3-.2.4-.2h.4a2.19 2.19 0 0 0 .5.3 4.35 4.35 0 0 1 .6.7c.2.3.4.5.5.7a1.69 1.69 0 0 1 .2.5c0 .2 0 .3-.1.4l-.4.4-.8.6 9.8 12.7a1 1 0 0 1 .2.9 2.39 2.39 0 0 1 -1 1.1 2.09 2.09 0 0 1 -.6.4c-.2.1-.3.1-.5.2h-.5c-.2 0-.3-.1-.5-.1l-13.9-5.4 6 7.7 1.4-1.1c.2-.1.3-.2.4-.2h.4a2.19 2.19 0 0 0 .5.3 4.35 4.35 0 0 1 .6.7c.2.3.4.5.5.7a1.69 1.69 0 0 1 .2.5c0 .2 0 .3-.1.4l-.4.4-5.5 4.2c-.2.1-.3.2-.4.2h-.4a.91.91 0 0 1 -.5-.3 4.35 4.35 0 0 1 -.6-.7c-.2-.3-.4-.5-.5-.7a1.69 1.69 0 0 1 -.2-.5c0-.2 0-.3.1-.4l.4-.4.9-.7z" transform="translate(-495.5 -103.2)"/><path d="m1072.1 507.7a6.35 6.35 0 0 0 -9 6l7.6 184.3a6.36 6.36 0 0 1 -6.4 6.6h-94.2a6.43 6.43 0 0 1 -6.3-5.2l-23.8-132.5a6.35 6.35 0 0 0 -9.1-4.6l-3.1 1.5a6.31 6.31 0 0 1 -6.1-.2l-3.1-1.9a6.34 6.34 0 0 0 -9.5 4.2l-27.5 133.7a6.31 6.31 0 0 1 -6.2 5.1h-90.1a6.25 6.25 0 0 1 -6.3-6.7l11.3-184a6.37 6.37 0 0 0 -9-6.2 6.38 6.38 0 0 1 -8.3-2.9l-38.4-75.7a6.38 6.38 0 0 1 2.9-8.6l77-37.9a6.81 6.81 0 0 1 2.8-.7h72.2a6.42 6.42 0 0 1 6.1 4.6c3 10.5 10.2 22.3 29.7 22.3s29.1-11.2 31.5-21.9a6.32 6.32 0 0 1 6.2-4.9h70.4a5.3 5.3 0 0 1 2.8.7l75.9 37.9a6.2 6.2 0 0 1 2.9 8.3l-34.8 75.5a5.87 5.87 0 0 1 -8.1 3.2z" transform="translate(-495.5 -103.2)"/></g></svg>