<svg enable-background="new 0 0 1920 1080" viewBox="0 0 1920 1080" xmlns="http://www.w3.org/2000/svg" xmlns:xlink="http://www.w3.org/1999/xlink"><linearGradient id="a" gradientUnits="userSpaceOnUse" x1="379.1658" x2="632.2015" y1="516.7446" y2="516.7446"><stop offset="0" stop-color="#f7931e"/><stop offset=".2806" stop-color="#f15a24"/><stop offset=".5787" stop-color="#f08"/><stop offset="1" stop-color="#f15a24"/></linearGradient><g fill="#4f00e7"><path d="m858.3 595.8-62.8-174.9c-.4-1.2-1.5-1.9-2.7-1.9h-38c-1.2 0-2.3.8-2.8 1.9l-62.8 174.9c-.7 1.9.7 3.9 2.8 3.9h31.8c1.2 0 2.4-.8 2.8-2l11.2-32.4h71.9l11.2 32.4c.4 1.2 1.5 2 2.8 2h32c1.9.1 3.3-2 2.6-3.9zm-110.9-59.4 26.1-75.5 26.1 75.5z"/><path d="m1000.4 418.5h-31.1c-1.6 0-2.8 1.3-2.8 2.8v55.1c-5-6.7-11.7-12.1-20.2-16.2-8.4-4.1-17.3-6.1-26.6-6.1-12.2 0-23.4 3-33.4 9s-17.9 14.7-23.7 25.9-8.7 24.1-8.7 38.5c0 14.7 2.9 27.6 8.7 38.9s13.7 20 23.7 26.2 21 9.3 33.1 9.3c10.7 0 20.1-2.2 28.2-6.5s14.4-10 18.9-17.1v18.4c0 1.6 1.3 2.8 2.8 2.8h31.1c1.6 0 2.8-1.3 2.8-2.8v-175.4c0-1.6-1.3-2.8-2.8-2.8zm-38.8 132.2c-3.5 6.3-8.1 11.1-14 14.5s-12.2 5-18.9 5c-6.6 0-12.7-1.7-18.5-5.2s-10.4-8.4-14-14.9c-3.5-6.5-5.3-14-5.3-22.6s1.8-16.1 5.3-22.4 8.1-11.1 13.8-14.4 11.9-4.9 18.6-4.9 13 1.7 18.9 5c5.9 3.4 10.5 8.2 14 14.5 3.4 6.3 5.2 13.8 5.2 22.6 0 9-1.7 16.5-5.1 22.8z"/><path d="m1070.5 486.2v69.3c0 4.8 1.2 8.3 3.5 10.5s6.3 3.2 11.8 3.2h13.3c1.9 0 3.5 1.6 3.5 3.5v23.5c0 1.9-1.6 3.5-3.5 3.5h-19.2c-30.5 0-45.8-14.8-45.8-44.5v-69.1h-13.6c-1.9 0-3.5-1.6-3.5-3.5v-22.6c0-1.9 1.6-3.5 3.5-3.5h13.6v-34.5c0-1.9 1.6-3.5 3.5-3.5h29.4c1.9 0 3.5 1.6 3.5 3.5v34.5h28.6c1.9 0 3.5 1.6 3.5 3.5v22.7c0 1.9-1.6 3.5-3.5 3.5z"/><path d="m1247 489.3c-6.5-11.2-15.3-19.9-26.5-26s-23.7-9.2-37.5-9.2-26.3 3.1-37.5 9.2-20 14.8-26.5 26-9.7 24.2-9.7 38.8c0 14.7 3.1 27.6 9.4 38.8s15 19.9 26 26 23.4 9.2 37.2 9.2c14 0 26.6-3.1 37.9-9.2s20.3-14.8 26.9-26 10-24.1 10-38.8c0-14.6-3.3-27.6-9.7-38.8zm-32.8 62.1c-3.5 6.4-8.1 11.2-13.8 14.4-5.8 3.2-11.9 4.8-18.5 4.8-10.3 0-18.9-3.7-25.7-11s-10.2-17.8-10.2-31.4 3.5-24.1 10.5-31.4 15.6-11 26-11 19.1 3.7 26.3 11 10.7 17.8 10.7 31.4c-.1 9-1.8 16.8-5.3 23.2z"/><path d="m1396.6 599.8h-37.1c-1.1 0-2.2-.5-2.9-1.4l-47.5-59.6v57.4c0 2-1.7 3.7-3.7 3.7h-28.8c-2 0-3.7-1.7-3.7-3.7v-174.1c0-2 1.6-3.7 3.7-3.7h28.8c2 0 3.7 1.7 3.7 3.7v95.1l47-59.4c.7-.9 1.8-1.4 2.9-1.4h37.2c3.2 0 4.9 3.7 2.8 6.1l-57.7 65.8 58.2 65.3c2 2.4.3 6.2-2.9 6.2z"/><path d="m1539.5 456.5h-29.1c-2 0-3.7 1.7-3.7 3.7v16.8c-4.8-6.6-11.3-12-19.3-16.3s-17.4-6.5-28.1-6.5c-12.2 0-23.3 3-33.2 9s-17.8 14.7-23.5 25.9c-5.8 11.2-8.7 24.1-8.7 38.5 0 14.7 2.9 27.6 8.7 38.9s13.6 20 23.5 26.2 20.9 9.3 33 9.3c10.7 0 20.1-2.2 28.3-6.6s14.6-9.9 19.3-16.7v17.3c0 2 1.7 3.7 3.7 3.7h29.1c2 0 3.7-1.7 3.7-3.7v-135.8c0-2.1-1.7-3.7-3.7-3.7zm-38 94.2c-3.5 6.3-8.1 11.1-14 14.5s-12.2 5-18.9 5c-6.5 0-12.7-1.7-18.5-5.2s-10.4-8.4-14-14.9c-3.5-6.5-5.3-14-5.3-22.6s1.8-16.1 5.3-22.4 8.1-11.1 13.8-14.4 11.9-4.9 18.6-4.9 13 1.7 18.9 5c5.9 3.4 10.5 8.2 14 14.5s5.2 13.8 5.2 22.6c.1 9-1.6 16.5-5.1 22.8z"/><path d="m1643.3 458.2v30.5c0 2-1.7 3.7-3.7 3.7h-5.9c-11.4 0-19.9 2.7-25.7 8-5.8 5.4-8.7 14.7-8.7 27.9v67.7c0 2-1.7 3.7-3.7 3.7h-28.8c-2 0-3.7-1.7-3.7-3.7v-135.8c0-2 1.6-3.7 3.7-3.7h28.8c2 0 3.7 1.7 3.7 3.7v18.6c4.6-7.6 10.7-13.5 18.2-17.8 6.5-3.7 13.7-5.8 21.8-6.3 2.2-.3 4 1.4 4 3.5z"/><path d="m1711.2 486.2v69.3c0 4.8 1.2 8.3 3.5 10.5s6.3 3.2 11.8 3.2h13.1c2 0 3.7 1.7 3.7 3.7v23.2c0 2-1.7 3.7-3.7 3.7h-19.1c-30.5 0-45.8-14.8-45.8-44.5v-69.1h-13.4c-2 0-3.7-1.7-3.7-3.7v-22.4c0-2 1.6-3.7 3.7-3.7h13.4v-34.3c0-2 1.7-3.7 3.7-3.7h29.1c2 0 3.7 1.7 3.7 3.7v34.3h28.4c2 0 3.7 1.7 3.7 3.7v22.4c0 2-1.7 3.7-3.7 3.7z"/><circle cx="400.2" cy="516.7" r="241.3"/></g><path d="m497.7 659.3c-27 27.3-70.9 27.5-98.1.6l-129.1-127.7c-7.6-7.6-7.7-19.9-.2-27.5l42.3-43h18.7v15.4l-33.9 34.4c-3.7 3.8-3.7 9.8.1 13.5l119 117.7c8.8 8.7 20.3 13.1 31.8 13.1 11.6 0 23.3-4.5 32.2-13.4 17.6-17.8 17.4-46.4-.4-64l-66.5-65.8 63.2-63.9c16.2-16.3 16.1-42.7-.3-58.9s-42.7-16-58.9.3l-11.5 11.9h-14.9v-19.2l9.4-9.6c12.9-13 29.8-19.5 46.8-19.5 16.7 0 33.4 6.3 46.3 19 25.8 25.5 26 67.2.5 93l-46.3 46.8 49.3 48.8c27.2 26.8 27.4 70.7.5 98z" fill="url(#a)"/><path d="m410.3 430.3c0 3.3-1.4 6.4-3.6 8.6-2.2 2.3-5.3 3.6-8.6 3.6h-24.9v24.9c0 6.7-5.4 12.1-12.1 12.1-6.8 0-12.2-5.4-12.2-12.1v-24.9h-24.8c-6.8 0-12.2-5.4-12.2-12.1s5.4-12.1 12.2-12.1h24.9v-24.9c0-6.8 5.4-12.2 12.2-12.2 3.4 0 6.4 1.4 8.6 3.6s3.6 5.2 3.6 8.6v24.9h24.9c6.6-.2 12 5.3 12 12z" fill="#fff"/></svg>