<svg enable-background="new 0 0 1920 1080" viewBox="0 0 1920 1080" xmlns="http://www.w3.org/2000/svg"><g fill="#f23b51"><path d="m298.7 757.7 297.5-301.4-84.3-83.2c-12.1 22.8-24.7 52.6-28.6 100l-1.6-11.4-3-21.2c-10.1-50.6-34-95.5-63.7-125.8-10.5-10.7-21.7-19.7-33.3-26.4-7.4-4.3-15-7.7-22.6-10.1-9.6-2.7-19.6-4.1-30-4.1-.3 0-.6 0-.9 0-28.4 1.3-56.1 13.7-79.6 34.6-4.2 3.8-8.3 7.8-12.3 12 0 0-.1.1-.1.1-29.2 34.9-48.9 78-55 125.4-1 8.7-1.6 17.6-1.7 26.7v.8c0 6 .1 11.9.4 17.8.2 4.4.6 8.8 1 13.2.5 4.4.9 8.7 1.5 13 2.1 17.1 4.7 33.3 8 48.9v.1c14.2 59.6 41.9 113.9 79.6 159.7 6.4 7.7 13 15.2 19.9 22.4 2.8 2.9 5.8 5.9 8.8 8.9z"/><path d="m779.7 512.7c2.7-26.8 2.2-49.5.2-68.2-3.2-23.6-9.8-46.1-19.2-67.1-1.8-4.1-3.8-8.1-5.8-12l-89.3 90.5 106.6 105.3c3.9-17.2 6.6-34.8 8.2-52.8-.3 1.3-.5 2.8-.7 4.3-1.2 11.6-2.9 24-5.4 37.2"/><path d="m631.1 490.7-295.3 299.1c42.4 32.4 91.4 56.5 144.8 69.8 22-5.5 43.3-12.8 63.7-21.8l19.4-9.7c30.4-13.8 85.7-51.8 128.2-102.8 11.2-13.4 21.4-27.7 30.1-42.7 8.8-15.2 18.5-32.3 27-50.5 2.6-5.9 5-11.9 7.2-17.9z"/><path d="m630.6 421.4 96.2-97.4c-8.9-10.7-18.5-20.5-28.7-28.6-17.2-11.3-37.8-17.9-59.9-17.9-19.8 0-38.3 5.2-54.3 14.4-15 8.6-29 18.8-39.4 32.7l-.1-.1c-1.8 2.1-3.6 4.3-5.3 6.5z"/><path d="m727.3 323.5c-.2-.3-.5-.6-.7-.9.2.3.5.6.7.9z"/><path d="m969.6 395.3h-52.7l-6.3 14.5c-2.1 4.8-3.1 8.8-3.1 12 0 4.2 1.7 7.3 5.1 9.2 2 1.2 6.9 2.1 14.6 2.6v4.1h-49.6v-4.1c5.4-.8 9.8-3 13.2-6.7 3.4-3.6 7.7-11.1 12.8-22.5l53.4-119.1h2.1l53.8 122.4c5.1 11.6 9.4 18.9 12.7 21.9 2.5 2.3 6 3.6 10.6 4v4.1h-72.2v-4.1h3c5.8 0 9.9-.8 12.2-2.4 1.6-1.2 2.4-2.9 2.4-5.1 0-1.3-.2-2.7-.7-4.1-.1-.7-1.2-3.4-3.3-8.3zm-3.7-8.2-22.2-51.4-22.9 51.4z"/><path d="m1056.3 440.8-34.7-79.8c-4.2-9.6-7.4-15.7-9.8-18.3-1.7-1.9-4.2-3.2-7.5-3.9v-4.1h54.7v4.1c-3.4 0-5.8.6-7 1.9-1.8 1.6-2.6 3.5-2.6 5.7 0 2.7 1.6 7.8 4.8 15.3l16.9 38.6 13.5-33.3c3.9-9.5 5.8-16.3 5.8-20.2 0-2.3-.8-4.1-2.5-5.6-1.6-1.4-4.6-2.2-8.7-2.4v-4.1h33.7v4.1c-3.2.4-5.9 1.7-7.9 3.6-2.1 2-5.1 7.8-9.2 17.5l-34.3 80.8h-5.2z"/><path d="m1199.1 382.6h-56.5c.7 13.6 4.3 24.4 10.9 32.4 5.1 6.1 11.2 9.1 18.3 9.1 4.4 0 8.4-1.2 12-3.7s7.4-6.9 11.6-13.3l3.7 2.4c-5.6 11.4-11.7 19.4-18.5 24.2-6.8 4.7-14.6 7.1-23.4 7.1-15.3 0-26.8-5.9-34.7-17.6-6.3-9.5-9.5-21.2-9.5-35.2 0-17.2 4.6-30.8 13.9-41s20.2-15.2 32.6-15.2c10.4 0 19.5 4.3 27.1 12.8 7.8 8.5 11.9 21.2 12.5 38zm-27.1-7.4c0-11.8-.6-19.9-1.9-24.3s-3.3-7.7-6-10c-1.5-1.3-3.6-2-6.2-2-3.8 0-6.9 1.9-9.4 5.6-4.3 6.5-6.5 15.5-6.5 26.9v3.9h30z"/><path d="m1251.1 334.9v13.5c5.6-6.2 10.9-10.5 15.7-12.9 4.8-2.5 10.1-3.7 15.8-3.7 6.6 0 12.1 1.5 16.6 4.6s7.9 7.8 10.3 14.1c5.9-6.6 11.5-11.4 16.9-14.3s11-4.4 16.9-4.4c7.1 0 12.8 1.6 17 4.9s7.2 7.4 8.8 12.4 2.5 13 2.5 24v42.1c0 7.9.7 12.8 2.1 14.7s4.4 3.2 9 3.7v4h-53.2v-4c4.2-.4 7.3-2 9.2-4.8 1.3-2 2-6.5 2-13.6v-44.2c0-9.2-.4-15-1.1-17.5s-1.9-4.3-3.5-5.6c-1.6-1.2-3.4-1.8-5.6-1.8-3.2 0-6.3 1.2-9.6 3.5-3.2 2.3-6.5 5.8-9.8 10.4v55.2c0 7.4.6 12.1 1.9 14 1.7 2.7 4.9 4.2 9.7 4.5v4h-53.3v-4c2.9-.1 5.1-.9 6.8-2.1 1.7-1.3 2.8-2.8 3.3-4.6s.8-5.7.8-11.7v-44.2c0-9.3-.4-15.1-1.1-17.5-.7-2.3-2-4.2-3.7-5.5s-3.6-2-5.6-2c-2.9 0-5.6.8-8 2.3-3.4 2.3-7.1 6.2-11 11.7v55.2c0 7.3.7 12.1 2.1 14.4s4.4 3.7 9 4.1v4h-53v-4c4.3-.4 7.4-1.8 9.2-4.2 1.2-1.6 1.9-6.4 1.9-14.3v-58.1c0-7.8-.7-12.6-2.1-14.5s-4.4-3.2-9-3.7v-4.1z"/><path d="m1445.8 422.6c-12.5 11.1-23.8 16.6-33.8 16.6-5.9 0-10.7-1.9-14.6-5.8s-5.8-8.7-5.8-14.5c0-7.8 3.4-14.9 10.1-21.2s21.5-14.6 44.1-25v-10.3c0-7.8-.4-12.7-1.3-14.7-.8-2-2.4-3.8-4.8-5.3-2.3-1.5-5-2.3-7.9-2.3-4.8 0-8.7 1.1-11.8 3.2-1.9 1.3-2.9 2.9-2.9 4.6 0 1.5 1 3.4 3.1 5.7 2.8 3.2 4.2 6.2 4.2 9.1 0 3.6-1.3 6.7-4 9.2s-6.2 3.8-10.5 3.8c-4.6 0-8.5-1.4-11.6-4.2s-4.7-6.1-4.7-9.8c0-5.3 2.1-10.3 6.3-15.1s10-8.5 17.5-11.1 15.3-3.9 23.3-3.9c9.8 0 17.5 2.1 23.2 6.2s9.4 8.6 11.1 13.5c1 3.1 1.5 10.2 1.5 21.2v39.9c0 4.7.2 7.6.6 8.9.4 1.2.9 2.1 1.7 2.7.7.6 1.6.9 2.5.9 1.9 0 3.9-1.4 5.8-4.1l3.3 2.6c-3.7 5.4-7.5 9.4-11.4 11.8-3.9 2.5-8.4 3.7-13.4 3.7-5.9 0-10.5-1.4-13.8-4.1-3.2-2.5-5.2-6.7-6-12.2zm0-8.1v-34.4c-8.9 5.2-15.5 10.8-19.8 16.7-2.9 4-4.3 8-4.3 12 0 3.4 1.2 6.3 3.6 8.9 1.8 2 4.4 3 7.7 3 3.7 0 8-2.1 12.8-6.2z"/><path d="m1540.9 334.9v23.3c6.8-10.6 12.8-17.7 17.9-21.2s10.1-5.2 14.9-5.2c4.1 0 7.4 1.3 9.8 3.8 2.5 2.5 3.7 6.1 3.7 10.7 0 4.9-1.2 8.7-3.6 11.4s-5.3 4.1-8.6 4.1c-3.9 0-7.3-1.2-10.1-3.7-2.9-2.5-4.5-3.9-5.1-4.2-.7-.4-1.6-.7-2.5-.7-2.1 0-4.1.8-6.1 2.4-3 2.5-5.3 6.1-6.8 10.7-2.3 7.1-3.5 15-3.5 23.6v23.7l.1 6.2c0 4.2.3 6.9.8 8 .9 2 2.2 3.4 3.9 4.3s4.6 1.5 8.7 1.7v4h-55.6v-4c4.5-.4 7.5-1.6 9.1-3.7s2.4-7.6 2.4-16.6v-56.9c0-5.9-.3-9.6-.9-11.2-.7-2.1-1.8-3.6-3.2-4.5-1.4-1-3.9-1.6-7.4-2v-4.1h42.1z"/><path d="m1643.7 334.9v81.5c0 7.3.8 11.9 2.5 13.9s5 3.2 9.9 3.5v4h-55.6v-4c4.5-.1 7.9-1.5 10.1-4 1.5-1.7 2.2-6.2 2.2-13.4v-60.1c0-7.3-.8-11.9-2.5-13.9s-5-3.2-9.8-3.5v-4.1h43.2zm-15.4-49.9c4.8 0 8.8 1.7 12.1 5s5 7.4 5 12.1-1.7 8.7-5 12-7.4 5-12.1 5-8.7-1.7-12-5-5-7.3-5-12 1.6-8.7 5-12.1c3.3-3.3 7.3-5 12-5z"/><path d="m1717.6 422.6c-12.5 11.1-23.8 16.6-33.8 16.6-5.9 0-10.7-1.9-14.6-5.8s-5.8-8.7-5.8-14.5c0-7.8 3.4-14.9 10.1-21.2s21.5-14.6 44.1-25v-10.3c0-7.8-.4-12.7-1.3-14.7-.8-2-2.4-3.8-4.8-5.3-2.3-1.5-5-2.3-7.9-2.3-4.8 0-8.7 1.1-11.8 3.2-1.9 1.3-2.9 2.9-2.9 4.6 0 1.5 1 3.4 3.1 5.7 2.8 3.2 4.2 6.2 4.2 9.1 0 3.6-1.3 6.7-4 9.2s-6.2 3.8-10.5 3.8c-4.6 0-8.5-1.4-11.6-4.2s-4.7-6.1-4.7-9.8c0-5.3 2.1-10.3 6.3-15.1s10-8.5 17.5-11.1 15.3-3.9 23.3-3.9c9.8 0 17.5 2.1 23.2 6.2s9.4 8.6 11.1 13.5c1 3.1 1.5 10.2 1.5 21.2v39.9c0 4.7.2 7.6.5 8.9.4 1.2.9 2.1 1.7 2.7.7.6 1.6.9 2.5.9 1.9 0 3.9-1.4 5.8-4.1l3.3 2.6c-3.7 5.4-7.5 9.4-11.4 11.8-3.9 2.5-8.4 3.7-13.4 3.7-5.9 0-10.5-1.4-13.8-4.1-3.1-2.5-5.1-6.7-5.9-12.2zm0-8.1v-34.4c-8.9 5.2-15.5 10.8-19.8 16.7-2.9 4-4.3 8-4.3 12 0 3.4 1.2 6.3 3.6 8.9 1.8 2 4.4 3 7.7 3 3.7 0 8-2.1 12.8-6.2z"/><path d="m1017.9 580-5.6 52.2h-131.9v-4.1h4.9c4.3 0 7.8-.8 10.4-2.3 1.9-1 3.4-2.8 4.4-5.3.8-1.8 1.2-6.4 1.2-13.8v-97.7c0-7.6-.4-12.3-1.2-14.2s-2.4-3.6-4.9-5c-2.4-1.4-5.8-2.1-9.9-2.1h-4.9v-4.1h79.2v4.1h-6.5c-4.3 0-7.8.8-10.4 2.3-1.9 1-3.4 2.8-4.5 5.3-.8 1.8-1.2 6.4-1.2 13.8v94.7c0 7.6.4 12.4 1.3 14.5s2.6 3.6 5.1 4.7c1.8.7 6.2 1 13.3 1h12.4c7.9 0 14.5-1.4 19.7-4.2 5.3-2.8 9.8-7.2 13.6-13.1 3.8-6 7.5-14.8 10.9-26.5h4.6z"/><path d="m1062.8 529.7v81.2c0 7.2.8 11.9 2.5 13.9s5 3.2 9.9 3.5v3.9h-55.3v-3.9c4.5-.1 7.9-1.5 10.1-3.9 1.5-1.7 2.2-6.1 2.2-13.4v-59.8c0-7.2-.8-11.9-2.5-13.9s-4.9-3.2-9.8-3.5v-4.1zm-15.4-49.6c4.7 0 8.8 1.7 12.1 5s4.9 7.3 4.9 12-1.7 8.7-5 11.9c-3.3 3.3-7.3 4.9-12 4.9s-8.7-1.6-11.9-4.9c-3.3-3.3-4.9-7.3-4.9-11.9s1.6-8.7 4.9-12c3.3-3.4 7.3-5 11.9-5z"/><path d="m1122.2 492.2v37.5h24.3v10.8h-24.3v63.2c0 5.9.3 9.7.8 11.5.5 1.7 1.5 3.1 2.9 4.2s2.7 1.6 3.8 1.6c4.7 0 9.2-3.6 13.5-10.8l3.3 2.4c-5.9 14-15.5 21-28.8 21-6.5 0-12-1.8-16.5-5.4s-7.4-7.7-8.6-12.1c-.7-2.5-1.1-9.2-1.1-20.2v-55.3h-13.4v-3.8c9.2-6.5 17-13.3 23.5-20.5s12.1-15.2 16.9-24h3.7z"/><path d="m1257 529.7v80.2c0 7.8.7 12.7 2.2 14.6s4.4 3.2 8.9 3.7v3.9h-41.7v-13.7c-4.9 5.8-9.8 10.1-14.7 12.8s-10.4 4-16.4 4c-5.8 0-10.9-1.8-15.4-5.3s-7.5-7.7-9-12.4-2.3-13-2.3-24.9v-40.7c0-7.7-.7-12.6-2.1-14.5s-4.4-3.1-8.9-3.7v-4.1h41.7v70c0 7.3.3 12 1 14.1s1.8 3.7 3.3 4.8 3.2 1.6 5.2 1.6c2.6 0 5-.7 7.1-2.1 2.9-1.9 6.4-5.7 10.5-11.5v-54.8c0-7.7-.7-12.6-2.1-14.5s-4.4-3.1-8.9-3.7v-4.1h41.6z"/><path d="m1318.3 529.7v23.2c6.8-10.6 12.7-17.6 17.9-21.1 5.1-3.5 10-5.2 14.8-5.2 4.1 0 7.4 1.3 9.8 3.8s3.7 6.1 3.7 10.7c0 4.9-1.2 8.7-3.6 11.4s-5.2 4.1-8.6 4.1c-3.9 0-7.2-1.2-10.1-3.7s-4.5-3.9-5-4.2c-.7-.4-1.6-.7-2.5-.7-2.1 0-4.1.8-6 2.4-3 2.5-5.3 6-6.8 10.6-2.3 7.1-3.5 14.9-3.5 23.4v23.6l.1 6.1c0 4.2.3 6.8.8 8 .9 2 2.2 3.4 3.9 4.3s4.6 1.5 8.7 1.7v3.9h-55.3v-3.9c4.5-.4 7.5-1.6 9-3.7 1.6-2.1 2.4-7.6 2.4-16.5v-56.7c0-5.8-.3-9.6-.9-11.2-.7-2-1.8-3.5-3.2-4.5-1.4-.9-3.8-1.6-7.3-2v-4.1h41.7z"/><path d="m1437.6 530.9h34.5v12.1h-19.6c3.6 3.6 6.1 6.8 7.5 9.8 1.8 3.9 2.6 8.1 2.6 12.4 0 7.3-2 13.6-6.1 19s-9.6 9.6-16.5 12.6c-7 3-13.2 4.5-18.6 4.5-.4 0-4.8-.2-13.1-.5-3.3 0-6 1.1-8.3 3.2-2.2 2.2-3.3 4.7-3.3 7.7 0 2.6 1 4.8 3 6.5s5.3 2.5 9.8 2.5l19-.2c15.3 0 25.9 1.7 31.7 5 8.3 4.7 12.4 11.9 12.4 21.6 0 6.2-1.9 11.9-5.7 16.9-3.8 5.1-8.8 8.8-15 11.2-9.4 3.6-20.3 5.4-32.5 5.4-9.2 0-17.6-.9-25.2-2.7s-13-4.3-16.3-7.5-4.9-6.5-4.9-10c0-3.4 1.3-6.4 3.8-9 2.5-2.7 7.2-4.9 14.1-6.7-9.5-4.7-14.2-11.2-14.2-19.5 0-5 1.9-9.9 5.8-14.7 3.9-4.7 10-8.9 18.4-12.4-9.8-3.6-16.9-8.3-21.3-14.1s-6.6-12.6-6.6-20.3c0-10 4.1-18.7 12.3-26s18.7-11 31.6-11c6.4-.1 13.4 1.3 20.7 4.2zm-25.5 116.4c-7.5 0-12.4.6-14.8 1.9-4.2 2.3-6.2 5.3-6.2 9.2 0 3.7 2.2 7.1 6.5 10.1s12.4 4.5 24.3 4.5c10.2 0 18.1-1.4 23.9-4.1s8.7-6.5 8.7-11.4c0-1.8-.5-3.4-1.6-4.6-2-2.2-4.9-3.7-8.9-4.5-4-.7-14.6-1.1-31.9-1.1zm6.5-113.9c-4.2 0-7.8 2.1-10.7 6.4s-4.4 13.1-4.4 26.6c0 10.9 1.4 18.4 4.3 22.4 2.9 4.1 6.3 6.1 10.2 6.1 4.4 0 8-2 11-6 2.9-4 4.4-11.8 4.4-23.4 0-13.1-1.6-22-4.9-26.7-2.4-3.6-5.7-5.4-9.9-5.4z"/><path d="m1525.8 529.7v81.2c0 7.2.8 11.9 2.5 13.9s5 3.2 9.9 3.5v3.9h-55.3v-3.9c4.5-.1 7.9-1.5 10.1-3.9 1.5-1.7 2.2-6.1 2.2-13.4v-59.8c0-7.2-.8-11.9-2.5-13.9s-4.9-3.2-9.8-3.5v-4.1zm-15.3-49.6c4.7 0 8.8 1.7 12.1 5s4.9 7.3 4.9 12-1.7 8.7-5 11.9c-3.3 3.3-7.3 4.9-12 4.9s-8.7-1.6-11.9-4.9c-3.3-3.3-4.9-7.3-4.9-11.9s1.6-8.7 4.9-12c3.2-3.4 7.2-5 11.9-5z"/><path d="m1626.4 605.7 3.4 2.6c-4.8 9.1-10.8 15.8-18 20.2s-14.8 6.6-23 6.6c-13.7 0-24.6-5.2-32.8-15.4-8.2-10.3-12.3-22.7-12.3-37.1 0-14 3.7-26.2 11.2-36.8 9-12.8 21.4-19.2 37.1-19.2 10.6 0 19 2.7 25.3 8 6.2 5.3 9.4 11.3 9.4 17.9 0 4.2-1.3 7.5-3.8 10s-5.8 3.7-9.9 3.7c-4.3 0-7.9-1.4-10.7-4.3s-4.5-7.9-5.2-15.2c-.4-4.6-1.5-7.8-3.2-9.6s-3.7-2.7-5.9-2.7c-3.5 0-6.5 1.9-9 5.6-3.8 5.6-5.7 14.2-5.7 25.9 0 9.6 1.5 18.9 4.6 27.7s7.3 15.4 12.6 19.7c4 3.1 8.8 4.7 14.2 4.7 3.6 0 7-.8 10.2-2.5 3.3-1.9 7.1-5.1 11.5-9.8z"/><path d="m1695.4 617c-12.5 11-23.7 16.5-33.6 16.5-5.8 0-10.7-1.9-14.6-5.8-3.9-3.8-5.8-8.6-5.8-14.4 0-7.8 3.4-14.8 10.1-21.1 6.7-6.2 21.4-14.6 43.9-24.9v-10.3c0-7.7-.4-12.6-1.3-14.6-.8-2-2.4-3.8-4.8-5.3-2.3-1.5-5-2.2-7.9-2.2-4.7 0-8.7 1.1-11.7 3.2-1.9 1.3-2.9 2.8-2.9 4.6 0 1.5 1 3.4 3.1 5.7 2.8 3.1 4.2 6.2 4.2 9.1 0 3.6-1.3 6.6-4 9.1s-6.2 3.8-10.5 3.8c-4.6 0-8.5-1.4-11.6-4.2s-4.7-6-4.7-9.8c0-5.3 2.1-10.3 6.2-15.1 4.2-4.8 10-8.5 17.4-11 7.5-2.6 15.2-3.8 23.2-3.8 9.7 0 17.4 2.1 23.1 6.2s9.3 8.6 11 13.4c1 3.1 1.5 10.1 1.5 21.1v39.8c0 4.7.2 7.6.5 8.8.4 1.2.9 2.1 1.6 2.7s1.6.9 2.5.9c1.9 0 3.8-1.3 5.8-4.1l3.3 2.6c-3.7 5.4-7.4 9.3-11.3 11.8-3.9 2.4-8.3 3.7-13.3 3.7-5.8 0-10.4-1.4-13.7-4.1-3-2.6-5-6.7-5.7-12.3zm0-8v-34.3c-8.8 5.2-15.4 10.7-19.7 16.7-2.8 3.9-4.3 7.9-4.3 11.9 0 3.4 1.2 6.3 3.6 8.9 1.8 2 4.4 3 7.7 3 3.6 0 7.9-2.1 12.7-6.2z"/><path d="m1787.6 483.6v127.3c0 7.2.8 11.9 2.5 13.9s5 3.2 9.9 3.5v3.9h-55.3v-3.9c4.5-.1 7.9-1.5 10.1-3.9 1.5-1.7 2.2-6.1 2.2-13.4v-106.2c0-7.2-.8-11.7-2.5-13.8-1.7-2-4.9-3.2-9.8-3.5v-4.1h42.9z"/><path d="m1019 684.9v51.5h-4.3c-3.2-13.4-9.2-23.7-18-30.9s-18.7-10.7-29.8-10.7c-9.3 0-17.8 2.7-25.5 8s-13.4 12.3-17 20.9c-4.6 11-6.9 23.3-6.9 36.8 0 13.3 1.7 25.4 5 36.3 3.4 10.9 8.6 19.2 15.8 24.8s16.4 8.4 27.8 8.4c9.4 0 17.9-2 25.7-6.1s16-11.1 24.6-21.1v12.8c-8.3 8.7-17 15-26 18.9s-19.6 5.9-31.6 5.9c-15.9 0-29.9-3.2-42.2-9.5-12.3-6.4-21.8-15.5-28.5-27.4s-10-24.6-10-38c0-14.2 3.7-27.6 11.1-40.3s17.4-22.6 30-29.6 26-10.5 40.2-10.5c10.4 0 21.5 2.3 33.1 6.8 6.7 2.6 11 3.9 12.8 3.9 2.3 0 4.4-.9 6.1-2.6s2.8-4.4 3.3-8.2h4.3z"/><path d="m1116.8 781.9h-56.2c.7 13.6 4.3 24.3 10.8 32.2 5 6.1 11.1 9.1 18.2 9.1 4.4 0 8.4-1.2 11.9-3.7 3.6-2.4 7.4-6.8 11.5-13.2l3.7 2.4c-5.6 11.3-11.7 19.3-18.4 24.1-6.7 4.7-14.5 7.1-23.3 7.1-15.2 0-26.7-5.8-34.5-17.5-6.3-9.4-9.4-21.1-9.4-35.1 0-17.1 4.6-30.7 13.9-40.8 9.2-10.1 20.1-15.2 32.5-15.2 10.4 0 19.4 4.3 27 12.8s11.7 21.1 12.3 37.8zm-27-7.3c0-11.8-.6-19.8-1.9-24.2s-3.3-7.7-6-10c-1.5-1.3-3.6-2-6.1-2-3.8 0-6.9 1.9-9.3 5.6-4.3 6.5-6.5 15.4-6.5 26.7v3.8h29.8z"/><path d="m1162.6 734.4v13.3c5.3-5.7 10.3-9.8 15.1-12.4s10-3.9 15.6-3.9c6.6 0 12.2 1.8 16.5 5.5 4.4 3.7 7.3 8.3 8.8 13.8 1.2 4.2 1.8 12.2 1.8 24v39.9c0 7.9.7 12.8 2.1 14.7s4.4 3.2 8.9 3.7v3.9h-51.8v-3.9c3.9-.5 6.6-2.1 8.3-4.8 1.2-1.8 1.8-6.4 1.8-13.6v-45.6c0-8.4-.3-13.7-1-15.9s-1.8-3.9-3.3-5.1c-1.6-1.2-3.3-1.8-5.2-1.8-6.3 0-12.1 4.5-17.5 13.5v54.9c0 7.7.7 12.5 2.1 14.6 1.4 2 4.1 3.3 7.9 3.8v3.9h-51.8v-3.9c4.3-.4 7.4-1.8 9.2-4.2 1.2-1.6 1.9-6.4 1.9-14.2v-57.9c0-7.7-.7-12.6-2.1-14.5s-4.4-3.1-8.9-3.7v-4.1z"/><path d="m1277.3 696.9v37.5h24.3v10.8h-24.3v63.2c0 5.9.3 9.7.8 11.5.5 1.7 1.5 3.1 2.9 4.2s2.7 1.6 3.8 1.6c4.7 0 9.2-3.6 13.5-10.8l3.3 2.4c-5.9 14-15.5 21-28.8 21-6.5 0-12-1.8-16.5-5.4s-7.4-7.7-8.6-12.1c-.7-2.5-1.1-9.2-1.1-20.2v-55.3h-13.4v-3.8c9.2-6.5 17-13.3 23.5-20.5s12.1-15.2 16.9-24h3.7z"/><path d="m1394.6 781.9h-56.2c.7 13.6 4.3 24.3 10.8 32.2 5 6.1 11.1 9.1 18.2 9.1 4.4 0 8.4-1.2 11.9-3.7 3.6-2.4 7.4-6.8 11.5-13.2l3.7 2.4c-5.6 11.3-11.7 19.3-18.4 24.1-6.7 4.7-14.5 7.1-23.3 7.1-15.2 0-26.7-5.8-34.5-17.5-6.3-9.4-9.4-21.1-9.4-35.1 0-17.1 4.6-30.7 13.9-40.8 9.2-10.1 20.1-15.2 32.5-15.2 10.4 0 19.4 4.3 27 12.8s11.7 21.1 12.3 37.8zm-27-7.3c0-11.8-.6-19.8-1.9-24.2s-3.3-7.7-6-10c-1.5-1.3-3.6-2-6.1-2-3.8 0-6.9 1.9-9.3 5.6-4.3 6.5-6.5 15.4-6.5 26.7v3.8h29.8z"/><path d="m1439.2 734.4v23.2c6.8-10.6 12.7-17.6 17.9-21.1 5.1-3.5 10-5.2 14.8-5.2 4.1 0 7.4 1.3 9.8 3.8s3.7 6.1 3.7 10.7c0 4.9-1.2 8.7-3.6 11.4s-5.2 4.1-8.6 4.1c-3.9 0-7.2-1.2-10.1-3.7s-4.5-3.9-5-4.2c-.7-.4-1.6-.7-2.5-.7-2.1 0-4.1.8-6 2.4-3 2.5-5.3 6-6.8 10.6-2.3 7.1-3.5 14.9-3.5 23.4v23.6l.1 6.1c0 4.2.3 6.8.8 8 .9 2 2.2 3.4 3.9 4.3s4.6 1.5 8.7 1.7v3.9h-55.3v-3.9c4.5-.4 7.5-1.6 9-3.7 1.6-2.1 2.4-7.6 2.4-16.5v-56.7c0-5.8-.3-9.6-.9-11.2-.7-2-1.8-3.5-3.2-4.5-1.4-.9-3.8-1.6-7.3-2v-4.1h41.7z"/></g></svg>