<svg enable-background="new 0 0 1920 1080" viewBox="0 0 1920 1080" xmlns="http://www.w3.org/2000/svg"><g fill="#00abf7"><path d="m334.7 609.4c-5.5-.3-14.8.2-17.8 1.3l15.4-13.6h159.3l12.4 11.3c-4.4 2.3-9.5 4.8-20 6-25.3 2.8-25.8-10.2-51.5-10-9.8.1-20.1 4-26.4 6.9s-12.6 5.4-22.1 5.5c-20.3.3-26.4-6.1-49.3-7.4z"/><circle cx="648.5" cy="532.1" r="14.5"/><circle cx="183.4" cy="532.1" r="14.5"/><path d="m635.7 647.8c7.7-6.3 17.4-13 25.2-20.8v-72.2l-25.2.5z"/><path d="m194.6 556.1h-23.4l.5 77.6 13.1 11 9.8 7.6z"/><path d="m258.3 523-44.7 42c-5.4 5.1-8.5 12.2-8.5 19.6v56.5l51.1-51.1z"/><path d="m571.7 523.2 44.7 42c5.4 5.1 8.5 12.2 8.5 19.6v56.5l-53.7-53.5z"/><path d="m571.7 439.4-7.5-6.8-4.2-3.8-26-23.6-7.9-7.2-22.8-20.6-14-12.7-17.8-16.1-25.2-22.8-17.1-15.5c-4.7-4.3-10.6-6.4-16.6-6.4-5.9 0-11.9 2.1-16.6 6.4l-2.1 1.9-16 14.6-23.8 21.6-20.2 18.3-10.4 9.4-21.2 19.3-9.8 8.9-27.1 24.6-4.6 4.2-1.4 1.2-16.7 15.1-8.3 7.5 8.3 2.8c3.2 1.1 6.9 1.7 10.8 1.7 4 0 7.7-.6 11-1.7l.8-.8v123.6h294.7v-123.9c2.9.8 6 1.2 9.4 1.2 6.4 0 12.1-1.6 16.2-4.2v-3.6zm-85.7 75.9h-142.4v-44.5l4.8.7c46.1 12 90.6 12 135.3-.3l2.3-.3z"/><path d="m580 676.8s-61.8 33.6-157.8 36.5c-94.5 2.9-176.5-36.5-176.5-36.5l5-5c.9-.9 1.8-1.8 2.8-2.6l8.7-7.6c8.9 6.4 24.2 11.4 40.7 11.4 14 0 16.5-5.1 30.5-5.1 26.7 0 25.4 10.2 43.2 11.4 11.4.8 18.1-1 24.1-3.8 6.1-2.8 13.5-7.6 22.9-7.6 21.6 0 19.1 12.7 44.5 11.4 11.6-.6 21.6-10.2 31.8-11.4 24-3 35.5 5.9 63.5-6.4z"/><path d="m522.5 624.7c-14.6 1.1-14.5 7.2-35.5 9.5-25.7 2.9-31.8-15.3-56.5-11.2-9.7 1.8-16.2 5.1-22.6 8.1-6.4 2.9-12.8 5.4-22.4 5.6-20.7.4-27-13.4-48.9-13.7-19.6-.2-16.4 8.7-39.4 11.2-2 .2-3.9.3-5.7.3l-17.7 16.1c6.4 3.3 13.4 5.6 23.4 4.5 23-2.6 19.8-11.5 39.4-11.2 21.9.3 28.2 14.1 48.9 13.7 9.6-.2 16-2.7 22.4-5.6s12.9-6.3 22.6-8.1c24.7-4 30 11.2 56.5 11.2 23.2 0 20.7-11.5 40.3-11.2 10.1.1 13.3-.3 15.7-.5z"/><path d="m237.7 668.5c-.1 0 .1.1 0 0z"/><path d="m273.2 596.7-21.2 19.5-22.5 20.4c-11 10-5.1 25.2 8.1 31.8l14.4-13.1 21.5-19.5 42.9-39.2h-43.2z"/><path d="m598.3 639.4-25.6-23.2-22.3-19.5h-40.2l62.6 55.9 17.7 15.9c12.2-6.1 18-19.9 7.8-29.1z"/><path d="m620.6 672.9c-6.5 4.1-13.3 7.9-20.5 11.6-4 2-8.1 4-12.3 5.9-3.8 1.7-7.7 3.4-11.7 5-47.8 21.4-103.2 33.6-162.1 33.6-58.6 0-113.6-12.1-161.2-33.2-2.1-.9-4.2-1.8-6.3-2.7-3.4-1.5-6.7-3-9.9-4.5-9.5-4.6-18.5-9.5-26.7-14.8-1.3-.8-2.5-1.6-3.8-2.5l-3.2-2.3-.4-.3-7.4-5.4c-3.1-2.2-6.1-4.4-9.1-6.7l-15.3-11.1v28.1c0 4.6 2 8.9 5.6 11.8l.1.1c14.3 11.8 30 22.6 46.9 32.2 53.9 30.5 120 48.4 191.5 48.4 52.1 0 101.3-9.5 145-26.5 27.7-10.7 53.2-24.5 75.8-40.6 7-5 13.6-10.2 20-15.6 3.7-3.1 5.8-7.7 5.8-12.5v-30.3l-18.6 16.1c-2.8 2.5-5.8 4.8-8.9 6.9z"/><path d="m784 506.3c-1.9 6.5-18.4 56.4-20.3 62.9-4.3 14.4-17.5 24.2-32.5 24.2h-17.9l60.7-186.3c3.5-10.9 13.7-18.3 25.1-18.3h8.6c11.5 0 21.6 7.4 25.2 18.3l60.4 186.3h-24.1c-15.1 0-28.5-10-32.6-24.6l-17.2-62.5c-.3 0-.7.1-1 .1-6 1-12.1.7-18-1-.8-.2-1.7-.4-2.8-.5-3-.3-8.1-1.9-13.6 1.4zm28.6-32.6-4.8-18.4c-2.6-9.5-5.6-17.6-6.2-24.5h-.6c-1.4 6.9-3.2 15.1-5.4 24.6l-5.6 19c2.7-.5 5.1-.3 6.7-.1.7.1 1.5.2 2.2.4 2.4.6 4.3 1 7.4 1.1 2.8.1 5-1.2 6.3-2.1zm-23.1 0"/><path d="m1014.6 593.4h-100.3v-204.5h16c17.8 0 32.2 14.4 32.2 32.2v140h21c17.2 0 31.1 13.9 31.1 31.1z"/><path d="m1114.8 421.3h-23.5v52h48.8c0 17.4-14.1 31.5-31.5 31.5h-17.2v51.7c0 20.4-16.5 36.9-36.9 36.9h-11.5v-171.4c0-18.3 14.9-33.2 33.2-33.2h71.2c-.2 18-14.7 32.5-32.6 32.5z"/><path d="m1277.7 593.4v-88.6c-2.7 1.1-6.8 1.8-12.4 1.5-9.5-.6-13.8-5.2-22.5-6-3.7-.3-9.4.1-16.8 4.5v49.3c0 21.7-17.6 39.3-39.3 39.3h-9.2v-204.5c26.8 0 48.4 21.7 48.4 48.4v36c7.2-3.4 13.7-2.6 17.6-2.3 8.5.6 11.7 3.4 21.3 3.9 5.5.3 10-.7 12.9-1.6 0-12 0-24 0-36 0-26.8 21.7-48.5 48.5-48.5v156.2c0 26.7-21.7 48.4-48.5 48.4z"/><path d="m1437.1 593.4h-72.3v-204.5h104.7c0 17.9-14.5 32.4-32.4 32.4h-23.8v52h49.1c0 17.4-14.1 31.5-31.5 31.5h-17.5v56.2h56.2c-.1 17.9-14.6 32.4-32.5 32.4z"/><path d="m1501.9 593.4v-156.4c0-26.6 21.6-48.2 48.2-48.2v156.4c0 26.7-21.6 48.2-48.2 48.2z"/><path d="m1796 593.4c-25.9 0-47.5-19.8-49.7-45.6-1.6-18.5-3.7-42.5-6.2-72.1-.6-7.9-.9-16.3-.9-25h-.6c-.8 4-2.9 12.3-6.2 25l-31.1 106.1c-2 6.9-8.4 11.7-15.6 11.7-7.2 0-13.5-4.7-15.5-11.5-5.2-17.2-15.5-52.6-30.9-106.2-2.4-8.1-4.5-16.5-6.2-25h-.6c.4 8.5.2 16.9-.6 25l-6.9 78.1c-2 22.5-20.8 39.7-43.4 39.7l19-179.3c1.5-14.4 13.7-25.3 28.2-25.3 12.7 0 23.9 8.5 27.3 20.7l26.1 93.8c2.2 7.7 4 15.4 5.4 22.9h.6c.6-3.6 2.5-11.2 5.6-22.9l27.6-94.1c3.5-12.1 14.6-20.4 27.2-20.4 14.5 0 26.6 10.9 28.2 25.3z"/><path d="m934 644.2c0 7.4-2.2 13.3-6.7 17.7-4.9 5.1-12.1 7.6-21.5 7.6-1.7 0-3.4-.1-5.1-.2l-2.5-.2v17.7c0 6.5-5.3 11.8-11.8 11.8h-6.3v-74.8c6.2-3 14.1-4.6 23.8-4.6 10.3 0 18 2.4 23.2 7.3 4.6 4.3 6.9 10.2 6.9 17.7zm-17.7-.1c0-5-1-8.7-2.9-11-2-2.3-5.2-3.5-9.7-3.5-2.3 0-4.2.3-5.5.9v28.1h2.5c5.7.2 9.7-.8 12.1-3.2 2.3-2.3 3.5-6.1 3.5-11.3z"/><path d="m995.1 667.9c0 9.5-2.3 17.1-6.8 22.7-4.9 6.1-11.6 9.1-20.2 9.1s-15.4-3-20.1-9.1c-4.6-5.7-6.9-13.3-6.9-22.7s2.3-17.1 6.8-22.7c4.9-6 11.6-9 20.1-9 8.6 0 15.4 3 20.2 9 4.5 5.6 6.9 13.2 6.9 22.7zm-17.7-.3c0-13.6-3.1-20.5-9.4-20.5s-9.4 6.8-9.4 20.5c0 13.3 3.1 20 9.4 20s9.4-6.6 9.4-20z"/><path d="m1058.3 667.9c0 9.5-2.3 17.1-6.8 22.7-4.9 6.1-11.6 9.1-20.2 9.1s-15.4-3-20.1-9.1c-4.6-5.7-6.9-13.3-6.9-22.7s2.3-17.1 6.8-22.7c4.9-6 11.6-9 20.1-9 8.6 0 15.4 3 20.2 9 4.6 5.6 6.9 13.2 6.9 22.7zm-17.6-.3c0-13.6-3.1-20.5-9.4-20.5s-9.4 6.8-9.4 20.5c0 13.3 3.1 20 9.4 20 6.2 0 9.4-6.6 9.4-20z"/><path d="m1075.8 698.6h-5.9v-77.6c0-6.5 5.3-11.8 11.8-11.8h5.9v77.6c-.1 6.5-5.3 11.8-11.8 11.8z"/><path d="m1152.6 637.3-16.8 53.1c-1.5 4.9-6.1 8.2-11.2 8.2-5.1 0-9.6-3.3-11.2-8.2l-17.1-53.1h9.6c5.4 0 10.1 3.7 11.4 8.9l6.5 26.3c.8 3 1.2 6.1 1.4 9.3h.2c.4-2.7.9-5.8 1.6-9.3l6.7-26.4c1.3-5.2 6-8.9 11.4-8.9h7.5z"/><path d="m1179.4 619.6c0 2.4-.9 4.3-2.7 5.9s-4.1 2.4-6.7 2.4c-2.7 0-4.9-.8-6.7-2.4s-2.7-3.6-2.7-5.9.9-4.2 2.8-5.9c1.9-1.6 4.1-2.4 6.7-2.4s4.8.8 6.7 2.4c1.7 1.7 2.6 3.6 2.6 5.9zm-12.4 79h-5.9v-49.6c0-6.5 5.3-11.8 11.8-11.8h5.9v49.6c-.1 6.5-5.3 11.8-11.8 11.8z"/><path d="m1193 698.6v-71.8c0-9.7 7.9-17.6 17.6-17.6v71.8c0 9.7-7.9 17.6-17.6 17.6z"/><path d="m1225.3 698.6v-71.8c0-9.7 7.9-17.6 17.6-17.6v71.8c0 9.7-7.9 17.6-17.6 17.6z"/><path d="m1304.9 695.1c-5.7 3-13.7 4.6-24 4.6-17.9 0-26.8-6.4-26.8-19.3 0-7.3 3.4-12.7 10.2-16.4 5.4-2.9 13.4-4.8 24-5.8v-2.8c0-5.5-3.6-8.2-10.8-8.2-5.2 0-10.5 1.2-15.9 3.8-2.2-5.9 1.3-12.4 7.5-13.6 3.8-.8 7.7-1.2 11.7-1.2 16.1 0 24.1 7.5 24.1 22.4zm-16.6-6.4v-22.3c-5.9.6-10.2 1.7-12.9 3.4-3.2 2-4.8 5.3-4.8 9.9 0 6.8 3.7 10.2 11.1 10.2 2.8 0 4.9-.4 6.6-1.2z"/><path d="m1406.7 698.6h-7.8c-7.7 0-14.8-4.2-18.5-11l-12.7-23.5v16.4c0 10.1-8.1 18.2-18.2 18.2v-74.8c6.3-3 14.1-4.6 23.5-4.6 10.3 0 18.1 2.2 23.4 6.6 5 4.2 7.5 10.2 7.5 17.9 0 5.1-1.7 9.5-5.2 13.1-3.5 3.7-7.8 5.9-12.9 6.8v.2zm-20.8-54.1c0-5.2-.9-8.9-2.8-11.3s-5.2-3.6-10-3.6c-1.9 0-3.7.3-5.3 1v28.7c.9.3 2.2.5 4 .5 9.3 0 14.1-5.1 14.1-15.3z"/><path d="m1465.4 668.9-36.7 5.2c1.2 9 6.1 13.5 14.8 13.5 6.4 0 11.7-1.1 15.9-3.4 2.4 6.7-2 13.9-9 14.9-2.8.4-5.8.6-8.9.6-9.3 0-16.6-2.9-21.8-8.6s-7.8-13.5-7.8-23.4c0-9.7 2.4-17.4 7.3-23.1s11.6-8.5 20.4-8.5 15.4 2.9 19.8 8.6c4.3 5.7 6.4 13.8 6 24.2zm-16.5-6.6c0-10.5-3.4-15.7-10.1-15.7-3.7 0-6.6 1.6-8.5 4.7-2.1 3.3-3 8.1-2.7 14.2z"/><path d="m1514.2 680.2c0 5.5-2 10.1-6.1 13.6-4.4 3.8-10.1 5.7-17.2 5.7-1.3 0-2.5 0-3.6-.1-7.7-.5-12.7-8.4-9.8-15.6 3 2.4 6.6 3.6 10.9 3.6 2.3 0 4.1-.6 5.5-1.9s2.1-2.9 2.1-4.8c0-3.7-2.6-6.6-7.8-8.7-9.2-3.6-13.8-9.3-13.8-17.1 0-5.3 1.9-9.8 5.7-13.5 3.8-3.6 8.7-5.5 14.8-5.5 1.7 0 3.4.1 5 .3 6.8.8 11 7.9 8.3 14.3-2.6-2.1-5.7-3.2-9.3-3.2-4.7 0-7.1 2.1-7.1 6.4 0 3.4 2.6 6.2 7.8 8.4 5.5 2.4 9.4 5.1 11.7 8.2 1.9 2.7 2.9 6 2.9 9.9z"/><path d="m1577 667.9c0 9.5-2.3 17.1-6.8 22.7-4.9 6.1-11.6 9.1-20.2 9.1s-15.4-3-20.1-9.1c-4.6-5.7-6.9-13.3-6.9-22.7s2.3-17.1 6.8-22.7c4.9-6 11.6-9 20.1-9 8.6 0 15.4 3 20.2 9 4.6 5.6 6.9 13.2 6.9 22.7zm-17.7-.3c0-13.6-3.1-20.5-9.4-20.5s-9.4 6.8-9.4 20.5c0 13.3 3.1 20 9.4 20s9.4-6.6 9.4-20z"/><path d="m1621.1 636.3-3.3 12.5c-2.2-.9-4.4-1.4-6.6-1.4-2 0-3.7.3-5.3 1v32.4c0 9.7-7.9 17.6-17.6 17.6v-57.9c6.2-3 14.7-4.5 25.6-4.5 2.2.1 4.6.2 7.2.3z"/><path d="m1660 697.8c-2.4 1.1-5.3 1.7-8.8 1.7-6.1 0-10.7-1.8-14-5.3-3-3.2-4.4-7.3-4.4-12.4v-33h-6.7v-11.5h6.7v-13l.7-.2c8.6-2.2 17 4.3 17 13.2h9.6v1.9c0 5.3-4.3 9.6-9.6 9.6v31.5c0 4.8 1.9 7.1 5.8 7.1 1.1 0 2.3-.2 3.8-.6v11z"/></g></svg>