<svg enable-background="new 0 0 1920 1080" viewBox="0 0 1920 1080" xmlns="http://www.w3.org/2000/svg"><path d="m1423.8 309.5c-9.7 24.9-17 38.2-43.3 57.7-39.5 29.3-83.7 39.5-132.5 40.8-51.4 1.3-101.5-7-151.3-18.8-49.6-11.8-99.1-17.3-148.6-16.8v-202.2s44.6-70.6 145.1-37.1 174.2 176.4 330.6 176.4z" fill="#ed3226"/><path d="m948.3 171.8v-1.6c-2.2-16.1-28.2-37.1-38.3-43.6 6.2 4 11.4 9.5 15 15.9-8.5-5.5-17.7-10-27.3-13.5 3.8 4.3 7.6 8.5 11.4 12.8-12.6-8.5-27.4-13.8-42.5-15.2 4.5 3.1 8.9 6.2 13.4 9.3-1.1-.1-2.3-.2-3.4-.3-15.7-5.7-32.7-7.7-49.3-5.9 7.8 1.8 15.5 4 23.1 6.7-2 .3-4.1.6-6.2.9-1 .2-2.1.3-3.1.5-23-1.1-46.3 3.2-67.4 12.5 7.2.6 14.3 1.2 21.5 1.7v.5c-24 2.5-47.4 10.2-68.2 22.3 10.6-1.4 21.3-2.2 31.9-2.4-2.7 1.8-5.3 3.6-8 5.5-23.4 6.4-43.4 10.7-59.9 28.5 7.4-5.4 15.6-2.6 23.3-2.5-.3.2-.5.4-.8.6-12.5 9-27.2 14.5-42.5 16.6-1.1.1-2.1.3-3.2.5-.3.1-.7.2-.9.5-.2.5.4.9.8 1.1 4 1.7 8.4 2.4 12.7 1.9-4.7 3.7-11 5-17 5.3s-12.1-.3-18.1.2c4.1 4.4 10 6.9 15.9 7-1.4.9-2.9 1.8-4.3 2.6 0 0 0 0-.1 0-3.8.2-7.5-.6-11.1-1.2-5.1-.9-10.1-1.5-15.3-1.8v.1c2.9 5 7.6 9.1 13 10.9-1.7.1-3.5.3-5.2.4-7.6-.8-15.2-2.4-22.3-4.9 1.6 3.5 5.1 5.9 8.9 6.2-7.3.3-14.6-.4-21.7-2 .8.7 1.7 1.4 2.6 2-.5 1.5-.5 1.5-.9 3-4.5.1-9 .1-13.4 0 .9.6 1.9 1.2 2.9 1.6-.8.1-1.7.3-2.5.4-1.5-.3-2.9-.6-4.4-1 .4.5.8 1.1 1.2 1.6-1.2.2-2.4.4-3.6.6.6.2 1.3.5 1.9.7-.8-.2-1.6-.4-2.4-.6.2 0 .3-.1.5-.1-3.3-1.2-6.6-2.4-9.9-3.5 1.6 2.7 4.4 4.6 7.5 5.1-.6.2-1.1.2-1.7.2-2.4-.5-4.9-1.1-7.3-1.6-.8-.3-1.6-.7-2.3-1.1-5.3-2.7-10.4-5.9-15.4-9 .1 1.2.5 2.4 1 3.5-1.5 1.2-1.4 1.1-2.9 2.3-4.2-2.9-7.6-7.2-10.5-11.5-.4 2.5.1 5.1 1.4 7.2-1.7-1-3.5-1.9-5.3-2.8-.7-.6-1.3-1.2-2-1.9-2.8-3-4.9-6.7-5.4-10.7-1.4 1.9-1.8 4.3-1.3 6.5-1 .6-.9.6-2 1.2-3.4-3.4-5.9-7.7-7-12.4-.4 1.5-.5 3.1-.3 4.7 0 .2.1.5.1.7.1.4.2.8.3 1.2-.5-.9-.9-1.9-1.2-2.8-.8-2.1-1.2-4.3-1.4-6.6-.1-.2-.1-.3-.1-.5-.1.1-.2.2-.2.3.1-.2.1-.4.2-.6-.2-2.2-.1-4.4.4-6.6-.9 2.3-1.8 4.7-2.1 7.1-1.1-3.8-1.5-7.8-1.1-11.8-1.1 1-1.9 2.2-2.4 3.7-.4-5.6.9-11.3 3.5-16.3-1.8.8-3.3 2.4-3.9 4.3-.2-4.2 1.1-8.5 3.6-11.8-1.8 1.6-3.1 3.6-3.8 5.9.5-4.6 1.1-9.2 3.7-13.1-1.1.9-2.1 1.8-3.1 2.8.4-.9.8-1.7 1.2-2.5 3.2-6.1 7.9-11.1 14-15.3-10.5 0-19.9 2.6-28.4 7.7-28.7 17.1-40.7 43.9-41.8 75.9s10.7 59.8 32 83.1c38.6 42.2 87.9 63.3 143.9 69.6 54.4 6.1 108.2.9 160.9-13.1 50.7-13.3 101.5-20.4 152.3-20.9v-200.9"/><g fill="#ed3226"><path d="m843.8 714.7-9.3-10.3c-12.1 12.5-25.8 18.7-41 18.7-19.3 0-32.5-5-39.6-14.9-1.4-2.1-2.8-3.9-4-5.5s-2.2-4-3-7.3-1.2-7.4-1.2-12.3v-.2c0-8.8 1.7-16 5.2-21.6 3.4-5.6 8.9-11.3 16.4-17 3.2-2.2 7-4.6 11.3-7.2-3.8-4.3-7.2-9.7-10.1-16.2s-4.3-12.7-4.3-18.8c0-10.1 3.6-17.8 10.8-23.3 7.2-5.4 14.6-8.2 22.3-8.2 10.6 0 19 2.2 25.3 6.5s9.5 11 9.5 19.9c0 7.5-2.6 14-7.8 19.4s-13.7 11.7-25.5 18.7c10.4 14.1 24.5 31.6 42.2 52.5 3-4 5.1-7.8 6.1-11.5s1.6-8.5 1.6-14.4c0-2.9-1-5.8-3.1-8.6-3-4.3-7.5-6.4-13.4-6.2l-.7-3.8h46.8l-.2 4.6c-8.3 0-13.4.9-15.3 2.6-2.7 2.7-4.1 6.7-4.1 12 0 4.6-1.6 10-4.7 16.1s-6 10.6-8.5 13.7l6 7.4c.6 1.1 1.7 2.5 3.1 4.1s2.9 3.1 4.3 4.6c1.4 1.4 3.1 2.7 5 3.7s3.8 1.6 5.8 1.6c5 0 8.2-1.4 9.8-4.3s2.4-7.2 2.4-12.9l4.8.7c0 17.6-6.5 26.3-19.4 26.1-11.1-.3-18.8-3-23.5-8.4zm-42.4-1.7c6.2 0 11.3-.8 15.1-2.5s8.5-5 13.9-9.9c-8.2-10.1-17.9-22.1-29.4-36.1-11.4-14-17.2-21-17.4-21-5.1 2.4-9.2 5.7-12.1 9.8-3 4.2-4.9 7.8-5.8 11s-1.3 6.3-1.3 9.4c0 7.4 2.8 15 8.4 23 7.9 10.9 17.4 16.3 28.6 16.3zm-7.4-83.9c9.4-5 15.6-9 18.5-12.1s4.3-8.8 4.3-17.1c0-7.4-1.7-13.1-5-17.4-3.4-4.2-8-6.4-13.9-6.4-5.4 0-9.8 2.5-13.2 7.6-3.4 5-5 11.1-5 18.1-.1 7.2 4.7 16.3 14.3 27.3z"/><path d="m1012.5 526.5h-20.3v108.5h71.2v-108.8h-20.3v-6h101.3v6h-20.4v242.5h20.3v6h-101.3v-6h20.3v-125.4h-71.2v125.4h20.3v6h-101.2v-6h20.3v-242.2h-20.3v-6h101.3z"/><path d="m1302.4 682.5c-1.3-12.8-4.5-22.3-9.6-28.6-5.2-6.3-12.5-9.4-22-9.4h-23v124.3h35.8c12.1 0 21.8-1.8 29.2-5.3s13.4-8.3 17.9-14.3 7.9-13.1 10.2-21.3 4.4-16.9 6.4-26.2c.8-4 2.4-6 4.9-6s3.8 2 3.8 6v61.8c0 3.5-.7 6.3-2.1 8.3s-4.1 3-8.1 3h-178.9v-6h20.3v-242.3h-20.3v-6h163.4c3.8 0 6.7.8 8.7 2.3s3.1 4.3 3.4 8.3l3 54.6c0 3.3-1.3 4.9-3.8 4.9s-3.8-1.6-3.8-4.9c-.5-7-2.1-14.1-4.7-21.1s-6.5-13.4-11.7-19c-5.1-5.6-11.4-10.2-18.8-13.7s-16-5.3-25.8-5.3h-29v111.9h23c9.5 0 16.9-3.2 22-9.6s8.3-15.9 9.6-28.4c.2-4.5 1.5-6.8 3.8-6.8 2.5 0 3.8 2.3 3.8 6.8v82.1c0 4.5-1.3 6.8-3.8 6.8-2.3-.2-3.6-2.4-3.8-6.9z"/><path d="m1585.8 753.1c1.6 5.4 5.5 8.1 11.5 8.1 3 0 6.4-1.4 10.2-4.3s7.8-7.8 12.1-14.9c1.8-3.3 3.3-4.9 4.5-4.9 1.3 0 1.9.8 1.9 2.3 0 .8-.1 1.5-.4 2.3s-.6 1.6-1.1 2.6c-5.8 12.8-13.6 22-23.3 27.5-9.8 5.5-20 8.3-30.5 8.3-7.3 0-13.9-.9-20-2.8-6-1.9-11.2-5-15.4-9.4-4.3-4.4-7.6-10.2-10-17.5s-3.6-16.2-3.6-26.7v-25.2c0-10.5-.8-19.1-2.3-25.8s-3.7-11.8-6.6-15.4-6.4-6.1-10.5-7.5-8.9-2.1-14.1-2.1h-19.2v121.3h20.3v6h-101.3v-6h20.3v-242.5h-20.3v-6h116.7c25.9 0 46.1 5.3 60.6 16 14.6 10.7 21.8 27.1 21.8 49.1 0 10.5-1.9 19.4-5.8 26.6s-8.8 13-14.7 17.5-12.5 8-19.8 10.4-14.3 4.2-21.1 5.5c19.6 2.3 34.1 8.7 43.5 19.2s14.1 22.9 14.1 36.9v31.3c0 8 .8 14.7 2.5 20.1zm-87.8-113.4c5.4-1.1 10.3-3.6 14.7-7.5s8-9.5 10.9-16.9 4.3-17.4 4.3-29.9c0-13.3-1.4-23.8-4.3-31.6s-6.5-13.7-10.9-17.7-9.3-6.6-14.7-7.7-10.5-1.7-15.3-1.7h-13.9v114.9h13.9c4.8-.2 9.9-.8 15.3-1.9z"/><path d="m257.1 780v-264.1h62v101.4h43v-101.4h62v264.1h-62v-109.9h-43v109.9z"/><path d="m463.5 780v-264.1h62v264.1z"/><path d="m613.5 691.6v18.7c0 15.1 4.9 28.5 24.6 28.5 14.4 0 20.8-13 20.8-26.4 0-22.2-18.3-30.6-34.5-40.5-19-10.9-35.2-21.1-46.8-34.5-11.3-13.4-18-29.6-18-52.8 0-49.6 29.9-75 77.8-75 53.9 0 81.3 35.9 78.5 85.6h-57c-.7-15.5 0-36.6-20.4-38-12.7-1.1-20.1 6-21.5 17.6-1.8 15.8 6.3 23.9 18.7 32.4 23.2 14.8 43.3 23.9 57.7 37.3s22.9 31 22.9 63c0 50.7-28.2 78.9-79.6 78.9-56.7 0-80.6-31.7-80.6-66.5v-28.2h57.4z"/></g><g fill="#4d4e4e"><path d="m287.5 896.6v-5.5h29v35h-5.5v-11.6c-4.7 8.1-12 13.4-25.3 13.4-17.1 0-29.7-12-29.7-36.1 0-19.9 10-35.3 31.4-35.3 14.2 0 25.4 7 28.3 21.5h-6.6c-2.3-10.2-11.2-16-21.3-16-17.9 0-25.4 13.2-25.4 32.4 0 15 9 28.1 24.6 28.1 7.3 0 16-3.1 20.4-11.9 2.2-4.2 2.8-8.9 2.9-14z"/><path d="m353 926.2v-67.8h6.4v67.8z"/><path d="m395.1 926.2v-67.8h43.7v5.5h-37.3v24.5h33.9v5.5h-33.9v32.4h-6.4z"/><path d="m460.8 858.4h49.3v5.5h-21.5v62.3h-6.4v-62.3h-21.5v-5.5z"/><path d="m585.8 906c1 12.1 9.1 16.6 19.5 16.6 12.1 0 17.2-6.6 17.2-14 0-21-41.3-7.1-41.3-33.7 0-9.4 7.8-18.2 23-18.2 15.3 0 22.9 9.2 22.8 20.2h-6.1c0-10.4-8-14.8-16.7-14.8-13 0-17.7 8-16.6 15 2.9 17.5 41.3 4.9 41.3 31.2 0 12.4-9.1 19.8-24.8 19.8-14.1 0-24.6-7.3-24.6-22h6.3z"/><path d="m659.4 926.2v-67.8h6.4v29.1h40.1v-29.1h6.4v67.8h-6.4v-33.2h-40.1v33.2z"/><path d="m774.9 856.6c21.2 0 31.9 15.9 31.9 35.8 0 19.5-10.7 35.6-31.6 35.6s-31.5-16.1-31.5-35.6c-.2-19.8 10.9-35.8 31.2-35.8zm25.5 35.8c0-18.8-9.7-30.3-25.3-30.3-17.4 0-25 14.6-25 30.3 0 16 7.5 30.1 25.2 30.1 17.6 0 25.1-14.3 25.1-30.1z"/><path d="m838 926.2v-67.8h24.8c17.6 0 22.1 8.8 22.1 18.9 0 15.2-13.5 18.9-26 18.9h-14.5v29.9h-6.4zm21.1-35.4c12 0 19.4-2.4 19.4-13.9 0-8.5-5.5-13-17.5-13h-16.6v26.9z"/><path d="m998 908.7c2.4-4 2.8-8.6 2.8-13.2h5.6c-.3 6.1-1.3 12.4-4.7 17.7l11 13h-7.6l-6.6-8c-5.8 7.1-12.3 9.8-21.4 9.8-11.8 0-21.2-8-21.2-20.1 0-10.2 7.5-16.9 16.2-21-3.7-4.2-7.2-9.2-7.2-15.2 0-8.6 7-13.3 15.3-13.3 8.4 0 14.2 5.9 14.2 13.1 0 9-6.3 12.8-13.4 17zm-22.5-17.8c-7.4 3.5-13.2 10.1-13.2 17.4 0 8.9 6.6 14.6 15.3 14.6 7.2 0 12.7-3.7 17.2-9zm4.1-27.4c-4.7 0-9 3.1-9 8.1 0 4 4.6 9.8 7.1 12.7 3.8-2.3 8.1-4.7 10-8.9 2.2-5.1-1-11.9-8.1-11.9z"/><path d="m1085.6 926.2v-67.8h43.7v5.5h-37.3v24.5h33.9v5.5h-33.9v32.4h-6.4z"/><path d="m1157.5 926.2v-67.8h6.4v62.3h36.3v5.5z"/><path d="m1257.2 856.6c21.2 0 31.9 15.9 31.9 35.8 0 19.5-10.7 35.6-31.6 35.6s-31.5-16.1-31.5-35.6c-.1-19.8 11-35.8 31.2-35.8zm25.6 35.8c0-18.8-9.7-30.3-25.3-30.3-17.4 0-25 14.6-25 30.3 0 16 7.5 30.1 25.2 30.1 17.5 0 25.1-14.3 25.1-30.1z"/><path d="m1373.9 917.2h.2l14.8-58.7h6.6l-17.8 67.8h-7.1l-15.7-59.9h-.2l-15.7 59.9h-7.1l-17.5-67.8h6.4l14.6 58.7h.2l15.7-58.7h7.2z"/><path d="m1423.2 926.2v-67.8h45.1v5.5h-38.7v24.5h34.9v5.5h-34.9v26.9h39.6v5.5h-46z"/><path d="m1505.9 895.4v30.8h-6.4v-67.8h26.6c14.9 0 23.1 5.3 23.1 17.8 0 8.6-3.2 13.1-11 16.6 8 2.7 8.5 11.2 8.7 18.4.3 10.3 1.1 13.1 2.8 14.4v.7h-7.1c-2.6-4.6-2-17.3-3-22.5-1.5-7.3-7.1-8.3-13.5-8.3h-20.2zm19.9-5.4c9.5 0 16.9-4 16.9-13.5 0-10.2-7.9-12.6-16.5-12.6h-20.3v26.1z"/><path d="m1583.8 906c1 12.1 9.1 16.6 19.5 16.6 12.1 0 17.2-6.6 17.2-14 0-21-41.3-7.1-41.3-33.7 0-9.4 7.8-18.2 23-18.2 15.3 0 22.9 9.2 22.8 20.2h-6.1c0-10.4-8-14.8-16.7-14.8-13 0-17.7 8-16.6 15 2.9 17.5 41.3 4.9 41.3 31.2 0 12.4-9.1 19.8-24.8 19.8-14.1 0-24.6-7.3-24.6-22h6.3z"/></g><path d="m744.2 750.9h140.1v24.2h-140.1z" fill="#ed3226"/><path d="m746.5 520.6h140.1v24.2h-140.1z" fill="#ed3226"/></svg>