<svg viewBox="0 0 1712.1 729.7" xmlns="http://www.w3.org/2000/svg"><g fill="#13a828" transform="translate(-103.9 -175.3)"><path d="m1131.8 225.7h-63.5v163.9h-52.4v-163.9h-63.5v-39.3h179.3v39.3z"/><path d="m1303.3 389.6h-49.3v-76a163.82 163.82 0 0 0 -1-18.5c-.6-6.1-1.7-10.7-3.3-13.6a16.45 16.45 0 0 0 -8-7.4c-3.5-1.5-8.4-2.3-14.7-2.3a43.45 43.45 0 0 0 -13.6 2.2 72.75 72.75 0 0 0 -14.9 7v108.6h-49.3v-212.4h49.3v76a124.78 124.78 0 0 1 25.1-15.7 64.84 64.84 0 0 1 26.8-5.5c16.5 0 29.5 4.8 38.8 14.5s14 24.1 14 43.3v99.8z"/><path d="m1488.2 322h-112.4c.7 12 5.3 21.2 13.7 27.6s20.8 9.6 37.2 9.6a84.62 84.62 0 0 0 30.2-5.6q14.55-5.55 23.1-12h5.5v39.4a179.58 179.58 0 0 1 -31.4 9.7 163.67 163.67 0 0 1 -32.6 3c-30.8 0-54.3-6.9-70.7-20.7s-24.6-33.5-24.6-59.1q0-37.95 23.3-60.1t63.8-22.2c24.9 0 43.7 6.3 56.2 18.9s18.8 30.7 18.8 54.4v17.1zm-48.8-28.8c-.3-10.3-2.8-18-7.6-23.2s-12.3-7.8-22.5-7.8c-9.5 0-17.2 2.5-23.3 7.4s-9.5 12.8-10.2 23.6z"/><path d="m1152.5 633a282.74 282.74 0 0 1 -36.2 10.6 197.33 197.33 0 0 1 -44.9 5.3c-34.6 0-61.6-9.4-81.2-28.2s-29.3-44.7-29.3-77.8q0-47.4 29.6-76.3c19.7-19.3 47.3-29 82.6-29a195.79 195.79 0 0 1 38.2 3.6c12.1 2.4 25.6 7.2 40.4 14.4v47.6h-5.9c-2.5-1.9-6.3-4.6-11.2-8.1a121.12 121.12 0 0 0 -14.2-8.9 93.72 93.72 0 0 0 -18.5-7.5 78.23 78.23 0 0 0 -22.4-3.1 74 74 0 0 0 -25.2 4.1 56.72 56.72 0 0 0 -20.3 12.6 57.86 57.86 0 0 0 -13.6 20.8c-3.3 8.4-5 18.1-5 29.1q0 33.75 17.9 51.6t52.8 17.9c2 0 4.2 0 6.6-.1s4.6-.2 6.6-.4v-40.2h-40.5v-38.3h93.7z"/><path d="m1296.6 538.2h-4.4a42.16 42.16 0 0 0 -10.1-1.6c-4.6-.4-8.5-.5-11.6-.5a99 99 0 0 0 -35.8 6v102.6h-49.3v-153.4h49.3v22.5c10.8-9.3 20.2-15.4 28.2-18.5s15.3-4.6 22.1-4.6c1.7 0 3.7 0 5.9.1s4.1.2 5.7.4z"/><path d="m1464.2 577h-112.4c.7 12 5.3 21.2 13.7 27.6s20.8 9.6 37.2 9.6a84.62 84.62 0 0 0 30.2-5.6q14.55-5.55 23.1-12h5.5v39.4a179.58 179.58 0 0 1 -31.4 9.7 163.67 163.67 0 0 1 -32.6 3c-30.8 0-54.3-6.9-70.7-20.7s-24.6-33.5-24.6-59.1q0-37.95 23.3-60.1t63.8-22.2c24.9 0 43.7 6.3 56.2 18.9s18.8 30.7 18.8 54.4v17.1zm-48.9-28.7c-.3-10.3-2.8-18-7.6-23.2s-12.3-7.8-22.5-7.8c-9.5 0-17.2 2.5-23.3 7.4s-9.5 12.8-10.2 23.6z"/><path d="m1638.6 577h-112.4c.7 12 5.3 21.2 13.7 27.6s20.8 9.6 37.2 9.6a84.62 84.62 0 0 0 30.2-5.6q14.55-5.55 23.1-12h5.5v39.4a179.58 179.58 0 0 1 -31.4 9.7 163.67 163.67 0 0 1 -32.6 3c-30.8 0-54.3-6.9-70.7-20.7s-24.6-33.5-24.6-59.1q0-37.95 23.3-60.1t63.8-22.2c24.9 0 43.7 6.3 56.2 18.9s18.8 30.7 18.8 54.4v17.1zm-48.9-28.7c-.3-10.3-2.8-18-7.6-23.2s-12.3-7.8-22.5-7.8c-9.5 0-17.2 2.5-23.3 7.4s-9.5 12.8-10.2 23.6z"/><path d="m1816 644.6h-49.3v-76a163.82 163.82 0 0 0 -1-18.5c-.6-6.1-1.7-10.7-3.3-13.6a16.45 16.45 0 0 0 -8-7.4c-3.5-1.5-8.4-2.3-14.7-2.3a43.45 43.45 0 0 0 -13.6 2.2 72.75 72.75 0 0 0 -14.9 7v108.6h-49.3v-153.3h49.3v16.9a124.78 124.78 0 0 1 25.1-15.7 64.84 64.84 0 0 1 26.8-5.5c16.5 0 29.5 4.8 38.8 14.5s14 24.1 14 43.3v99.8z"/><path d="m1131.8 735.7h-63.5v163.9h-52.4v-163.9h-63.5v-39.3h179.3v39.3z"/><path d="m1242.2 883.4c-2.6 2-5.9 4.4-9.8 7.2a76.16 76.16 0 0 1 -11.1 6.7 65.61 65.61 0 0 1 -15 4.8 90.37 90.37 0 0 1 -17.1 1.6c-14.6 0-26.7-4.5-36.6-13.5s-14.7-20.5-14.7-34.5c0-11.2 2.5-20.3 7.5-27.4s12.1-12.7 21.3-16.8 20.4-7 33.8-8.7 27.4-3 41.9-3.8v-.8c0-8.5-3.5-14.3-10.4-17.5s-17.1-4.8-30.6-4.8a86 86 0 0 0 -25.9 4.3q-13.8 4.35-19.8 6.6h-4.5v-37c5.2-1.4 13.6-3 25.3-4.8a218.56 218.56 0 0 1 35.1-2.8q41.85 0 60.5 12.9t18.6 40.5v104.3h-48.7v-16.5zm0-23.9v-31.8c-6.6.5-13.8 1.3-21.6 2.2a119.08 119.08 0 0 0 -17.6 3.3 24.52 24.52 0 0 0 -11.3 6.7c-2.6 2.9-3.9 6.8-3.9 11.6a32.79 32.79 0 0 0 .8 7.8 11.18 11.18 0 0 0 4.1 5.7 19.36 19.36 0 0 0 7.5 4c2.9.9 7.5 1.3 13.6 1.3a40 40 0 0 0 14.9-3 43.84 43.84 0 0 0 13.5-7.8z"/><path d="m1484.8 820.9c0 24.1-6.7 43.8-20 58.9s-29.9 22.8-49.8 22.8a84.61 84.61 0 0 1 -22.5-2.7 76.86 76.86 0 0 1 -18.4-7.9l-2.1 7.6h-47.2v-212.3h49.3v75.1a115.69 115.69 0 0 1 23.1-14.6c7.9-3.7 16.9-5.6 27.2-5.6q29.1 0 44.7 20.9 15.75 20.85 15.7 57.8zm-50.6 1q0-20.4-6.9-31.5c-4.6-7.4-12.9-11-24.8-11a52.12 52.12 0 0 0 -14.3 2.1 56.13 56.13 0 0 0 -14 6.1v76.8a51.87 51.87 0 0 0 10.1 2.6 75.6 75.6 0 0 0 11.4.7c13 0 22.6-3.8 29-11.4s9.5-19.1 9.5-34.4z"/><path d="m1558.4 899.6h-49.3v-212.3h49.3z"/><path d="m1744.4 832.1h-112.4c.7 12 5.3 21.2 13.7 27.6s20.8 9.6 37.2 9.6a84.62 84.62 0 0 0 30.2-5.6q14.55-5.55 23.1-12h5.5v39.3a179.58 179.58 0 0 1 -31.4 9.7 163.67 163.67 0 0 1 -32.6 3c-30.8 0-54.3-6.9-70.7-20.7s-24.6-33.5-24.6-59.1q0-37.95 23.3-60.1t63.8-22.2c24.9 0 43.7 6.3 56.2 18.9s18.8 30.7 18.8 54.4v17.2zm-48.9-28.8c-.3-10.3-2.8-18-7.6-23.2s-12.3-7.8-22.5-7.8c-9.5 0-17.2 2.5-23.3 7.4s-9.5 12.8-10.2 23.6z"/><path d="m832 190.1v164h-224.7l-146.7-82-148.6 81.7v.3h-206.1v-164a14.77 14.77 0 0 1 14.8-14.8h696.4a14.85 14.85 0 0 1 14.9 14.8z"/><path d="m282.7 726.5v-325.8h-178.8v66.1h.2v421.6a16.58 16.58 0 0 0 16.7 16.6h436.4v-178.7c-.1 0-274.7 0-274.5.2z"/><path d="m267.5 400.7h-148c.4 0 .9-.1 1.3-.1h145.4a5.7 5.7 0 0 1 1.3.1z"/><path d="m831.5 471.1v417.3a16.56 16.56 0 0 1 -16.6 16.6h-162.1v-279l-220.7-.7v-170.8h382.7a9.7 9.7 0 0 1 1.7.1h14.9v15.7a2.2 2.2 0 0 1 .1.8z"/></g></svg>