<svg enable-background="new 0 0 1920 1080" viewBox="0 0 1920 1080" xmlns="http://www.w3.org/2000/svg"><path d="m816.4 308.5c-3.4-15-12.7-20.8-27.8-20.8-21.3 0-30.5 18.2-30.5 39 0 19.7 7.2 39.5 31.2 39.5 15.2 0 24.6-10.2 27.9-24.2h8.6c-3.9 17-14.6 31.3-38.1 31.3-27.2 0-38-21.4-38-46.3 0-33.6 17.7-46.3 41-46.3 18.1 0 31.3 9.6 34.2 27.9z"/><path d="m835.7 339.4c0-18.4 9.8-33.4 29.4-33.4 19.9 0 29.4 14.8 29.4 33.4 0 20-11.7 33.4-29.4 33.4-16.2-.3-29.4-11.3-29.4-33.4zm29.4-26.8c-15.4 0-21.5 13.1-21.5 26.8 0 15.8 7.5 26.8 21.5 26.8 15.4 0 21.5-13.2 21.5-26.8-.2-15-6-26.8-21.5-26.8z"/><path d="m913 371h-7.3v-63.4h7.3v9.5h.3c3.8-7.2 11.4-11.3 19.6-11.3 11.7 0 15.9 5.5 18.6 12.3 4.1-8.2 11.7-12.3 20.7-12.3 17.2 0 19.7 12.4 19.7 25.1v40h-7.3v-43.7c0-9.1-3.2-14.7-13.6-14.7-5.4 0-10.7 2.3-14.3 7.2-3.2 4.1-4.1 11.8-4.1 17.1v34.2h-7.3v-43.9c0-9.1-3.2-14.7-13.6-14.7-5.4 0-10.7 2.3-14.3 7.2-3.2 4.1-4.1 11.8-4.1 17.1z"/><path d="m1013.7 371h-7.3v-63.4h7.3v9.5h.3c3.8-7.2 11.4-11.3 19.6-11.3 11.7 0 15.9 5.5 18.6 12.3 4.1-8.2 11.7-12.3 20.7-12.3 17.2 0 19.7 12.4 19.7 25.1v40h-7.3v-43.7c0-9.1-3.2-14.7-13.6-14.7-5.4 0-10.7 2.3-14.3 7.2-3.2 4.1-4.1 11.8-4.1 17.1v34.2h-7.3v-43.9c0-9.1-3.2-14.7-13.6-14.7-5.4 0-10.7 2.3-14.3 7.2-3.2 4.1-4.1 11.8-4.1 17.1z"/><path d="m1151 307.7h7.3v63.4h-7.3v-8.8c-3.9 4.4-9.3 10.5-20.4 10.5-16.9 0-22.5-10.2-22.5-23.4v-41.7h7.3v41.7c0 10.9 4.8 16.9 16.2 16.9 12.1 0 19.3-10.1 19.3-24z"/><path d="m1182.2 371h-7.3v-63.4h7.3v8.8c5.9-6.3 11.7-10.5 20.4-10.5 7.7 0 14.8 2.5 19.3 9.1 3.1 4.5 3.2 9.3 3.2 14.6v41.5h-7.3v-41.3c0-11.4-4.7-17.1-16.4-17.1-9.1 0-15.3 5.9-17.7 12.4-1.5 4.1-1.6 7.6-1.6 12z"/><path d="m1242.4 293.9v-10.9h8v10.9zm.4 77.1v-63.4h7.3v63.4z"/><path d="m1289.8 371.3c-1.7.4-4.9 1.5-8.5 1.5-7.2 0-11.2-3.2-11.2-12.6v-46.3h-8.9v-6.1h8.9v-17.7h7.3v17.7h11.8v6.1h-11.8v43.4c0 6.3.3 8.9 6.4 8.9 1.9 0 4.1-.4 6-.9z"/><path d="m1301.1 293.9v-10.9h8v10.9zm.4 77.1v-63.4h7.3v63.4z"/><path d="m1330.8 341.1c-.1 13.7 7.2 25.1 21.3 25.1 9.5 0 17-5.3 19.2-14.6h8.2c-3.7 12-11.2 21.2-27.4 21.2-20.3 0-29.1-14.5-29.1-33.2 0-18.4 11-33.6 29.1-33.6 17.4 0 28 12.4 27.9 35.1zm41.4-6.2c0-12.4-6.9-22.4-20-22.4-13 0-19.9 10.4-21.3 22.4z"/><path d="m1397.4 351.3c2.3 10.9 7.9 14.9 19 14.9 10.7 0 15.6-5.6 15.6-11.7 0-18.4-40.6-5.4-40.6-30.4 0-10.5 8.2-18.1 22.2-18.1 13.7 0 22.6 5.6 24.4 19.9h-7.5c-1.3-9.8-7.9-13.3-17.1-13.3-9.3 0-14.3 4.4-14.3 10.9 0 17.2 40.6 6.4 40.6 30.8 0 12.1-10.9 18.4-25.8 18.4s-23.5-9.5-24.1-21.5z"/><path d="m746.4 460.6v-6.1h9.4v-10c0-10.1 3.7-16.4 13.4-16.4 2.2 0 4.1.1 6.1.5v6.7c-1.5-.4-3.1-.6-4.4-.6-7.6 0-7.9 6.3-7.9 12v7.9h12.3v6.1h-12.2v57.3h-7.3v-57.3h-9.4z"/><path d="m781.4 486.2c0-18.4 9.8-33.4 29.4-33.4 19.9 0 29.4 14.8 29.4 33.4 0 20-11.7 33.4-29.4 33.4-16.2-.3-29.4-11.2-29.4-33.4zm29.3-26.8c-15.4 0-21.5 13.1-21.5 26.8 0 15.8 7.5 26.8 21.5 26.8 15.4 0 21.5-13.2 21.5-26.8 0-14.9-6-26.8-21.5-26.8z"/><path d="m860 517.9h-7.3v-63.4h7.3v11.8h.3c4.1-10.2 10.1-13.6 20.7-13.6v7.9c-16.5-.4-20.9 11.8-20.9 26z"/><path d="m917.7 517.9 34.6-88.1h9.4l33.8 88.1h-8.6l-10.2-27.6h-40.2l-10.4 27.6zm21.8-34.8h34.5l-17.2-46.3z"/><path d="m1006.1 517.9v-88.1h7.3v88.1z"/><path d="m1053.3 518.1c-1.7.4-4.9 1.5-8.5 1.5-7.2 0-11.2-3.2-11.2-12.6v-46.3h-8.9v-6.2h8.9v-17.7h7.3v17.7h11.8v6.1h-11.8v43.4c0 6.3.3 8.9 6.4 8.9 1.9 0 4.1-.4 6-.9z"/><path d="m1068.3 487.9c-.1 13.7 7.2 25.1 21.3 25.1 9.5 0 17-5.3 19.2-14.6h8.2c-3.7 12-11.2 21.2-27.4 21.2-20.3 0-29.1-14.5-29.1-33.2 0-18.4 11-33.6 29.1-33.6 17.4 0 28 12.4 27.9 35.1zm41.4-6.1c0-12.4-6.9-22.4-20-22.4-13 0-19.9 10.4-21.3 22.4z"/><path d="m1138.3 517.9h-7.3v-63.4h7.3v11.8h.3c4.1-10.2 10.1-13.6 20.7-13.6v7.9c-16.5-.4-20.9 11.8-20.9 26z"/><path d="m1179.6 517.9h-7.3v-63.4h7.3v8.8c5.9-6.3 11.7-10.5 20.4-10.5 7.7 0 14.8 2.5 19.3 9.1 3.1 4.5 3.2 9.3 3.2 14.6v41.5h-7.3v-41.3c0-11.4-4.7-17.1-16.4-17.1-9.1 0-15.3 5.9-17.7 12.4-1.5 4.1-1.6 7.6-1.6 12z"/><path d="m1268.2 480.9c2.6-.3 7.2-1 9.7-2.1s2.6-4.4 2.6-6.6c0-7.5-4.4-12.9-15.8-12.9-10.2 0-17.1 3.3-18.4 14.3h-7.5c1.1-14.9 12.3-20.9 26-20.9 12.9 0 23 5 23 19.7v34.5c0 5.7 1.5 7.1 7.7 4.9v5.7c-1.1.4-3.7 1.2-5.7 1.2-1.2 0-2.2-.1-3.3-.4-4.9-.7-5.7-5-5.8-9.4-6.1 6.9-14.5 10.5-23.6 10.5-11.1 0-21.2-6-21.2-18.2 0-10.7 7.3-17.1 22.2-19.1zm12.3 3.7c-6.3 2.6-12.6 3.1-19 3.5-11.1.9-17.8 4.9-17.8 13.4 0 7.7 6.7 11.4 13.7 11.4 11.7 0 23.1-5.6 23.1-18.4z"/><path d="m1328.1 518.1c-1.7.4-4.9 1.5-8.5 1.5-7.2 0-11.2-3.2-11.2-12.6v-46.3h-8.9v-6.2h8.9v-17.7h7.3v17.7h11.8v6.1h-11.8v43.4c0 6.3.3 8.9 6.4 8.9 1.9 0 4.1-.4 6-.9z"/><path d="m1339.4 440.7v-10.9h8v10.9zm.4 77.2v-63.4h7.3v63.4z"/><path d="m1357.9 454.5h7.9l20.6 54.3 20.6-54.3h7.9l-24.6 63.4h-8.2z"/><path d="m1429.1 487.9c-.1 13.7 7.2 25.1 21.3 25.1 9.5 0 17-5.3 19.2-14.6h8.2c-3.7 12-11.2 21.2-27.4 21.2-20.3 0-29.1-14.5-29.1-33.2 0-18.4 11-33.6 29.1-33.6 17.4 0 28 12.4 27.9 35.1zm41.3-6.1c0-12.4-6.9-22.4-20-22.4-13 0-19.9 10.4-21.3 22.4z"/><path d="m753 664.7v-88.1h56.8v7.1h-48.5v31.8h44v7.1h-44v42.1z"/><path d="m815.4 633c0-18.4 9.8-33.4 29.4-33.4 19.9 0 29.4 14.8 29.4 33.4 0 20-11.7 33.4-29.4 33.4-16.2-.2-29.4-11.2-29.4-33.4zm29.4-26.8c-15.4 0-21.5 13.1-21.5 26.8 0 15.8 7.5 26.8 21.5 26.8 15.4 0 21.5-13.2 21.5-26.8-.2-14.9-6-26.8-21.5-26.8z"/><path d="m882.2 633c0-18.4 9.8-33.4 29.4-33.4 19.9 0 29.4 14.8 29.4 33.4 0 20-11.7 33.4-29.4 33.4-16.2-.2-29.4-11.2-29.4-33.4zm29.4-26.8c-15.4 0-21.5 13.1-21.5 26.8 0 15.8 7.5 26.8 21.5 26.8 15.4 0 21.5-13.2 21.5-26.8-.1-14.9-6-26.8-21.5-26.8z"/><path d="m1002.1 576.6h7.3v88.1h-7.3v-11.1h-.3c-4.2 8.3-13.9 12.9-22 12.9-20.4 0-28.6-14.6-28.6-33.3 0-17.7 8.9-33.5 28.2-33.5 8.9 0 18 4.1 22.6 11.8zm-21.4 29.6c-15.2 0-22.2 12.9-21.6 28.8.1 15.9 9.3 24.8 21.6 24.8 13.9 0 21.4-11.7 21.4-27 0-14.4-8.1-26.6-21.4-26.6z"/><path d="m1060.6 664.7v-88.1h58.6v7.1h-50.3v31.8h45.4v7.1h-45.4v35h51.5v7.1z"/><path d="m1177.9 621.3c-2.6-9.4-9.1-15-18.8-15-15 0-21.3 13.7-21.3 26.9 0 13.3 6.1 26.7 21.3 26.7 10.9 0 17.7-6.4 19.4-17h7.9c-2.6 14-11.4 23.6-27.3 23.6-20.2 0-29.1-14.6-29.1-33.3 0-17.7 10.2-33.5 29.1-33.5 14.6 0 24.1 7 26.3 21.6z"/><path d="m1195.6 633c0-18.4 9.8-33.4 29.4-33.4 19.9 0 29.4 14.8 29.4 33.4 0 20-11.7 33.4-29.4 33.4-16.1-.2-29.4-11.2-29.4-33.4zm29.4-26.8c-15.4 0-21.5 13.1-21.5 26.8 0 15.8 7.5 26.8 21.5 26.8 15.4 0 21.5-13.2 21.5-26.8-.1-14.9-5.9-26.8-21.5-26.8z"/><path d="m1270.9 644.8c2.3 10.9 7.9 14.9 19 14.9 10.7 0 15.6-5.6 15.6-11.7 0-18.4-40.6-5.4-40.6-30.4 0-10.5 8.2-18.1 22.2-18.1 13.7 0 22.6 5.6 24.4 19.9h-7.5c-1.3-9.8-7.9-13.3-17.1-13.3-9.3 0-14.3 4.4-14.3 10.9 0 17.2 40.6 6.4 40.6 30.8 0 12.1-10.9 18.4-25.8 18.4s-23.5-9.5-24.1-21.5z"/><path d="m1326.1 681.9c1.9.4 4.1.7 6.1.7 8.3 0 9.5-12 12.4-17.5l-24.6-63.8h8.2l20.3 54.5 20.3-54.5h7.9l-23.6 62.5c-6 15.9-9.9 25.8-20 25.8-2.6 0-5-.4-7-.9z"/><path d="m1390.8 644.8c2.3 10.9 7.9 14.9 19 14.9 10.7 0 15.6-5.6 15.6-11.7 0-18.4-40.6-5.4-40.6-30.4 0-10.5 8.2-18.1 22.2-18.1 13.7 0 22.6 5.6 24.4 19.9h-7.5c-1.3-9.8-7.9-13.3-17.1-13.3-9.3 0-14.3 4.4-14.3 10.9 0 17.2 40.6 6.4 40.6 30.8 0 12.1-10.9 18.4-25.8 18.4s-23.5-9.5-24.1-21.5z"/><path d="m1468.7 665c-1.7.4-4.9 1.5-8.5 1.5-7.2 0-11.2-3.2-11.2-12.6v-46.4h-8.9v-6.1h8.9v-17.7h7.3v17.7h11.8v6.1h-11.8v43.4c0 6.3.3 8.9 6.4 8.9 1.9 0 4.1-.4 6-.9z"/><path d="m1483.7 634.7c-.1 13.7 7.2 25.1 21.3 25.1 9.5 0 17-5.3 19.2-14.6h8.2c-3.7 12-11.2 21.2-27.4 21.2-20.3 0-29.1-14.5-29.1-33.2 0-18.4 11-33.6 29.1-33.6 17.4 0 28 12.4 27.9 35.1zm41.4-6.1c0-12.4-6.9-22.4-20-22.4-13 0-19.9 10.4-21.3 22.4z"/><path d="m1552.4 664.7h-7.3v-63.4h7.3v9.5h.3c3.8-7.2 11.4-11.3 19.6-11.3 11.7 0 15.9 5.5 18.6 12.3 4.1-8.2 11.7-12.3 20.7-12.3 17.2 0 19.7 12.4 19.7 25.1v40h-7.3v-43.8c0-9.1-3.2-14.7-13.6-14.7-5.4 0-10.7 2.3-14.3 7.2-3.2 4.1-4.1 11.8-4.1 17.1v34.2h-7.3v-43.8c0-9.1-3.2-14.7-13.6-14.7-5.4 0-10.7 2.3-14.3 7.2-3.2 4.1-4.1 11.8-4.1 17.1z"/><path d="m1651 644.8c2.3 10.9 7.9 14.9 19 14.9 10.7 0 15.6-5.6 15.6-11.7 0-18.4-40.6-5.4-40.6-30.4 0-10.5 8.2-18.1 22.2-18.1 13.7 0 22.6 5.6 24.4 19.9h-7.5c-1.3-9.8-7.9-13.3-17.1-13.3-9.3 0-14.3 4.4-14.3 10.9 0 17.2 40.6 6.4 40.6 30.8 0 12.1-10.9 18.4-25.8 18.4s-23.5-9.5-24.1-21.5z"/><path d="m756.8 811.5v-88.1h8.3v88.1z"/><path d="m792.9 811.5h-7.3v-63.4h7.3v8.8c5.9-6.3 11.7-10.5 20.4-10.5 7.7 0 14.8 2.5 19.3 9.1 3.1 4.5 3.2 9.3 3.2 14.6v41.5h-7.3v-41.3c0-11.4-4.7-17.1-16.4-17.1-9.1 0-15.3 5.9-17.7 12.4-1.5 4.1-1.6 7.6-1.6 12z"/><path d="m853.1 734.3v-10.8h8v10.9h-8zm.3 77.2v-63.4h7.3v63.4z"/><path d="m900.6 811.7c-1.7.4-4.9 1.5-8.5 1.5-7.2 0-11.2-3.2-11.2-12.6v-46.3h-8.9v-6.1h8.9v-17.7h7.3v17.7h11.8v6.1h-11.8v43.4c0 6.3.3 8.9 6.4 8.9 1.9 0 4.1-.4 6-.9z"/><path d="m911.8 734.3v-10.8h8v10.9h-8zm.3 77.2v-63.4h7.3v63.4z"/><path d="m966.1 774.6c2.6-.3 7.2-1 9.7-2.1s2.6-4.4 2.6-6.6c0-7.5-4.4-12.9-15.8-12.9-10.2 0-17.1 3.3-18.4 14.3h-7.5c1.1-14.9 12.3-20.9 26-20.9 12.9 0 23 5 23 19.7v34.4c0 5.7 1.5 7.1 7.7 4.9v5.7c-1.1.4-3.7 1.2-5.7 1.2-1.2 0-2.2-.1-3.3-.4-4.9-.7-5.7-5-5.8-9.4-6.1 6.9-14.5 10.5-23.6 10.5-11.1 0-21.2-6-21.2-18.2 0-10.7 7.3-17.1 22.2-19.1zm12.4 3.6c-6.3 2.6-12.6 3.1-19 3.5-11.1.9-17.8 4.9-17.8 13.4 0 7.7 6.7 11.4 13.7 11.4 11.7 0 23.1-5.6 23.1-18.4z"/><path d="m1026.1 811.7c-1.7.4-4.9 1.5-8.5 1.5-7.2 0-11.2-3.2-11.2-12.6v-46.3h-8.9v-6.1h8.9v-17.7h7.3v17.7h11.8v6.1h-11.8v43.4c0 6.3.3 8.9 6.4 8.9 1.9 0 4.1-.4 6-.9z"/><path d="m1037.3 734.3v-10.8h8v10.9h-8zm.4 77.2v-63.4h7.3v63.4z"/><path d="m1055.8 748.1h7.9l20.6 54.3 20.6-54.3h7.9l-24.6 63.4h-8.2z"/><path d="m1127 781.6c-.1 13.7 7.2 25.1 21.3 25.1 9.5 0 17-5.3 19.2-14.6h8.2c-3.7 12-11.2 21.2-27.4 21.2-20.3 0-29.1-14.5-29.1-33.2 0-18.4 11-33.6 29.1-33.6 17.4 0 28 12.4 27.9 35.1zm41.4-6.2c0-12.4-6.9-22.4-20-22.4-13 0-19.9 10.4-21.3 22.4z"/><g fill="#07c707"><path d="m311.9 743.6c-1.7-6-4.9-17.2-22.1-17.2-10 0-24.7 6.6-24.7 34.8 0 17.9 7.1 34 24.7 34 11.5 0 19.5-6.5 22.1-18.7h20.8c-4.1 21.6-18.3 36.7-43.2 36.7-26.5 0-45.5-17.9-45.5-52.3 0-34.8 20.1-52.5 45.7-52.5 29.8 0 41.8 20.5 43 35.2z"/><path d="m355.7 810.6h-21.9l35.5-99.6h24l35 99.6h-22.6l-6.4-20.5h-36.7zm12.5-37.7h25.3l-12.3-39.4h-.3z"/><path d="m461.1 810.6h-20.8v-99.6h70.9v17.7h-50v22.4h43.8v17.6h-43.8v41.9z"/><path d="m596.8 728.7h-52.8v20.9h48.5v17.6h-48.5v25.8h55.2v17.5h-75.6v-99.5h73.2z"/><path d="m664.7 728.1h-19.4v-18h19.4zm0 8.7v73.8h-19.4v-73.8z"/><path d="m455.5 261.5-212.3 159v248.4h197.2v-145h102.4v145h121.1v-249z"/></g></svg>