<svg enable-background="new 0 0 1920 1080" viewBox="0 0 1920 1080" xmlns="http://www.w3.org/2000/svg"><path d="m217.1 436.2v-209.3l128.7 5.9v238.7c0 20.2-1.3 36.6-4 49-2.4 12.1-6.6 23.2-12.6 33.3-11 18.7-25.4 33.3-43.4 43.8-19.3 10.9-40 17-62.4 18.1-22.9 1.1-43.4-1.3-61.2-7.2-19.8-6.8-37.8-16.7-54-29.6l45.2-105c6.9 7.6 13.9 13.8 21 18.5 6.7 3.7 12.7 5.5 17.9 5.4 9.7-.2 16.3-4 19.8-11.5 3.3-7.4 5-24 5-50.1z" fill="#ec1c24"/><path d="m400.4 431.6v-196.4l117.5 5.4v191.4c0 22.5 2.4 37.8 7.1 45.7 4.7 8.4 12.8 12.4 24.2 12.2 11.2-.2 19.1-4.6 23.7-13 4.9-8.9 7.4-24 7.4-45.2v-188.3l107.2 4.9v182c0 24.5-1.3 44-4 58.8-2.9 16.3-7.3 29.4-13.1 39.4-11.9 21.6-28 38.4-48.4 50.3-21.5 12.5-45.7 19.5-72.8 20.8-27.6 1.4-53-3.4-75.9-14.2-22.3-10.6-40.3-26.9-53.8-49-6.2-10.3-11.1-24-14.7-41-2.9-15.9-4.4-37.1-4.4-63.8z" fill="#ec1c24"/><path d="m740.8 581.4v-330.6l96.4 4.4 80.7 168.2c-1-7.6-1.7-15.7-2.1-24.3-.5-11.7-.7-23.4-.7-34.8v-105.6l86.1 3.9v306.7l-88.4 4.1-80-163.5c1.1 7.2 1.8 14.9 2.2 23.1.5 11.4.7 20.7.7 27.9v116.1z" fill="#ec1c24"/><path d="m1046.7 567.2v-302.5l83.8 3.8v294.8z" fill="#ec1c24"/><path d="m1383.3 416.4c0 20-2.5 38.6-7.5 55.6-5.2 17.7-12.5 33.4-21.8 46.9-9.5 13.5-20.8 24.2-33.8 32.3-13.1 7.8-27.1 12.1-41.9 12.8-15.2.7-29.6-2.2-43.2-9-13.4-6.8-25.6-17.2-36.7-31.1-10.8-14.3-18.9-30.1-24.5-47.6-5.5-18.1-8.2-38-8.2-59.8s2.7-41.7 8.2-59.8c5.7-17.9 13.9-33.9 24.5-48 10.7-13.7 22.8-24 36.4-31.1 13.6-6.5 28.1-9.4 43.5-8.6 15.1.7 29.2 4.9 42.2 12.4 12.8 7.9 24.1 18.7 33.9 32.6 9.3 13.8 16.5 29.2 21.6 46.5 4.8 17.2 7.3 35.8 7.3 55.9zm-105 53.1c10.2-.2 18.5-5.1 24.7-14.7 6.1-9.8 9.1-22.6 9.1-38.3 0-16.1-3-29-9.1-38.7-6.3-9.7-14.5-14.7-24.7-14.9s-18.6 4.6-25.2 14.3c-6.3 9.8-9.5 22.9-9.5 39.3 0 16.1 3.2 29 9.5 38.9 6.4 9.6 14.8 14.2 25.2 14.1z" fill="#ec1c24"/><path d="m1411.6 550.3v-269l81.7 3.7c22.9 1 40.1 9.3 51.8 24.6s17.5 36.8 17.5 64.4c0 18.1-2.9 33-8.7 44.6-6 12.2-14 19.2-24 21l45 103-68.5 3.2-30.8-85.3v86.8zm64.1-198.3v51.4h9.9c6.2 0 10.9-2.2 14-6.5 3.1-4.1 4.7-10.3 4.7-18.5 0-8.3-1.5-14.8-4.7-19.5-3.2-4.3-7.9-6.6-14-6.7z" fill="#ec1c24"/><path d="m1575.9 369c.1 2 .1 4.1.1 6.2 0 18.1-2.9 33-8.7 44.6-5.4 10.9-12.3 17.6-20.9 20.3l128.3-.9c-.7-7.4-1.1-15-1.1-23 0-14 1.1-26.8 3.3-38.6 0-.1.1-.2.1-.2.3-2.9.7-5.6 1.2-8.4z" fill="#ec1c24"/><path d="m1793.4 391.6c-4.3-7.3-9-12.8-14.1-16.5-5-3.8-10.1-5.8-15.3-5.9-8.4-.1-15.2 4.1-20.4 12.6s-7.9 19.9-7.9 34.3c0 14.3 2.5 25.6 7.5 33.7s11.6 12.1 19.8 11.9c4.9-.1 9.9-1.9 15.2-5.6 5.4-4.1 10.8-9.7 16.3-16.7l-1.6 87.8c-5.9 4.2-11.4 7.2-16.5 8.9-5.4 2.3-11 3.6-16.8 3.9-7 .3-13.8-.7-20.5-3.1-6.4-2-12.3-5.4-17.9-10.1-13.2-12.1-23.2-27.3-29.9-45.6-6.9-18.9-10.4-40.6-10.4-65.1 0-18.7 2-35.5 5.9-50.3 3.7-15 9.4-28.5 16.9-40.6 7.4-11.7 15.9-20.3 25.5-25.9 9.5-5.5 19.8-8 30.9-7.5 5.7.3 11.4 1.5 17.2 3.7 5.7 2.4 11 5.6 16 9.7v86.4z" fill="#ec1c24"/><path d="m1798 670.5-1690.6 132.1-3.4-156 1691.8-77z" fill="#f9ec23"/><g fill="#ec1c24"><path d="m274.3 749.9-40.8 2.8-7.3 23-29.2 2.1 41.2-117.7 27.3-1.4 45.7 110.8-28.3 2.1zm-7-18.1-14.8-38.1-13.1 39.9z"/><path d="m447 649.5 1.8 81.5c.4 19.9-14.5 30.9-46.2 33.2-25.7 1.9-45.9-7.3-46.3-27l-1.8-83 27.3-1.4 1.8 82.1c.2 10.2 11.9 12 20 11.4 9.9-.7 18.5-3.8 18.3-14.6l-1.8-80.9z"/><path d="m577.7 659.9-26.6 1.5 2 90.7-26.3 1.9-2-91.1-27.2 1.5-.4-17.3 80.2-4.1z"/><path d="m705.3 663.8 1.1 50.1c.4 18.9-13.4 29.2-41.8 31.2-22.8 1.7-40.7-7-41.2-25.7l-1.1-51c-.4-19.3 14.4-29.7 42.3-31.1 25.4-1.2 40.3 8 40.7 26.5zm-24 2.2c-.2-9.5-7.4-13.1-17-12.5-9 .5-17.5 3.3-17.3 13.6l1.1 51.3c.2 9.6 10.4 11.4 17.9 10.9 8.7-.6 16.7-3.7 16.5-13.8z"/><path d="m858 693.1-12.3.8.8 36.8-23.3 1.7-2.2-101.9 37.5-1.9c31-1.6 39.8 13.9 40.1 29.4.3 14.3-6.9 24.1-17.7 29.5l27.6 38.7-25.5 1.9zm-12.8-17.9 11.2-.7c12.6-.8 20.2-5 20-16.3-.2-9.9-8.2-13.5-21.5-12.8l-10.3.6z"/><path d="m971.7 638.8.5 21.7 35.6-2.1.4 16.2-35.6 2.2.6 28.6 44.1-3.1.4 15.9-67.3 4.9-2.2-99.2 65.8-3.4.4 15.9z"/><path d="m1128.2 646.5c.4 17.3-9.5 33.5-33 35l-14.2.9.7 31.2-21.5 1.6-2.1-96.8 19.4-1 14.5-.7c27.7-1.5 35.8 14.2 36.2 29.8zm-20.1.2c-.2-9.1-4-14.7-19.6-13.9l-8.7.5.7 31.2 9.9-.6c15.5-.9 17.9-8.2 17.7-17.2z"/><path d="m1207.6 686.1-27.6 1.9-4.9 18.9-19.7 1.4 27.4-96.3 18.5-.9 31.4 91.6-19.2 1.4zm-4.8-15-10.1-31.5-8.8 32.7z"/><path d="m1287.2 698.7-21.1 1.5-2-92.4 21.1-1.1z"/><path d="m1353.8 661-9.9.6.7 32.9-18.6 1.4-2-91.1 30-1.5c24.8-1.3 31.9 12.6 32.2 26.5.3 12.8-5.5 21.6-14.1 26.3l22.2 34.8-20.5 1.5zm-10.2-16.1 8.9-.5c10.1-.6 16.2-4.4 16-14.5-.2-8.9-6.6-12.2-17.2-11.6l-8.2.5z"/><path d="m1513.1 625.4-.2-8.1c-.1-6.2-4.6-9.5-10.2-9.2-6.4.3-11 3.6-10.8 11.8.2 7.2 4.5 9 14.1 12.1 10.1 3.3 25.3 8.5 25.7 26.6.3 15.2-8.7 24-27.4 25.4-23.2 1.7-30-6.1-30.4-27.6l18.2-1.2c.3 11.5 2.5 16.2 11.8 15.5 5.8-.4 9.8-4.2 9.6-10.9-.3-8.2-7.6-11.6-17.5-14.7-15.3-5.1-22.3-10.7-22.6-25s11.1-24.4 28.9-25.3c17-.9 27.6 6.8 27.9 22.1l.2 7.5z"/><path d="m1619.8 589.7 1.9 84.7-17.4 1.3-.7-31.2-22.1 1.4.7 31.4-17.8 1.3-1.9-86 17.8-.9.9 40 22.1-1.3-.9-39.8z"/><path d="m1705.3 607.1.9 39.8c.3 15-8.3 23-26.2 24.3-14.3 1-25.6-6-25.9-20.8l-.9-40.3c-.3-15.2 8.9-23.3 26.4-24.2 16-.9 25.4 6.5 25.7 21.2zm-15.1 1.5c-.2-7.5-4.7-10.4-10.8-10.1-5.6.3-11 2.5-10.8 10.6l.9 40.6c.2 7.6 6.5 9.2 11.2 8.8 5.5-.4 10.5-2.7 10.3-10.7z"/><path d="m1787.6 608.1c.3 14.7-6.8 28.4-23.8 29.5l-10.2.7.6 26.5-15.5 1.1-1.8-82.2 14-.7 10.5-.5c19.9-1.1 25.9 12.4 26.2 25.6zm-14.5 0c-.2-7.7-2.9-12.6-14.2-11.9l-6.3.3.6 26.5 7.2-.4c11.1-.7 12.9-6.9 12.7-14.5z"/></g></svg>