<svg viewBox="0 0 1575.1 830.6" xmlns="http://www.w3.org/2000/svg"><g fill="#ff3947" transform="translate(-195.8 -131.1)"><path d="m228.8 862.9v30.3h-23.7v-91.2h37.7a43.39 43.39 0 0 1 13.1 1.7 26.33 26.33 0 0 1 9.6 5.9c6 5.6 9 13.2 9 22.6 0 9.2-2.4 16.6-7.3 22.1-5 5.7-12.8 8.5-23.5 8.5h-14.9zm0-19h7.9c4.6 0 7.8-.9 9.7-2.6q3.3-3 3.3-8.7c0-7.7-4.3-11.5-13-11.5h-7.9z"/><path d="m337.3 877.3h-32.7l-6.3 15.9h-25l35.1-91.2h25.8l34.3 91.2h-25.3zm-6.4-18-9.8-29-10 29z"/><path d="m438.5 807.3-9.5 18.4c-5.1-4.1-10.2-6.2-15.5-6.2-3.3 0-5.9.9-7.8 2.8a6.67 6.67 0 0 0 -2.3 5q0 4.2 5.7 6.9c1.1.5 4.7 1.6 10.8 3.5 7.9 2.4 13.6 5.5 17.1 9.5s5.2 9.2 5.2 15.8q0 17.7-11.7 25.8c-6.4 4.5-14.3 6.7-23.8 6.7-11.3 0-21.8-3.5-31.7-10.4l10.1-19.1c7.1 6.2 14 9.3 20.9 9.3 4.2 0 7.2-1.1 9.1-3.3a8.41 8.41 0 0 0 2.3-5.6 6.83 6.83 0 0 0 -3-5.9c-2-1.4-5.8-3-11.3-4.6-8.7-2.5-14.4-5-17.3-7.3-4.9-4-7.3-10-7.3-18.1 0-9.5 3.1-17.1 9.4-22.8 5.7-5.3 12.9-7.9 21.6-7.9a63.23 63.23 0 0 1 29 7.5z"/><path d="m516.6 807.3-9.5 18.4c-5.1-4.1-10.2-6.2-15.5-6.2-3.3 0-5.9.9-7.8 2.8a6.67 6.67 0 0 0 -2.3 5q0 4.2 5.7 6.9c1.1.5 4.7 1.6 10.8 3.5 7.9 2.4 13.6 5.5 17.1 9.5s5.2 9.2 5.2 15.8q0 17.7-11.7 25.8c-6.4 4.5-14.3 6.7-23.8 6.7-11.3 0-21.8-3.5-31.7-10.4l10.1-19.1c7.1 6.2 14 9.3 20.9 9.3 4.2 0 7.2-1.1 9.1-3.3a8.41 8.41 0 0 0 2.3-5.6 6.83 6.83 0 0 0 -3-5.9c-2-1.4-5.8-3-11.3-4.6-8.7-2.5-14.4-5-17.3-7.3-4.9-4-7.3-10-7.3-18.1 0-9.5 3.1-17.1 9.4-22.8 5.7-5.3 12.9-7.9 21.6-7.9a62.91 62.91 0 0 1 29 7.5z"/><path d="m558.9 802.1v91.2h-23.7v-91.2z"/><path d="m624.5 799.3c15.2 0 27.7 5.1 37.3 15.3a46.44 46.44 0 0 1 13.2 33.3 47.74 47.74 0 0 1 -6.6 24.6 46 46 0 0 1 -19.6 18.5 54.43 54.43 0 0 1 -24.7 5.5c-15 0-27.3-5.1-36.9-15.2-8.8-9.3-13.1-20.7-13.1-34.2a45.7 45.7 0 0 1 6.6-23.8q13.95-23.4 43.8-24zm0 23a24.23 24.23 0 0 0 -18 7.5c-5 5.1-7.6 11-7.6 17.8a24.83 24.83 0 0 0 7.6 18.4 24.45 24.45 0 0 0 18.1 7.5 25.61 25.61 0 0 0 25.7-25.7 24.3 24.3 0 0 0 -7.5-18.1 26.57 26.57 0 0 0 -18.3-7.4z"/><path d="m690 893.2v-91.2h23.7l43.6 55.8v-55.8h23.7v91.2h-23.7l-43.6-55.8v55.8z"/><path d="m886.5 822.1h-28.5v15.2h26v20h-26v35.9h-23.7v-91.2h52.2z"/><path d="m947.8 855.8 28.6 37.4h-29.5l-22.6-35v35h-23.7v-91.2h36.9a41.67 41.67 0 0 1 13.1 1.9 23.21 23.21 0 0 1 9.3 6.1 28.25 28.25 0 0 1 7.8 20.2 29.3 29.3 0 0 1 -2.2 11.4 23.27 23.27 0 0 1 -6 8.7c-2.9 2.6-6.8 4.4-11.7 5.5zm-23.5-12.9h4.4c4.5 0 7.9-.8 10.1-2.4a9.45 9.45 0 0 0 3.1-3.9 11.63 11.63 0 0 0 1.3-5 12.25 12.25 0 0 0 -4.4-8.9c-2.3-1.6-5.7-2.4-10.1-2.4h-4.4z"/><path d="m1009.1 802.1v49.3a83.73 83.73 0 0 0 .4 10.6 15 15 0 0 0 2.2 5.7q4 6.9 13.2 6.9a18.15 18.15 0 0 0 8.3-2 12.73 12.73 0 0 0 5.6-5.4 16.68 16.68 0 0 0 1.9-5.7 76.37 76.37 0 0 0 .5-10.2v-49.3h23.7v52.6c0 8.7-1.2 15.4-3.5 20.1a35.9 35.9 0 0 1 -15.8 16.2 45.87 45.87 0 0 1 -21.1 4.7c-9.1 0-17.1-2-23.8-5.9a27.32 27.32 0 0 1 -11.9-12.9c-2.3-5.2-3.4-12.6-3.4-22.1v-52.6z"/><path d="m1107.8 802.1v91.2h-23.7v-91.2z"/><path d="m1161.3 822.1v71.1h-23.7v-71.1h-19.3v-20h62.6v20z"/><path d="m1274.8 846.4 11.4 12a87.25 87.25 0 0 0 11.9-13l13.4 12.9a134.35 134.35 0 0 1 -12.5 13.4l20.4 21.6h-29.5l-7.9-8.3c-10.9 7.3-21.4 10.9-31.4 10.9a33.23 33.23 0 0 1 -15.6-3.7 24.71 24.71 0 0 1 -13.5-22.5 24.4 24.4 0 0 1 8.9-19.5c2-1.6 6.2-4 12.8-6.9-2.4-3.1-4.1-5.2-4.8-6.4a22.22 22.22 0 0 1 -3.7-12.3 23.16 23.16 0 0 1 3.3-11.8c5.1-8.7 13.5-13.1 25.1-13.1 8.9 0 16 2.7 21.2 7.9a23.41 23.41 0 0 1 7.2 16.9 20.41 20.41 0 0 1 -7.7 16.3 58.24 58.24 0 0 1 -9 5.6zm-20.2 8.7c-5.7 3.6-8.6 7.2-8.6 10.8a7.62 7.62 0 0 0 3 6.2 11.77 11.77 0 0 0 7.6 2.5 22.21 22.21 0 0 0 12.4-4zm9.8-19.8c5.6-3.4 8.4-7.1 8.4-11.3a8.47 8.47 0 0 0 -2.3-6 7.48 7.48 0 0 0 -5.7-2.4 7 7 0 0 0 -5.4 2.2 7.39 7.39 0 0 0 -2.2 5.4c0 2.2 1.1 4.7 3.4 7.7.6.8 1.3 1.7 2.3 2.8s1.5 1.6 1.5 1.6z"/><path d="m1386.8 837.3h34.2v-35.2h23.7v91.2h-23.7v-37.5h-34.2v37.5h-23.7v-91.2h23.7z"/><path d="m1515.8 822.1h-28.2v15.2h26.6v20h-26.6v15.8h28.2v20h-51.9v-91.2h51.9z"/><path d="m1578 855.8 28.6 37.4h-29.5l-22.6-35v35h-23.7v-91.2h36.9a41.67 41.67 0 0 1 13.1 1.9 23.21 23.21 0 0 1 9.3 6.1 28.25 28.25 0 0 1 7.8 20.2 29.3 29.3 0 0 1 -2.2 11.4 23.27 23.27 0 0 1 -6 8.7 26.55 26.55 0 0 1 -11.7 5.5zm-23.5-12.9h4.4c4.5 0 7.9-.8 10.1-2.4a9.45 9.45 0 0 0 3.1-3.9 11.63 11.63 0 0 0 1.3-5 12.25 12.25 0 0 0 -4.4-8.9c-2.3-1.6-5.7-2.4-10.1-2.4h-4.4z"/><path d="m1616.5 893.2v-91.2h35.3q12.75 0 19.2 6.3c4.3 4.2 6.5 10 6.5 17.4a25 25 0 0 1 -2.3 11.3 19.86 19.86 0 0 1 -7.7 7.5c5.9 1.2 10.1 3 12.7 5.7 3.9 4 5.9 9.7 5.9 17.1a23.9 23.9 0 0 1 -7.4 18c-5.6 5.3-13.6 7.9-24 7.9zm23.8-55.2h4.3c3.6 0 6.4-.8 8.3-2.3a7.94 7.94 0 0 0 2.9-6.6c0-2.9-.9-5.1-2.8-6.6s-4.7-2.3-8.3-2.3h-4.3v17.8zm0 36.8h5.3c5.3 0 9.2-.6 11.7-1.7a7.72 7.72 0 0 0 3.5-3.2 8.88 8.88 0 0 0 1.3-4.8c0-3.7-1.5-6.3-4.5-7.9a12.79 12.79 0 0 0 -4.3-1.4 71.3 71.3 0 0 0 -8-.3h-4.9v19.3z"/><path d="m1760.6 807.3-9.5 18.4c-5.1-4.1-10.2-6.2-15.5-6.2-3.3 0-5.9.9-7.8 2.8a6.67 6.67 0 0 0 -2.3 5q0 4.2 5.7 6.9c1.1.5 4.7 1.6 10.8 3.5 7.9 2.4 13.6 5.5 17.1 9.5s5.2 9.2 5.2 15.8c0 11.8-3.9 20.4-11.8 25.8-6.4 4.5-14.3 6.7-23.8 6.7-11.3 0-21.8-3.5-31.7-10.4l10.1-19.1c7.1 6.2 14 9.3 20.9 9.3 4.2 0 7.2-1.1 9.1-3.3a8.41 8.41 0 0 0 2.3-5.6 6.83 6.83 0 0 0 -3-5.9c-2-1.4-5.8-3-11.3-4.6-8.7-2.5-14.4-5-17.3-7.3-4.9-4-7.3-10-7.3-18.1 0-9.5 3.1-17.1 9.4-22.8 5.7-5.3 12.9-7.9 21.6-7.9a63.31 63.31 0 0 1 29.1 7.5z"/><path d="m195.8 731.4h1573.9v29.6h-1573.9z"/><path d="m195.8 932.1h1573.9v29.6h-1573.9z"/><path d="m1418.9 269.1c-.7.5-1.8 1.4-3.3 2.4-5.7 4.2-19.2 14.1-51 37.2-55.2 40.3-104.8 1-104.8 1 54.5 29.5 136.3-24.4 155.8-38.3 1.6-1.1 2.7-1.9 3.3-2.3-18.7 5.3-35.6 7.5-59.7-3.5-.1 0-19.5-10.4-19.6-10.5-16.3-9.1-58.3-7.3-67.3 31.1l-46.4 29.3c46.8 51 129.3 58.5 180.2 11.7a125 125 0 0 0 37.7-65.7c-9 2.6-17.1 5.4-24.9 7.6z"/><path d="m549.7 306.9a260.83 260.83 0 0 0 -201.9-164.3c-2.9-.5-5.8-.9-8.7-1.3a262.89 262.89 0 0 0 -108.8 9 244.91 244.91 0 0 0 -31.3 11.7v476.5a267.88 267.88 0 0 0 48.7 16.3 259.57 259.57 0 0 0 58.2 6.5 262 262 0 0 0 113.2-25.8c87.5-42.2 147.8-131.7 147.8-235.2a260.39 260.39 0 0 0 -17.2-93.4zm-130.6 122.4a264.83 264.83 0 0 1 -71.2 158.4.1.1 0 0 1 -.1-.1v-364.4a.1.1 0 0 1 .1-.1 266.93 266.93 0 0 1 53.4 83.7 264.92 264.92 0 0 1 17.8 74.7c.7 7.9 1 15.8 1 23.9s-.3 16-1 23.9z"/><path d="m1287.6 310.9a180.63 180.63 0 0 0 -31.4-2.8 175.43 175.43 0 0 0 -27.3 2.1 176.89 176.89 0 0 0 -148.8 155.8v38.4a177 177 0 0 0 176.1 158 180.63 180.63 0 0 0 31.4-2.8 177.24 177.24 0 0 0 145.7-174.4c0-87.1-62.9-159.4-145.7-174.3zm-27.2 282.4c-17.4 0-31.4-47.4-31.4-105.9s14.1-105.9 31.4-105.9 31.4 47.4 31.4 105.9-14.1 105.9-31.4 105.9z"/><path d="m750.3 213.4a79.38 79.38 0 0 1 -65.3 78.1 79.79 79.79 0 0 1 -26.3.4 79.59 79.59 0 0 1 -66.7-69.8v-17.2a77.44 77.44 0 0 1 8-27.1 79.35 79.35 0 0 1 58.7-42.7 83.3 83.3 0 0 1 26.3.3 79.12 79.12 0 0 1 65.3 78z"/><path d="m1578.5 538.8a57.13 57.13 0 0 1 -23.5-20l-31.9 10.6-57.7 16.2-.6.2-20 5.6c.4 1.3.7 2.5 1.1 3.7a153 153 0 0 0 19.5 40.8c48.5 71.3 141.4 68.2 141.4 68.2 112.1 5.2 147.4-40.2 158-75 6.4-21.2 4.8-36.6 4.8-36.6a104.22 104.22 0 0 0 -6.6-35.7 95.05 95.05 0 0 0 -10.3-18.1 2.65 2.65 0 0 0 -.5-.6 65.26 65.26 0 0 0 -12.5-11.6c-10.9-8-24.1-13-38.1-16.3-15.9-3.7-32.8-5.1-48.5-5.9-2.4-.1-4.8-.2-7.1-.4-1.4 0-2.8-.1-4.2-.1-6.4-.3-12.5-.5-18.1-.8-8.4-.5-16.3-1.1-21.9-2.5-4.1-.6-9.7-5-10.1-12.5-.2-5.7 2-9.7 8.9-11.9 11.3-3.3 28.1.2 38.6 9.4 5.8 5.1 10.8 11.6 11.9 12.4l4.3-1.2 115.5-42.7c-2-5.5-9.2-21.8-28-42.9-1.2-1.5-28.3-36.3-76-54.4a163.14 163.14 0 0 0 -58.2-10.7c-101.6 0-142.2 55.6-142.2 105v1.4c0 1.3 0 2.6.1 3.8v.7c.1 1.8.2 3.7.4 5.4a6.6 6.6 0 0 0 .1 1.4c2.4 27.9 13.1 47.4 27.6 60.9a98.36 98.36 0 0 0 20.2 14.5c11.5 6.2 24.1 10.4 36.3 13.3 4.9 1.2 9.7 2.2 14.3 3 6.6 1.1 13 2 18.8 2.8 4.8.6 9.3 1.1 13.3 1.7 4.8.6 8.8 1.2 12 1.9 3.4 2.4 6.4 6.5 5.6 10.9a10 10 0 0 1 -2.1 4.1c-3.9 5.1-7.4 6.4-14.8 7.1l-5-.5a60.43 60.43 0 0 1 -14.8-4.6"/><path d="m1102.6 589.2a78.36 78.36 0 0 1 -19.7 6.4 79.79 79.79 0 0 1 -26.3.4 79.59 79.59 0 0 1 -66.7-69.8v-16.7a78.49 78.49 0 0 1 -.8-10.8v-158.3h53.6l1.3-1-1.3-106.9-11.8-.1h-41.9v-91.1l-.8-10.2h-147.9l-.1 10.2v91.1h-56.5a.1.1 0 0 0 -.1.1v107.8a.1.1 0 0 0 .1.1h56.5v185.6a153.18 153.18 0 0 0 8.2 34.6 161.8 161.8 0 0 0 9.6 21.2 152.79 152.79 0 0 0 131 79.3h3.1a152.23 152.23 0 0 0 110.4-47.2v-24.7z"/><path d="m839.3 600.1a79.79 79.79 0 0 1 -26.3.4 79.59 79.59 0 0 1 -66.7-69.8v-17.2c.1-1.3.4-2.6.6-3.8a78.79 78.79 0 0 1 -.8-10.9v-182.8h-148.8v210a153.18 153.18 0 0 0 8.2 34.6 161.8 161.8 0 0 0 9.6 21.2 152.79 152.79 0 0 0 131 79.3h3.1a152.1 152.1 0 0 0 105.3-42.2v-23.2a70 70 0 0 1 -15.2 4.4z"/></g></svg>