<svg enable-background="new 0 0 1920 1080" viewBox="0 0 1920 1080" xmlns="http://www.w3.org/2000/svg"><path d="m1370.4 392.3c-21.3-20.5-33.8-48.4-36.1-77.8-.8-10.8-2.7-21.8-5.7-33-14.8-55.7-58.3-100-113.8-115.5-17.8-5-35.2-7.1-52.1-6.7-34.3.7-67.7-12.7-91-37.9-30.8-33.2-74.8-54-123.7-54-48.4 0-92.1 20.4-122.8 53.1-23.8 25.3-57.3 39.7-92 38.8-18.6-.5-38 2.1-57.6 8.1-51.8 15.9-92.4 57.1-107.8 109-4 13.2-6.3 26.3-7.2 39.1-2.1 29.3-14.2 57.2-35.2 77.8-31.3 30.6-50.7 73.3-50.7 120.5 0 47.6 19.7 90.6 51.4 121.3 27.1 26.2 40.4 63.8 35.5 101.2-1.2 9.3-1.7 18.9-1.3 28.7 3.4 89.9 78.1 161.9 168.1 162.2 1.9 0 3.7 0 5.6-.1 33.9-1 66.3 13.1 89.3 38 30.8 33.2 74.8 54 123.7 54 48.1 0 91.6-20.2 122.3-52.5 24.2-25.5 57.8-40.3 93-39.4 1.2 0 2.5 0 3.7.1 90 .2 165.2-71.6 168.8-161.6.4-9.5 0-18.9-1.1-28-4.6-37.6 8.6-75.4 36.1-101.4 32.4-30.7 52.5-74.2 52.5-122.3-.1-47.9-20-91-51.9-121.7zm-22.5 238.7c-26.7 26.2-39.7 63-35.7 100.2.8 7.8 1.1 15.7.8 23.7-3.4 84.9-74.4 152.7-159.4 152.5-.8 0-1.6 0-2.4 0-33.9-.6-66.1 13.6-89.6 38-28.9 30.1-69.6 48.8-114.7 48.8s-85.8-18.8-114.8-48.9c-23.3-24.3-55.4-38.3-89-37.8-.8 0-1.7 0-2.5 0-84.9-.2-155.5-68.2-158.6-153.1-.3-8.2 0-16.2.9-24.1 4.2-37.2-8.8-74-35.2-100.5-28.7-28.8-46.4-68.5-46.4-112.4 0-44.2 18-84.2 47.2-113.1 20.2-20 31.8-46.8 34-75.1.9-11.8 3.1-23.8 6.7-35.9 14.6-49 52.9-87.9 101.7-102.9 18-5.5 35.8-8 52.9-7.7 33.9.6 66.1-13.6 89.6-38 29-30 69.6-48.7 114.7-48.7 45.7 0 86.9 19.3 115.9 50.1 22.7 24.1 54.7 37 87.8 36.6 15.6-.2 31.7 1.8 48.1 6.4 52.4 14.7 93.4 56.4 107.4 109 2.7 10.2 4.4 20.3 5.3 30.2 2.4 28.9 15.5 55.8 36.1 76.3 29 28.8 46.9 68.7 46.9 112.8 0 44.5-18.3 84.7-47.7 113.6z" fill="#ff1b33"/><path d="m1308.7 620.7c-24.1 23.6-35.8 56.9-32.2 90.4.7 7 1 14.1.7 21.4-3.1 76.6-67.1 137.7-143.7 137.5-.7 0-1.4 0-2.2 0-30.5-.5-59.6 12.3-80.8 34.3-26.1 27.1-62.8 44-103.4 44-40.7 0-77.4-16.9-103.5-44.1-21-21.9-49.9-34.5-80.3-34.1-.8 0-1.5 0-2.3 0-76.5-.3-140.2-61.6-143-138.1-.3-7.4 0-14.6.8-21.8 3.8-33.5-7.9-66.7-31.8-90.6-25.9-26-41.9-61.8-41.9-101.4 0-39.9 16.3-76 42.5-102 18.2-18 28.7-42.2 30.6-67.8.8-10.6 2.8-21.4 6.1-32.4 13.1-44.2 47.7-79.3 91.8-92.8 16.3-5 32.3-7.2 47.8-6.9 30.5.5 59.6-12.3 80.8-34.3 26.1-27.1 62.8-44 103.4-44 41.2 0 78.4 17.4 104.6 45.2 20.5 21.8 49.3 33.4 79.2 33 14.1-.2 28.6 1.6 43.4 5.8 47.3 13.2 84.2 50.9 96.9 98.3 2.5 9.2 4 18.3 4.7 27.2 2.2 26.1 14 50.4 32.6 68.8 26.1 26 42.3 62 42.3 101.8-.1 40.2-16.6 76.5-43.1 102.6z" fill="#ff1b33"/><g fill="#ffff01"><path d="m845.2 651.2h-20.2v-1.2h.4c1.7 0 3-1.4 3-3v-20.7c0-1.7-1.3-3-3-3h-.4v-1.2h21.5c2.9 0 4.8 1.8 4.8 4.6 0 1.9-1.5 3.4-3.4 3.4s-3.5-1.5-3.5-3.4c0-.7.2-1.5.7-2 .1-.1.2-.3.2-.5 0-.5-.4-.9-.9-.9h-4.8c-1.7 0-3 1.4-3 3v8.2h3.5c1.7 0 3-1.3 3-3v-.4h1.2v8h-1.3v-.4c0-1.5-1.2-2.8-2.7-3h-3.8v11.3c0 1.7 1.4 3 3 3h2c.7 0 1.2-.6 1.2-1.3 0-.3-.1-.5-.2-.7-.6-.8-1-1.9-1-3 0-2.7 2.2-5 5-5 2.7 0 5 2.2 5 5 .1 3.7-2.4 6.2-6.3 6.2z"/><path d="m878.2 650v1.2h-10.6v-2.7s-2.2 3.3-6.9 3.3c-5.9 0-6.6-5-6.6-6.6 0-2.1.6-7 9.8-6.9h3.7v-.9c0-1-.2-5.7-4.4-5.7-1.7 0-3 .4-2.5 2 0 .2.1.4.1.5 0 1.4-1.1 2.5-2.5 2.5s-2.5-1.1-2.5-2.5c0-.5.2-.9.4-1.2 0 0 0-.1.1-.1 1.3-2.2 5.1-2.9 7.6-2.9 7.9 0 11 3.2 11 8.6v8.5c0 1.7 1.4 3 3 3h.3zm-12.7-10c-1.1 0-4.5.6-4.5 4.7 0 1.6.2 4.5 3.3 4.5s3.3-3.6 3.3-5.1v-4.1z"/><path d="m895.2 647.6c0 3.5-4.4 4.2-6.3 4.2-4.5 0-8.7-1.2-8.7-9v-11.1h-2.5v-1.2h2.5v-6h7.2v6h3.5v1.2h-3.5v12.7c0 3.1.2 5.7 2.1 5.7.6 0 1.3-.5 1-1.5-.1-.3-.2-.6-.2-1 0-1.4 1.1-2.5 2.5-2.5 1.3 0 2.4 1.1 2.4 2.5z"/><path d="m946.8 650v1.2h-13.6v-1.2c1.7 0 3-1.4 3-3v-7.6-.2-.7c0-4.4-.5-6.5-2.6-6.6-2.2 0-4.2 2.7-4.3 6.5v.1 8.5c0 1.7 1.4 3 3 3v1.2h-13.2v-1.2c1.7 0 3-1.4 3-3v-7.6c0-.1 0-.1 0-.2v-.7c0-4.4-.5-6.5-2.6-6.6-2.2 0-4.2 2.7-4.3 6.5v8.6c0 1.7 1.3 3 3 3v1.2h-13.6v-1.2h.4c1.7 0 3-1.4 3-3v-12.3c0-1.7-1.3-3-3-3h-.4v-1.2h10.6v2.9c.8-1.2 2.8-3.5 6.4-3.5 2.7.1 5.5 1.3 6.9 4.5.4-1 2.4-4.5 7.1-4.5 3.6.1 7.6 2.2 7.5 8.6v8.5c0 1.7 1.4 3 3 3z"/><path d="m971.2 640.8c0 6-3.6 10.9-11.7 10.9s-11.7-4.9-11.7-10.9 3.6-10.9 11.7-10.9 11.7 4.9 11.7 10.9zm-7.8 0c0-5.4-.6-9.2-4-9.2-3.3 0-4 3.8-4 9.2 0 5.3.7 9.2 4 9.2 3.4 0 4-3.8 4-9.2z"/><path d="m993.6 634.1c0 1.4-1.1 2.5-2.5 2.5s-2.5-1.1-2.5-2.5c0-.3.1-.5.2-.8v-.1l.1-.1c.4-1.2-.4-1.5-1.2-1.5-3.1 0-4.9 5.3-4.9 9.4v6c0 1.7 1.3 3 3 3h.4v1.2h-14v-1.2h.4c1.7 0 3-1.4 3-3v-12.3c0-1.7-1.3-3-3-3h-.4v-1.2h10.6v3.9c.3-1.2 2.3-4.5 6.2-4.5 2.7 0 4.2 2.2 4.5 3.7 0 .2.1.4.1.5z"/><path d="m1015.7 646.6c0 .9-.3 1.7-.9 2.3-.2.2-.4.4-.6.5-1.6 1.3-4 2.4-7.4 2.4-9 0-11.4-6.2-11.4-10.9s2.3-10.9 11.4-10.9c4.4 0 10.1 2.5 10.1 11.5h-13.7c.2 7.5 3.4 8.6 4.9 8.6.8 0 1.9-.7 1.3-1.6-.3-.5-.5-1.2-.5-1.8 0-1.9 1.5-3.4 3.4-3.4 1.9-.1 3.4 1.4 3.4 3.3zm-12.5-6.3h6.2c0-7.9-1.2-8.6-2.9-8.6-1.5-.1-3.2 1-3.3 8.6z"/><path d="m1020.3 648.3c0-2.1 1.7-3.7 3.7-3.7s3.7 1.7 3.7 3.7-1.7 3.7-3.7 3.7-3.7-1.6-3.7-3.7z"/><path d="m1058.5 651.2h-21.3v-1.2h.4c1.7 0 3-1.4 3-3v-20.7c0-1.7-1.3-3-3-3h-.4v-1.2h15v1.2h-.4c-1.7 0-3 1.4-3 3v20.7c0 1.7 1.4 3 3 3h3c.7 0 1.2-.6 1.2-1.3 0-.3-.1-.5-.2-.7-.6-.8-1-1.9-1-3 0-2.7 2.2-5 5-5s5 2.2 5 5c0 3.7-2.5 6.2-6.3 6.2z"/><path d="m1080.1 651.2h-14v-1.2h.4c1.7 0 3-1.4 3-3v-12.3c0-1.7-1.3-3-3-3h-.4v-1.2h10.6v16.5c0 1.7 1.3 3 3 3h.4zm-11.1-26.6c0-2.1 1.7-3.7 3.7-3.7s3.7 1.7 3.7 3.7-1.7 3.7-3.7 3.7c-2.1 0-3.7-1.7-3.7-3.7z"/><path d="m1106 631.6h-.4c-1.7 0-3 1.3-3.7 3l-5.5 14.4-.9 2.2h-5.4l-6.4-16.6c-.7-1.7-1.7-3-3.7-3h-.4v-1.2h14v1.2h-.4c-1.7 0-3 1.4-2.4 3l4 10.4 4.1-10.5c.6-1.7-.7-3-2.4-3h-.4v-1.2h9.9z"/><path d="m1126.1 646.6c0 .9-.3 1.7-.9 2.3-.2.2-.4.4-.6.5-1.6 1.3-4 2.4-7.4 2.4-9 0-11.4-6.2-11.4-10.9s2.3-10.9 11.4-10.9c4.4 0 10.1 2.5 10.1 11.5h-13.7c.2 7.5 3.4 8.6 4.9 8.6.8 0 1.9-.7 1.3-1.6-.3-.5-.5-1.2-.5-1.8 0-1.9 1.5-3.4 3.4-3.4 1.9-.1 3.4 1.4 3.4 3.3zm-12.5-6.3h6.2c0-7.9-1.2-8.6-2.9-8.6-1.5-.1-3.2 1-3.3 8.6z"/><path d="m1181.2 650v1.2h-13.6v-1.2c1.7 0 3-1.4 3-3v-7.6-.2-.7c0-4.4-.5-6.5-2.6-6.6-2.2 0-4.2 2.7-4.3 6.5v.1 8.5c0 1.7 1.4 3 3 3v1.2h-13.2v-1.2c1.7 0 3-1.4 3-3v-7.6c0-.1 0-.1 0-.2v-.7c0-4.4-.5-6.5-2.6-6.6-2.2 0-4.2 2.7-4.3 6.5v8.6c0 1.7 1.3 3 3 3v1.2h-13.6v-1.2h.4c1.7 0 3-1.4 3-3v-12.3c0-1.7-1.3-3-3-3h-.4v-1.2h10.6v2.9c.8-1.2 2.8-3.5 6.4-3.5 2.7.1 5.5 1.3 6.9 4.5.4-1 2.4-4.5 7.1-4.5 3.6.1 7.6 2.2 7.5 8.6v8.5c0 1.7 1.4 3 3 3z"/><path d="m1205.6 640.8c0 6-3.6 10.9-11.7 10.9s-11.7-4.9-11.7-10.9 3.6-10.9 11.7-10.9 11.7 4.9 11.7 10.9zm-7.8 0c0-5.4-.6-9.2-4-9.2s-4 3.8-4 9.2c0 5.3.7 9.2 4 9.2s4-3.8 4-9.2z"/><path d="m1228 634.1c0 1.4-1.1 2.5-2.5 2.5s-2.5-1.1-2.5-2.5c0-.3.1-.5.2-.8v-.1l.1-.1c.4-1.2-.4-1.5-1.2-1.5-3.1 0-4.9 5.3-4.9 9.4v6c0 1.7 1.3 3 3 3h.4v1.2h-14v-1.2h.4c1.7 0 3-1.4 3-3v-12.3c0-1.7-1.3-3-3-3h-.4v-1.2h10.6v3.9c.3-1.2 2.3-4.5 6.2-4.5 2.7 0 4.2 2.2 4.5 3.7 0 .2.1.4.1.5z"/><path d="m1250.1 646.6c0 .9-.3 1.7-.9 2.3-.2.2-.4.4-.6.5-1.6 1.3-4 2.4-7.4 2.4-9 0-11.4-6.2-11.4-10.9s2.3-10.9 11.4-10.9c4.4 0 10.1 2.5 10.1 11.5h-13.7c.2 7.5 3.4 8.6 4.9 8.6.8 0 1.9-.7 1.3-1.6-.3-.5-.5-1.2-.5-1.8 0-1.9 1.5-3.4 3.4-3.4 1.9-.1 3.4 1.4 3.4 3.3zm-12.5-6.3h6.2c0-7.9-1.2-8.6-2.9-8.6-1.5-.1-3.2 1-3.3 8.6z"/><path d="m930.6 598.4v5.5h-50.1v-13s-10.5 15.8-32.9 15.8c-28.2 0-31.2-23.4-31.2-31.3 0-10 2.8-33.1 46.5-32.9h17.6v-4.3c0-4.7-.8-26.8-20.7-26.8-8.3 0-14 2-12 9.3h-.2c.2 1 .4 1.8.4 2.6 0 6.5-5.3 11.8-11.8 11.8-6.7 0-12-5.3-12-11.8 0-2.2.8-4.1 1.8-5.9 0-.2.2-.4.4-.6 6.1-10.6 24.3-13.6 35.9-13.6 37.5 0 52.1 15.4 52.1 40.8v40c0 7.9 6.5 14.4 14.4 14.4zm-60.5-47.7c-5.3 0-21.1 3-21.1 22.1 0 7.7 1.2 21.5 15.8 21.5s15.8-16.9 15.8-24.2v-19.3h-10.5z"/><path d="m1035.8 523.2c0 6.5-5.3 11.8-11.8 11.8-6.7 0-12-5.3-12-11.8 0-1.4.4-2.6.8-3.7h-.2c.2-.2.2-.4.2-.6l.4-.6c2-5.5-1.8-6.9-5.5-6.9-14.6 0-23.1 25.2-23.1 44.3v28.3c0 7.9 6.3 14.4 14.2 14.4h2v5.5h-66.3v-5.5h1.8c8.1 0 14.4-6.5 14.4-14.4v-58.3c0-7.9-6.3-14.4-14.4-14.4h-1.8v-5.5h50.1v18.5c1.4-5.5 10.8-21.3 29.6-21.3 12.6 0 19.9 10.6 21.3 17.7h.2v.2c-.1.7.1 1.5.1 2.3z"/><path d="m1091.5 598.4v5.5h-66.3v-5.5h1.8c8.1 0 14.4-6.5 14.4-14.4v-103.8c0-8.1-6.3-14.4-14.4-14.4h-1.8v-5.7h50.1v123.9c0 7.9 6.3 14.4 14.4 14.4z"/><path d="m1164.1 603.9h-66.3v-5.5h1.8c8.1 0 14.4-6.5 14.4-14.4v-58.3c0-7.9-6.3-14.4-14.4-14.4h-1.8v-5.5h50.1v78.2c0 7.9 6.3 14.4 14.4 14.4h1.8zm-52.7-126c0-9.8 7.9-17.7 17.6-17.7s17.6 7.9 17.6 17.7c0 9.6-7.9 17.5-17.6 17.5s-17.6-7.9-17.6-17.5z"/><path d="m1246.6 592.5c-1 1-1.8 1.8-3 2.4-7.5 6.1-18.9 11.2-34.9 11.2-42.8 0-53.8-29.3-53.8-51.8s11-51.8 53.8-51.8c14.4 0 27.2 6.1 34.1 9.8h-.2c3.7 2 6.1 5.9 6.1 10.2 0 6.5-5.3 11.8-11.8 11.8s-11.8-5.3-11.8-11.8c0-5.3-4.7-11.8-10.8-11.8-7.1 0-22.9 5.3-22.9 43.5s15.8 43.5 23.1 43.5c3.9 0 8.9-3.3 6.3-7.7-1.6-2.6-2.4-5.5-2.4-8.7 0-8.9 7.3-16.1 16.2-16.1 9.1 0 16.2 7.3 16.2 16.1-.1 4.5-1.6 8.2-4.2 11.2z"/><path d="m812.6 682.5c0 55.9-1.4 103.7-60.6 103.7-41.3 0-47-34.9-46.9-43.9.3-26.4 19.6-35 19.6-35s16.2-9.5 28.9-2.8c6.7 3.5 13.2 11.5 10 20.7-2.4 6.9-9.1 11.7-16.3 10.5-9.1-1.5-13.4-8.2-13.4-8.2-22.8 0-17.2 52.9 17.6 52.9 28.8 0 24.8-57.2 24.9-97.6 0-21.6.1-75.3 0-98.3-5.6 16.7-18.9 32.3-43.4 35.5-47.6 6.1-64.5-32.1-64.5-58.2-1.6-42 34.1-74.7 71.6-81.5 17.1-3.1 21-2.3 21-2.3 24.1 0 49.8 10.1 49.8 34.2 0 17.3-11.7 38.9-45.9 38.1-.4 0-28-2.4-28-20.2 0-9.2 4.3-14.3 8.2-16.5 8.6-4.8 20.5 1 20.7 10.3.3 13.6-15.4 11.8-14.9 12.4 5.8 5.8 19.7 4.2 19.7 4.2 10.9-.8 24.8-11.6 23.2-27.6-2.2-21.4-24.1-32.2-42-26-24.5 8.4-43.6 35.7-48.7 64.1-2.2 12.4-6.7 57.5 30 57.5 28.7 0 43.8-38.4 47.9-50.7.4-1.2.7-2.1.9-2.7.2-.1.4-.3.5-.4 3.3-2.1 6.9-3.1 10.4-3.1 9.6 0 18.6 7.3 19.1 18.1 1 28.8.6 83.8.6 112.8z"/><path d="m1015.5 419.2c-1.1 12.3-11.5 22.1-24.1 22.1h-84.8v-6.1l66.8-95.7h-35.4c-2.8 0-4.8 2.2-4.8 4.8 0 .9 0 1.5.4 2.2.9 1.9 1.5 3.9 1.5 6.1 0 7.1-5.9 13-13 13-7.4 0-13.2-5.8-13.2-13 0-10.4 8.7-19.1 19.1-19.1h82.4v6.1l-66.6 95.7h33.4c3 0 5.6-2.6 5.6-5.8 0-1.1-.2-2.2-.9-3.2-1.5-2.6-2.4-5.6-2.4-8.9 0-9.7 8-17.8 18-17.8 9.8 0 17.8 7.8 17.8 17.8v1.8z"/><path d="m1121.7 419.2c-1.1 12.3-11.5 22.1-24.1 22.1h-84.8v-6.1l66.8-95.7h-35.3c-2.8 0-4.8 2.2-4.8 4.8 0 .9 0 1.5.4 2.2.9 1.9 1.5 3.9 1.5 6.1 0 7.1-5.9 13-13 13-7.4 0-13.2-5.8-13.2-13 0-10.4 8.7-19.1 19.1-19.1h82.4v6.1l-66.6 95.7h33.4c3 0 5.6-2.6 5.6-5.8 0-1.1-.2-2.2-.9-3.2-1.5-2.6-2.4-5.6-2.4-8.9 0-9.7 8-17.8 18-17.8 9.8 0 17.8 7.8 17.8 17.8v1.8z"/><path d="m1250.7 435.2v6.1h-55.1v-14.3s-11.5 17.3-36.2 17.3c-31 0-34.3-25.8-34.3-34.4 0-11 3-36.4 51.2-36.2h19.3v-4.8c0-5.2-.9-29.5-22.8-29.5-9.1 0-15.4 2.2-13.2 10.2h-.2c.2 1.1.4 1.9.4 2.8 0 7.1-5.9 13-13 13-7.4 0-13.2-5.8-13.2-13 0-2.4.9-4.5 2-6.5 0-.2.2-.4.4-.6 6.7-11.7 26.7-14.9 39.5-14.9 41.2 0 57.3 16.9 57.3 44.8v44.2c0 8.7 7.2 15.8 15.8 15.8zm-66.5-52.4c-5.9 0-23.2 3.2-23.2 24.3 0 8.4 1.3 23.6 17.3 23.6s17.3-18.6 17.3-26.6v-21.2h-11.4z"/><path d="m913.8 486.3c-8.9 0-15.8-7.2-15.8-15.8v-133h-55.1v6.1h2c19.1 0 15.8 17.8 15.8 62.9v64.1c0 8.7-6.9 15.8-15.8 15.8h-2v6.1h72.9v-6.1h-2z"/><path d="m898 301.8c-3.1 13.6-13.7 17.9-13.7 17.9-27.9 7.1-41-10.5-74.6-18.9s-68.3 7.4-68.3 28.3c0 14.7 11.2 6.1 11.2 6.1s3.1-7.4 14.7-7.4c6.3 0 17.9 5.2 17.9 19.9 0 13.6-12.6 18.4-21.7 18.4-10.3 0-29.3-9.5-29.3-36.1 0-58 75.9-54.2 89-52.2 0 0 33.4 4.2 46.4 4.1.9 0 2 0 3.1-.1 1.8-.1 3.9-.3 6-.5 8.9-.9 18.8-2.5 18.8-2.5 1.3 7.9 2.7 13.3.5 23z"/></g></svg>