<svg enable-background="new 0 0 1920 1080" viewBox="0 0 1920 1080" xmlns="http://www.w3.org/2000/svg"><path d="m1028.4 44.6c-197.1 0-356.9 159.8-356.9 356.9s159.8 356.9 356.9 356.9 356.9-159.8 356.9-356.9-159.8-356.9-356.9-356.9zm-101.7 492.9c0 23.5-19.1 42.6-42.6 42.6s-42.6-19.1-42.6-42.6v-184.7c0-23.5 19.1-42.6 42.6-42.6s42.6 19.1 42.6 42.6zm158.3 0c0 23.5-19.1 42.6-42.6 42.6s-42.6-19.1-42.6-42.6v-312.5c0-23.5 19.1-42.6 42.6-42.6s42.6 19.1 42.6 42.6zm153.9 0c0 23.5-19.1 42.6-42.6 42.6s-42.6-19.1-42.6-42.6v-61.1c0-23.5 19.1-42.6 42.6-42.6s42.6 19.1 42.6 42.6z" fill="#fdd301"/><g fill="#0c1322"><path d="m381.8 822.1h34.6v131.1h67.8v26.9h-102.4z"/><path d="m523.2 933c0 7.2 0 29.5 22.5 29.5 8.1 0 16.2-3.1 19.3-15.3h29.5c-.4 5.3-1.5 14.7-10.5 24.1-8.1 8.5-22.5 12.9-38.7 12.9-9.4 0-27.4-1.8-39-13.8-10.1-10.5-14.2-25.4-14.2-43.1 0-17.9 4.4-39.4 23-52.3 8.5-5.7 19-9.2 31.1-9.2 15.8 0 34.6 6.1 44.6 26.7 7.4 15.1 7 31.3 6.6 40.5zm41.1-20.3c0-5-.4-24.7-19.3-24.7-14.2 0-20.1 11.8-20.8 24.7z"/><path d="m614 890.4c0-7-.4-13.8-1.1-20.8h31.3l1.1 14.2c3.5-4.8 12-16.6 34.1-16.6 25.4 0 32.6 15.5 34.8 20.8 9.2-17.7 24.1-20.6 35.4-20.6 22.3 0 31.3 13.3 33.7 17.7 5.9 9.6 5.5 23 5.5 32.6v62.4h-32.6v-65c0-11.8-1.8-24.9-18.6-24.9-19.5 0-19.9 18.2-19.9 34.6v55.4h-32.6v-65.6c0-8.5-.2-24.3-18.2-24.3-20.4 0-20.4 17.5-20.4 24.9v65h-32.5z"/><path d="m755.8 890.4c0-7-.4-13.8-1.1-20.8l13.1 7.1c8.4 3.4 11.1 21 19.3 7.2 3.5-4.8 12-16.6 34.1-16.6 25.4 0 32.6 15.5 34.8 20.8 9.2-17.7 24.1-20.6 35.5-20.6 22.3 0 31.3 13.3 33.7 17.7 5.9 9.6 5.5 23 5.5 32.6v62.4h-32.6v-65c0-11.8-1.8-24.9-18.6-24.9-19.5 0-19.9 18.2-19.9 34.6v55.4h-32.6v-65.6c0-8.5-.2-24.3-18.2-24.3-20.4 0-20.4 17.5-20.4 24.9v65h-32.6z"/><path d="m1003.4 867c40 0 57.3 27.1 57.3 58 0 31.1-17.9 59.1-58 59.1-31.5 0-56.5-19.5-56.5-58.2.1-26.8 13.7-58.9 57.2-58.9zm.5 94.5c14.2 0 23.9-8.5 23.9-37.9 0-14.7-2.8-35-24.3-35-23.6 0-23.9 27.4-23.9 37.4 0 24.8 8.3 35.5 24.3 35.5z"/><path d="m1080 889.3c0-.4 0-12.5-.7-20.1h31.1l.9 16.6c3.1-5 11.8-19.3 35.9-19.3 21.7 0 30.9 13.1 33.7 20.8 2.4 6.8 3.1 12.5 3.1 33v59.7h-33v-68.7c0-4.6 0-8.5-1.8-12-2.4-4.8-7.4-9.4-15.8-9.4-7 0-13.3 3.3-16.9 8.5-2 2.8-3.9 8.3-3.9 16.8v64.8h-32.6z"/><path d="m1208.7 822.1h32.2v62.6c3.7-5.3 11.8-16.6 31.9-16.6 16.4 0 26.9 8.1 32.2 14.9 3.9 5.5 7.2 15.5 7.2 30v67.2h-32.2v-66.2c0-6.3 0-24.1-18.2-24.1-9.2 0-20.8 5.3-20.8 22.5l.2 67.6h-32.6v-157.9z"/><path d="m1362.1 933c0 7.2 0 29.5 22.5 29.5 8.1 0 16.2-3.1 19.3-15.3h29.5c-.4 5.3-1.5 14.7-10.5 24.1-8.1 8.5-22.5 12.9-38.7 12.9-9.4 0-27.4-1.8-38.9-13.8-10.1-10.5-14.2-25.4-14.2-43.1 0-17.9 4.4-39.4 23-52.3 8.5-5.7 19-9.2 31.1-9.2 15.8 0 34.6 6.1 44.6 26.7 7.4 15.1 7 31.3 6.6 40.5zm41.1-20.3c0-5-.4-24.7-19.3-24.7-14.2 0-20.1 11.8-20.8 24.7z"/><path d="m1518.5 980.1c-1.1-6.8-1.1-11.8-1.1-15.1-12.3 17.7-26.9 17.7-33 17.7-16 0-23.2-4.6-27.6-8.8-6.6-6.6-9.6-15.5-9.6-24.3s3.1-24.9 23.4-34.4c13.6-6.1 33-6.1 43.8-6.1 0-7.2-.2-10.7-1.5-14.7-2.8-8.1-11.4-9.2-14.4-9.2-4.6 0-9.4 2-12.3 6.1-2.4 3.7-2.4 7.2-2.4 9.8h-31.8c.2-5.9.9-17.7 12.5-26 10.1-7.2 23-9 33.5-9 9.2 0 28.4 1.5 39.4 14.2 7.4 9 7.7 22.1 7.7 27.1l.2 44.4c0 9.4.7 18.8 2.6 28h-29.4zm-39.8-34.2c0 7.4 5 15.8 15.8 15.8 5.9 0 10.7-2.8 13.8-6.3 5.7-7 6.1-15.5 6.1-27.4-20.8-1.7-35.7 4.8-35.7 17.9z"/><path d="m1641.5 822.1h32.6v140c0 6.6.4 13.8.9 17.9h-32.8l-.9-16c-2.2 3.9-4.4 8.1-11.2 12.5-8.1 5.3-16.6 5.7-21.4 5.7-29.5 0-47-20.4-47-54.9 0-36.5 19.9-59.3 48.8-59.3 19.9 0 28.2 11.2 31.1 15.1v-61zm-24.7 139.2c9.4 0 17.1-5.7 20.6-12.5 4.8-9.2 5.3-20.6 5.3-26 0-21.7-9.4-33.5-24.1-33.5-21.7 0-24.1 26-24.1 37.2 0 18.4 6.1 34.8 22.3 34.8z"/></g></svg>