<svg enable-background="new 0 0 1920 1080" viewBox="0 0 1920 1080" xmlns="http://www.w3.org/2000/svg" xmlns:xlink="http://www.w3.org/1999/xlink"><linearGradient id="a" gradientUnits="userSpaceOnUse" x1="340.4473" x2="725.16" y1="517.2681" y2="517.2681"><stop offset="0" stop-color="#f7931e"/><stop offset=".2806" stop-color="#f15a24"/><stop offset=".5787" stop-color="#f08"/><stop offset="1" stop-color="#f15a24"/></linearGradient><g fill="#4f00e7"><path d="m794.4 603.1-68.2-189.9c-.5-1.3-1.6-2.1-3-2.1h-41.2c-1.4 0-2.5.8-3 2.1l-68.2 189.9c-.7 2.1.8 4.3 3 4.3h34.5c1.4 0 2.6-.9 3-2.1l12.2-35.2h78l12.2 35.2c.4 1.3 1.6 2.1 3 2.1h34.8c2.1 0 3.7-2.2 2.9-4.3zm-120.3-64.5 28.4-82 28.3 82z"/><path d="m948.6 410.6h-33.7c-1.7 0-3.1 1.4-3.1 3.1v59.8c-5.4-7.3-12.7-13.2-21.9-17.5-9.2-4.4-18.8-6.6-28.9-6.6-13.3 0-25.4 3.3-36.2 9.8-10.9 6.6-19.4 15.9-25.7 28.1s-9.4 26.1-9.4 41.8c0 15.9 3.1 30 9.4 42.2 6.3 12.3 14.8 21.8 25.7 28.5s22.8 10.1 35.9 10.1c11.6 0 21.8-2.3 30.6-7s15.6-10.9 20.5-18.5v20c0 1.7 1.4 3.1 3.1 3.1h33.7c1.7 0 3.1-1.4 3.1-3.1v-190.7c0-1.7-1.4-3.1-3.1-3.1zm-42.1 143.6c-3.7 6.8-8.8 12.1-15.2 15.7-6.4 3.7-13.2 5.5-20.5 5.5-7.1 0-13.8-1.9-20.1-5.6s-11.3-9.1-15.2-16.1c-3.8-7-5.8-15.2-5.8-24.6s1.9-17.4 5.8-24.3c3.8-6.8 8.8-12 15-15.6 6.2-3.5 12.9-5.3 20.2-5.3s14.1 1.8 20.5 5.5 11.4 8.9 15.2 15.7c3.7 6.8 5.6 15 5.6 24.6.1 9.4-1.7 17.6-5.5 24.5z"/><path d="m1024.7 484.1v75.2c0 5.2 1.3 9 3.8 11.4 2.5 2.3 6.8 3.5 12.8 3.5h14.4c2.1 0 3.8 1.7 3.8 3.8v25.5c0 2.1-1.7 3.8-3.8 3.8h-20.9c-33.1 0-49.7-16.1-49.7-48.3v-75h-14.7c-2.1 0-3.8-1.7-3.8-3.8v-24.7c0-2.1 1.7-3.8 3.8-3.8h14.7v-37.4c0-2.1 1.7-3.8 3.8-3.8h32c2.1 0 3.8 1.7 3.8 3.8v37.4h31c2.1 0 3.8 1.7 3.8 3.8v24.7c0 2.1-1.7 3.8-3.8 3.8h-31z"/><path d="m1216.3 487.5c-7-12.2-16.6-21.6-28.8-28.2s-25.7-10-40.7-10-28.5 3.3-40.7 10-21.8 16.1-28.8 28.2c-7 12.2-10.5 26.2-10.5 42.1s3.4 29.9 10.3 42.1c6.8 12.2 16.2 21.6 28.2 28.2s25.4 10 40.4 10c15.2 0 28.9-3.3 41.1-10 12.3-6.7 22-16 29.2-28.2s10.8-26.2 10.8-42.1-3.5-29.9-10.5-42.1zm-35.5 67.4c-3.7 6.9-8.7 12.1-15 15.6s-13 5.2-20.1 5.2c-11.2 0-20.5-4-27.9-11.9-7.4-8-11.1-19.3-11.1-34.1s3.8-26.1 11.4-34.1c7.6-7.9 17-11.9 28.2-11.9s20.7 4 28.5 11.9c7.8 8 11.6 19.3 11.6 34.1 0 9.8-1.9 18.3-5.6 25.2z"/><path d="m1378.7 607.4h-40.3c-1.2 0-2.4-.6-3.1-1.5l-51.6-64.7v62.3c0 2.2-1.8 4-4 4h-31.3c-2.2 0-4-1.8-4-4v-188.9c0-2.2 1.8-4 4-4h31.3c2.2 0 4 1.8 4 4v103.2l51-64.4c.7-1 1.9-1.5 3.1-1.5h40.3c3.4 0 5.3 4.1 3 6.6l-62.7 71.4 63.1 70.8c2.5 2.6.7 6.7-2.8 6.7z"/><path d="m1533.8 451.8h-31.6c-2.2 0-4 1.8-4 4v18.2c-5.2-7.1-12.2-13-20.9-17.7s-18.9-7-30.5-7c-13.3 0-25.3 3.3-36.1 9.8-10.8 6.6-19.3 15.9-25.5 28.1-6.3 12.2-9.4 26.1-9.4 41.8 0 15.9 3.1 30 9.4 42.2 6.3 12.3 14.8 21.8 25.5 28.5 10.8 6.7 22.7 10.1 35.8 10.1 11.6 0 21.9-2.4 30.7-7.2 8.9-4.8 15.9-10.8 20.9-18.1v18.7c0 2.2 1.8 4 4 4h31.6c2.2 0 4-1.8 4-4v-147.4c.1-2.2-1.7-4-3.9-4zm-41.2 102.4c-3.7 6.8-8.8 12.1-15.1 15.7-6.4 3.7-13.2 5.5-20.5 5.5-7.1 0-13.8-1.9-20.1-5.6s-11.3-9.1-15.1-16.1-5.8-15.2-5.8-24.6 1.9-17.4 5.8-24.3c3.8-6.8 8.8-12 15-15.6 6.2-3.5 12.9-5.3 20.2-5.3s14.1 1.8 20.5 5.5 11.4 8.9 15.1 15.7 5.6 15 5.6 24.6c0 9.4-1.8 17.6-5.6 24.5z"/><path d="m1646.5 453.7v33.1c0 2.2-1.8 4-4 4h-6.4c-12.4 0-21.7 2.9-27.9 8.7-6.3 5.8-9.4 15.9-9.4 30.3v73.5c0 2.2-1.8 4-4 4h-31.3c-2.2 0-4-1.8-4-4v-147.5c0-2.2 1.8-4 4-4h31.3c2.2 0 4 1.8 4 4v20.2c5-8.2 11.6-14.7 19.8-19.4 7-4 14.9-6.3 23.7-6.9 2.2-.1 4.2 1.7 4.2 4z"/><path d="m1720.2 484.1v75.2c0 5.2 1.3 9 3.8 11.4 2.5 2.3 6.8 3.5 12.8 3.5h14.3c2.2 0 4 1.8 4 4v25.1c0 2.2-1.8 4-4 4h-20.7c-33.1 0-49.7-16.1-49.7-48.3v-75h-14.5c-2.2 0-4-1.8-4-4v-24.3c0-2.2 1.8-4 4-4h14.5v-37.3c0-2.2 1.8-4 4-4h31.6c2.2 0 4 1.8 4 4v37.3h30.8c2.2 0 4 1.8 4 4v24.3c0 2.2-1.8 4-4 4h-30.9z"/></g><path d="m520.7 734c-41 41.5-107.8 41.8-149.2.8l-196.3-194c-11.6-11.5-11.7-30.2-.3-41.8l64.4-65.3h28.5v23.3l-51.5 52.4c-5.6 5.7-5.6 14.9.1 20.5l180.9 178.9c13.4 13.3 30.9 19.9 48.4 19.9 17.7 0 35.5-6.8 48.9-20.4 26.7-27 26.4-70.6-.6-97.3l-101.1-100 96.1-97.2c24.6-24.8 24.4-64.9-.5-89.5s-64.9-24.4-89.5.5l-17.7 18.1h-22.7v-29.2l14.2-14.7c19.6-19.8 45.4-29.7 71.1-29.7 25.4 0 50.9 9.6 70.3 28.9 39.3 38.8 39.6 102.1.8 141.4l-70.3 71.1 75 74.2c41.6 40.9 41.9 107.7 1 149.1z" fill="url(#a)"/><path d="m387.8 385.8c0 5.1-2.1 9.7-5.4 13-3.3 3.4-8 5.4-13 5.4h-37.8v37.8c0 10.2-8.3 18.5-18.5 18.5-10.3 0-18.5-8.3-18.5-18.5v-37.8h-37.7c-10.3 0-18.5-8.3-18.5-18.5s8.3-18.5 18.5-18.5h37.7v-37.8c0-10.3 8.3-18.5 18.5-18.5 5.1 0 9.7 2.1 13 5.5 3.4 3.3 5.4 7.9 5.4 13v37.8h37.8c10.2.1 18.5 8.4 18.5 18.6z" fill="#4f00e7"/></svg>