<svg enable-background="new 0 0 1920 1080" viewBox="0 0 1920 1080" xmlns="http://www.w3.org/2000/svg"><path d="m1604.3 627.3c11.8 13.3 22.7 29.7 71.2 50.8 22.7 9.9 50.8 0 59.9-26.8 5.6-16.7-12.6-39.6-25.3-55.5-11-13.8-24-28.5-35.4-41.9-13.8-16.1-25.2-27.6-36.1-45.9-4.7-7.8-10.1-21.8-12.1-30.7-1.7-7.9-2-26.1-.5-34.1 6.8-35.9 40.8-59.5 76.4-67.4 0 0 130.5-28.5 143.1 102.9l-12.4 1c-35.6-61-80.2-60.5-85-60.5-7.2 0-34.2-1.6-34 29.2 0 9.1 8.1 18.8 17.5 31 37.1 48.4 100.6 76.5 98.4 143.5-.5 16.8-6.1 31.2-18.7 49.2-9.2 13.2-18.9 23.4-34.1 31.4-22.3 11.7-35.6 15.3-55.8 16.3-86.6 0-117.1-78.7-117.1-78.7 0-11.3 0-3.7 0-13.8z" fill="#ff1d1d"/><path d="m1034.9 343.7c-23.9.9-55.4 1.9-89.3 2.7-5.4 107.8-3.8 261.5-1.2 314.7 2.5 50.2 23.9 50.9 25 50.9-3.4 1.6-147.2 66.4-147-53.6.1-76.8 2.1-216.6 3.6-309.2-65.5 1.3-117.9 2.2-117.9 2.2s-40.4-114.4 45.4-114.5c85.7-.1 242.1 6.9 289.9 2.2 41.6-4.1 41.8-26.1 41.8-26.6 0 0 48.7 127.5-50.3 131.2z" fill="#ff1d1d"/><path d="m1296.1 493.1c-51.3 16.4-73.2-28.3-47.8-76 0 0-93.4-18.2-109.2 217-1.9 27.5-2.7 58.4-2.1 93.3-21.4 5.6-100.5 22.2-101.6-43-1.2-75.4 8.4-209.8 3.6-251.8-4.1-36-22.9-36.4-23.9-36.4 2.9-1.2 111.4-43.4 116 42.5.7 13.9 1.5 30.6 2.3 49 7.5-34.7 31.6-103 105.9-117.4 100.7-19.5 108 106.5 56.8 122.8z" fill="#ff1d1d"/><path d="m1410.2 630.4c0-3.4 1.4-3.1 1.4-3.1 71.2 0 176.8-70.3 176.8-160 0-172.6-260.2-124.2-262 132.3-1.8 254.4 253.1 68.9 263.3 41.5l-.1-12.4s-179.4 135.9-179.4 1.7zm127.1-155.8c8.2 80.2-86.8 121.5-125.7 132.4 2.6-123.7 118.5-203 125.7-132.4z" fill="#ff1d1d"/><path d="m518.1 570.2c-90.3-20.1-120.4-25.1-170.6 5 0 0 15.8-64.9 52-115.6-18.6 9.8-32.6 23-47.3 43.9 0 0-4.8-26.8-5-62-9.9 8.8-18.9 16.1-25.7 21.3-1.4 24.2-4.4 40.7-4.4 40.7-9.9-14.1-19.5-24.7-30.3-33.1 31 48.6 44.7 104.7 44.7 104.7-50.2-30.1-80.3-25.1-170.6-5-83.8 18.7-124.4-109.1-30.2-156-49-43.8-15.2-153.7 94.9-137.7 6.3.9 12.2 2.3 17.8 4.1 0-48.1 42.4-85.1 86.7-88.4 47.4-3.5 96.8 30.4 93.3 87.1.1.6.3 1.3.4 2 6.1-2.1 12.7-3.7 19.8-4.7 107.7-15.6 142.4 89.1 98 134.7 102.6 44 62 178-23.5 159z" fill="#03ea13"/><path d="m603 587.9v38.1c0 145.2-117.7 262.9-262.9 262.9-145.3.1-263-117.6-263-262.8v-38.1h252.7l-74.6 103.7c-48.2 67.1-.3 160.6 82.3 160.6 82.5 0 130.5-93.3 82.5-160.4l-74.4-103.9z" fill="#00a4ff"/><g fill="#ff1d1d"><path d="m752.5 805c0 4.4-.7 8.1-2.2 11s-3.5 5.2-6 6.9-5.5 2.9-8.8 3.5c-3.3.7-6.8 1-10.4 1h-8.7v28.3h-6v-69.3c2.4-.2 4.9-.4 7.5-.6s5.3-.3 7.9-.3c9.3 0 16.1 1.6 20.4 4.9 4.1 3.4 6.3 8.2 6.3 14.6zm-6.4.6c0-3-.5-5.5-1.6-7.4-1-1.9-2.5-3.5-4.3-4.6s-4-2-6.4-2.4c-2.5-.5-5.1-.7-7.9-.7-2.2 0-4.1 0-5.5.1s-2.8.2-4.2.3v31.5h9.8c6.3 0 11.3-1.3 14.8-3.9 3.6-2.6 5.3-6.9 5.3-12.9z"/><path d="m802.7 855.7h-6v-5.6c-1.6 1.7-3.9 3.2-6.8 4.5-2.9 1.4-6.5 2-10.6 2-2.5 0-4.6-.3-6.4-.9s-3.3-1.4-4.6-2.4c-1.2-1-2.2-2.1-3-3.4-.7-1.2-1.2-2.6-1.5-4-.4-1.5-.6-3-.7-4.5-.1-1.6-.2-3.1-.2-4.7v-29.6h.4c1.5 0 2.7.4 3.8 1.1 1.1.8 1.7 2.3 1.7 4.5v24.1c0 1.4.1 2.8.3 4.2s.4 2.6.8 3.6c1.3 4.5 5.2 6.7 11.7 6.7 1.7 0 3.5-.2 5.3-.7s3.4-1.1 4.9-1.8 2.7-1.5 3.6-2.5c.9-.9 1.4-1.8 1.4-2.6v-36.6h.4c1.5 0 2.7.4 3.8 1.1 1.1.8 1.7 2.3 1.7 4.6z"/><path d="m825.2 812.8c.4-.6 1-1.3 1.7-2.1s1.5-1.5 2.5-2.1c1-.7 2.1-1.2 3.3-1.6s2.5-.6 4-.6c.6 0 1.4 0 2.2.2.8.1 1.6.3 2.3.5s1.3.6 1.8 1.1.7 1.1.7 1.9-.2 1.6-.7 2.4-.9 1.5-1.3 2c-.8-.8-1.6-1.4-2.6-1.8s-2.3-.6-3.8-.6c-1.2 0-2.5.2-3.7.7s-2.3 1.1-3.2 1.8c-.9.8-1.7 1.6-2.2 2.6-.6 1-.8 2-.8 3v35.7h-5.9v-48.5h.4c1.4 0 2.6.4 3.8 1.2.9.6 1.5 2.1 1.5 4.2z"/><path d="m860.8 794.4c0 1.3-.4 2.4-1.3 3.4-.9.9-1.9 1.4-3.2 1.4s-2.3-.5-3.2-1.4-1.3-2.1-1.3-3.4.4-2.4 1.3-3.4c.9-.9 1.9-1.4 3.2-1.4s2.3.5 3.2 1.4c.8.9 1.3 2.1 1.3 3.4zm-.2 61.8c-1.7 0-3-.3-3.9-.9s-1.6-1.4-2.1-2.4-.7-2.1-.8-3.4-.2-2.6-.2-4v-38.4h.3c1.4 0 2.7.4 3.8 1.1 1.2.7 1.8 2.2 1.8 4.3v33.3c0 1.5.1 2.8.3 3.7.2 1 .5 1.7.9 2.3s1 1 1.6 1.2c.7.2 1.5.4 2.4.5v2.2c-.8.2-1.5.3-2.2.4-.6.1-1.3.1-1.9.1z"/><path d="m914.3 856.2c-1.6 0-2.9-.3-3.9-.9s-1.6-1.4-2.1-2.4c-.4-1-.7-2.1-.8-3.4s-.1-2.6-.1-4v-33.4h-24.6v43.6h-5.9v-54.7c0-2 .1-3.8.3-5.5.8-4.8 2.8-8.4 6-10.8s7.3-3.6 12.1-3.6c3.3 0 6.2.5 8.7 1.6s4.4 2.1 5.6 3.2c.8.6 1.3 1.2 1.5 1.7s.4 1 .4 1.5c0 .6-.2 1.1-.5 1.7s-.7 1.2-1.2 1.9h-.9c-1.3-1.8-3.1-3.3-5.5-4.6-2.3-1.3-5.1-1.9-8.3-1.9-2.9 0-5.5.7-7.8 2-2.3 1.4-3.7 3.6-4.3 6.8-.2 1.4-.3 2.8-.3 4.4v7.9h30.6v38.7c0 1.5.1 2.8.3 3.7.2 1 .5 1.7.9 2.3s1 1 1.6 1.2c.7.2 1.5.4 2.4.5v2.2c-.8.2-1.5.3-2.2.4-.6-.1-1.3-.1-2-.1z"/><path d="m967.4 849.8c0 .6-.4 1.4-1.2 2.2s-1.9 1.6-3.4 2.4-3.2 1.5-5.2 2c-2 .6-4.3.8-6.8.8-3.3 0-6.4-.5-9.2-1.5s-5.2-2.5-7.3-4.6-3.6-4.8-4.7-8.1-1.7-7.2-1.7-11.8c0-4.4.6-8.1 1.8-11.3s2.8-5.7 4.9-7.7c2-2 4.4-3.5 7-4.5s5.3-1.5 8.1-1.5c3.4 0 6.3.6 8.7 1.8s4.4 2.7 5.9 4.7c1.5 1.9 2.6 4.2 3.3 6.7s1 5.1 1 7.8c0 1.7-.1 3.4-.3 5.3h-34.1c.1 2.9.4 5.6 1.1 8s1.7 4.5 3.1 6.2 3.1 3.1 5.2 4 4.5 1.4 7.4 1.4c2.1 0 4-.2 5.6-.7s3-1 4.1-1.7 2.1-1.3 2.8-2 1.3-1.3 1.6-1.8c.7.8 1.2 1.5 1.7 2.1.4.9.6 1.4.6 1.8zm-4.7-21.6c0-2.3-.2-4.5-.6-6.5s-1.1-3.8-2.2-5.4c-1-1.5-2.4-2.7-4.2-3.6s-4-1.4-6.6-1.4c-4.3 0-7.8 1.5-10.5 4.4s-4.1 7.1-4.3 12.5z"/><path d="m1014.8 855.7v-4.7c-.4.6-1 1.2-1.8 1.9s-1.8 1.4-3 2-2.5 1.2-4.1 1.6c-1.6.5-3.4.7-5.5.7-2.8 0-5.5-.5-8-1.3-2.5-.9-4.7-2.4-6.7-4.4-1.9-2-3.5-4.6-4.6-7.7s-1.7-7-1.7-11.6c0-5 .7-9.1 2-12.4 1.4-3.3 3.1-5.9 5.3-8s4.5-3.4 7-4.3c2.5-.8 5-1.2 7.4-1.2 2.1 0 4 .2 5.6.7s2.9 1.1 4.1 1.7c1.1.7 2 1.3 2.6 1.9l1.2 1.2v-29.8h.3.4.4c.4 0 .9 0 1.5.2.6.1 1.1.3 1.6.7s1 .9 1.3 1.6.5 1.6.5 2.7v68.6zm-28.9-24.6c0 3.1.3 5.9.8 8.4.6 2.6 1.5 4.8 2.7 6.7s2.9 3.4 4.9 4.4c2 1.1 4.5 1.6 7.3 1.6 1.9 0 3.6-.3 5.2-.8s2.9-1.2 4.1-1.9c1.1-.8 2.1-1.6 2.8-2.5s1.1-1.8 1.1-2.6v-27.1c-.4-.5-1-1.1-1.7-1.8s-1.6-1.4-2.7-2-2.3-1.2-3.7-1.6c-1.4-.5-3-.7-4.7-.7-5.2 0-9.2 1.7-12 5-2.7 3.5-4.1 8.4-4.1 14.9z"/><path d="m1109.7 820.3c0 6.3-.9 12-2.8 17s-5.1 9.2-9.6 12.5c-5.2 3.9-12.2 5.8-21.1 5.8h-17.6v-69.4c3.3-.4 6.3-.6 9-.7s5.2-.2 7.6-.2c6.9 0 12.6.9 17.1 2.8s8 4.4 10.5 7.6c2.6 3.2 4.3 6.9 5.3 11.1 1.1 4.3 1.6 8.8 1.6 13.5zm-6.3.1c0-4.2-.4-8.1-1.3-11.7-.8-3.6-2.3-6.7-4.4-9.4s-5-4.8-8.6-6.4-8.1-2.3-13.5-2.3c-1.7 0-3.4 0-5.3.1-1.8.1-3.7.2-5.6.4v59.6h11.9c5.4 0 9.7-.9 13.2-2.7 3.4-1.8 6.2-4.1 8.2-7s3.4-6.1 4.2-9.7c.8-3.7 1.2-7.3 1.2-10.9z"/><path d="m1129.7 812.8c.4-.6 1-1.3 1.7-2.1s1.5-1.5 2.5-2.1c1-.7 2.1-1.2 3.3-1.6s2.5-.6 4-.6c.6 0 1.4 0 2.2.2s1.6.3 2.3.5 1.3.6 1.8 1.1.7 1.1.7 1.9-.2 1.6-.7 2.4-.9 1.5-1.3 2c-.8-.8-1.6-1.4-2.6-1.8s-2.3-.6-3.8-.6c-1.2 0-2.5.2-3.7.7s-2.3 1.1-3.2 1.8c-.9.8-1.7 1.6-2.2 2.6-.6 1-.8 2-.8 3v35.7h-5.9v-48.5h.4c1.4 0 2.6.4 3.8 1.2.9.6 1.5 2.1 1.5 4.2z"/><path d="m1165.2 794.4c0 1.3-.4 2.4-1.3 3.4-.9.9-1.9 1.4-3.2 1.4-1.2 0-2.3-.5-3.2-1.4s-1.3-2.1-1.3-3.4.4-2.4 1.3-3.4 1.9-1.4 3.2-1.4c1.2 0 2.3.5 3.2 1.4s1.3 2.1 1.3 3.4zm-.2 61.8c-1.7 0-3-.3-3.9-.9s-1.6-1.4-2.1-2.4-.7-2.1-.8-3.4-.2-2.6-.2-4v-38.4h.3c1.4 0 2.7.4 3.8 1.1 1.2.7 1.8 2.2 1.8 4.3v33.3c0 1.5.1 2.8.3 3.7.2 1 .5 1.7.9 2.3s1 1 1.6 1.2c.7.2 1.5.4 2.4.5v2.2c-.8.2-1.5.3-2.2.4-.5.1-1.2.1-1.9.1z"/><path d="m1187 812.9c1.6-1.7 3.9-3.2 6.9-4.5 3-1.4 6.6-2 10.7-2 2.5 0 4.7.3 6.5.9s3.3 1.4 4.6 2.4 2.2 2.1 3 3.4c.7 1.3 1.2 2.6 1.5 3.9.3 1.5.6 3 .7 4.5.1 1.6.2 3.1.2 4.7v29.5h-5.9v-29.6c0-1.4-.1-2.8-.2-4.2s-.4-2.6-.7-3.6c-1.3-4.4-5.3-6.7-11.8-6.7-1.5 0-2.9.2-4.3.5s-2.8.7-4 1.3c-1.3.5-2.4 1.1-3.5 1.8-1 .7-1.9 1.4-2.5 2.1-.6.6-.8 1.5-.8 2.6v35.8h-5.9v-48.5h.4c1.4 0 2.7.4 3.8 1.1.8.8 1.3 2.3 1.3 4.6z"/><path d="m1237.7 855.7v-73.7h.3.4.4c.4 0 .9 0 1.4.2.5.1 1.1.3 1.6.7s1 .9 1.3 1.6c.4.7.6 1.6.6 2.8v68.5zm9.4-25.6v-2.9l17.3-17c1-1 1.9-1.7 2.8-2.2s1.8-.8 2.8-.8c.5 0 1.1.1 1.6.3s.9.3 1.2.5c.4.3.8.5 1.1.7l-20.5 19.8 23.7 27.5c-1 .4-2.1.6-3.2.6-2.6 0-4.8-1.2-6.8-3.5z"/><path d="m1294 794.4c0 1.3-.4 2.4-1.3 3.4-.9.9-1.9 1.4-3.2 1.4-1.2 0-2.3-.5-3.2-1.4s-1.3-2.1-1.3-3.4.4-2.4 1.3-3.4c.9-.9 1.9-1.4 3.2-1.4 1.2 0 2.3.5 3.2 1.4s1.3 2.1 1.3 3.4zm-.2 61.8c-1.7 0-3-.3-3.9-.9s-1.6-1.4-2.1-2.4-.7-2.1-.8-3.4-.2-2.6-.2-4v-38.4h.3c1.4 0 2.7.4 3.8 1.1 1.2.7 1.8 2.2 1.8 4.3v33.3c0 1.5.1 2.8.3 3.7.2 1 .5 1.7.9 2.3s1 1 1.6 1.2c.7.2 1.5.4 2.4.5v2.2c-.8.2-1.5.3-2.2.4-.5.1-1.2.1-1.9.1z"/><path d="m1315.8 812.9c1.6-1.7 3.9-3.2 6.9-4.5 3-1.4 6.6-2 10.7-2 2.5 0 4.7.3 6.5.9s3.3 1.4 4.6 2.4 2.2 2.1 3 3.4c.7 1.3 1.2 2.6 1.5 3.9.3 1.5.6 3 .7 4.5.1 1.6.2 3.1.2 4.7v29.5h-5.9v-29.6c0-1.4-.1-2.8-.2-4.2s-.4-2.6-.7-3.6c-1.3-4.4-5.3-6.7-11.8-6.7-1.5 0-2.9.2-4.3.5s-2.8.7-4 1.3c-1.3.5-2.4 1.1-3.5 1.8-1 .7-1.9 1.4-2.5 2.1-.6.6-.8 1.5-.8 2.6v35.8h-5.9v-48.5h.4c1.4 0 2.7.4 3.8 1.1.8.8 1.3 2.3 1.3 4.6z"/><path d="m1405 853.1c0 2.2-.1 4.3-.2 6.3s-.4 3.9-.8 5.7c-1.1 4.6-3.4 8.1-7 10.6s-8.5 3.7-14.8 3.7c-3.7 0-6.9-.4-9.6-1.3s-4.7-1.9-5.9-3c-.6-.6-1-1-1.2-1.5-.2-.4-.3-.9-.3-1.3 0-.6.3-1.3.9-2s1.1-1.3 1.5-1.6c1 1.1 2.2 2.1 3.6 2.9 1.2.8 2.7 1.4 4.5 2 1.8.5 4 .8 6.4.8 9.8 0 15.2-4 16.4-11.9.3-1.7.5-3.5.5-5.2s.1-3.3.1-4.7v-1.8c-.6.5-1.2 1.2-2 1.9s-1.7 1.3-2.9 1.9c-1.1.6-2.5 1.1-4 1.5s-3.3.6-5.3.6c-2.8 0-5.5-.5-8.1-1.4s-4.8-2.4-6.8-4.5c-1.9-2-3.5-4.6-4.6-7.7s-1.7-6.9-1.7-11.2c0-4.9.7-8.9 2.1-12.2s3.1-5.9 5.2-7.8c2.1-2 4.5-3.4 7-4.2 2.6-.8 5-1.2 7.4-1.2 2.2 0 4.1.2 5.7.7s2.9 1.1 4 1.7c1.1.7 2 1.3 2.5 1.9.6.6 1 1 1.2 1.2 0-1.9.6-3.1 1.7-3.8s2.1-1 3-1h.4s.3.1.4.1h.4v45.8zm-34.8-22c0 2.9.3 5.5.8 8 .6 2.5 1.5 4.6 2.7 6.5s2.9 3.4 4.9 4.4c2 1.1 4.5 1.6 7.3 1.6 1.9 0 3.7-.3 5.3-.8s3-1.2 4.1-1.9c1.1-.8 2-1.6 2.7-2.5s1-1.8 1-2.6v-26.5c-.4-.5-1-1.1-1.7-1.8s-1.6-1.4-2.7-2-2.3-1.2-3.7-1.6c-1.4-.5-3-.7-4.7-.7-5.2 0-9.2 1.7-12 5-2.6 3.5-4 8.4-4 14.9z"/><path d="m1498.2 856.2h-7l-13.9-45.2-14.1 45.2h-7.1l-23.1-70c.3-.1.7-.1 1.1-.2s1-.1 1.6-.1c1.5 0 2.6.4 3.4 1.3s1.5 2.1 2.1 3.7l18.6 59.9 14.8-49.1-4.5-15.6c.3-.1.7-.1 1.1-.2.4 0 .9-.1 1.4-.1 1.5 0 2.6.4 3.4 1.3s1.5 2.1 1.9 3.7l16.9 59.7 17.9-59.4c.5-1.6 1.2-2.9 2.1-3.8.9-1 2.1-1.5 3.5-1.5.4 0 .8 0 1.2.1.4 0 .7.1 1.1.2z"/><path d="m1563.4 855.7c-1.3.3-2.5.5-3.7.5-2.1 0-3.9-.5-5.4-1.5s-2.4-2.7-2.5-5c-2 2-4.4 3.7-7.1 5s-6 2-9.7 2c-1.5 0-3.2-.2-5-.6s-3.5-1.1-5-2.1-2.8-2.5-3.8-4.3-1.5-4.2-1.5-7.1c0-3.5.9-6.4 2.8-8.7 1.9-2.2 4.2-4 7-5.2s5.7-2.1 8.9-2.5c3.2-.5 6.1-.7 8.6-.7h2.4s1.5.1 2.3.2v-2.7c0-1.7-.2-3.2-.5-4.7s-.9-2.7-1.8-3.7-2.1-1.9-3.6-2.5c-1.6-.6-3.6-.9-6.1-.9-3.3 0-6.2.5-8.6 1.4s-4.3 1.9-5.7 3h-.9c-1-1.4-1.5-2.5-1.5-3.4 0-.6.3-1 .8-1.5.5-.4 1.2-.9 1.9-1.3 1.8-1 4-1.7 6.7-2.3s5.3-.9 7.8-.9c3.4 0 6.2.4 8.4 1.1 2.2.8 4 1.9 5.4 3.4 1.3 1.5 2.3 3.3 2.8 5.5s.8 4.7.8 7.6v20.8c0 1.9.1 3.5.4 4.6s.7 2 1.1 2.5c.5.6 1.1 1 1.8 1.1.7.2 1.5.3 2.4.4zm-11.6-25.9c-.4-.1-.9-.1-1.3-.1-.5 0-.9 0-1.4 0-2.7 0-5.4.2-8.1.5s-5.2.9-7.5 1.9c-2.2.9-4 2.2-5.4 3.8s-2.1 3.7-2.1 6.4c0 1.2.1 2.3.5 3.5.3 1.1.8 2.1 1.6 3s1.8 1.6 3 2.1 2.9.8 4.9.8c2.1 0 4.2-.3 6.1-.9s3.6-1.4 5-2.3c1.5-.9 2.6-1.8 3.4-2.7s1.2-1.7 1.2-2.3v-13.7z"/><path d="m1595.9 807.2v4.8h-16.2v30.5c0 3.2.6 5.6 1.8 7.3s3.1 2.5 5.8 2.5c1.4 0 2.7-.2 3.8-.7s2.1-1 2.9-1.6c.9-.7 1.7-1.5 2.4-2.3 1 1 1.6 1.7 1.9 2.2s.5 1 .5 1.3c0 .4-.3 1-.8 1.6-.6.7-1.4 1.3-2.4 2s-2.3 1.2-3.7 1.7c-1.5.5-3.1.7-5 .7-3.4 0-6-.7-8-2-1.9-1.3-3.2-3.1-4-5.3-.4-1.2-.7-2.6-.8-4-.1-1.5-.2-3-.2-4.6v-49.1h.3.3.3c.4 0 .9 0 1.5.2s1.1.3 1.6.7 1 .9 1.4 1.6.6 1.6.6 2.8v9.7z"/><path d="m1644.5 849.8c0 .6-.4 1.4-1.2 2.2s-1.9 1.6-3.4 2.4-3.2 1.5-5.2 2-4.3.8-6.8.8c-3.3 0-6.4-.5-9.2-1.5s-5.2-2.5-7.3-4.6-3.6-4.8-4.7-8.1-1.7-7.2-1.7-11.8c0-4.4.6-8.1 1.8-11.3s2.8-5.7 4.9-7.7c2-2 4.4-3.5 7-4.5s5.3-1.5 8.1-1.5c3.4 0 6.3.6 8.7 1.8s4.4 2.7 5.9 4.7c1.5 1.9 2.6 4.2 3.3 6.7s1 5.1 1 7.8c0 1.7-.1 3.4-.3 5.3h-34.1c.1 2.9.4 5.6 1.1 8s1.7 4.5 3.1 6.2 3.1 3.1 5.2 4 4.5 1.4 7.4 1.4c2.1 0 4-.2 5.6-.7s3-1 4.1-1.7 2.1-1.3 2.8-2 1.3-1.3 1.6-1.8c.7.8 1.2 1.5 1.7 2.1.4.9.6 1.4.6 1.8zm-4.7-21.6c0-2.3-.2-4.5-.6-6.5s-1.1-3.8-2.2-5.4c-1-1.5-2.4-2.7-4.2-3.6s-4-1.4-6.6-1.4c-4.3 0-7.8 1.5-10.5 4.4s-4.1 7.1-4.3 12.5z"/><path d="m1665.2 812.8c.4-.6 1-1.3 1.7-2.1s1.5-1.5 2.5-2.1c1-.7 2.1-1.2 3.3-1.6s2.5-.6 4-.6c.6 0 1.4 0 2.2.2s1.6.3 2.3.5 1.3.6 1.8 1.1.7 1.1.7 1.9-.2 1.6-.7 2.4-.9 1.5-1.3 2c-.8-.8-1.6-1.4-2.6-1.8s-2.3-.6-3.8-.6c-1.2 0-2.5.2-3.7.7s-2.3 1.1-3.2 1.8c-.9.8-1.7 1.6-2.2 2.6-.6 1-.8 2-.8 3v35.7h-5.9v-48.5h.4c1.4 0 2.6.4 3.8 1.2.9.6 1.5 2.1 1.5 4.2z"/></g></svg>