<svg viewBox="0 0 1642.9 625.1" xmlns="http://www.w3.org/2000/svg"><g transform="translate(-182 -236.5)"><path d="m831.3 289.8c-3.9-17-14.4-23.6-31.5-23.6-24.1 0-34.5 20.6-34.5 44.2 0 22.3 8.2 44.8 35.3 44.8 17.2 0 27.9-11.6 31.6-27.4h9.8c-4.4 19.3-16.5 35.5-43.2 35.5-30.8 0-43-24.3-43-52.5 0-38.1 20-52.5 46.4-52.5 20.5 0 35.5 10.9 38.7 31.6h-9.6z"/><path d="m853.2 324.7c0-20.9 11.1-37.8 33.3-37.8 22.5 0 33.3 16.8 33.3 37.8 0 22.7-13.2 37.8-33.3 37.8-18.3-.2-33.3-12.7-33.3-37.8zm33.3-30.3c-17.5 0-24.4 14.8-24.4 30.4 0 17.9 8.5 30.4 24.4 30.4 17.5 0 24.4-15 24.4-30.4-.2-17-6.8-30.4-24.4-30.4z"/><path d="m940.8 360.6h-8.3v-71.8h8.3v10.8h.3c4.3-8.2 12.9-12.8 22.2-12.8 13.3 0 18 6.2 21.1 13.9 4.7-9.3 13.2-13.9 23.4-13.9 19.5 0 22.3 14 22.3 28.4v45.3h-8.3v-49.5c0-10.3-3.6-16.6-15.4-16.6a19.72 19.72 0 0 0 -16.2 8.2c-3.6 4.7-4.7 13.4-4.7 19.4v38.7h-8.3v-49.7c0-10.3-3.6-16.6-15.4-16.6a19.72 19.72 0 0 0 -16.2 8.2c-3.6 4.7-4.7 13.4-4.7 19.4v38.6z"/><path d="m1054.9 360.6h-8.3v-71.8h8.3v10.8h.3c4.3-8.2 12.9-12.8 22.2-12.8 13.3 0 18 6.2 21.1 13.9 4.7-9.3 13.2-13.9 23.4-13.9 19.5 0 22.3 14 22.3 28.4v45.3h-8.3v-49.5c0-10.3-3.6-16.6-15.4-16.6a19.72 19.72 0 0 0 -16.2 8.2c-3.6 4.7-4.7 13.4-4.7 19.4v38.7h-8.3v-49.7c0-10.3-3.6-16.6-15.4-16.6a19.72 19.72 0 0 0 -16.2 8.2c-3.6 4.7-4.7 13.4-4.7 19.4v38.6z"/><path d="m1210.4 288.8h8.3v71.8h-8.3v-10c-4.4 5-10.5 11.9-23.1 11.9-19.1 0-25.5-11.5-25.5-26.5v-47.3h8.3v47.3c0 12.3 5.4 19.1 18.4 19.1 13.7 0 21.9-11.4 21.9-27.2z"/><path d="m1245.8 360.6h-8.3v-71.8h8.3v10c6.7-7.1 13.2-11.9 23.1-11.9 8.7 0 16.8 2.8 21.9 10.3 3.5 5.1 3.6 10.5 3.6 16.5v47h-8.3v-46.8c0-12.9-5.3-19.4-18.6-19.4a21.09 21.09 0 0 0 -20 14c-1.7 4.6-1.8 8.6-1.8 13.6v38.5z"/><path d="m1314 273.2v-12.3h9.1v12.3zm.4 87.4v-71.8h8.3v71.8z"/><path d="m1367.7 360.9c-1.9.4-5.5 1.7-9.6 1.7-8.2 0-12.7-3.6-12.7-14.3v-52.5h-10.1v-6.9h10.1v-20h8.3v20h13.4v6.9h-13.4v49.2c0 7.1.3 10.1 7.2 10.1a26.64 26.64 0 0 0 6.8-1z"/><path d="m1380.5 273.2v-12.3h9.1v12.3zm.4 87.4v-71.8h8.3v71.8z"/><path d="m1414.2 326.7c-.1 15.5 8.2 28.4 24.1 28.4 10.8 0 19.3-6 21.8-16.5h9.3c-4.2 13.6-12.7 24-31 24-23 0-33-16.4-33-37.6 0-20.9 12.5-38.1 33-38.1 19.7 0 31.7 14 31.6 39.8zm46.8-7c0-14-7.8-25.4-22.7-25.4-14.7 0-22.5 11.8-24.1 25.4z"/><path d="m1489.6 338.2c2.6 12.3 9 16.9 21.5 16.9 12.1 0 17.7-6.4 17.7-13.3 0-20.8-46-6.1-46-34.4 0-11.9 9.3-20.5 25.2-20.5 15.5 0 25.6 6.4 27.7 22.6h-8.5c-1.5-11.1-9-15.1-19.4-15.1s-16.2 5-16.2 12.3c0 19.5 46 7.3 46 34.9 0 13.7-12.3 20.9-29.2 20.9s-26.6-10.8-27.3-24.4h8.5z"/><path d="m752 462.1v-6.9h10.7v-11.4c0-11.4 4.2-18.6 15.2-18.6a30.58 30.58 0 0 1 6.9.6v7.6a23.1 23.1 0 0 0 -5-.7c-8.6 0-8.9 7.1-8.9 13.6v8.9h13.9v6.9h-13.8v64.9h-8.3v-64.9z"/><path d="m791.7 491.1c0-20.9 11.1-37.8 33.3-37.8 22.5 0 33.3 16.8 33.3 37.8 0 22.7-13.2 37.8-33.3 37.8-18.4-.3-33.3-12.7-33.3-37.8zm33.2-30.4c-17.5 0-24.4 14.8-24.4 30.4 0 17.9 8.5 30.4 24.4 30.4 17.5 0 24.4-15 24.4-30.4-.1-16.9-6.8-30.4-24.4-30.4z"/><path d="m880.8 527h-8.3v-71.8h8.3v13.4h.3c4.6-11.5 11.4-15.4 23.4-15.4v9c-18.7-.4-23.7 13.4-23.7 29.5z"/><path d="m946.1 527 39.2-99.8h10.7l38.3 99.8h-9.7l-11.5-31.3h-45.5l-11.8 31.3zm24.7-39.4h39.1l-19.5-52.4z"/><path d="m1046.3 527v-99.8h8.3v99.8z"/><path d="m1099.7 527.2c-1.9.4-5.5 1.7-9.6 1.7-8.2 0-12.7-3.6-12.7-14.3v-52.5h-10.1v-6.9h10.1v-20h8.3v20h13.4v6.9h-13.4v49.2c0 7.1.3 10.1 7.2 10.1a26.64 26.64 0 0 0 6.8-1z"/><path d="m1116.7 493c-.1 15.5 8.2 28.4 24.1 28.4 10.8 0 19.3-6 21.8-16.5h9.3c-4.2 13.6-12.7 24-31 24-23 0-33-16.4-33-37.6 0-20.9 12.5-38.1 33-38.1 19.7 0 31.7 14 31.6 39.8zm46.9-6.9c0-14-7.8-25.4-22.7-25.4-14.7 0-22.5 11.8-24.1 25.4z"/><path d="m1196 527h-8.3v-71.8h8.3v13.4h.3c4.6-11.5 11.4-15.4 23.4-15.4v9c-18.7-.4-23.7 13.4-23.7 29.5z"/><path d="m1242.8 527h-8.3v-71.8h8.3v10c6.7-7.1 13.2-11.9 23.1-11.9 8.7 0 16.8 2.8 21.9 10.3 3.5 5.1 3.6 10.5 3.6 16.5v47h-8.3v-46.8c0-12.9-5.3-19.4-18.6-19.4a21.09 21.09 0 0 0 -20 14c-1.7 4.6-1.8 8.6-1.8 13.6v38.5z"/><path d="m1343.2 485.1c3-.3 8.2-1.1 11-2.4s3-5 3-7.5c0-8.5-5-14.6-17.9-14.6-11.5 0-19.4 3.7-20.9 16.2h-8.5c1.2-16.9 13.9-23.7 29.5-23.7 14.6 0 26.1 5.7 26.1 22.3v39.1c0 6.5 1.7 8 8.7 5.5v6.5a23.49 23.49 0 0 1 -6.5 1.4 14.48 14.48 0 0 1 -3.7-.4c-5.5-.8-6.5-5.7-6.6-10.7a35.07 35.07 0 0 1 -26.7 11.9c-12.6 0-24-6.8-24-20.6 0-12.1 8.3-19.4 25.1-21.6zm14 4.2c-7.1 2.9-14.3 3.5-21.5 4-12.6 1-20.2 5.5-20.2 15.2 0 8.7 7.6 12.9 15.5 12.9 13.2 0 26.2-6.4 26.2-20.9z"/><path d="m1411.1 527.2c-1.9.4-5.5 1.7-9.6 1.7-8.2 0-12.7-3.6-12.7-14.3v-52.5h-10.1v-6.9h10.1v-20h8.3v20h13.4v6.9h-13.4v49.2c0 7.1.3 10.1 7.2 10.1a26.64 26.64 0 0 0 6.8-1z"/><path d="m1423.9 439.5v-12.3h9.1v12.3zm.4 87.5v-71.8h8.3v71.8z"/><path d="m1444.8 455.2h9l23.3 61.5 23.3-61.5h9l-27.9 71.8h-9.3z"/><path d="m1525.5 493c-.1 15.5 8.2 28.4 24.1 28.4 10.8 0 19.3-6 21.8-16.5h9.3c-4.2 13.6-12.7 24-31 24-23 0-33-16.4-33-37.6 0-20.9 12.5-38.1 33-38.1 19.7 0 31.7 14 31.6 39.8zm46.8-6.9c0-14-7.8-25.4-22.7-25.4-14.7 0-22.5 11.8-24.1 25.4z"/><path d="m759.5 693.3v-99.8h64.3v8h-54.9v36h49.9v8h-49.9v47.7h-9.4z"/><path d="m830.2 657.4c0-20.9 11.1-37.8 33.3-37.8 22.5 0 33.3 16.8 33.3 37.8 0 22.7-13.2 37.8-33.3 37.8-18.3-.2-33.3-12.7-33.3-37.8zm33.3-30.4c-17.5 0-24.4 14.8-24.4 30.4 0 17.9 8.5 30.4 24.4 30.4 17.5 0 24.4-15 24.4-30.4-.2-16.9-6.8-30.4-24.4-30.4z"/><path d="m905.9 657.4c0-20.9 11.1-37.8 33.3-37.8 22.5 0 33.3 16.8 33.3 37.8 0 22.7-13.2 37.8-33.3 37.8-18.3-.2-33.3-12.7-33.3-37.8zm33.3-30.4c-17.5 0-24.4 14.8-24.4 30.4 0 17.9 8.5 30.4 24.4 30.4 17.5 0 24.4-15 24.4-30.4-.2-16.9-6.8-30.4-24.4-30.4z"/><path d="m1041.7 593.5h8.3v99.8h-8.3v-12.6h-.3c-4.8 9.4-15.8 14.6-24.9 14.6-23.1 0-32.4-16.5-32.4-37.7 0-20.1 10.1-38 32-38 10.1 0 20.4 4.7 25.6 13.4zm-24.2 33.5c-17.2 0-25.2 14.6-24.5 32.6.1 18 10.5 28.1 24.5 28.1 15.7 0 24.3-13.3 24.3-30.6-.1-16.2-9.2-30.1-24.3-30.1z"/><path d="m1108 693.3v-99.8h66.4v8h-57v36h51.4v8h-51.4v39.6h58.3v8h-67.7z"/><path d="m1240.9 644.1c-2.9-10.7-10.3-17-21.3-17-17 0-24.1 15.5-24.1 30.5s6.9 30.2 24.1 30.2c12.3 0 20.1-7.3 22-19.3h8.9c-2.9 15.9-12.9 26.7-30.9 26.7-22.9 0-33-16.5-33-37.7 0-20 11.5-38 33-38 16.5 0 27.3 7.9 29.8 24.5h-8.5z"/><path d="m1261 657.4c0-20.9 11.1-37.8 33.3-37.8 22.5 0 33.3 16.8 33.3 37.8 0 22.7-13.2 37.8-33.3 37.8-18.3-.2-33.3-12.7-33.3-37.8zm33.3-30.4c-17.5 0-24.4 14.8-24.4 30.4 0 17.9 8.5 30.4 24.4 30.4 17.5 0 24.4-15 24.4-30.4-.2-16.9-6.8-30.4-24.4-30.4z"/><path d="m1346.3 670.8c2.6 12.3 9 16.9 21.5 16.9 12.1 0 17.7-6.4 17.7-13.3 0-20.8-46-6.1-46-34.4 0-11.9 9.3-20.5 25.2-20.5 15.5 0 25.6 6.4 27.7 22.6h-8.5c-1.5-11.1-9-15.1-19.4-15.1s-16.2 5-16.2 12.3c0 19.5 46 7.3 46 34.9 0 13.7-12.3 20.9-29.2 20.9s-26.6-10.8-27.3-24.4h8.5z"/><path d="m1408.8 712.8a39.41 39.41 0 0 0 6.9.8c9.4 0 10.8-13.6 14-19.8l-27.9-72.3h9.3l23 61.7 23-61.7h9l-26.7 70.8c-6.8 18-11.2 29.2-22.7 29.2a31 31 0 0 1 -7.9-1z"/><path d="m1482.1 670.8c2.6 12.3 9 16.9 21.5 16.9 12.1 0 17.7-6.4 17.7-13.3 0-20.8-46-6.1-46-34.4 0-11.9 9.3-20.5 25.2-20.5 15.5 0 25.6 6.4 27.7 22.6h-8.5c-1.5-11.1-9-15.1-19.4-15.1s-16.2 5-16.2 12.3c0 19.5 46 7.3 46 34.9 0 13.7-12.3 20.9-29.2 20.9s-26.6-10.8-27.3-24.4h8.5z"/><path d="m1570.4 693.6c-1.9.4-5.5 1.7-9.6 1.7-8.2 0-12.7-3.6-12.7-14.3v-52.5h-10.1v-6.9h10.1v-20h8.3v20h13.4v6.9h-13.4v49.2c0 7.1.3 10.1 7.2 10.1a26.64 26.64 0 0 0 6.8-1z"/><path d="m1587.4 659.3c-.1 15.5 8.2 28.4 24.1 28.4 10.8 0 19.3-6 21.8-16.5h9.3c-4.2 13.6-12.7 24-31 24-23 0-33-16.4-33-37.6 0-20.9 12.5-38.1 33-38.1 19.7 0 31.7 14 31.6 39.8zm46.9-6.9c0-14-7.8-25.4-22.7-25.4-14.7 0-22.5 11.8-24.1 25.4z"/><path d="m1665.2 693.3h-8.3v-71.8h8.3v10.8h.3c4.3-8.2 12.9-12.8 22.2-12.8 13.3 0 18 6.2 21.1 13.9 4.7-9.3 13.2-13.9 23.4-13.9 19.5 0 22.3 14 22.3 28.4v45.3h-8.3v-49.6c0-10.3-3.6-16.6-15.4-16.6a19.72 19.72 0 0 0 -16.2 8.2c-3.6 4.7-4.7 13.4-4.7 19.4v38.7h-8.3v-49.6c0-10.3-3.6-16.6-15.4-16.6a19.72 19.72 0 0 0 -16.2 8.2c-3.6 4.7-4.7 13.4-4.7 19.4v38.6z"/><path d="m1776.9 670.8c2.6 12.3 9 16.9 21.5 16.9 12.1 0 17.7-6.4 17.7-13.3 0-20.8-46-6.1-46-34.4 0-11.9 9.3-20.5 25.2-20.5 15.5 0 25.6 6.4 27.7 22.6h-8.5c-1.5-11.1-9-15.1-19.4-15.1s-16.2 5-16.2 12.3c0 19.5 46 7.3 46 34.9 0 13.7-12.3 20.9-29.2 20.9s-26.6-10.8-27.3-24.4h8.5z"/><path d="m763.8 859.6v-99.8h9.4v99.8z"/><path d="m804.7 859.6h-8.3v-71.8h8.3v10c6.7-7.1 13.2-11.9 23.1-11.9 8.7 0 16.8 2.8 21.9 10.3 3.5 5.1 3.6 10.5 3.6 16.5v47h-8.3v-46.8c0-12.9-5.3-19.4-18.6-19.4a21.09 21.09 0 0 0 -20 14c-1.7 4.6-1.8 8.6-1.8 13.6v38.5z"/><path d="m872.9 772.2v-12.3h9.1v12.3zm.4 87.4v-71.8h8.3v71.8z"/><path d="m926.7 859.9c-1.9.4-5.5 1.7-9.6 1.7-8.2 0-12.7-3.6-12.7-14.3v-52.5h-10.1v-6.9h10.1v-20h8.3v20h13.4v6.9h-13.4v49.2c0 7.1.3 10.1 7.2 10.1a26.64 26.64 0 0 0 6.8-1z"/><path d="m939.4 772.2v-12.3h9.1v12.3zm.4 87.4v-71.8h8.3v71.8z"/><path d="m1001 817.8c3-.3 8.2-1.1 11-2.4s3-5 3-7.5c0-8.5-5-14.6-17.9-14.6-11.5 0-19.4 3.7-20.9 16.2h-8.5c1.2-16.9 13.9-23.7 29.5-23.7 14.6 0 26.1 5.7 26.1 22.3v39.1c0 6.5 1.7 8 8.7 5.5v6.5a23.49 23.49 0 0 1 -6.5 1.4 14.48 14.48 0 0 1 -3.7-.4c-5.5-.8-6.5-5.7-6.6-10.7a35.07 35.07 0 0 1 -26.7 11.9c-12.6 0-24-6.8-24-20.6 0-12.1 8.3-19.4 25.1-21.6zm14 4.1c-7.1 2.9-14.3 3.5-21.5 4-12.6 1-20.2 5.5-20.2 15.2 0 8.7 7.6 12.9 15.5 12.9 13.2 0 26.2-6.4 26.2-20.9z"/><path d="m1068.9 859.9c-1.9.4-5.5 1.7-9.6 1.7-8.2 0-12.7-3.6-12.7-14.3v-52.5h-10.1v-6.9h10.1v-20h8.3v20h13.4v6.9h-13.4v49.2c0 7.1.3 10.1 7.2 10.1a26.64 26.64 0 0 0 6.8-1z"/><path d="m1081.6 772.2v-12.3h9.1v12.3zm.5 87.4v-71.8h8.3v71.8z"/><path d="m1102.6 787.8h9l23.3 61.5 23.3-61.5h9l-27.9 71.8h-9.3z"/><path d="m1183.2 825.7c-.1 15.5 8.2 28.4 24.1 28.4 10.8 0 19.3-6 21.8-16.5h9.3c-4.2 13.6-12.7 24-31 24-23 0-33-16.4-33-37.6 0-20.9 12.5-38.1 33-38.1 19.7 0 31.7 14 31.6 39.8zm46.9-7c0-14-7.8-25.4-22.7-25.4-14.7 0-22.5 11.8-24.1 25.4z"/><g fill="#07c707"><path d="m259.8 782.7c-1.9-6.8-5.5-19.5-25-19.5-11.3 0-28 7.5-28 39.4 0 20.3 8 38.5 28 38.5 13 0 22.1-7.4 25-21.2h23.6c-4.7 24.5-20.7 41.6-49 41.6-30 0-51.5-20.3-51.5-59.2 0-39.4 22.8-59.5 51.8-59.5 33.8 0 47.4 23.2 48.7 39.9z"/><path d="m309.4 858.6h-24.8l40.2-112.8h27.2l39.7 112.8h-25.6l-7.2-23.2h-41.6zm14.2-42.7h28.7l-14-44.6h-.3z"/><path d="m428.8 858.6h-23.6v-112.8h80.3v20h-56.7v25.4h49.6v19.9h-49.6z"/><path d="m582.6 765.8h-59.8v23.7h55v19.9h-55v29.2h62.5v19.9h-85.6v-112.7h82.9z"/><path d="m659.5 765.1h-22v-20.4h22zm0 9.9v83.6h-22v-83.6z"/><path d="m422.5 236.5-240.5 180.1v281.5h223.4v-164.3h116v164.3h137.2v-282.1z"/></g></g></svg>